<svg width="16" height="16" viewBox="0 0 16 16" fill="none" xmlns="http://www.w3.org/2000/svg">
<path fill-rule="evenodd" clip-rule="evenodd" d="M4.0001 3.99923C4.00011 3.53593 4.13421 3.08254 4.38623 2.69378C4.63824 2.30502 4.99739 1.99752 5.42033 1.80838C5.84326 1.61925 6.3119 1.55657 6.76967 1.62791C7.22744 1.69925 7.65478 1.90156 8.0001 2.21043C8.39721 1.85451 8.90156 1.64099 9.43351 1.60357C9.96547 1.56616 10.4947 1.70697 10.9378 2.00379C11.3808 2.30061 11.7123 2.73653 11.8801 3.24273C12.0478 3.74893 12.0422 4.29658 11.8641 4.79923H12.8001C13.2244 4.79923 13.6314 4.9678 13.9315 5.26786C14.2315 5.56792 14.4001 5.97488 14.4001 6.39923C14.4001 6.82357 14.2315 7.23054 13.9315 7.5306C13.6314 7.83066 13.2244 7.99923 12.8001 7.99923H8.8001V7.19923C8.8001 6.98706 8.71581 6.78357 8.56578 6.63354C8.41575 6.48351 8.21227 6.39923 8.0001 6.39923C7.78792 6.39923 7.58444 6.48351 7.43441 6.63354C7.28438 6.78357 7.2001 6.98706 7.2001 7.19923V7.99923H3.2001C2.77575 7.99923 2.36878 7.83066 2.06873 7.5306C1.76867 7.23054 1.6001 6.82357 1.6001 6.39923C1.6001 5.97488 1.76867 5.56792 2.06873 5.26786C2.36878 4.9678 2.77575 4.79923 3.2001 4.79923H4.1361C4.0481 4.54883 4.0001 4.27923 4.0001 3.99923ZM7.2001 4.79923V3.99923C7.2001 3.841 7.15318 3.68633 7.06527 3.55477C6.97737 3.42321 6.85243 3.32067 6.70624 3.26012C6.56006 3.19957 6.39921 3.18373 6.24403 3.2146C6.08884 3.24547 5.94629 3.32166 5.83441 3.43354C5.72253 3.54542 5.64634 3.68797 5.61547 3.84316C5.5846 3.99834 5.60044 4.15919 5.66099 4.30537C5.72154 4.45156 5.82408 4.5765 5.95564 4.6644C6.0872 4.75231 6.24187 4.79923 6.4001 4.79923H7.2001ZM9.6001 4.79923C9.75832 4.79923 9.91299 4.75231 10.0446 4.6644C10.1761 4.5765 10.2787 4.45156 10.3392 4.30537C10.3998 4.15919 10.4156 3.99834 10.3847 3.84316C10.3539 3.68797 10.2777 3.54542 10.1658 3.43354C10.0539 3.32166 9.91135 3.24547 9.75617 3.2146C9.60098 3.18373 9.44013 3.19957 9.29395 3.26012C9.14777 3.32067 9.02283 3.42321 8.93492 3.55477C8.84702 3.68633 8.8001 3.841 8.8001 3.99923V4.79923H9.6001Z" fill="#DECEFF"/>
<path d="M7.1999 8.80078H2.3999V12.8008C2.3999 13.2251 2.56847 13.6321 2.86853 13.9322C3.16859 14.2322 3.57556 14.4008 3.9999 14.4008H7.1999V8.80078ZM8.7999 14.4008H11.9999C12.4242 14.4008 12.8312 14.2322 13.1313 13.9322C13.4313 13.6321 13.5999 13.2251 13.5999 12.8008V8.80078H8.7999V14.4008Z" fill="#DECEFF"/>
</svg>
