<svg xmlns="http://www.w3.org/2000/svg" viewBox="0 0 25 25" fill="none">
  <g clip-path="url(#clip0_1136_2204)">
    <path d="M12.5 24.5C19.1274 24.5 24.5 19.1274 24.5 12.5C24.5 5.87258 19.1274 0.5 12.5 0.5C5.87258 0.5 0.5 5.87258 0.5 12.5C0.5 19.1274 5.87258 24.5 12.5 24.5Z" fill="#627EEA" />
    <path d="M12.873 3.5V10.1525L18.4958 12.665L12.873 3.5Z" fill="white" fill-opacity="0.602" />
    <path d="M12.8735 3.5L7.25 12.665L12.8735 10.1525V3.5Z" fill="white" />
    <path d="M12.873 16.9759V21.4962L18.4995 13.7119L12.873 16.9759Z" fill="white" fill-opacity="0.602" />
    <path d="M12.8735 21.4962V16.9752L7.25 13.7119L12.8735 21.4962Z" fill="white" />
    <path d="M12.873 15.93L18.4958 12.6653L12.873 10.1543V15.93Z" fill="white" fill-opacity="0.2" />
    <path d="M7.25 12.6653L12.8735 15.93V10.1543L7.25 12.6653Z" fill="white" fill-opacity="0.602" />
  </g>
  <defs>
    <clipPath id="clip0_1136_2204">
      <rect width="24" height="24" fill="white" transform="translate(0.5 0.5)" />
    </clipPath>
  </defs>
</svg>
