<svg width="20" height="20" viewBox="0 0 20 20" xmlns="http://www.w3.org/2000/svg">
<path d="M13.586 3.58601C13.7705 3.39499 13.9912 3.24262 14.2352 3.13781C14.4792 3.03299 14.7416 2.97782 15.0072 2.97551C15.2728 2.9732 15.5361 3.0238 15.7819 3.12437C16.0277 3.22493 16.251 3.37343 16.4388 3.56122C16.6266 3.74901 16.7751 3.97231 16.8756 4.2181C16.9762 4.46389 17.0268 4.72725 17.0245 4.99281C17.0222 5.25837 16.967 5.52081 16.8622 5.76482C16.7574 6.00883 16.605 6.22952 16.414 6.41401L15.621 7.20701L12.793 4.37901L13.586 3.58601V3.58601ZM11.379 5.79301L3 14.172V17H5.828L14.208 8.62101L11.378 5.79301H11.379Z" fill="#00F0D0"/>
</svg>
