<svg width="32" height="32" viewBox="0 0 32 32" fill="none" xmlns="http://www.w3.org/2000/svg">
<g clip-path="url(#clip0_2411_55920)">
<mask id="mask0_2411_55920" style="mask-type:luminance" maskUnits="userSpaceOnUse" x="0" y="-1" width="32" height="33">
<path d="M0 -0.000244141H32V31.9998H0V-0.000244141Z" fill="white"/>
</mask>
<g mask="url(#mask0_2411_55920)">
<path d="M30.4882 15.9998C30.4882 7.99846 24.0018 1.51208 16.0005 1.51208C7.99907 1.51208 1.5127 7.99846 1.5127 15.9998C1.5127 24.0012 7.99907 30.4876 16.0005 30.4876C24.0018 30.4876 30.4882 24.0012 30.4882 15.9998Z" fill="white"/>
<path d="M16 5.32471L9.55469 16.2115L16 13.2183V5.32471Z" fill="#0052FF"/>
<path d="M16 20.0578L9.55469 16.1975L16 13.218V20.0578Z" fill="#6697FF"/>
<path d="M15.9994 21.3211L9.55469 17.4597L15.9994 26.6751V21.3211Z" fill="#0052FF"/>
<path d="M16 5.32471L22.445 16.2115L16 13.2183V5.32471Z" fill="#6697FF"/>
<path d="M16 20.0578L22.445 16.2112L16 13.218V20.0578Z" fill="#CCDCFF"/>
<path d="M16 21.3211L22.445 17.5295L16 26.6751V21.3211Z" fill="#6697FF"/>
<path fill-rule="evenodd" clip-rule="evenodd" d="M16.0003 2.27454C8.42005 2.27454 2.27503 8.41957 2.27503 15.9998C2.27503 23.58 8.42005 29.725 16.0003 29.725C23.5805 29.725 29.7255 23.58 29.7255 15.9998C29.7255 8.41957 23.5805 2.27454 16.0003 2.27454ZM0.75 15.9998C0.75 7.57735 7.57783 0.749512 16.0003 0.749512C24.4227 0.749512 31.2505 7.57735 31.2505 15.9998C31.2505 24.4222 24.4227 31.2501 16.0003 31.2501C7.57783 31.2501 0.75 24.4222 0.75 15.9998Z" fill="#0052FF"/>
</g>
<circle cx="16" cy="16" r="15" stroke="#8050E3" stroke-width="2"/>
</g>
<defs>
<clipPath id="clip0_2411_55920">
<rect width="32" height="32" fill="white"/>
</clipPath>
</defs>
</svg>
