<svg width="32" height="32" viewBox="0 0 32 32" fill="none" xmlns="http://www.w3.org/2000/svg">
<g clip-path="url(#clip0_2411_55909)">
<path d="M32 16C32 7.16344 24.8366 0 16 0C7.16344 0 0 7.16344 0 16C0 24.8366 7.16344 32 16 32C24.8366 32 32 24.8366 32 16Z" fill="#00A3FF"/>
<path opacity="0.6" d="M22.5637 14.8633L22.7428 15.1381C24.7632 18.2374 24.3119 22.2964 21.6579 24.8968C20.0966 26.4267 18.0503 27.1917 16.0039 27.1918L22.5637 14.8633Z" fill="white"/>
<path opacity="0.2" d="M16.0029 18.6103L22.5627 14.8633L16.0029 27.1918V18.6103Z" fill="white"/>
<path d="M9.43676 14.8633L9.25763 15.1381C7.23726 18.2374 7.68851 22.2964 10.3425 24.8968C11.9038 26.4267 13.9501 27.1917 15.9965 27.1918L9.43676 14.8633Z" fill="white"/>
<path opacity="0.6" d="M15.9943 18.6103L9.43457 14.8633L15.9943 27.1918V18.6103Z" fill="white"/>
<path opacity="0.2" d="M16.0049 10.2395V16.702L21.6554 13.4728L16.0049 10.2395Z" fill="white"/>
<path opacity="0.6" d="M16.0032 10.2395L10.3486 13.4728L16.0032 16.702V10.2395Z" fill="white"/>
<path d="M16.0032 4.80469L10.3486 13.4749L16.0032 10.2326V4.80469Z" fill="white"/>
<path opacity="0.6" d="M16.0049 10.2317L21.6597 13.4741L16.0049 4.79956V10.2317Z" fill="white"/>
<circle cx="16" cy="16" r="15" stroke="#8050E3" stroke-width="2"/>
</g>
<defs>
<clipPath id="clip0_2411_55909">
<rect width="32" height="32" fill="white"/>
</clipPath>
</defs>
</svg>
