<svg width="32" height="32" viewBox="0 0 32 32" fill="none" xmlns="http://www.w3.org/2000/svg">
<g clip-path="url(#clip0_2659_17167)">
<mask id="mask0_2659_17167" style="mask-type:luminance" maskUnits="userSpaceOnUse" x="0" y="0" width="32" height="32">
<path d="M0.0419922 0.1073H31.9297V31.9951H0.0419922V0.1073Z" fill="white"/>
</mask>
<g mask="url(#mask0_2659_17167)">
<path d="M31.3136 15.9895C31.3136 24.4876 24.4244 31.3768 15.9263 31.3768C7.42823 31.3768 0.539062 24.4876 0.539062 15.9895C0.539062 7.4914 7.42823 0.602234 15.9263 0.602234C24.4244 0.602234 31.3136 7.4914 31.3136 15.9895Z" fill="url(#paint0_linear_2659_17167)" stroke="black"/>
<path d="M15.9324 31.8548C7.16765 31.8548 0.0625 24.7665 0.0625 16.0226C0.0625 16.0226 7.16765 12.7647 15.9324 12.7647C24.6971 12.7647 31.8024 16.0226 31.8024 16.0226C31.8024 24.7665 24.6971 31.8548 15.9324 31.8548Z" fill="url(#paint1_linear_2659_17167)"/>
<path d="M24.6045 13.8033L15.9268 4.94196L7.24805 13.8033L11.5869 18.2336L15.9268 13.8033L20.2656 18.2336L24.6045 13.8033Z" fill="white"/>
<path d="M8.80899 26.0488L8.81014 26.0495C9.13227 26.2106 9.51414 26.2897 9.95377 26.2897C10.3931 26.2897 10.7726 26.2106 11.0902 26.0493L11.0905 26.0492C11.4126 25.8829 11.6583 25.6481 11.8257 25.345C11.9975 25.0375 12.0822 24.6773 12.0822 24.2667V20.7829H10.9571V24.2967C10.9571 24.6047 10.8685 24.8401 10.6978 25.0107L10.6972 25.0114C10.5326 25.1806 10.2885 25.2702 9.95377 25.2702C9.61933 25.2702 9.37219 25.1807 9.20234 25.011C9.0366 24.8404 8.95028 24.6051 8.95028 24.2967V20.7829H7.8252V24.2667C7.8252 24.6771 7.90725 25.037 8.07397 25.3445L8.07463 25.3457C8.24677 25.6481 8.49211 25.8826 8.80899 26.0488ZM13.7885 24.1257H13.7229V24.4021C13.7229 24.7939 13.8131 25.1331 13.9969 25.4165C14.1797 25.6986 14.4329 25.9148 14.7546 26.0652C15.0759 26.2156 15.4445 26.2897 15.859 26.2897C16.2725 26.2897 16.6337 26.2208 16.9403 26.0805L16.9408 26.0803C17.2511 25.9354 17.492 25.7374 17.6602 25.4851C17.8336 25.2275 17.9198 24.931 17.9198 24.5978C17.9198 24.2659 17.8392 23.9875 17.673 23.7678C17.5097 23.5517 17.2818 23.3797 16.9926 23.2506C16.7113 23.1227 16.3805 23.0187 16.0008 22.9376L15.8277 22.9C15.6192 22.8556 15.4509 22.8039 15.3209 22.7461C15.1929 22.6892 15.1 22.6201 15.0382 22.5408C14.9827 22.4635 14.9533 22.3675 14.9533 22.2489C14.9533 22.0712 15.016 21.9379 15.1391 21.8412L15.1392 21.8411C15.2681 21.739 15.4737 21.6821 15.7686 21.6821C15.963 21.6821 16.1273 21.7113 16.263 21.7674L16.2647 21.7682C16.3976 21.8186 16.4959 21.8997 16.563 22.0116L16.5638 22.0129L16.5648 22.0142C16.6355 22.1205 16.6741 22.2671 16.6741 22.4597V22.7512H17.7843V22.4597C17.7843 22.0687 17.6968 21.739 17.5173 21.4748C17.3443 21.2076 17.1032 21.0089 16.7962 20.8786C16.4954 20.7439 16.1524 20.6774 15.7686 20.6774C15.3851 20.6774 15.0469 20.7414 14.7557 20.8712C14.4694 20.9963 14.2434 21.1796 14.0805 21.4216L14.0803 21.422C13.9211 21.6604 13.8433 21.9473 13.8433 22.2791C13.8433 22.6091 13.9129 22.8841 14.0578 23.0988L14.0585 23.0996C14.2063 23.3109 14.4139 23.4808 14.6781 23.6103L14.6796 23.6109C14.9458 23.7338 15.2617 23.8356 15.6265 23.9167L15.7996 23.9542C16.0234 24.004 16.2107 24.0584 16.3623 24.117L16.3635 24.1175L16.3646 24.1178C16.5187 24.1708 16.6278 24.2386 16.6982 24.3177L16.6995 24.3192C16.7714 24.3953 16.8096 24.4961 16.8096 24.628C16.8096 24.8181 16.7342 24.9725 16.5786 25.0961L16.5778 25.0967C16.4291 25.2183 16.1936 25.2851 15.859 25.2851C15.5326 25.2851 15.2828 25.2098 15.1022 25.0664C14.9256 24.9211 14.833 24.7038 14.833 24.4021V24.1257H13.7885ZM19.5603 26.1187V26.1844H21.7943C22.5124 26.1844 23.0685 26.0035 23.4512 25.6312C23.8395 25.2536 24.0282 24.6994 24.0282 23.9807V22.9868C24.0282 22.2682 23.8395 21.7164 23.4512 21.3435C23.0685 20.9664 22.5124 20.7829 21.7943 20.7829H19.5603V21.7876H20.253V25.1797H19.5603V26.1187ZM22.6409 22.1117L22.6415 22.1122C22.8127 22.3019 22.9031 22.58 22.9031 22.9566V24.0107C22.9031 24.3819 22.8128 24.6605 22.6409 24.8556C22.4723 25.0472 22.2003 25.1497 21.8094 25.1497H21.3781V21.8176H21.8094C22.2003 21.8176 22.4723 21.9202 22.6409 22.1117Z" fill="#1F2333" stroke="#1F2333" stroke-width="0.8"/>
<path d="M20.6343 4.00621C20.6509 3.87 20.8527 3.87 20.8693 4.00621L21.0078 5.15C21.1865 6.62692 22.3748 7.79123 23.8817 7.96633L25.0487 8.10204C25.1878 8.11829 25.1878 8.31603 25.0487 8.33228L23.8817 8.46799C22.3748 8.64325 21.1865 9.80756 21.0078 11.2845L20.8693 12.4283C20.8527 12.5645 20.6509 12.5645 20.6343 12.4283L20.496 11.2845C20.3171 9.80756 19.129 8.64325 17.6221 8.46799L16.455 8.33228C16.3158 8.31603 16.3158 8.11829 16.455 8.10204L17.6221 7.96633C19.129 7.79107 20.3171 6.62676 20.496 5.15L20.6343 4.00621Z" fill="url(#paint2_linear_2659_17167)"/>
<path d="M30.8136 15.9895C30.8136 24.2114 24.1483 30.8768 15.9263 30.8768C7.70437 30.8768 1.03906 24.2114 1.03906 15.9895C1.03906 7.76754 7.70437 1.10223 15.9263 1.10223C24.1483 1.10223 30.8136 7.76754 30.8136 15.9895Z" stroke="#8050E3" stroke-width="2"/>
</g>
</g>
<defs>
<linearGradient id="paint0_linear_2659_17167" x1="5.19123" y1="25.6174" x2="22.9373" y2="9.83401" gradientUnits="userSpaceOnUse">
<stop offset="0.073" stop-color="#C3EEE4"/>
<stop offset="1" stop-color="#2AC8A5"/>
</linearGradient>
<linearGradient id="paint1_linear_2659_17167" x1="6.31497" y1="15.86" x2="14.2572" y2="30.7072" gradientUnits="userSpaceOnUse">
<stop offset="0.073" stop-color="#C3EEE4"/>
<stop offset="1" stop-color="#2AC8A5"/>
</linearGradient>
<linearGradient id="paint2_linear_2659_17167" x1="20.1829" y1="9.04432" x2="23.6151" y2="6.00908" gradientUnits="userSpaceOnUse">
<stop stop-color="#FDCEAA"/>
<stop offset="1" stop-color="#FAF1E7"/>
</linearGradient>
<clipPath id="clip0_2659_17167">
<rect width="32" height="32" fill="white"/>
</clipPath>
</defs>
</svg>
