<svg width="32" height="32" viewBox="0 0 32 32" fill="none" xmlns="http://www.w3.org/2000/svg">
<g clip-path="url(#clip0_2659_17153)">
<path d="M16 1C24.2839 1 31 7.71612 31 16C31 24.2839 24.2836 31 16 31C7.71635 31 1 24.2857 1 16C1 7.71424 7.71512 1 16 1Z" fill="#53AE94" stroke="#8050E3" stroke-width="2"/>
<path d="M17.9752 13.8682V11.488H23.418V7.86145H8.59692V11.488H14.0404V13.8663C9.61644 14.0695 6.29004 14.9456 6.29004 15.9952C6.29004 17.0448 9.61804 17.921 14.0404 18.1255V25.7495H17.9764V18.1248C22.3924 17.921 25.7121 17.0455 25.7121 15.9968C25.7121 14.9482 22.3924 14.0727 17.9764 13.8688M17.9764 17.4791V17.4771C17.8654 17.4842 17.2948 17.5184 16.0244 17.5184C15.0088 17.5184 14.2942 17.4896 14.0424 17.4765V17.4797C10.1339 17.3066 7.21644 16.6259 7.21644 15.8115C7.21644 14.9971 10.1342 14.3175 14.0424 14.144V16.8016C14.2984 16.8192 15.0305 16.8624 16.0411 16.8624C17.2548 16.8624 17.8651 16.8119 17.9771 16.8016V14.144C21.8779 14.3178 24.7886 14.9991 24.7886 15.8106C24.7886 16.6221 21.8766 17.3037 17.9771 17.4775" fill="white"/>
</g>
<defs>
<clipPath id="clip0_2659_17153">
<rect width="32" height="32" fill="white"/>
</clipPath>
</defs>
</svg>
