<svg width="32" height="32" viewBox="0 0 32 32" fill="none" xmlns="http://www.w3.org/2000/svg">
<g clip-path="url(#clip0_3171_17417)">
<mask id="mask0_3171_17417" style="mask-type:luminance" maskUnits="userSpaceOnUse" x="0" y="-1" width="32" height="33">
<path d="M0 -0.000244141H32V31.9998H0V-0.000244141Z" fill="white"/>
</mask>
<g mask="url(#mask0_3171_17417)">
<path d="M30.4882 15.9998C30.4882 7.99846 24.0018 1.51208 16.0005 1.51208C7.99907 1.51208 1.5127 7.99846 1.5127 15.9998C1.5127 24.0012 7.99907 30.4876 16.0005 30.4876C24.0018 30.4876 30.4882 24.0012 30.4882 15.9998Z" fill="white"/>
<path d="M16 5.32471L9.55469 16.2115L16 13.2183V5.32471Z" fill="#0052FF"/>
<path d="M16 20.0578L9.55469 16.1975L16 13.218V20.0578Z" fill="#6697FF"/>
<path d="M15.9994 21.3211L9.55469 17.4597L15.9994 26.6751V21.3211Z" fill="#0052FF"/>
<path d="M16 5.32471L22.445 16.2115L16 13.2183V5.32471Z" fill="#6697FF"/>
<path d="M16 20.0578L22.445 16.2112L16 13.218V20.0578Z" fill="#CCDCFF"/>
<path d="M16 21.3211L22.445 17.5295L16 26.6751V21.3211Z" fill="#6697FF"/>
<path fill-rule="evenodd" clip-rule="evenodd" d="M16.0003 2.27454C8.42005 2.27454 2.27503 8.41957 2.27503 15.9998C2.27503 23.58 8.42005 29.725 16.0003 29.725C23.5805 29.725 29.7255 23.58 29.7255 15.9998C29.7255 8.41957 23.5805 2.27454 16.0003 2.27454ZM0.75 15.9998C0.75 7.57735 7.57783 0.749512 16.0003 0.749512C24.4227 0.749512 31.2505 7.57735 31.2505 15.9998C31.2505 24.4222 24.4227 31.2501 16.0003 31.2501C7.57783 31.2501 0.75 24.4222 0.75 15.9998Z" fill="#0052FF"/>
</g>
<g clip-path="url(#clip1_3171_17417)">
<mask id="mask1_3171_17417" style="mask-type:luminance" maskUnits="userSpaceOnUse" x="0" y="0" width="32" height="32">
<path d="M32 0H0V32H32V0Z" fill="white"/>
</mask>
<g mask="url(#mask1_3171_17417)">
<path d="M16 32C24.8365 32 32 24.8365 32 16C32 7.16347 24.8365 0 16 0C7.16347 0 0 7.16347 0 16C0 24.8365 7.16347 32 16 32Z" fill="url(#paint0_radial_3171_17417)"/>
<mask id="mask2_3171_17417" style="mask-type:alpha" maskUnits="userSpaceOnUse" x="0" y="0" width="32" height="32">
<path d="M16 32C24.8365 32 32 24.8365 32 16C32 7.16347 24.8365 0 16 0C7.16347 0 0 7.16347 0 16C0 24.8365 7.16347 32 16 32Z" fill="url(#paint1_radial_3171_17417)"/>
</mask>
<g mask="url(#mask2_3171_17417)">
<path opacity="0.2" d="M-0.53418 8.80003C-0.53418 8.44659 -0.247642 8.16003 0.10582 8.16003H8.85249C9.20593 8.16003 9.49249 8.44659 9.49249 8.80003V23.68C9.49249 24.0335 9.20593 24.32 8.85249 24.32H0.10582C-0.247642 24.32 -0.53418 24.0335 -0.53418 23.68V8.80003Z" fill="url(#paint2_linear_3171_17417)"/>
<path opacity="0.2" d="M19.3066 21.7067C19.3066 21.3532 19.5932 21.0667 19.9466 21.0667H31.36C31.7134 21.0667 32 21.3532 32 21.7067V27.2533C32 27.6068 31.7134 27.8933 31.36 27.8933H19.9466C19.5932 27.8933 19.3066 27.6068 19.3066 27.2533V21.7067Z" fill="#E74310"/>
<path opacity="0.2" d="M26.7195 23.4133C27.073 23.4133 27.3595 23.6999 27.3595 24.0533V34.8267C27.3595 35.1801 27.073 35.4667 26.7195 35.4667H22.5062C22.1528 35.4667 21.8662 35.1801 21.8662 34.8267V24.0533C21.8662 23.6999 22.1528 23.4133 22.5062 23.4133H26.7195Z" fill="#DF3600"/>
<path opacity="0.1" d="M12.9599 10.4C13.3133 10.4 13.5999 10.6866 13.5999 11.04V19.6267C13.5999 19.9801 13.3133 20.2667 12.9599 20.2667H8.21324C7.8598 20.2667 7.57324 19.9801 7.57324 19.6267V11.04C7.57324 10.6866 7.8598 10.4 8.21324 10.4H12.9599Z" fill="url(#paint3_linear_3171_17417)"/>
<path opacity="0.1" d="M3.04004 12.9601C3.04004 12.6066 3.32658 12.3201 3.68004 12.3201H11.4667C11.8201 12.3201 12.1067 12.6066 12.1067 12.9601V21.1201C12.1067 21.4735 11.8201 21.7601 11.4667 21.7601H3.68004C3.32658 21.7601 3.04004 21.4735 3.04004 21.1201V12.9601Z" fill="url(#paint4_linear_3171_17417)"/>
<path opacity="0.2" d="M31.9995 4.37341C32.3529 4.37341 32.6395 4.65995 32.6395 5.01341V15.7867C32.6395 16.1402 32.3529 16.4267 31.9995 16.4267H22.0795C21.726 16.4267 21.4395 16.1402 21.4395 15.7867V5.01341C21.4395 4.65995 21.726 4.37341 22.0795 4.37341H31.9995Z" fill="#FF9776"/>
<path opacity="0.2" d="M25.9728 -2.77332C26.3262 -2.77332 26.6128 -2.48678 26.6128 -2.13332V9.70668C26.6128 10.0601 26.3262 10.3467 25.9728 10.3467H20.4261C20.0727 10.3467 19.7861 10.0601 19.7861 9.70668V-2.13332C19.7861 -2.48678 20.0727 -2.77332 20.4261 -2.77332H25.9728Z" fill="#FFCA8C"/>
<path opacity="0.2" d="M28.8525 -0.640015C29.206 -0.640015 29.4925 -0.353477 29.4925 -1.41182e-05V13.1733C29.4925 13.5268 29.206 13.8133 28.8525 13.8133H16.7992C16.4457 13.8133 16.1592 13.5268 16.1592 13.1733V-1.43216e-05C16.1592 -0.353477 16.4457 -0.640015 16.7992 -0.640015H28.8525Z" fill="url(#paint5_linear_3171_17417)"/>
<path opacity="0.1" d="M11.3065 -4.37329C11.6599 -4.37329 11.9465 -4.08675 11.9465 -3.73329V5.12004C11.9465 5.47348 11.6599 5.76004 11.3065 5.76004H7.09313C6.73969 5.76004 6.45312 5.47348 6.45312 5.12004V-3.73329C6.45312 -4.08675 6.73969 -4.37329 7.09313 -4.37329H11.3065Z" fill="#DF3600"/>
<path opacity="0.1" d="M11.7858 23.0934C12.1392 23.0934 12.4258 23.3799 12.4258 23.7334V31.3601C12.4258 31.7135 12.1392 32.0001 11.7858 32.0001H1.06578C0.71232 32.0001 0.425781 31.7135 0.425781 31.3601L0.425782 23.7334C0.425782 23.3799 0.71232 23.0934 1.06578 23.0934H11.7858Z" fill="#DF3600"/>
<path opacity="0.1" d="M21.226 18.8267C21.5794 18.8267 21.866 19.1132 21.866 19.4667V31.36C21.866 31.7134 21.5794 32 21.226 32H8.95934C8.6059 32 8.31934 31.7134 8.31934 31.36V19.4667C8.31934 19.1132 8.6059 18.8267 8.95934 18.8267H21.226Z" fill="#FFD494"/>
<path opacity="0.2" d="M17.1724 5.59504e-07C17.5259 5.74955e-07 17.8124 0.286538 17.8124 0.64V3.73333C17.8124 4.08679 17.5259 4.37333 17.1724 4.37333H4.37242C4.01896 4.37333 3.73242 4.08679 3.73242 3.73333V0.64C3.73242 0.286538 4.01896 -1.54503e-08 4.37242 0L17.1724 5.59504e-07Z" fill="#FFD494"/>
<path opacity="0.1" d="M7.07938 31.6884L31.0479 7.71997L30.2258 6.89794L6.25735 30.8664L7.07938 31.6884Z" fill="#DF3600"/>
<path opacity="0.1" d="M5.28153 29.9438L29.25 5.97534L28.1797 4.90508L4.21127 28.8736L5.28153 29.9438Z" fill="#DF3600"/>
<path opacity="0.1" d="M4.26981 28.8254L28.2383 4.85693L27.168 3.78668L3.19955 27.7551L4.26981 28.8254Z" fill="#F45C2C"/>
<path opacity="0.2" d="M3.30985 27.6521L27.2783 3.68359L26.3975 2.80275L2.429 26.7712L3.30985 27.6521Z" fill="#F45C2C"/>
<path opacity="0.1" d="M2.42704 26.7694L26.3955 2.8009L25.5147 1.92006L1.54619 25.8885L2.42704 26.7694Z" fill="#FFBC6E"/>
<path opacity="0.1" d="M1.84013 25.596L25.8086 1.62756L24.9277 0.746716L0.959278 24.7152L1.84013 25.596Z" fill="#DF3600"/>
<path opacity="0.09" d="M-0.986275 18.556L17.9131 -0.343384L17.0322 -1.22423L-1.86712 17.6751L-0.986275 18.556Z" fill="#FFD5A4"/>
<path opacity="0.08" d="M-1.99995 17.4869L16.8994 -1.41248L16.0186 -2.29332L-2.88079 16.606L-1.99995 17.4869Z" fill="#FFD5A4"/>
<path opacity="0.05" d="M-2.9062 16.2602L15.9932 -2.63916L15.1123 -3.52001L-3.78704 15.3794L-2.9062 16.2602Z" fill="#FFD5A4"/>
<path opacity="0.2" d="M0.507526 21.1247L22.458 -0.825806L21.5772 -1.70665L-0.373321 20.2438L0.507526 21.1247Z" fill="#FFD5A4"/>
<path opacity="0.2" d="M1.09346 22.5114L23.0439 0.560913L22.1631 -0.319935L0.212616 21.6305L1.09346 22.5114Z" fill="#FFD5A4"/>
<path opacity="0.1" d="M0.133482 19.5161L19.6152 0.0343018L18.7344 -0.846546L-0.747366 18.6352L0.133482 19.5161Z" fill="#FFD5A4"/>
<path opacity="0.1" d="M7.04423 31.7064L31.0127 7.73792L29.2554 5.98058L5.28689 29.949L7.04423 31.7064Z" fill="#DF3600"/>
<path opacity="0.1" d="M7.04423 31.7064L31.0127 7.73792L29.2464 5.97163L5.27794 29.9401L7.04423 31.7064Z" fill="#DF3600"/>
</g>
<path d="M15.9761 19.4523L9.88867 15.8513L15.9761 5.75293L22.0581 15.8513L15.9761 19.4523Z" fill="white"/>
<path d="M15.9761 25.5835L9.88867 17.0098L15.9761 20.6054L22.0636 17.0098L15.9761 25.5835Z" fill="white"/>
</g>
</g>
<circle cx="16" cy="16" r="15" stroke="#8050E3" stroke-width="2"/>
</g>
<defs>
<radialGradient id="paint0_radial_3171_17417" cx="0" cy="0" r="1" gradientUnits="userSpaceOnUse" gradientTransform="translate(10.4533 7.65333) rotate(54.1675) scale(26.511)">
<stop stop-color="#FFD794"/>
<stop offset="1" stop-color="#ED5A37"/>
</radialGradient>
<radialGradient id="paint1_radial_3171_17417" cx="0" cy="0" r="1" gradientUnits="userSpaceOnUse" gradientTransform="translate(10.4533 7.65333) rotate(54.1675) scale(26.511)">
<stop stop-color="#FFD794"/>
<stop offset="1" stop-color="#ED5A37"/>
</radialGradient>
<linearGradient id="paint2_linear_3171_17417" x1="4.47915" y1="8.16003" x2="4.47915" y2="24.32" gradientUnits="userSpaceOnUse">
<stop stop-color="#FFE090"/>
<stop offset="1" stop-color="#FFE090" stop-opacity="0"/>
</linearGradient>
<linearGradient id="paint3_linear_3171_17417" x1="10.5599" y1="10.4" x2="10.5599" y2="19.52" gradientUnits="userSpaceOnUse">
<stop stop-color="#DF3600"/>
<stop offset="1" stop-color="#DF3600" stop-opacity="0"/>
</linearGradient>
<linearGradient id="paint4_linear_3171_17417" x1="3.04004" y1="17.0818" x2="11.4206" y2="17.0818" gradientUnits="userSpaceOnUse">
<stop stop-color="#DF3600"/>
<stop offset="1" stop-color="#DF3600" stop-opacity="0"/>
</linearGradient>
<linearGradient id="paint5_linear_3171_17417" x1="22.8258" y1="-0.640015" x2="22.8258" y2="13.8133" gradientUnits="userSpaceOnUse">
<stop stop-color="#DF3600"/>
<stop offset="1" stop-color="#DF3600" stop-opacity="0"/>
</linearGradient>
<clipPath id="clip0_3171_17417">
<rect width="32" height="32" fill="white"/>
</clipPath>
<clipPath id="clip1_3171_17417">
<rect width="32" height="32" fill="white"/>
</clipPath>
</defs>
</svg>
