<svg width="177" height="60" viewBox="0 0 177 60" fill="none" xmlns="http://www.w3.org/2000/svg">
<path d="M42.6572 25.4C42.6572 17.64 48.2172 12.32 55.5772 12.32C63.2972 12.32 67.4172 17.24 67.8972 23.52L61.3772 23.76C60.9772 20.96 59.4572 18.36 55.5372 18.36C51.8172 18.36 49.6572 21.12 49.6572 25.4C49.6572 29.68 51.8172 32.44 55.5372 32.44C59.4572 32.44 60.9772 29.84 61.3772 27.04L67.8972 27.32C67.4172 33.6 63.2972 38.48 55.5772 38.48C48.2172 38.48 42.6572 33.16 42.6572 25.4ZM80.695 30.56V30.28L78.055 30.76C76.495 31.08 75.575 31.56 75.575 32.72C75.575 33.64 76.295 34.24 77.375 34.24C79.215 34.24 80.695 32.88 80.695 30.56ZM87.055 26.68V32.76C87.055 33.68 87.455 34.08 88.135 34.08C88.655 34.08 89.055 34 89.575 33.8V37.24C88.655 37.88 87.375 38.4 85.535 38.4C83.335 38.4 81.615 37.28 81.015 35.24C79.975 37.32 77.935 38.4 75.095 38.4C71.615 38.4 69.335 36.6 69.335 33.56C69.335 30.12 71.815 28.64 75.695 27.96L80.695 27.12V26.84C80.695 25.36 80.015 24.48 78.455 24.48C77.015 24.48 76.295 25.4 76.015 26.72L70.015 26.32C70.575 22.4 73.495 19.68 78.855 19.68C83.575 19.68 87.055 21.72 87.055 26.68ZM97.9487 28.96V29.2C97.9487 31.8 99.3487 33.48 101.549 33.48C104.069 33.48 105.229 31.68 105.229 29.08C105.229 26.52 104.069 24.72 101.549 24.72C99.3487 24.72 97.9487 26.4 97.9487 28.96ZM97.5887 34.92L96.4687 38H91.4687V12.8H97.9487V23.24C98.8287 21.12 100.829 19.68 103.829 19.68C109.069 19.68 111.749 23.84 111.749 29.08C111.749 34.36 109.069 38.48 103.709 38.48C100.829 38.48 98.5887 37.08 97.5887 34.92ZM124.64 30.56V30.28L122 30.76C120.44 31.08 119.52 31.56 119.52 32.72C119.52 33.64 120.24 34.24 121.32 34.24C123.16 34.24 124.64 32.88 124.64 30.56ZM131 26.68V32.76C131 33.68 131.4 34.08 132.08 34.08C132.6 34.08 133 34 133.52 33.8V37.24C132.6 37.88 131.32 38.4 129.48 38.4C127.28 38.4 125.56 37.28 124.96 35.24C123.92 37.32 121.88 38.4 119.04 38.4C115.56 38.4 113.28 36.6 113.28 33.56C113.28 30.12 115.76 28.64 119.64 27.96L124.64 27.12V26.84C124.64 25.36 123.96 24.48 122.4 24.48C120.96 24.48 120.24 25.4 119.96 26.72L113.96 26.32C114.52 22.4 117.44 19.68 122.8 19.68C127.52 19.68 131 21.72 131 26.68ZM141.894 29.24V38H135.414V20.16H141.894V22.84C142.854 20.88 144.974 19.68 147.654 19.68C152.534 19.68 154.094 23.08 154.094 26.8V38H147.614V28.52C147.614 26.08 146.934 24.8 144.974 24.8C142.774 24.8 141.894 26.56 141.894 29.24ZM167.726 30.56V30.28L165.086 30.76C163.526 31.08 162.606 31.56 162.606 32.72C162.606 33.64 163.326 34.24 164.406 34.24C166.246 34.24 167.726 32.88 167.726 30.56ZM174.086 26.68V32.76C174.086 33.68 174.486 34.08 175.166 34.08C175.686 34.08 176.086 34 176.606 33.8V37.24C175.686 37.88 174.406 38.4 172.566 38.4C170.366 38.4 168.646 37.28 168.046 35.24C167.006 37.32 164.966 38.4 162.126 38.4C158.646 38.4 156.366 36.6 156.366 33.56C156.366 30.12 158.846 28.64 162.726 27.96L167.726 27.12V26.84C167.726 25.36 167.046 24.48 165.486 24.48C164.046 24.48 163.326 25.4 163.046 26.72L157.046 26.32C157.606 22.4 160.526 19.68 165.886 19.68C170.606 19.68 174.086 21.72 174.086 26.68Z" fill="#DECEFF"/>
<path d="M114.46 56V45.8182H120.565V46.9119H115.693V50.3523H120.108V51.446H115.693V56H114.46ZM121.823 56H120.531L124.269 45.8182H125.542L129.281 56H127.988L124.945 47.429H124.866L121.823 56ZM122.3 52.0227H127.511V53.1165H122.3V52.0227ZM138.581 49H137.348C137.275 48.6454 137.148 48.3338 136.965 48.0653C136.786 47.7969 136.568 47.5715 136.309 47.3892C136.054 47.2036 135.771 47.0644 135.459 46.9716C135.147 46.8788 134.823 46.8324 134.485 46.8324C133.868 46.8324 133.31 46.9882 132.809 47.2997C132.312 47.6113 131.916 48.0703 131.621 48.6768C131.329 49.2834 131.183 50.0275 131.183 50.9091C131.183 51.7907 131.329 52.5348 131.621 53.1413C131.916 53.7479 132.312 54.2069 132.809 54.5185C133.31 54.83 133.868 54.9858 134.485 54.9858C134.823 54.9858 135.147 54.9394 135.459 54.8466C135.771 54.7538 136.054 54.6162 136.309 54.4339C136.568 54.2483 136.786 54.0213 136.965 53.7528C137.148 53.4811 137.275 53.1695 137.348 52.8182H138.581C138.488 53.3385 138.319 53.8042 138.074 54.2152C137.829 54.6262 137.524 54.9759 137.159 55.2642C136.795 55.5492 136.385 55.7663 135.931 55.9155C135.481 56.0646 134.998 56.1392 134.485 56.1392C133.616 56.1392 132.844 55.9271 132.168 55.5028C131.492 55.0786 130.96 54.4754 130.572 53.6932C130.184 52.911 129.99 51.983 129.99 50.9091C129.99 49.8352 130.184 48.9072 130.572 48.125C130.96 47.3428 131.492 46.7396 132.168 46.3153C132.844 45.8911 133.616 45.679 134.485 45.679C134.998 45.679 135.481 45.7536 135.931 45.9027C136.385 46.0518 136.795 46.2706 137.159 46.5589C137.524 46.844 137.829 47.192 138.074 47.603C138.319 48.0107 138.488 48.4763 138.581 49ZM140.017 46.9119V45.8182H147.653V46.9119H144.451V56H143.218V46.9119H140.017ZM157.723 50.9091C157.723 51.983 157.529 52.911 157.141 53.6932C156.754 54.4754 156.222 55.0786 155.545 55.5028C154.869 55.9271 154.097 56.1392 153.229 56.1392C152.36 56.1392 151.588 55.9271 150.912 55.5028C150.236 55.0786 149.704 54.4754 149.316 53.6932C148.928 52.911 148.734 51.983 148.734 50.9091C148.734 49.8352 148.928 48.9072 149.316 48.125C149.704 47.3428 150.236 46.7396 150.912 46.3153C151.588 45.8911 152.36 45.679 153.229 45.679C154.097 45.679 154.869 45.8911 155.545 46.3153C156.222 46.7396 156.754 47.3428 157.141 48.125C157.529 48.9072 157.723 49.8352 157.723 50.9091ZM156.53 50.9091C156.53 50.0275 156.382 49.2834 156.087 48.6768C155.796 48.0703 155.4 47.6113 154.899 47.2997C154.402 46.9882 153.845 46.8324 153.229 46.8324C152.612 46.8324 152.054 46.9882 151.553 47.2997C151.056 47.6113 150.66 48.0703 150.365 48.6768C150.073 49.2834 149.928 50.0275 149.928 50.9091C149.928 51.7907 150.073 52.5348 150.365 53.1413C150.66 53.7479 151.056 54.2069 151.553 54.5185C152.054 54.83 152.612 54.9858 153.229 54.9858C153.845 54.9858 154.402 54.83 154.899 54.5185C155.4 54.2069 155.796 53.7479 156.087 53.1413C156.382 52.5348 156.53 51.7907 156.53 50.9091ZM159.796 56V45.8182H163.237C164.032 45.8182 164.685 45.9541 165.195 46.2259C165.706 46.4943 166.084 46.8639 166.329 47.3345C166.574 47.8052 166.697 48.3404 166.697 48.9403C166.697 49.5402 166.574 50.0722 166.329 50.5362C166.084 51.0002 165.707 51.3648 165.2 51.63C164.693 51.8918 164.045 52.0227 163.256 52.0227H160.472V50.9091H163.217C163.76 50.9091 164.198 50.8295 164.529 50.6705C164.864 50.5114 165.106 50.286 165.255 49.9943C165.407 49.6993 165.484 49.348 165.484 48.9403C165.484 48.5327 165.407 48.1764 165.255 47.8714C165.103 47.5665 164.859 47.3312 164.524 47.1655C164.189 46.9964 163.747 46.9119 163.197 46.9119H161.029V56H159.796ZM164.589 51.4261L167.094 56H165.663L163.197 51.4261H164.589ZM167.534 45.8182H168.946L171.77 50.571H171.89L174.713 45.8182H176.125L172.446 51.804V56H171.213V51.804L167.534 45.8182Z" fill="#B18CFF"/>
<ellipse cx="18.2" cy="24.3977" rx="18" ry="17.9993" fill="#8050E3"/>
<mask id="mask0_45_3692" style="mask-type:alpha" maskUnits="userSpaceOnUse" x="0" y="6" width="37" height="37">
<ellipse cx="18.2" cy="24.3977" rx="18" ry="17.9993" fill="#8050E3"/>
</mask>
<g mask="url(#mask0_45_3692)">
<path d="M17.322 20.9883C17.0279 27.7347 17.154 43.1927 20.0119 51.0539" stroke="#DECEFF" stroke-width="3.59993" stroke-linecap="round"/>
<path d="M17.7904 22.6445C17.4892 18.7616 16.2584 9.92156 8.1252 15.9897C10.9346 15.8418 15.6767 19.0386 17.7904 22.6445Z" fill="#DECEFF" stroke="#C8ADFF" stroke-width="1.27739"/>
<path d="M17.675 23.9144C15.5332 19.9734 10.0716 14.6281 5.35933 24.775C7.92005 23.3174 13.9682 21.1046 17.675 23.9144Z" fill="#DECEFF" stroke="#C8ADFF" stroke-width="1.27739"/>
<path d="M18.7048 24.519C15.1594 22.5669 7.97527 21.6447 9.4425 31.5644C10.6429 29.238 14.5441 24.1703 18.7048 24.519Z" fill="#DECEFF" stroke="#C8ADFF" stroke-width="1.27739"/>
<path d="M17.7332 23.279C17.8731 20.2741 19.6444 10.3795 26.8768 14.4823C24.4393 14.5623 19.4513 20.3621 17.7332 23.279Z" fill="#DECEFF" stroke="#C8ADFF" stroke-width="1.27739"/>
<path d="M17.6751 23.9173C19.7268 19.7445 25.0583 13.9719 29.9711 24.2642C27.3874 22.8688 21.311 20.846 17.6751 23.9173Z" fill="#DECEFF" stroke="#C8ADFF" stroke-width="1.27739"/>
<path d="M17.6171 24.5524C21.1126 22.5263 28.0493 21.3245 26.5299 31.0525C25.3702 28.8241 21.7037 24.0695 17.6171 24.5524Z" fill="#DECEFF" stroke="#C8ADFF" stroke-width="1.27739"/>
</g>
</svg>
