<svg width="32" height="33" viewBox="0 0 32 33" fill="none" xmlns="http://www.w3.org/2000/svg">
<g id="Group 45">
<ellipse id="Ellipse 2" cx="16" cy="16.012" rx="16" ry="16.0001" fill="#8050E3"/>
<mask id="mask0_64_18" style="mask-type:alpha" maskUnits="userSpaceOnUse" x="0" y="0" width="32" height="33">
<ellipse id="Ellipse 3" cx="16" cy="16.012" rx="16" ry="16.0001" fill="#8050E3"/>
</mask>
<g mask="url(#mask0_64_18)">
<g id="Group 45_2">
<path id="Vector 11" d="M15.2197 12.9807C14.9583 18.9778 15.0704 32.7189 17.6107 39.707" stroke="#DECEFF" stroke-width="3.20001" stroke-linecap="round"/>
<path id="Vector 13" d="M15.636 14.4511C15.3683 10.9995 14.2743 3.14133 7.04478 8.53549C9.54198 8.40399 13.7572 11.2458 15.636 14.4511Z" fill="#DECEFF" stroke="#C8ADFF" stroke-width="1.13548"/>
<path id="Vector 14" d="M15.5335 15.5827C13.6297 12.0794 8.77491 7.3278 4.58623 16.3477C6.86242 15.052 12.2385 13.085 15.5335 15.5827Z" fill="#DECEFF" stroke="#C8ADFF" stroke-width="1.13548"/>
<path id="Vector 15" d="M16.4489 16.1181C13.2974 14.3828 6.9115 13.563 8.2157 22.3809C9.28277 20.3129 12.7505 15.8081 16.4489 16.1181Z" fill="#DECEFF" stroke="#C8ADFF" stroke-width="1.13548"/>
<path id="Vector 16" d="M15.5853 15.0178C15.7096 12.3466 17.2841 3.55105 23.7129 7.19819C21.5463 7.26931 17.1125 12.4248 15.5853 15.0178Z" fill="#DECEFF" stroke="#C8ADFF" stroke-width="1.13548"/>
<path id="Vector 17" d="M15.5337 15.5832C17.3574 11.8738 22.0966 6.7424 26.4635 15.8915C24.1669 14.6512 18.7656 12.853 15.5337 15.5832Z" fill="#DECEFF" stroke="#C8ADFF" stroke-width="1.13548"/>
<path id="Vector 18" d="M15.4818 16.1492C18.5889 14.3481 24.7549 13.2797 23.4043 21.9273C22.3735 19.9464 19.1143 15.7199 15.4818 16.1492Z" fill="#DECEFF" stroke="#C8ADFF" stroke-width="1.13548"/>
</g>
</g>
</g>
</svg>
