<svg width="93" height="91" viewBox="0 0 93 91" fill="none" xmlns="http://www.w3.org/2000/svg">
<g id="pooly">
<g id="pooly_2">
<path id="Subtract" fill-rule="evenodd" clip-rule="evenodd" d="M45.7811 28.9142C45.779 28.8969 45.7769 28.8795 45.7748 28.8621C45.1823 23.8803 48.7406 19.3614 53.7225 18.7689C58.7043 18.1764 63.2232 21.7348 63.8157 26.7166C63.8177 26.734 63.8198 26.7513 63.8217 26.7687L45.7811 28.9142Z" fill="#FFB636"/>
<circle id="Ellipse 79" cx="2.13157" cy="2.13157" r="2.13157" transform="matrix(-0.796767 0.604287 0.604287 0.796767 43.8163 22.8043)" fill="#36147D"/>
<path id="Subtract_2" fill-rule="evenodd" clip-rule="evenodd" d="M38.0581 16.9158C38.1077 16.9267 38.1574 16.9378 38.207 16.949C52.4518 20.1652 61.3922 34.3201 58.176 48.5648C54.9598 62.8096 40.8049 71.75 26.5602 68.5338C26.5105 68.5226 26.461 68.5112 26.4114 68.4998L38.0581 16.9158Z" fill="#9B6AFF"/>
<circle id="Ellipse 80" cx="2.63909" cy="2.63909" r="2.63909" transform="matrix(-0.796767 0.604287 0.604287 0.796767 43.8163 22.8043)" fill="#36147D"/>
<rect id="Rectangle 33" width="4.56766" height="16.2406" transform="matrix(-0.99995 0.010001 0.010001 0.99995 38.8184 59.6752)" fill="#9B6AFF"/>
<path id="Subtract_3" fill-rule="evenodd" clip-rule="evenodd" d="M34.0016 75.9724C34.0011 75.9414 34.0007 75.9104 34.0006 75.8793C33.9871 72.6989 36.2963 70.111 39.1583 70.0989C42.0203 70.0868 44.3513 72.6552 44.3647 75.8355C44.3648 75.8666 44.3648 75.8977 44.3644 75.9286L34.0016 75.9724Z" fill="#FFB636"/>
<path id="Subtract_4" fill-rule="evenodd" clip-rule="evenodd" d="M23.8864 56.2092C23.9054 56.2241 23.9244 56.239 23.9435 56.2538C29.4214 60.5063 37.3095 59.513 41.562 54.0351C45.8145 48.5572 44.8212 40.6691 39.3433 36.4166C39.3242 36.4018 39.3051 36.387 39.286 36.3723L23.8864 56.2092Z" fill="#8050E3"/>
</g>
</g>
</svg>
