<svg width="215" height="71" viewBox="0 0 215 71" fill="none" xmlns="http://www.w3.org/2000/svg">
<path d="M44.2857 34.3831C44.2857 46.6123 34.372 56.526 22.1429 56.526C9.9137 56.526 0 46.6123 0 34.3831C0 22.1539 9.9137 12.2402 22.1429 12.2402C34.372 12.2402 44.2857 22.1539 44.2857 34.3831Z" fill="#8050E3"/>
<path d="M19.5603 11.3452C19.2313 18.8902 19.3724 36.178 22.5685 44.9697" stroke="#DECEFF" stroke-width="4.02597" stroke-linecap="round"/>
<path d="M20.0845 13.1956C19.7477 8.85309 18.3713 -1.03331 9.27574 5.75314C12.4175 5.5877 17.7208 9.16296 20.0845 13.1956Z" fill="#DECEFF" stroke="#B18CFF" stroke-width="2.01299"/>
<path d="M19.9552 14.6197C17.5599 10.2122 11.452 4.23417 6.18218 15.5822C9.0459 13.9521 15.8097 11.4773 19.9552 14.6197Z" fill="#DECEFF" stroke="#B18CFF" stroke-width="2.01299"/>
<path d="M20.6024 15.3964C16.6375 13.2131 9.10794 12.0796 10.7488 23.1734C12.0913 20.5717 15.9494 15.0063 20.6024 15.3964Z" fill="#DECEFF" stroke="#B18CFF" stroke-width="2.01299"/>
<path d="M20.0198 13.9079C20.1762 10.5473 22.1572 -0.518543 30.2453 4.06995C27.5194 4.15943 21.9412 10.6457 20.0198 13.9079Z" fill="#DECEFF" stroke="#B18CFF" stroke-width="2.01299"/>
<path d="M19.955 14.6198C22.2494 9.95306 28.2118 3.49716 33.706 15.0077C30.8165 13.4473 24.0211 11.185 19.955 14.6198Z" fill="#DECEFF" stroke="#B18CFF" stroke-width="2.01299"/>
<path d="M19.8902 15.3317C23.7993 13.0658 31.5568 11.7217 29.8576 22.6013C28.5607 20.109 24.4603 14.7916 19.8902 15.3317Z" fill="#DECEFF" stroke="#B18CFF" stroke-width="2.01299"/>
<path d="M50.9704 30.7169C50.9704 21.3044 57.7143 14.8515 66.6416 14.8515C76.0056 14.8515 81.0029 20.8192 81.5851 28.4365L73.6767 28.7276C73.1915 25.3314 71.3479 22.1777 66.5931 22.1777C62.081 22.1777 59.461 25.5255 59.461 30.7169C59.461 35.9083 62.081 39.256 66.5931 39.256C71.3479 39.256 73.1915 36.1024 73.6767 32.7061L81.5851 33.0457C81.0029 40.663 76.0056 46.5822 66.6416 46.5822C57.7143 46.5822 50.9704 40.1293 50.9704 30.7169ZM97.1082 36.9757V36.6361L93.906 37.2183C92.0138 37.6064 90.8979 38.1886 90.8979 39.5956C90.8979 40.7116 91.7712 41.4393 93.0812 41.4393C95.313 41.4393 97.1082 39.7897 97.1082 36.9757ZM104.823 32.2694V39.6442C104.823 40.7601 105.308 41.2452 106.133 41.2452C106.763 41.2452 107.248 41.1482 107.879 40.9056V45.0782C106.763 45.8544 105.211 46.4852 102.979 46.4852C100.31 46.4852 98.2241 45.1267 97.4963 42.6523C96.2349 45.1752 93.7605 46.4852 90.3157 46.4852C86.0946 46.4852 83.3291 44.3019 83.3291 40.6145C83.3291 36.442 86.3372 34.6468 91.0435 33.822L97.1082 32.8031V32.4635C97.1082 30.6684 96.2834 29.601 94.3912 29.601C92.6446 29.601 91.7712 30.7169 91.4316 32.318L84.1539 31.8328C84.8332 27.078 88.375 23.7788 94.8764 23.7788C100.601 23.7788 104.823 26.2532 104.823 32.2694ZM118.036 35.035V35.3261C118.036 38.4797 119.734 40.5175 122.403 40.5175C125.459 40.5175 126.866 38.3342 126.866 35.1805C126.866 32.0754 125.459 29.8921 122.403 29.8921C119.734 29.8921 118.036 31.9298 118.036 35.035ZM117.599 42.2641L116.241 46H110.176V15.4337H118.036V28.0969C119.103 25.5255 121.529 23.7788 125.168 23.7788C131.524 23.7788 134.775 28.8247 134.775 35.1805C134.775 41.5849 131.524 46.5822 125.023 46.5822C121.529 46.5822 118.812 44.8841 117.599 42.2641ZM150.412 36.9757V36.6361L147.209 37.2183C145.317 37.6064 144.201 38.1886 144.201 39.5956C144.201 40.7116 145.075 41.4393 146.385 41.4393C148.616 41.4393 150.412 39.7897 150.412 36.9757ZM158.126 32.2694V39.6442C158.126 40.7601 158.611 41.2452 159.436 41.2452C160.067 41.2452 160.552 41.1482 161.182 40.9056V45.0782C160.067 45.8544 158.514 46.4852 156.282 46.4852C153.614 46.4852 151.527 45.1267 150.8 42.6523C149.538 45.1752 147.064 46.4852 143.619 46.4852C139.398 46.4852 136.632 44.3019 136.632 40.6145C136.632 36.442 139.641 34.6468 144.347 33.822L150.412 32.8031V32.4635C150.412 30.6684 149.587 29.601 147.695 29.601C145.948 29.601 145.075 30.7169 144.735 32.318L137.457 31.8328C138.137 27.078 141.678 23.7788 148.18 23.7788C153.905 23.7788 158.126 26.2532 158.126 32.2694ZM171.339 35.3746V46H163.48V24.361H171.339V27.6117C172.504 25.2343 175.075 23.7788 178.326 23.7788C184.245 23.7788 186.137 27.9028 186.137 32.415V46H178.277V34.5013C178.277 31.5417 177.453 29.9891 175.075 29.9891C172.407 29.9891 171.339 32.1239 171.339 35.3746ZM202.672 36.9757V36.6361L199.47 37.2183C197.578 37.6064 196.462 38.1886 196.462 39.5956C196.462 40.7116 197.336 41.4393 198.645 41.4393C200.877 41.4393 202.672 39.7897 202.672 36.9757ZM210.387 32.2694V39.6442C210.387 40.7601 210.872 41.2452 211.697 41.2452C212.328 41.2452 212.813 41.1482 213.443 40.9056V45.0782C212.328 45.8544 210.775 46.4852 208.543 46.4852C205.875 46.4852 203.788 45.1267 203.061 42.6523C201.799 45.1752 199.325 46.4852 195.88 46.4852C191.659 46.4852 188.893 44.3019 188.893 40.6145C188.893 36.442 191.902 34.6468 196.608 33.822L202.672 32.8031V32.4635C202.672 30.6684 201.848 29.601 199.955 29.601C198.209 29.601 197.336 30.7169 196.996 32.318L189.718 31.8328C190.397 27.078 193.939 23.7788 200.441 23.7788C206.166 23.7788 210.387 26.2532 210.387 32.2694Z" fill="#DECEFF"/>
<path d="M175.943 66.1431V55.7535H177.201V65.027H182.031V66.1431H175.943ZM185.237 55.7535V66.1431H183.979V55.7535H185.237ZM193.441 58.3509C193.38 57.8368 193.133 57.4377 192.7 57.1536C192.268 56.8695 191.737 56.7275 191.107 56.7275C190.648 56.7275 190.245 56.8019 189.9 56.9507C189.559 57.0995 189.291 57.3041 189.099 57.5645C188.909 57.825 188.814 58.1209 188.814 58.4523C188.814 58.7296 188.88 58.9681 189.012 59.1676C189.148 59.3638 189.32 59.5278 189.53 59.6597C189.739 59.7882 189.959 59.8948 190.189 59.9793C190.419 60.0605 190.631 60.1264 190.823 60.1772L191.879 60.4612C192.149 60.5323 192.45 60.6303 192.782 60.7555C193.116 60.8806 193.436 61.0514 193.74 61.2679C194.048 61.4809 194.302 61.7549 194.501 62.0897C194.701 62.4245 194.801 62.8354 194.801 63.3224C194.801 63.8839 194.654 64.3912 194.359 64.8444C194.068 65.2976 193.642 65.6577 193.081 65.9249C192.523 66.1921 191.845 66.3257 191.047 66.3257C190.303 66.3257 189.658 66.2056 189.114 65.9655C188.573 65.7254 188.147 65.3906 187.835 64.961C187.528 64.5315 187.353 64.0327 187.313 63.4645H188.612C188.645 63.8568 188.777 64.1815 189.007 64.4385C189.241 64.6922 189.535 64.8816 189.89 65.0067C190.248 65.1285 190.634 65.1893 191.047 65.1893C191.527 65.1893 191.958 65.1115 192.34 64.956C192.722 64.797 193.025 64.5772 193.248 64.2965C193.472 64.0124 193.583 63.6809 193.583 63.3022C193.583 62.9572 193.487 62.6765 193.294 62.46C193.101 62.2436 192.848 62.0677 192.533 61.9324C192.218 61.7972 191.879 61.6788 191.513 61.5773L190.235 61.2121C189.423 60.9787 188.781 60.6456 188.307 60.2127C187.834 59.7798 187.597 59.2133 187.597 58.5132C187.597 57.9315 187.754 57.4242 188.069 56.9913C188.387 56.555 188.813 56.2168 189.347 55.9767C189.885 55.7332 190.485 55.6114 191.148 55.6114C191.818 55.6114 192.413 55.7315 192.934 55.9716C193.455 56.2083 193.867 56.533 194.172 56.9456C194.479 57.3582 194.642 57.8266 194.659 58.3509H193.441ZM196.301 56.8695V55.7535H204.093V56.8695H200.826V66.1431H199.568V56.8695H196.301ZM211.717 58.3509C211.656 57.8368 211.409 57.4377 210.976 57.1536C210.543 56.8695 210.012 56.7275 209.383 56.7275C208.923 56.7275 208.521 56.8019 208.176 56.9507C207.834 57.0995 207.567 57.3041 207.374 57.5645C207.185 57.825 207.09 58.1209 207.09 58.4523C207.09 58.7296 207.156 58.9681 207.288 59.1676C207.423 59.3638 207.596 59.5278 207.805 59.6597C208.015 59.7882 208.235 59.8948 208.465 59.9793C208.695 60.0605 208.906 60.1264 209.099 60.1772L210.154 60.4612C210.425 60.5323 210.726 60.6303 211.057 60.7555C211.392 60.8806 211.712 61.0514 212.016 61.2679C212.324 61.4809 212.578 61.7549 212.777 62.0897C212.977 62.4245 213.076 62.8354 213.076 63.3224C213.076 63.8839 212.929 64.3912 212.635 64.8444C212.344 65.2976 211.918 65.6577 211.357 65.9249C210.799 66.1921 210.12 66.3257 209.322 66.3257C208.578 66.3257 207.934 66.2056 207.389 65.9655C206.848 65.7254 206.422 65.3906 206.111 64.961C205.803 64.5315 205.629 64.0327 205.589 63.4645H206.887C206.921 63.8568 207.053 64.1815 207.283 64.4385C207.516 64.6922 207.811 64.8816 208.166 65.0067C208.524 65.1285 208.91 65.1893 209.322 65.1893C209.803 65.1893 210.234 65.1115 210.616 64.956C210.998 64.797 211.301 64.5772 211.524 64.2965C211.747 64.0124 211.859 63.6809 211.859 63.3022C211.859 62.9572 211.762 62.6765 211.57 62.46C211.377 62.2436 211.123 62.0677 210.809 61.9324C210.494 61.7972 210.154 61.6788 209.789 61.5773L208.511 61.2121C207.699 60.9787 207.056 60.6456 206.583 60.2127C206.109 59.7798 205.873 59.2133 205.873 58.5132C205.873 57.9315 206.03 57.4242 206.344 56.9913C206.662 56.555 207.088 56.2168 207.623 55.9767C208.161 55.7332 208.761 55.6114 209.424 55.6114C210.093 55.6114 210.689 55.7315 211.209 55.9716C211.73 56.2083 212.143 56.533 212.447 56.9456C212.755 57.3582 212.917 57.8266 212.934 58.3509H211.717Z" fill="#9B6AFF"/>
</svg>
