<svg width="177" height="60" viewBox="0 0 177 60" fill="none" xmlns="http://www.w3.org/2000/svg">
<path d="M42.6572 25.4C42.6572 17.64 48.2172 12.32 55.5772 12.32C63.2972 12.32 67.4172 17.24 67.8972 23.52L61.3772 23.76C60.9772 20.96 59.4572 18.36 55.5372 18.36C51.8172 18.36 49.6572 21.12 49.6572 25.4C49.6572 29.68 51.8172 32.44 55.5372 32.44C59.4572 32.44 60.9772 29.84 61.3772 27.04L67.8972 27.32C67.4172 33.6 63.2972 38.48 55.5772 38.48C48.2172 38.48 42.6572 33.16 42.6572 25.4ZM80.695 30.56V30.28L78.055 30.76C76.495 31.08 75.575 31.56 75.575 32.72C75.575 33.64 76.295 34.24 77.375 34.24C79.215 34.24 80.695 32.88 80.695 30.56ZM87.055 26.68V32.76C87.055 33.68 87.455 34.08 88.135 34.08C88.655 34.08 89.055 34 89.575 33.8V37.24C88.655 37.88 87.375 38.4 85.535 38.4C83.335 38.4 81.615 37.28 81.015 35.24C79.975 37.32 77.935 38.4 75.095 38.4C71.615 38.4 69.335 36.6 69.335 33.56C69.335 30.12 71.815 28.64 75.695 27.96L80.695 27.12V26.84C80.695 25.36 80.015 24.48 78.455 24.48C77.015 24.48 76.295 25.4 76.015 26.72L70.015 26.32C70.575 22.4 73.495 19.68 78.855 19.68C83.575 19.68 87.055 21.72 87.055 26.68ZM97.9487 28.96V29.2C97.9487 31.8 99.3487 33.48 101.549 33.48C104.069 33.48 105.229 31.68 105.229 29.08C105.229 26.52 104.069 24.72 101.549 24.72C99.3487 24.72 97.9487 26.4 97.9487 28.96ZM97.5887 34.92L96.4687 38H91.4687V12.8H97.9487V23.24C98.8287 21.12 100.829 19.68 103.829 19.68C109.069 19.68 111.749 23.84 111.749 29.08C111.749 34.36 109.069 38.48 103.709 38.48C100.829 38.48 98.5887 37.08 97.5887 34.92ZM124.64 30.56V30.28L122 30.76C120.44 31.08 119.52 31.56 119.52 32.72C119.52 33.64 120.24 34.24 121.32 34.24C123.16 34.24 124.64 32.88 124.64 30.56ZM131 26.68V32.76C131 33.68 131.4 34.08 132.08 34.08C132.6 34.08 133 34 133.52 33.8V37.24C132.6 37.88 131.32 38.4 129.48 38.4C127.28 38.4 125.56 37.28 124.96 35.24C123.92 37.32 121.88 38.4 119.04 38.4C115.56 38.4 113.28 36.6 113.28 33.56C113.28 30.12 115.76 28.64 119.64 27.96L124.64 27.12V26.84C124.64 25.36 123.96 24.48 122.4 24.48C120.96 24.48 120.24 25.4 119.96 26.72L113.96 26.32C114.52 22.4 117.44 19.68 122.8 19.68C127.52 19.68 131 21.72 131 26.68ZM141.894 29.24V38H135.414V20.16H141.894V22.84C142.854 20.88 144.974 19.68 147.654 19.68C152.534 19.68 154.094 23.08 154.094 26.8V38H147.614V28.52C147.614 26.08 146.934 24.8 144.974 24.8C142.774 24.8 141.894 26.56 141.894 29.24ZM167.726 30.56V30.28L165.086 30.76C163.526 31.08 162.606 31.56 162.606 32.72C162.606 33.64 163.326 34.24 164.406 34.24C166.246 34.24 167.726 32.88 167.726 30.56ZM174.086 26.68V32.76C174.086 33.68 174.486 34.08 175.166 34.08C175.686 34.08 176.086 34 176.606 33.8V37.24C175.686 37.88 174.406 38.4 172.566 38.4C170.366 38.4 168.646 37.28 168.046 35.24C167.006 37.32 164.966 38.4 162.126 38.4C158.646 38.4 156.366 36.6 156.366 33.56C156.366 30.12 158.846 28.64 162.726 27.96L167.726 27.12V26.84C167.726 25.36 167.046 24.48 165.486 24.48C164.046 24.48 163.326 25.4 163.046 26.72L157.046 26.32C157.606 22.4 160.526 19.68 165.886 19.68C170.606 19.68 174.086 21.72 174.086 26.68Z" fill="#DECEFF"/>
<path d="M139.381 56V45.8182H140.614V54.9062H145.347V56H139.381ZM148.489 45.8182V56H147.256V45.8182H148.489ZM156.529 48.3636C156.47 47.8598 156.228 47.4688 155.804 47.1903C155.379 46.9119 154.859 46.7727 154.242 46.7727C153.792 46.7727 153.397 46.8456 153.059 46.9915C152.724 47.1373 152.463 47.3378 152.274 47.593C152.088 47.8482 151.995 48.1383 151.995 48.4631C151.995 48.7348 152.06 48.9685 152.189 49.1641C152.322 49.3563 152.491 49.517 152.696 49.6463C152.902 49.7723 153.117 49.8767 153.343 49.9595C153.568 50.0391 153.775 50.1037 153.964 50.1534L154.998 50.4318C155.263 50.5014 155.558 50.5975 155.883 50.7202C156.211 50.8428 156.524 51.0102 156.823 51.2223C157.124 51.4311 157.373 51.6996 157.568 52.0277C157.764 52.3558 157.862 52.7585 157.862 53.2358C157.862 53.786 157.718 54.2831 157.429 54.7273C157.144 55.1714 156.727 55.5244 156.176 55.7862C155.63 56.0481 154.965 56.179 154.183 56.179C153.454 56.179 152.822 56.0613 152.289 55.826C151.758 55.5907 151.341 55.2625 151.036 54.8416C150.734 54.4207 150.563 53.9318 150.524 53.375H151.796C151.83 53.7595 151.959 54.0777 152.184 54.3295C152.413 54.5781 152.701 54.7637 153.049 54.8864C153.401 55.0057 153.778 55.0653 154.183 55.0653C154.653 55.0653 155.076 54.9891 155.451 54.8366C155.825 54.6809 156.122 54.4654 156.34 54.1903C156.559 53.9119 156.669 53.5871 156.669 53.2159C156.669 52.8778 156.574 52.6027 156.385 52.3906C156.196 52.1785 155.948 52.0062 155.639 51.8736C155.331 51.741 154.998 51.625 154.64 51.5256L153.387 51.1676C152.592 50.9389 151.962 50.6125 151.498 50.1882C151.034 49.764 150.802 49.2088 150.802 48.5227C150.802 47.9527 150.956 47.4555 151.264 47.0312C151.576 46.6037 151.994 46.2723 152.517 46.0369C153.044 45.7983 153.633 45.679 154.282 45.679C154.938 45.679 155.522 45.7966 156.032 46.032C156.543 46.264 156.947 46.5821 157.245 46.9865C157.547 47.3909 157.706 47.8499 157.723 48.3636H156.529ZM159.332 46.9119V45.8182H166.969V46.9119H163.767V56H162.534V46.9119H159.332ZM174.44 48.3636C174.38 47.8598 174.138 47.4688 173.714 47.1903C173.289 46.9119 172.769 46.7727 172.153 46.7727C171.702 46.7727 171.307 46.8456 170.969 46.9915C170.635 47.1373 170.373 47.3378 170.184 47.593C169.998 47.8482 169.905 48.1383 169.905 48.4631C169.905 48.7348 169.97 48.9685 170.099 49.1641C170.232 49.3563 170.401 49.517 170.606 49.6463C170.812 49.7723 171.027 49.8767 171.253 49.9595C171.478 50.0391 171.685 50.1037 171.874 50.1534L172.908 50.4318C173.173 50.5014 173.468 50.5975 173.793 50.7202C174.121 50.8428 174.435 51.0102 174.733 51.2223C175.034 51.4311 175.283 51.6996 175.479 52.0277C175.674 52.3558 175.772 52.7585 175.772 53.2358C175.772 53.786 175.628 54.2831 175.339 54.7273C175.054 55.1714 174.637 55.5244 174.087 55.7862C173.54 56.0481 172.875 56.179 172.093 56.179C171.364 56.179 170.732 56.0613 170.199 55.826C169.668 55.5907 169.251 55.2625 168.946 54.8416C168.644 54.4207 168.474 53.9318 168.434 53.375H169.707C169.74 53.7595 169.869 54.0777 170.094 54.3295C170.323 54.5781 170.611 54.7637 170.959 54.8864C171.311 55.0057 171.689 55.0653 172.093 55.0653C172.564 55.0653 172.986 54.9891 173.361 54.8366C173.735 54.6809 174.032 54.4654 174.251 54.1903C174.469 53.9119 174.579 53.5871 174.579 53.2159C174.579 52.8778 174.484 52.6027 174.295 52.3906C174.106 52.1785 173.858 52.0062 173.55 51.8736C173.241 51.741 172.908 51.625 172.55 51.5256L171.298 51.1676C170.502 50.9389 169.872 50.6125 169.408 50.1882C168.944 49.764 168.712 49.2088 168.712 48.5227C168.712 47.9527 168.866 47.4555 169.175 47.0312C169.486 46.6037 169.904 46.2723 170.427 46.0369C170.954 45.7983 171.543 45.679 172.192 45.679C172.849 45.679 173.432 45.7966 173.942 46.032C174.453 46.264 174.857 46.5821 175.155 46.9865C175.457 47.3909 175.616 47.8499 175.633 48.3636H174.44Z" fill="#B18CFF"/>
<ellipse cx="18.2" cy="24.3977" rx="18" ry="17.9993" fill="#8050E3"/>
<mask id="mask0_251_6167" style="mask-type:alpha" maskUnits="userSpaceOnUse" x="0" y="6" width="37" height="37">
<ellipse cx="18.2" cy="24.3977" rx="18" ry="17.9993" fill="#8050E3"/>
</mask>
<g mask="url(#mask0_251_6167)">
<path d="M17.322 20.9888C17.0278 27.7352 17.154 43.1932 20.0118 51.0544" stroke="#DECEFF" stroke-width="3.59993" stroke-linecap="round"/>
<path d="M17.7903 22.6449C17.4891 18.7621 16.2583 9.92205 8.12514 15.9902C10.9345 15.8423 15.6766 19.0391 17.7903 22.6449Z" fill="#DECEFF" stroke="#C8ADFF" stroke-width="1.27739"/>
<path d="M17.675 23.9149C15.5332 19.9738 10.0715 14.6286 5.35927 24.7755C7.91999 23.3179 13.9681 21.1051 17.675 23.9149Z" fill="#DECEFF" stroke="#C8ADFF" stroke-width="1.27739"/>
<path d="M18.7048 24.5195C15.1593 22.5674 7.97521 21.6452 9.44244 31.5648C10.6429 29.2385 14.544 24.1708 18.7048 24.5195Z" fill="#DECEFF" stroke="#C8ADFF" stroke-width="1.27739"/>
<path d="M17.7331 23.2795C17.873 20.2746 19.6443 10.38 26.8767 14.4828C24.4392 14.5628 19.4512 20.3625 17.7331 23.2795Z" fill="#DECEFF" stroke="#C8ADFF" stroke-width="1.27739"/>
<path d="M17.6752 23.9183C19.7269 19.7454 25.0584 13.9729 29.9713 24.2651C27.3875 22.8698 21.3111 20.847 17.6752 23.9183Z" fill="#DECEFF" stroke="#C8ADFF" stroke-width="1.27739"/>
<path d="M17.617 24.5529C21.1125 22.5268 28.0492 21.325 26.5298 31.053C25.3702 28.8246 21.7036 24.07 17.617 24.5529Z" fill="#DECEFF" stroke="#C8ADFF" stroke-width="1.27739"/>
</g>
</svg>
