<svg width="300" height="98" viewBox="0 0 300 98" fill="none" xmlns="http://www.w3.org/2000/svg">
<path d="M62 48.1367C62 65.2575 48.1208 79.1367 31 79.1367C13.8792 79.1367 0 65.2575 0 48.1367C0 31.0159 13.8792 17.1367 31 17.1367C48.1208 17.1367 62 31.0159 62 48.1367Z" fill="#8050E3"/>
<path d="M27.3848 15.8828C26.9242 26.4458 27.1217 50.6487 31.5962 62.9571" stroke="#DECEFF" stroke-width="5.63636" stroke-linecap="round"/>
<path d="M28.1187 18.4761C27.6471 12.3966 25.7201 -1.44438 12.9863 8.05664C17.3848 7.82502 24.8094 12.8304 28.1187 18.4761Z" fill="#DECEFF" stroke="#B18CFF" stroke-width="2.81818"/>
<path d="M27.9375 20.4684C24.5842 14.2978 16.0331 5.92861 8.65535 21.8159C12.6646 19.5337 22.1339 16.0691 27.9375 20.4684Z" fill="#DECEFF" stroke="#B18CFF" stroke-width="2.81818"/>
<path d="M28.8435 21.553C23.2925 18.4964 12.7512 16.9094 15.0483 32.4408C16.9278 28.7984 22.3292 21.0069 28.8435 21.553Z" fill="#DECEFF" stroke="#B18CFF" stroke-width="2.81818"/>
<path d="M28.0279 19.4695C28.2469 14.7646 31.0202 -0.727522 42.3436 5.69637C38.5273 5.82164 30.7178 14.9024 28.0279 19.4695Z" fill="#DECEFF" stroke="#B18CFF" stroke-width="2.81818"/>
<path d="M27.937 20.4679C31.1492 13.9344 39.4965 4.89613 47.1883 21.0109C43.1431 18.8263 33.6295 15.6591 27.937 20.4679Z" fill="#DECEFF" stroke="#B18CFF" stroke-width="2.81818"/>
<path d="M27.8465 21.4657C33.3193 18.2934 44.1798 16.4116 41.8009 31.643C39.9853 28.1539 34.2448 20.7096 27.8465 21.4657Z" fill="#DECEFF" stroke="#B18CFF" stroke-width="2.81818"/>
<path d="M71.3585 43.6036C71.3585 30.4262 80.8001 21.3921 93.2983 21.3921C106.408 21.3921 113.404 29.7469 114.219 40.4111L103.147 40.8187C102.468 36.0639 99.887 31.6488 93.2304 31.6488C86.9133 31.6488 83.2454 36.3356 83.2454 43.6036C83.2454 50.8716 86.9133 55.5584 93.2304 55.5584C99.887 55.5584 102.468 51.1433 103.147 46.3885L114.219 46.864C113.404 57.5282 106.408 65.8151 93.2983 65.8151C80.8001 65.8151 71.3585 56.7811 71.3585 43.6036ZM135.951 52.3659V51.8905L131.468 52.7056C128.819 53.249 127.257 54.0641 127.257 56.0339C127.257 57.5962 128.48 58.615 130.314 58.615C133.438 58.615 135.951 56.3056 135.951 52.3659ZM146.752 45.7772V56.1018C146.752 57.6641 147.431 58.3433 148.586 58.3433C149.469 58.3433 150.148 58.2075 151.031 57.8679V63.7094C149.469 64.7962 147.295 65.6793 144.17 65.6793C140.435 65.6793 137.514 63.7773 136.495 60.3132C134.729 63.8453 131.265 65.6793 126.442 65.6793C120.532 65.6793 116.661 62.6226 116.661 57.4603C116.661 51.6188 120.872 49.1055 127.461 47.9508L135.951 46.5244V46.0489C135.951 43.5357 134.797 42.0413 132.148 42.0413C129.702 42.0413 128.48 43.6036 128.004 45.8451L117.815 45.1659C118.766 38.5092 123.725 33.8903 132.827 33.8903C140.842 33.8903 146.752 37.3545 146.752 45.7772ZM165.251 49.6489V50.0565C165.251 54.4716 167.628 57.3245 171.364 57.3245C175.643 57.3245 177.613 54.2678 177.613 49.8527C177.613 45.5055 175.643 42.4489 171.364 42.4489C167.628 42.4489 165.251 45.3017 165.251 49.6489ZM164.639 59.7698L162.737 65H154.247V22.2072H165.251V39.9357C166.745 36.3356 170.141 33.8903 175.235 33.8903C184.134 33.8903 188.685 40.9545 188.685 49.8527C188.685 58.8188 184.134 65.8151 175.032 65.8151C170.141 65.8151 166.337 63.4377 164.639 59.7698ZM210.576 52.3659V51.8905L206.093 52.7056C203.444 53.249 201.882 54.0641 201.882 56.0339C201.882 57.5962 203.104 58.615 204.938 58.615C208.063 58.615 210.576 56.3056 210.576 52.3659ZM221.376 45.7772V56.1018C221.376 57.6641 222.055 58.3433 223.21 58.3433C224.093 58.3433 224.772 58.2075 225.655 57.8679V63.7094C224.093 64.7962 221.92 65.6793 218.795 65.6793C215.059 65.6793 212.138 63.7773 211.12 60.3132C209.353 63.8453 205.889 65.6793 201.067 65.6793C195.157 65.6793 191.285 62.6226 191.285 57.4603C191.285 51.6188 195.497 49.1055 202.086 47.9508L210.576 46.5244V46.0489C210.576 43.5357 209.421 42.0413 206.772 42.0413C204.327 42.0413 203.104 43.6036 202.629 45.8451L192.44 45.1659C193.391 38.5092 198.35 33.8903 207.452 33.8903C215.467 33.8903 221.376 37.3545 221.376 45.7772ZM239.875 50.1244V65H228.871V34.7054H239.875V39.2564C241.505 35.9281 245.105 33.8903 249.656 33.8903C257.943 33.8903 260.592 39.664 260.592 45.981V65H249.588V48.9018C249.588 44.7583 248.434 42.5847 245.105 42.5847C241.37 42.5847 239.875 45.5734 239.875 50.1244ZM283.741 52.3659V51.8905L279.258 52.7056C276.609 53.249 275.047 54.0641 275.047 56.0339C275.047 57.5962 276.27 58.615 278.104 58.615C281.228 58.615 283.741 56.3056 283.741 52.3659ZM294.542 45.7772V56.1018C294.542 57.6641 295.221 58.3433 296.376 58.3433C297.259 58.3433 297.938 58.2075 298.821 57.8679V63.7094C297.259 64.7962 295.085 65.6793 291.96 65.6793C288.225 65.6793 285.304 63.7773 284.285 60.3132C282.519 63.8453 279.055 65.6793 274.232 65.6793C268.322 65.6793 264.451 62.6226 264.451 57.4603C264.451 51.6188 268.662 49.1055 275.251 47.9508L283.741 46.5244V46.0489C283.741 43.5357 282.587 42.0413 279.938 42.0413C277.492 42.0413 276.27 43.6036 275.794 45.8451L265.605 45.1659C266.556 38.5092 271.515 33.8903 280.617 33.8903C288.632 33.8903 294.542 37.3545 294.542 45.7772Z" fill="#DECEFF"/>
<path d="M211.076 93V78.4545H219.797V80.017H212.837V84.9318H219.144V86.4943H212.837V93H211.076ZM221.594 93H219.748L225.089 78.4545H226.907L232.248 93H230.401L226.055 80.7557H225.941L221.594 93ZM222.276 87.3182H229.719V88.8807H222.276V87.3182ZM245.534 83H243.773C243.669 82.4934 243.486 82.0483 243.226 81.6648C242.97 81.2812 242.658 80.9593 242.289 80.6989C241.924 80.4337 241.519 80.2348 241.074 80.1023C240.629 79.9697 240.165 79.9034 239.682 79.9034C238.801 79.9034 238.003 80.1259 237.289 80.571C236.578 81.0161 236.012 81.6719 235.591 82.5384C235.174 83.4048 234.966 84.4678 234.966 85.7273C234.966 86.9867 235.174 88.0497 235.591 88.9162C236.012 89.7827 236.578 90.4384 237.289 90.8835C238.003 91.3286 238.801 91.5511 239.682 91.5511C240.165 91.5511 240.629 91.4848 241.074 91.3523C241.519 91.2197 241.924 91.0232 242.289 90.7628C242.658 90.4976 242.97 90.1733 243.226 89.7898C243.486 89.4015 243.669 88.9564 243.773 88.4545H245.534C245.402 89.1979 245.16 89.8632 244.81 90.4503C244.459 91.0374 244.024 91.5369 243.503 91.9489C242.982 92.3561 242.397 92.6662 241.749 92.8793C241.105 93.0923 240.416 93.1989 239.682 93.1989C238.441 93.1989 237.338 92.8958 236.372 92.2898C235.406 91.6837 234.646 90.822 234.093 89.7045C233.539 88.5871 233.262 87.2614 233.262 85.7273C233.262 84.1932 233.539 82.8674 234.093 81.75C234.646 80.6326 235.406 79.7708 236.372 79.1648C237.338 78.5587 238.441 78.2557 239.682 78.2557C240.416 78.2557 241.105 78.3622 241.749 78.5753C242.397 78.7884 242.982 79.1009 243.503 79.5128C244.024 79.92 244.459 80.4171 244.81 81.0043C245.16 81.5866 245.402 82.2519 245.534 83ZM247.585 80.017V78.4545H258.494V80.017H253.92V93H252.159V80.017H247.585ZM272.88 85.7273C272.88 87.2614 272.603 88.5871 272.049 89.7045C271.495 90.822 270.735 91.6837 269.769 92.2898C268.803 92.8958 267.7 93.1989 266.459 93.1989C265.219 93.1989 264.116 92.8958 263.15 92.2898C262.184 91.6837 261.424 90.822 260.87 89.7045C260.316 88.5871 260.039 87.2614 260.039 85.7273C260.039 84.1932 260.316 82.8674 260.87 81.75C261.424 80.6326 262.184 79.7708 263.15 79.1648C264.116 78.5587 265.219 78.2557 266.459 78.2557C267.7 78.2557 268.803 78.5587 269.769 79.1648C270.735 79.7708 271.495 80.6326 272.049 81.75C272.603 82.8674 272.88 84.1932 272.88 85.7273ZM271.175 85.7273C271.175 84.4678 270.965 83.4048 270.543 82.5384C270.126 81.6719 269.561 81.0161 268.846 80.571C268.135 80.1259 267.34 79.9034 266.459 79.9034C265.579 79.9034 264.781 80.1259 264.066 80.571C263.356 81.0161 262.79 81.6719 262.368 82.5384C261.952 83.4048 261.743 84.4678 261.743 85.7273C261.743 86.9867 261.952 88.0497 262.368 88.9162C262.79 89.7827 263.356 90.4384 264.066 90.8835C264.781 91.3286 265.579 91.5511 266.459 91.5511C267.34 91.5511 268.135 91.3286 268.846 90.8835C269.561 90.4384 270.126 89.7827 270.543 88.9162C270.965 88.0497 271.175 86.9867 271.175 85.7273ZM275.841 93V78.4545H280.756C281.893 78.4545 282.825 78.6487 283.555 79.0369C284.284 79.4205 284.823 79.9484 285.174 80.6207C285.524 81.2931 285.699 82.0578 285.699 82.9148C285.699 83.7718 285.524 84.5317 285.174 85.1946C284.823 85.8575 284.286 86.3783 283.562 86.7571C282.837 87.1312 281.912 87.3182 280.785 87.3182H276.807V85.7273H280.728C281.504 85.7273 282.129 85.6136 282.603 85.3864C283.081 85.1591 283.427 84.8371 283.64 84.4205C283.858 83.9991 283.966 83.4972 283.966 82.9148C283.966 82.3324 283.858 81.8234 283.64 81.3878C283.422 80.9522 283.074 80.616 282.596 80.3793C282.117 80.1378 281.485 80.017 280.699 80.017H277.603V93H275.841ZM282.688 86.4659L286.268 93H284.222L280.699 86.4659H282.688ZM286.896 78.4545H288.913L292.947 85.2443H293.118L297.152 78.4545H299.169L293.913 87.0057V93H292.152V87.0057L286.896 78.4545Z" fill="#9B6AFF"/>
</svg>
