<svg width="215" height="71" viewBox="0 0 215 71" fill="none" xmlns="http://www.w3.org/2000/svg">
<path d="M44.2857 34.385C44.2857 46.6142 34.372 56.5279 22.1429 56.5279C9.91369 56.5279 0 46.6142 0 34.385C0 22.1559 9.91369 12.2422 22.1429 12.2422C34.372 12.2422 44.2857 22.1559 44.2857 34.385Z" fill="#8050E3"/>
<path d="M19.5603 11.3477C19.2313 18.8926 19.3724 36.1805 22.5685 44.9722" stroke="#DECEFF" stroke-width="4.02597" stroke-linecap="round"/>
<path d="M20.0845 13.2C19.7477 8.85749 18.3713 -1.02891 9.27574 5.75753C12.4175 5.59209 17.7208 9.16736 20.0845 13.2Z" fill="#DECEFF" stroke="#B18CFF" stroke-width="2.01299"/>
<path d="M19.9552 14.6197C17.5599 10.2122 11.452 4.23417 6.18218 15.5822C9.0459 13.9521 15.8097 11.4773 19.9552 14.6197Z" fill="#DECEFF" stroke="#B18CFF" stroke-width="2.01299"/>
<path d="M20.6024 15.3944C16.6375 13.2112 9.10794 12.0776 10.7488 23.1715C12.0913 20.5698 15.9494 15.0044 20.6024 15.3944Z" fill="#DECEFF" stroke="#B18CFF" stroke-width="2.01299"/>
<path d="M20.0197 13.9079C20.1761 10.5473 22.1571 -0.518543 30.2452 4.06995C27.5193 4.15943 21.9411 10.6457 20.0197 13.9079Z" fill="#DECEFF" stroke="#B18CFF" stroke-width="2.01299"/>
<path d="M19.955 14.6193C22.2494 9.95257 28.2118 3.49667 33.706 15.0073C30.8165 13.4468 24.0211 11.1845 19.955 14.6193Z" fill="#DECEFF" stroke="#B18CFF" stroke-width="2.01299"/>
<path d="M19.8903 15.3332C23.7994 13.0672 31.5569 11.7232 29.8577 22.6027C28.5609 20.1105 24.4605 14.7931 19.8903 15.3332Z" fill="#DECEFF" stroke="#B18CFF" stroke-width="2.01299"/>
<path d="M50.9704 30.7169C50.9704 21.3044 57.7143 14.8515 66.6416 14.8515C76.0056 14.8515 81.0029 20.8192 81.5851 28.4365L73.6767 28.7276C73.1915 25.3314 71.3479 22.1777 66.5931 22.1777C62.081 22.1777 59.461 25.5255 59.461 30.7169C59.461 35.9083 62.081 39.256 66.5931 39.256C71.3479 39.256 73.1915 36.1024 73.6767 32.7061L81.5851 33.0457C81.0029 40.663 76.0056 46.5822 66.6416 46.5822C57.7143 46.5822 50.9704 40.1293 50.9704 30.7169ZM97.1082 36.9757V36.6361L93.906 37.2183C92.0138 37.6064 90.8979 38.1886 90.8979 39.5956C90.8979 40.7116 91.7712 41.4393 93.0812 41.4393C95.313 41.4393 97.1082 39.7897 97.1082 36.9757ZM104.823 32.2694V39.6442C104.823 40.7601 105.308 41.2452 106.133 41.2452C106.763 41.2452 107.248 41.1482 107.879 40.9056V45.0782C106.763 45.8544 105.211 46.4852 102.979 46.4852C100.31 46.4852 98.2241 45.1267 97.4963 42.6523C96.2349 45.1752 93.7605 46.4852 90.3157 46.4852C86.0946 46.4852 83.3291 44.3019 83.3291 40.6145C83.3291 36.442 86.3372 34.6468 91.0435 33.822L97.1082 32.8031V32.4635C97.1082 30.6684 96.2834 29.601 94.3912 29.601C92.6446 29.601 91.7712 30.7169 91.4316 32.318L84.1539 31.8328C84.8332 27.078 88.375 23.7788 94.8764 23.7788C100.601 23.7788 104.823 26.2532 104.823 32.2694ZM118.036 35.035V35.3261C118.036 38.4797 119.734 40.5175 122.403 40.5175C125.459 40.5175 126.866 38.3342 126.866 35.1805C126.866 32.0754 125.459 29.8921 122.403 29.8921C119.734 29.8921 118.036 31.9298 118.036 35.035ZM117.599 42.2641L116.241 46H110.176V15.4337H118.036V28.0969C119.103 25.5255 121.529 23.7788 125.168 23.7788C131.524 23.7788 134.775 28.8247 134.775 35.1805C134.775 41.5849 131.524 46.5822 125.023 46.5822C121.529 46.5822 118.812 44.8841 117.599 42.2641ZM150.412 36.9757V36.6361L147.209 37.2183C145.317 37.6064 144.201 38.1886 144.201 39.5956C144.201 40.7116 145.075 41.4393 146.385 41.4393C148.616 41.4393 150.412 39.7897 150.412 36.9757ZM158.126 32.2694V39.6442C158.126 40.7601 158.611 41.2452 159.436 41.2452C160.067 41.2452 160.552 41.1482 161.182 40.9056V45.0782C160.067 45.8544 158.514 46.4852 156.282 46.4852C153.614 46.4852 151.527 45.1267 150.8 42.6523C149.538 45.1752 147.064 46.4852 143.619 46.4852C139.398 46.4852 136.632 44.3019 136.632 40.6145C136.632 36.442 139.641 34.6468 144.347 33.822L150.412 32.8031V32.4635C150.412 30.6684 149.587 29.601 147.695 29.601C145.948 29.601 145.075 30.7169 144.735 32.318L137.457 31.8328C138.137 27.078 141.678 23.7788 148.18 23.7788C153.905 23.7788 158.126 26.2532 158.126 32.2694ZM171.339 35.3746V46H163.48V24.361H171.339V27.6117C172.504 25.2343 175.075 23.7788 178.326 23.7788C184.245 23.7788 186.137 27.9028 186.137 32.415V46H178.277V34.5013C178.277 31.5417 177.453 29.9891 175.075 29.9891C172.407 29.9891 171.339 32.1239 171.339 35.3746ZM202.672 36.9757V36.6361L199.47 37.2183C197.578 37.6064 196.462 38.1886 196.462 39.5956C196.462 40.7116 197.336 41.4393 198.645 41.4393C200.877 41.4393 202.672 39.7897 202.672 36.9757ZM210.387 32.2694V39.6442C210.387 40.7601 210.872 41.2452 211.697 41.2452C212.328 41.2452 212.813 41.1482 213.443 40.9056V45.0782C212.328 45.8544 210.775 46.4852 208.543 46.4852C205.875 46.4852 203.788 45.1267 203.061 42.6523C201.799 45.1752 199.325 46.4852 195.88 46.4852C191.659 46.4852 188.893 44.3019 188.893 40.6145C188.893 36.442 191.902 34.6468 196.608 33.822L202.672 32.8031V32.4635C202.672 30.6684 201.848 29.601 199.955 29.601C198.209 29.601 197.336 30.7169 196.996 32.318L189.718 31.8328C190.397 27.078 193.939 23.7788 200.441 23.7788C206.166 23.7788 210.387 26.2532 210.387 32.2694Z" fill="#DECEFF"/>
<path d="M150.768 66.1445V55.7549H156.998V56.871H152.026V60.3815H156.531V61.4976H152.026V66.1445H150.768ZM158.282 66.1445H156.963L160.778 55.7549H162.076L165.891 66.1445H164.572L161.467 57.3986H161.386L158.282 66.1445ZM158.769 62.0861H164.085V63.2022H158.769V62.0861ZM175.382 59.0017H174.123C174.049 58.6398 173.919 58.3219 173.733 58.0479C173.55 57.774 173.327 57.544 173.063 57.358C172.803 57.1686 172.514 57.0266 172.196 56.9319C171.878 56.8372 171.546 56.7898 171.201 56.7898C170.572 56.7898 170.002 56.9488 169.492 57.2667C168.984 57.5846 168.58 58.053 168.279 58.6719C167.982 59.2908 167.833 60.0501 167.833 60.9497C167.833 61.8493 167.982 62.6086 168.279 63.2275C168.58 63.8464 168.984 64.3149 169.492 64.6328C170.002 64.9507 170.572 65.1096 171.201 65.1096C171.546 65.1096 171.878 65.0623 172.196 64.9676C172.514 64.8729 172.803 64.7325 173.063 64.5465C173.327 64.3571 173.55 64.1255 173.733 63.8515C173.919 63.5742 174.049 63.2563 174.123 62.8978H175.382C175.287 63.4288 175.114 63.9039 174.864 64.3233C174.614 64.7427 174.303 65.0995 173.931 65.3937C173.559 65.6846 173.141 65.9061 172.678 66.0583C172.218 66.2105 171.726 66.2866 171.201 66.2866C170.315 66.2866 169.527 66.0701 168.837 65.6372C168.147 65.2043 167.605 64.5888 167.209 63.7906C166.813 62.9925 166.615 62.0455 166.615 60.9497C166.615 59.8539 166.813 58.907 167.209 58.1088C167.605 57.3107 168.147 56.6951 168.837 56.2622C169.527 55.8293 170.315 55.6129 171.201 55.6129C171.726 55.6129 172.218 55.689 172.678 55.8412C173.141 55.9934 173.559 56.2166 173.931 56.5108C174.303 56.8017 174.614 57.1568 174.864 57.5761C175.114 57.9921 175.287 58.4673 175.382 59.0017ZM176.846 56.871V55.7549H184.639V56.871H181.372V66.1445H180.113V56.871H176.846ZM194.914 60.9497C194.914 62.0455 194.716 62.9925 194.321 63.7906C193.925 64.5888 193.382 65.2043 192.692 65.6372C192.002 66.0701 191.214 66.2866 190.328 66.2866C189.442 66.2866 188.654 66.0701 187.964 65.6372C187.274 65.2043 186.731 64.5888 186.336 63.7906C185.94 62.9925 185.742 62.0455 185.742 60.9497C185.742 59.8539 185.94 58.907 186.336 58.1088C186.731 57.3107 187.274 56.6951 187.964 56.2622C188.654 55.8293 189.442 55.6129 190.328 55.6129C191.214 55.6129 192.002 55.8293 192.692 56.2622C193.382 56.6951 193.925 57.3107 194.321 58.1088C194.716 58.907 194.914 59.8539 194.914 60.9497ZM193.697 60.9497C193.697 60.0501 193.546 59.2908 193.245 58.6719C192.947 58.053 192.543 57.5846 192.033 57.2667C191.525 56.9488 190.957 56.7898 190.328 56.7898C189.699 56.7898 189.129 56.9488 188.618 57.2667C188.111 57.5846 187.707 58.053 187.406 58.6719C187.108 59.2908 186.96 60.0501 186.96 60.9497C186.96 61.8493 187.108 62.6086 187.406 63.2275C187.707 63.8464 188.111 64.3149 188.618 64.6328C189.129 64.9507 189.699 65.1096 190.328 65.1096C190.957 65.1096 191.525 64.9507 192.033 64.6328C192.543 64.3149 192.947 63.8464 193.245 63.2275C193.546 62.6086 193.697 61.8493 193.697 60.9497ZM197.03 66.1445V55.7549H200.54C201.352 55.7549 202.018 55.8936 202.539 56.1709C203.06 56.4449 203.445 56.822 203.696 57.3022C203.946 57.7825 204.071 58.3286 204.071 58.9408C204.071 59.5529 203.946 60.0958 203.696 60.5692C203.445 61.0427 203.061 61.4148 202.544 61.6853C202.026 61.9525 201.365 62.0861 200.56 62.0861H197.719V60.9497H200.52C201.074 60.9497 201.521 60.8686 201.859 60.7062C202.201 60.5439 202.448 60.3139 202.6 60.0163C202.755 59.7153 202.833 59.3568 202.833 58.9408C202.833 58.5248 202.755 58.1612 202.6 57.8501C202.444 57.5389 202.196 57.2988 201.854 57.1297C201.512 56.9572 201.061 56.871 200.5 56.871H198.288V66.1445H197.03ZM201.92 61.4773L204.477 66.1445H203.016L200.5 61.4773H201.92ZM204.926 55.7549H206.366L209.248 60.6048H209.37L212.251 55.7549H213.692L209.938 61.8629V66.1445H208.68V61.8629L204.926 55.7549Z" fill="#B18CFF"/>
</svg>
