<svg width="260" height="99" viewBox="0 0 260 99" fill="none" xmlns="http://www.w3.org/2000/svg">
<path d="M86.6911 47.7769C75.6074 47.7769 68.719 40.0598 68.719 29.5458C68.719 18.0996 76.6433 9.96812 88.1931 9.96812C93.7867 9.96812 97.6194 11.2112 100.468 13.1793V23.9522C96.1692 16.2351 92.3883 13.3347 87.2608 13.3347C82.2887 13.3347 78.3525 17.3745 78.3525 25.247C78.3525 35.3984 84.1015 40.5259 91.0417 40.5259C95.4441 40.5259 99.0696 39.3347 100.934 36.6414C99.6911 43.6335 94.978 47.7769 86.6911 47.7769ZM125.089 47.7769C121.671 47.7769 119.496 46.1195 118.978 43.2191C117.683 45.5498 114.731 47.7769 111.416 47.7769C107.532 47.7769 104.321 45.3944 104.321 41.51C104.321 37.7291 107.428 35.0359 114.472 33.7928L118.874 33.0159V31.6175C118.874 27.992 116.026 25.8167 111.986 25.8167C109.137 25.8167 107.117 26.49 105.046 28.4582C106.133 23.2789 110.691 20.3267 117.372 20.3267C124.209 20.3267 128.197 24.3665 128.197 31.2032V39.8008C128.197 41.7689 129.026 42.4422 130.579 42.4422C131.149 42.4422 131.719 42.3386 132.392 41.9243C131.46 45.3944 128.611 47.7769 125.089 47.7769ZM113.591 39.0239C113.591 41.4064 115.042 42.5976 116.958 42.5976C117.735 42.5976 118.356 42.4422 118.874 42.0797V41.8725V34.6733L118.305 34.7251C115.249 35.0876 113.591 36.8486 113.591 39.0239ZM134.913 15.9761C134.913 13.8008 134.913 13.8008 132.323 11.6255L144.235 7.89641V24.7809C146.1 21.8805 148.949 20.3267 152.211 20.3267C158.582 20.3267 162.829 25.4024 162.829 33.0159C162.829 41.8207 156.925 47.7769 148.275 47.7769C145.012 47.7769 141.956 46.7928 139.419 44.9801L134.913 47.7769V15.9761ZM144.235 41.1474C145.012 43.7888 146.773 45.4462 148.741 45.4462C151.486 45.4462 153.092 41.7689 153.092 35.5538C153.092 29.1833 150.658 25.506 146.825 25.506C145.737 25.506 144.857 25.8167 144.235 26.2311V41.1474ZM186.492 47.7769C183.074 47.7769 180.899 46.1195 180.381 43.2191C179.086 45.5498 176.134 47.7769 172.819 47.7769C168.934 47.7769 165.723 45.3944 165.723 41.51C165.723 37.7291 168.831 35.0359 175.875 33.7928L180.277 33.0159V31.6175C180.277 27.992 177.429 25.8167 173.389 25.8167C170.54 25.8167 168.52 26.49 166.448 28.4582C167.536 23.2789 172.094 20.3267 178.775 20.3267C185.612 20.3267 189.6 24.3665 189.6 31.2032V39.8008C189.6 41.7689 190.429 42.4422 191.982 42.4422C192.552 42.4422 193.122 42.3386 193.795 41.9243C192.863 45.3944 190.014 47.7769 186.492 47.7769ZM174.994 39.0239C174.994 41.4064 176.444 42.5976 178.361 42.5976C179.138 42.5976 179.759 42.4422 180.277 42.0797V41.8725V34.6733L179.707 34.7251C176.652 35.0876 174.994 36.8486 174.994 39.0239ZM211.062 47C213.652 44.2032 213.652 44.2032 213.652 42.494V30.012C213.652 26.8008 211.942 25.6614 209.871 25.6614C208.317 25.6614 207.022 26.3347 206.245 27.0598V42.494C206.245 44.2032 206.245 44.2032 208.835 47H194.333C196.922 44.2032 196.922 44.2032 196.922 42.494V28.4064C196.922 26.2311 196.922 26.2311 194.333 24.0558L206.245 20.3267V25.9203C207.851 23.1753 211.165 20.3267 215.154 20.3267C220.333 20.3267 222.974 24.2112 222.974 28.7171V42.494C222.974 44.2032 222.974 44.2032 225.564 47H211.062ZM248.401 47.7769C244.983 47.7769 242.807 46.1195 242.289 43.2191C240.994 45.5498 238.042 47.7769 234.728 47.7769C230.843 47.7769 227.632 45.3944 227.632 41.51C227.632 37.7291 230.74 35.0359 237.783 33.7928L242.186 33.0159V31.6175C242.186 27.992 239.337 25.8167 235.297 25.8167C232.449 25.8167 230.429 26.49 228.357 28.4582C229.445 23.2789 234.002 20.3267 240.684 20.3267C247.52 20.3267 251.508 24.3665 251.508 31.2032V39.8008C251.508 41.7689 252.337 42.4422 253.891 42.4422C254.461 42.4422 255.03 42.3386 255.704 41.9243C254.771 45.3944 251.923 47.7769 248.401 47.7769ZM236.903 39.0239C236.903 41.4064 238.353 42.5976 240.269 42.5976C241.046 42.5976 241.668 42.4422 242.186 42.0797V41.8725V34.6733L241.616 34.7251C238.56 35.0876 236.903 36.8486 236.903 39.0239Z" fill="#DECEFF"/>
<rect x="3.09375" y="15.3477" width="5.69721" height="35.6517" rx="2" fill="#B18CFF"/>
<rect x="27" y="24" width="6" height="38" rx="2" fill="#B18CFF"/>
<rect x="50.9583" y="15.3477" width="5.69721" height="35.117" rx="2" fill="#B18CFF"/>
<path d="M29.064 4.50396C29.5802 4.27508 30.1691 4.27509 30.6853 4.50396L55.5319 15.5205C57.1177 16.2236 57.1177 18.4741 55.5319 19.1772L30.6853 30.1938C30.1691 30.4226 29.5802 30.4226 29.064 30.1938L4.21737 19.1772C2.63158 18.4741 2.63158 16.2236 4.21737 15.5205L29.064 4.50396Z" fill="#B18CFF"/>
<path d="M137.693 67H136.293V57.2H140.423C142.243 57.2 143.573 58.278 143.573 60.168C143.573 62.058 142.243 63.136 140.423 63.136H137.693V67ZM137.693 58.46V61.876H140.213C141.473 61.876 142.173 61.288 142.173 60.168C142.173 59.048 141.473 58.46 140.213 58.46H137.693ZM146.423 67H145.093V60H146.353V61.54C146.633 60.49 147.473 59.93 148.383 59.93H149.013V61.218H148.453C147.193 61.218 146.423 62.058 146.423 63.458V67ZM151.757 58.74H150.287V57.2H151.757V58.74ZM151.687 67H150.357V60H151.687V67ZM158.926 61.19L154.894 65.852H159.136V67H153.326V65.81L157.358 61.148H153.396V60H158.926V61.19ZM163.454 67.14C161.718 67.14 160.15 65.936 160.15 63.486C160.15 61.064 161.76 59.86 163.412 59.86C165.232 59.86 166.38 61.12 166.38 62.94V63.71H161.48C161.564 65.306 162.586 66.02 163.44 66.02H163.552C164.238 66.02 164.896 65.67 165.036 64.928H166.366C166.114 66.342 164.896 67.14 163.454 67.14ZM161.564 62.66H165.05C164.994 61.442 164.266 60.98 163.468 60.98H163.356C162.628 60.98 161.816 61.414 161.564 62.66ZM175.085 65.726L178.333 57.2H179.803L175.953 67H174.133L170.213 57.2H171.697L175.085 65.726ZM182.174 67.14C180.844 67.14 179.864 66.258 179.864 65.068C179.864 63.472 181.278 62.996 182.412 62.898L184.344 62.744V62.52C184.344 61.54 183.784 60.98 182.888 60.98H182.776C182.048 60.98 181.418 61.33 181.334 62.03H180.004C180.088 60.742 181.25 59.86 182.832 59.86C184.694 59.86 185.674 61.092 185.674 62.52V65.46C185.674 65.88 185.674 66.51 185.744 67H184.484C184.414 66.65 184.414 65.95 184.414 65.88C184.134 66.51 183.294 67.14 182.174 67.14ZM182.328 66.02H182.44C183.294 66.02 184.344 65.32 184.344 64.48V63.766L182.594 63.906C181.782 63.976 181.194 64.368 181.194 65.012C181.194 65.586 181.67 66.02 182.328 66.02ZM190.018 67.14C188.45 67.14 187.638 66.09 187.638 64.62V60H188.968V64.34C188.968 65.46 189.43 66.02 190.382 66.02H190.494C191.39 66.02 192.258 65.18 192.258 63.78V60H193.588V67H192.258V65.67C191.992 66.44 191.236 67.14 190.018 67.14ZM197.023 67H195.693V57.2H197.023V67ZM203.072 67H201.392C200.412 67 199.852 66.44 199.852 65.46V61.148H198.312V60H199.852V57.732H201.182V60H202.862V61.148H201.182V65.25C201.182 65.67 201.322 65.81 201.742 65.81H203.072V67ZM209.539 67H208.139V57.2H214.999V58.46H209.539V61.61H214.299V62.87H209.539V67ZM217.995 67.14C216.665 67.14 215.685 66.258 215.685 65.068C215.685 63.472 217.099 62.996 218.233 62.898L220.165 62.744V62.52C220.165 61.54 219.605 60.98 218.709 60.98H218.597C217.869 60.98 217.239 61.33 217.155 62.03H215.825C215.909 60.742 217.071 59.86 218.653 59.86C220.515 59.86 221.495 61.092 221.495 62.52V65.46C221.495 65.88 221.495 66.51 221.565 67H220.305C220.235 66.65 220.235 65.95 220.235 65.88C219.955 66.51 219.115 67.14 217.995 67.14ZM218.149 66.02H218.261C219.115 66.02 220.165 65.32 220.165 64.48V63.766L218.415 63.906C217.603 63.976 217.015 64.368 217.015 65.012C217.015 65.586 217.491 66.02 218.149 66.02ZM226.469 67.14C224.313 67.14 223.109 65.558 223.109 63.5C223.109 61.442 224.313 59.86 226.469 59.86C228.065 59.86 229.199 60.798 229.339 62.31H228.009C227.883 61.54 227.323 60.98 226.525 60.98H226.413C225.069 60.98 224.439 62.17 224.439 63.5C224.439 64.83 225.069 66.02 226.413 66.02H226.525C227.323 66.02 227.883 65.46 228.009 64.69H229.339C229.199 66.202 228.065 67.14 226.469 67.14ZM234.873 67H233.193C232.213 67 231.653 66.44 231.653 65.46V61.148H230.113V60H231.653V57.732H232.983V60H234.663V61.148H232.983V65.25C232.983 65.67 233.123 65.81 233.543 65.81H234.873V67ZM239.156 67.14C237.266 67.14 235.796 65.67 235.796 63.5C235.796 61.33 237.266 59.86 239.156 59.86C241.046 59.86 242.516 61.33 242.516 63.5C242.516 65.67 241.046 67.14 239.156 67.14ZM239.1 66.02H239.212C240.346 66.02 241.186 65.11 241.186 63.5C241.186 61.89 240.346 60.98 239.212 60.98H239.1C237.966 60.98 237.126 61.89 237.126 63.5C237.126 65.11 237.966 66.02 239.1 66.02ZM245.517 67H244.187V60H245.447V61.54C245.727 60.49 246.567 59.93 247.477 59.93H248.107V61.218H247.547C246.287 61.218 245.517 62.058 245.517 63.458V67ZM254.378 60H255.75L252.88 66.846V68.12C252.88 69.1 252.39 69.59 251.41 69.59H249.1V68.4H251.06C251.48 68.4 251.62 68.26 251.62 67.84V66.86L248.68 60H250.094L252.278 65.166L254.378 60Z" fill="white"/>
</svg>
