<svg width="178" height="60" viewBox="0 0 178 60" fill="none" xmlns="http://www.w3.org/2000/svg">
<path d="M43.1572 25.4C43.1572 17.64 48.7172 12.32 56.0772 12.32C63.7972 12.32 67.9172 17.24 68.3972 23.52L61.8772 23.76C61.4772 20.96 59.9572 18.36 56.0372 18.36C52.3172 18.36 50.1572 21.12 50.1572 25.4C50.1572 29.68 52.3172 32.44 56.0372 32.44C59.9572 32.44 61.4772 29.84 61.8772 27.04L68.3972 27.32C67.9172 33.6 63.7972 38.48 56.0772 38.48C48.7172 38.48 43.1572 33.16 43.1572 25.4ZM81.195 30.56V30.28L78.555 30.76C76.995 31.08 76.075 31.56 76.075 32.72C76.075 33.64 76.795 34.24 77.875 34.24C79.715 34.24 81.195 32.88 81.195 30.56ZM87.555 26.68V32.76C87.555 33.68 87.955 34.08 88.635 34.08C89.155 34.08 89.555 34 90.075 33.8V37.24C89.155 37.88 87.875 38.4 86.035 38.4C83.835 38.4 82.115 37.28 81.515 35.24C80.475 37.32 78.435 38.4 75.595 38.4C72.115 38.4 69.835 36.6 69.835 33.56C69.835 30.12 72.315 28.64 76.195 27.96L81.195 27.12V26.84C81.195 25.36 80.515 24.48 78.955 24.48C77.515 24.48 76.795 25.4 76.515 26.72L70.515 26.32C71.075 22.4 73.995 19.68 79.355 19.68C84.075 19.68 87.555 21.72 87.555 26.68ZM98.4487 28.96V29.2C98.4487 31.8 99.8487 33.48 102.049 33.48C104.569 33.48 105.729 31.68 105.729 29.08C105.729 26.52 104.569 24.72 102.049 24.72C99.8487 24.72 98.4487 26.4 98.4487 28.96ZM98.0887 34.92L96.9687 38H91.9687V12.8H98.4487V23.24C99.3287 21.12 101.329 19.68 104.329 19.68C109.569 19.68 112.249 23.84 112.249 29.08C112.249 34.36 109.569 38.48 104.209 38.48C101.329 38.48 99.0887 37.08 98.0887 34.92ZM125.14 30.56V30.28L122.5 30.76C120.94 31.08 120.02 31.56 120.02 32.72C120.02 33.64 120.74 34.24 121.82 34.24C123.66 34.24 125.14 32.88 125.14 30.56ZM131.5 26.68V32.76C131.5 33.68 131.9 34.08 132.58 34.08C133.1 34.08 133.5 34 134.02 33.8V37.24C133.1 37.88 131.82 38.4 129.98 38.4C127.78 38.4 126.06 37.28 125.46 35.24C124.42 37.32 122.38 38.4 119.54 38.4C116.06 38.4 113.78 36.6 113.78 33.56C113.78 30.12 116.26 28.64 120.14 27.96L125.14 27.12V26.84C125.14 25.36 124.46 24.48 122.9 24.48C121.46 24.48 120.74 25.4 120.46 26.72L114.46 26.32C115.02 22.4 117.94 19.68 123.3 19.68C128.02 19.68 131.5 21.72 131.5 26.68ZM142.394 29.24V38H135.914V20.16H142.394V22.84C143.354 20.88 145.474 19.68 148.154 19.68C153.034 19.68 154.594 23.08 154.594 26.8V38H148.114V28.52C148.114 26.08 147.434 24.8 145.474 24.8C143.274 24.8 142.394 26.56 142.394 29.24ZM168.226 30.56V30.28L165.586 30.76C164.026 31.08 163.106 31.56 163.106 32.72C163.106 33.64 163.826 34.24 164.906 34.24C166.746 34.24 168.226 32.88 168.226 30.56ZM174.586 26.68V32.76C174.586 33.68 174.986 34.08 175.666 34.08C176.186 34.08 176.586 34 177.106 33.8V37.24C176.186 37.88 174.906 38.4 173.066 38.4C170.866 38.4 169.146 37.28 168.546 35.24C167.506 37.32 165.466 38.4 162.626 38.4C159.146 38.4 156.866 36.6 156.866 33.56C156.866 30.12 159.346 28.64 163.226 27.96L168.226 27.12V26.84C168.226 25.36 167.546 24.48 165.986 24.48C164.546 24.48 163.826 25.4 163.546 26.72L157.546 26.32C158.106 22.4 161.026 19.68 166.386 19.68C171.106 19.68 174.586 21.72 174.586 26.68Z" fill="#DECEFF"/>
<path d="M48.7854 56V45.8182H52.2258C53.0212 45.8182 53.6742 45.9541 54.1846 46.2259C54.695 46.4943 55.0729 46.8639 55.3181 47.3345C55.5634 47.8052 55.686 48.3404 55.686 48.9403C55.686 49.5402 55.5634 50.0722 55.3181 50.5362C55.0729 51.0002 54.6967 51.3648 54.1896 51.63C53.6825 51.8918 53.0345 52.0227 52.2457 52.0227H49.4616V50.9091H52.2059C52.7495 50.9091 53.187 50.8295 53.5184 50.6705C53.8532 50.5114 54.0951 50.286 54.2443 49.9943C54.3967 49.6993 54.4729 49.348 54.4729 48.9403C54.4729 48.5327 54.3967 48.1764 54.2443 47.8714C54.0918 47.5665 53.8482 47.3312 53.5134 47.1655C53.1787 46.9964 52.7362 46.9119 52.186 46.9119H50.0184V56H48.7854ZM53.5781 51.4261L56.0837 56H54.6519L52.186 51.4261H53.5781ZM57.7405 56V45.8182H63.8854V46.9119H58.9735V50.3523H63.5672V51.446H58.9735V54.9062H63.965V56H57.7405ZM67.9571 56L65.1731 45.8182H66.4259L68.5537 54.1108H68.6532L70.8208 45.8182H72.2128L74.3804 54.1108H74.4799L76.6077 45.8182H77.8606L75.0765 56H73.8037L71.5566 47.8864H71.477L69.2299 56H67.9571ZM79.0214 56H77.7288L81.4674 45.8182H82.7402L86.4788 56H85.1862L82.1436 47.429H82.064L79.0214 56ZM79.4987 52.0227H84.7089V53.1165H79.4987V52.0227ZM88.0647 56V45.8182H91.5051C92.3005 45.8182 92.9535 45.9541 93.4639 46.2259C93.9743 46.4943 94.3521 46.8639 94.5974 47.3345C94.8427 47.8052 94.9653 48.3404 94.9653 48.9403C94.9653 49.5402 94.8427 50.0722 94.5974 50.5362C94.3521 51.0002 93.976 51.3648 93.4689 51.63C92.9618 51.8918 92.3138 52.0227 91.525 52.0227H88.7409V50.9091H91.4852C92.0288 50.9091 92.4663 50.8295 92.7977 50.6705C93.1325 50.5114 93.3744 50.286 93.5235 49.9943C93.676 49.6993 93.7522 49.348 93.7522 48.9403C93.7522 48.5327 93.676 48.1764 93.5235 47.8714C93.3711 47.5665 93.1275 47.3312 92.7927 47.1655C92.458 46.9964 92.0155 46.9119 91.4653 46.9119H89.2977V56H88.0647ZM92.8574 51.4261L95.363 56H93.9312L91.4653 51.4261H92.8574ZM100.162 56H97.0198V45.8182H100.301C101.289 45.8182 102.134 46.022 102.837 46.4297C103.539 46.834 104.078 47.4157 104.452 48.1747C104.827 48.9304 105.014 49.8352 105.014 50.8892C105.014 51.9498 104.825 52.8629 104.447 53.6286C104.07 54.3909 103.519 54.9775 102.797 55.3885C102.074 55.7962 101.196 56 100.162 56ZM98.2528 54.9062H100.082C100.924 54.9062 101.622 54.7438 102.175 54.419C102.729 54.0942 103.142 53.6319 103.413 53.032C103.685 52.4321 103.821 51.7178 103.821 50.8892C103.821 50.0672 103.687 49.3596 103.418 48.7663C103.15 48.1697 102.749 47.7124 102.215 47.3942C101.682 47.0727 101.017 46.9119 100.222 46.9119H98.2528V54.9062ZM112.651 48.3636C112.591 47.8598 112.349 47.4688 111.925 47.1903C111.5 46.9119 110.98 46.7727 110.364 46.7727C109.913 46.7727 109.518 46.8456 109.18 46.9915C108.846 47.1373 108.584 47.3378 108.395 47.593C108.209 47.8482 108.116 48.1383 108.116 48.4631C108.116 48.7348 108.181 48.9685 108.31 49.1641C108.443 49.3563 108.612 49.517 108.817 49.6463C109.023 49.7723 109.238 49.8767 109.464 49.9595C109.689 50.0391 109.896 50.1037 110.085 50.1534L111.119 50.4318C111.384 50.5014 111.679 50.5975 112.004 50.7202C112.332 50.8428 112.646 51.0102 112.944 51.2223C113.245 51.4311 113.494 51.6996 113.69 52.0277C113.885 52.3558 113.983 52.7585 113.983 53.2358C113.983 53.786 113.839 54.2831 113.55 54.7273C113.265 55.1714 112.848 55.5244 112.298 55.7862C111.751 56.0481 111.086 56.179 110.304 56.179C109.575 56.179 108.943 56.0613 108.41 55.826C107.879 55.5907 107.462 55.2625 107.157 54.8416C106.855 54.4207 106.685 53.9318 106.645 53.375H107.918C107.951 53.7595 108.08 54.0777 108.305 54.3295C108.534 54.5781 108.822 54.7637 109.17 54.8864C109.522 55.0057 109.9 55.0653 110.304 55.0653C110.775 55.0653 111.197 54.9891 111.572 54.8366C111.946 54.6809 112.243 54.4654 112.462 54.1903C112.68 53.9119 112.79 53.5871 112.79 53.2159C112.79 52.8778 112.695 52.6027 112.506 52.3906C112.317 52.1785 112.069 52.0062 111.761 51.8736C111.452 51.741 111.119 51.625 110.761 51.5256L109.508 51.1676C108.713 50.9389 108.083 50.6125 107.619 50.1882C107.155 49.764 106.923 49.2088 106.923 48.5227C106.923 47.9527 107.077 47.4555 107.386 47.0312C107.697 46.6037 108.115 46.2723 108.638 46.0369C109.165 45.7983 109.754 45.679 110.403 45.679C111.06 45.679 111.643 45.7966 112.153 46.032C112.664 46.264 113.068 46.5821 113.366 46.9865C113.668 47.3909 113.827 47.8499 113.844 48.3636H112.651ZM119.948 56V45.8182H123.507C124.216 45.8182 124.801 45.9408 125.262 46.1861C125.723 46.428 126.066 46.7545 126.291 47.1655C126.517 47.5732 126.629 48.0256 126.629 48.5227C126.629 48.9602 126.551 49.3215 126.396 49.6065C126.243 49.8916 126.041 50.117 125.789 50.2827C125.541 50.4484 125.27 50.571 124.979 50.6506V50.75C125.29 50.7699 125.604 50.8793 125.918 51.0781C126.233 51.277 126.497 51.562 126.709 51.9332C126.921 52.3045 127.027 52.7585 127.027 53.2955C127.027 53.8059 126.911 54.2649 126.679 54.6726C126.447 55.0803 126.081 55.4034 125.58 55.642C125.08 55.8807 124.429 56 123.627 56H119.948ZM121.181 54.9062H123.627C124.432 54.9062 125.004 54.7505 125.342 54.4389C125.683 54.1241 125.854 53.7429 125.854 53.2955C125.854 52.9508 125.766 52.6326 125.59 52.3409C125.415 52.0459 125.164 51.8106 124.84 51.6349C124.515 51.456 124.13 51.3665 123.686 51.3665H121.181V54.9062ZM121.181 50.2926H123.467C123.839 50.2926 124.173 50.2197 124.472 50.0739C124.773 49.928 125.012 49.7225 125.188 49.4574C125.367 49.1922 125.456 48.8807 125.456 48.5227C125.456 48.0753 125.3 47.6958 124.989 47.3842C124.677 47.0694 124.183 46.9119 123.507 46.9119H121.181V50.2926ZM135.735 45.8182H136.968V52.5597C136.968 53.2557 136.804 53.8771 136.476 54.424C136.151 54.9676 135.692 55.3968 135.098 55.7116C134.505 56.0232 133.809 56.179 133.01 56.179C132.212 56.179 131.516 56.0232 130.922 55.7116C130.329 55.3968 129.868 54.9676 129.54 54.424C129.215 53.8771 129.053 53.2557 129.053 52.5597V45.8182H130.286V52.4602C130.286 52.9574 130.395 53.3999 130.614 53.7876C130.833 54.1721 131.144 54.4754 131.549 54.6974C131.956 54.9162 132.444 55.0256 133.01 55.0256C133.577 55.0256 134.064 54.9162 134.472 54.6974C134.88 54.4754 135.191 54.1721 135.407 53.7876C135.625 53.3999 135.735 52.9574 135.735 52.4602V45.8182ZM140.663 45.8182V56H139.43V45.8182H140.663ZM143.135 56V45.8182H144.368V54.9062H149.101V56H143.135ZM154.152 56H151.01V45.8182H154.291C155.279 45.8182 156.124 46.022 156.827 46.4297C157.529 46.834 158.068 47.4157 158.443 48.1747C158.817 48.9304 159.004 49.8352 159.004 50.8892C159.004 51.9498 158.815 52.8629 158.438 53.6286C158.06 54.3909 157.51 54.9775 156.787 55.3885C156.065 55.7962 155.186 56 154.152 56ZM152.243 54.9062H154.073C154.914 54.9062 155.612 54.7438 156.166 54.419C156.719 54.0942 157.132 53.6319 157.404 53.032C157.675 52.4321 157.811 51.7178 157.811 50.8892C157.811 50.0672 157.677 49.3596 157.408 48.7663C157.14 48.1697 156.739 47.7124 156.205 47.3942C155.672 47.0727 155.007 46.9119 154.212 46.9119H152.243V54.9062ZM161.073 56V45.8182H167.217V46.9119H162.306V50.3523H166.899V51.446H162.306V54.9062H167.297V56H161.073ZM169.44 56V45.8182H172.88C173.676 45.8182 174.328 45.9541 174.839 46.2259C175.349 46.4943 175.727 46.8639 175.972 47.3345C176.218 47.8052 176.34 48.3404 176.34 48.9403C176.34 49.5402 176.218 50.0722 175.972 50.5362C175.727 51.0002 175.351 51.3648 174.844 51.63C174.337 51.8918 173.689 52.0227 172.9 52.0227H170.116V50.9091H172.86C173.404 50.9091 173.841 50.8295 174.173 50.6705C174.507 50.5114 174.749 50.286 174.899 49.9943C175.051 49.6993 175.127 49.348 175.127 48.9403C175.127 48.5327 175.051 48.1764 174.899 47.8714C174.746 47.5665 174.502 47.3312 174.168 47.1655C173.833 46.9964 173.39 46.9119 172.84 46.9119H170.673V56H169.44ZM174.232 51.4261L176.738 56H175.306L172.84 51.4261H174.232Z" fill="#B18CFF"/>
<ellipse cx="18.7" cy="24.3977" rx="18" ry="17.9993" fill="#8050E3"/>
<mask id="mask0_1_3752" style="mask-type:alpha" maskUnits="userSpaceOnUse" x="0" y="6" width="37" height="37">
<ellipse cx="18.7" cy="24.3977" rx="18" ry="17.9993" fill="#8050E3"/>
</mask>
<g mask="url(#mask0_1_3752)">
<path d="M17.822 20.989C17.5279 27.7353 17.654 43.1934 20.5119 51.0546" stroke="#DECEFF" stroke-width="3.59993" stroke-linecap="round"/>
<path d="M18.2904 22.6451C17.9892 18.7622 16.7584 9.92224 8.6252 15.9904C11.4346 15.8425 16.1767 19.0393 18.2904 22.6451Z" fill="#DECEFF" stroke="#C8ADFF" stroke-width="1.27739"/>
<path d="M18.175 23.915C16.0332 19.974 10.5716 14.6287 5.85933 24.7757C8.42005 23.3181 14.4682 21.1053 18.175 23.915Z" fill="#DECEFF" stroke="#C8ADFF" stroke-width="1.27739"/>
<path d="M19.2048 24.5197C15.6594 22.5675 8.47527 21.6453 9.9425 31.565C11.1429 29.2387 15.0441 24.1709 19.2048 24.5197Z" fill="#DECEFF" stroke="#C8ADFF" stroke-width="1.27739"/>
<path d="M18.2332 23.2797C18.3731 20.2748 20.1444 10.3802 27.3768 14.483C24.9393 14.563 19.9513 20.3627 18.2332 23.2797Z" fill="#DECEFF" stroke="#C8ADFF" stroke-width="1.27739"/>
<path d="M18.1751 23.9181C20.2268 19.7452 25.5583 13.9726 30.4711 24.2649C27.8874 22.8696 21.811 20.8468 18.1751 23.9181Z" fill="#DECEFF" stroke="#C8ADFF" stroke-width="1.27739"/>
<path d="M18.1171 24.5531C21.6126 22.527 28.5493 21.3251 27.0299 31.0532C25.8702 28.8248 22.2037 24.0702 18.1171 24.5531Z" fill="#DECEFF" stroke="#C8ADFF" stroke-width="1.27739"/>
</g>
</svg>
