<svg width="72" height="64" viewBox="0 0 72 64" fill="none" xmlns="http://www.w3.org/2000/svg">
<g id="Bird">
<path id="Ellipse 113" d="M15.0246 8.78355C23.0085 8.78355 29.4808 15.1289 29.4808 22.9563L0.568359 22.9563C0.568359 15.1289 7.04062 8.78355 15.0246 8.78355Z" fill="#FFB636"/>
<path id="Ellipse 114" d="M26.4717 45.24C14.0564 32.8247 14.0564 12.6954 26.4717 0.280096L71.4316 45.24C59.0163 57.6553 38.8871 57.6553 26.4717 45.24Z" fill="#9B6AFF"/>
<path id="Ellipse 115" d="M52.7226 18.9881C61.1762 18.9881 68.0292 25.8411 68.0292 34.2947L37.416 34.2947C37.416 25.8411 44.269 18.9881 52.7226 18.9881Z" fill="#8050E3"/>
<circle id="Ellipse 116" cx="4.25182" cy="4.25182" r="4.25182" transform="matrix(-1 0 0 1 32.8848 12.7517)" fill="#21064E"/>
<rect id="Rectangle 264" width="4.53528" height="10.7713" transform="matrix(-1 0 0 1 57.2559 53.5696)" fill="#9B6AFF"/>
<path id="Ellipse 111" d="M51.589 58.6717C54.72 58.6717 57.2581 61.2099 57.2581 64.3408L45.9199 64.3408C45.9199 61.2099 48.4581 58.6717 51.589 58.6717Z" fill="#FFB636"/>
</g>
</svg>
