<svg width="133" height="52" viewBox="0 0 133 52" fill="none" xmlns="http://www.w3.org/2000/svg">
<g id="logo-pt-topnav">
<g id="pooltogether-trophy">
<path id="Subtract" fill-rule="evenodd" clip-rule="evenodd" d="M5.50013 11.7261C5.40741 10.9744 5.80575 10.9022 6.0165 10.9601C6.0165 10.9601 9.51107 12.5102 16.4504 12.8062C23.3898 13.1023 27.1847 11.5486 27.1847 11.5486C27.3942 11.5024 27.7945 11.5967 27.7191 12.3438C27.6437 13.0909 27.5426 15.2524 27.5014 16.2397L31.4944 16.3507C31.9845 16.347 32.8949 16.6498 32.6151 17.8907C32.5582 18.1431 32.4755 18.5753 32.3694 19.1302C31.8234 21.9849 30.6565 28.0865 29.1795 29.6571C28.1431 30.8769 26.7318 31.462 25.6315 31.6916C24.7157 31.9391 23.7561 31.8671 23.4243 31.8422L23.4242 31.8422C23.3766 31.8386 23.342 31.836 23.3222 31.8355C22.5993 32.9079 20.7457 35.2184 19.1146 35.8806C18.5824 36.0583 18.5894 36.2509 18.5949 36.4024C18.5953 36.4147 18.5957 36.4267 18.5959 36.4385C18.6997 37.8461 19.1002 40.9996 19.8722 42.3529C19.9749 42.5546 20.0051 42.7068 20.0258 42.8112C20.0484 42.9254 20.0598 42.9824 20.1421 42.9847L21.1403 43.0125C21.2454 43.0154 21.4976 43.0224 21.6681 43.2352C21.7592 43.349 21.9163 43.3505 22.0872 43.352C22.316 43.3541 22.5696 43.3565 22.7231 43.6288C22.8874 43.9203 22.8583 44.2264 22.8434 44.3841C22.8401 44.4185 22.8375 44.4458 22.8378 44.4644L24.4139 44.5082C24.6066 44.5135 24.9929 44.6179 24.9973 44.9926L25.0333 48.1152C25.034 48.1721 25.0305 48.2185 25.0277 48.2565C25.015 48.4269 25.015 48.4269 25.4572 48.4392L26.8232 48.4771C26.9109 48.4796 27.086 48.4949 27.0913 48.9528L27.1076 50.358C27.1088 50.4621 27.1112 50.6702 26.6383 50.6571L7.46662 50.1241C6.99377 50.111 6.99136 49.9028 6.99016 49.7987L6.97394 48.3936C6.96865 47.9356 7.14354 47.93 7.23122 47.9325L8.59723 47.9704C9.03949 47.9827 9.03949 47.9827 9.02284 47.8115L9.02283 47.8115L9.02283 47.8115C9.01912 47.7733 9.01459 47.7267 9.01393 47.6699L8.97788 44.5473C8.97355 44.1726 9.35775 44.0896 9.5504 44.095L11.1266 44.1388C11.1263 44.1202 11.1231 44.0927 11.1191 44.0582C11.1005 43.8995 11.0644 43.5916 11.222 43.309C11.3693 43.0451 11.623 43.0569 11.8519 43.0675C12.0229 43.0754 12.18 43.0827 12.2686 42.9739C12.4343 42.7704 12.6865 42.7775 12.7916 42.7804L13.7898 42.8081C13.8721 42.8104 13.8821 42.7539 13.9022 42.641C13.9205 42.5376 13.9472 42.387 14.0453 42.1909C14.7865 40.8796 15.1144 37.7464 15.1858 36.3437C15.1856 36.332 15.1858 36.32 15.186 36.3077L15.186 36.3076C15.1879 36.1563 15.1905 35.964 14.6538 35.7566C13.0064 35.0032 11.0982 32.5882 10.3501 31.4748C10.3304 31.4743 10.296 31.475 10.2489 31.4759L10.2486 31.4759L10.2481 31.4759L10.2481 31.4759C9.91663 31.4823 8.95805 31.501 8.03597 31.2024C6.92965 30.9115 5.5039 30.2476 4.4387 28.9693C2.92448 27.3155 1.61584 21.1451 1.00356 18.2582C0.884554 17.697 0.791854 17.26 0.729068 17.0042C0.420429 15.747 1.32439 15.4947 1.81495 15.5256L5.80789 15.6366C5.74393 14.6464 5.59284 12.4779 5.50013 11.7261ZM2.91496 17.293C2.30058 17.2668 2.4564 17.9819 2.57496 18.526C2.59035 18.5966 2.60511 18.6643 2.61747 18.7272C2.72512 19.2744 3.2212 21.531 4.49419 25.1736C5.76718 28.8162 8.13373 29.139 9.15788 28.8451C8.43261 27.319 6.87904 22.4539 6.55622 20.7762C6.23341 19.0985 5.83756 17.4176 5.39918 17.399L2.91496 17.293ZM30.7777 19.4566C30.8906 18.9204 31.039 18.2156 30.4247 18.2L27.9407 18.137C27.5024 18.1258 27.1239 19.7803 26.8184 21.4366C26.513 23.093 25.0095 27.8541 24.2998 29.3314C25.3274 29.6951 27.6914 29.5332 28.927 25.9759C30.1625 22.4187 30.6352 20.195 30.7372 19.655C30.7489 19.5929 30.763 19.5262 30.7777 19.4566L30.7777 19.4566ZM20.3174 24.7861L16.7674 26.928L13.17 24.5803L16.7972 29.8059L16.7972 29.8073L16.7977 29.8066L16.7982 29.8074L16.7982 29.8059L20.3174 24.7861ZM16.6653 17.1368L16.6652 17.1335L16.6643 17.1352L16.6633 17.1335L16.6633 17.1367L13.1322 23.1679L16.7513 25.4879L16.7513 25.4891L16.7523 25.4885L16.7532 25.4891L16.7532 25.4879L20.3256 23.3751L16.6653 17.1368Z" fill="#FFB636"/>
<path id="Ellipse 1" d="M27.9583 11.0054C27.966 12.0154 23.0436 12.7829 16.9639 12.7197C10.8841 12.6566 5.80139 11.7838 5.79367 10.7739C5.78594 9.76397 10.8561 8.99926 16.9359 9.06242C23.0157 9.12557 27.9506 9.99549 27.9583 11.0054Z" fill="#FFD469"/>
<path id="Ellipse 2" d="M24.6909 14.6232C25.2505 14.6368 25.3505 14.6393 26.3601 14.3185C26.2443 14.9722 25.6584 19.9329 25.4431 20.7085C24.8677 22.7808 24.2312 25.9896 23.3517 26.5913C23.1846 26.7056 22.4383 26.569 22.1586 26.3887C21.8788 26.2084 22.8117 24.4425 23.9208 20.6715C24.518 16.592 24.2879 14.8107 24.6909 14.6232Z" fill="#FFCC4E"/>
</g>
<g id="pooltogether-white-wordmark">
<path id="pool" d="M54.1534 9.391C60.8632 9.391 66.3025 14.9212 66.3025 21.743V28.8454C66.3025 35.6672 60.8632 41.1973 54.1534 41.1973C53.0994 41.1973 52.0768 41.0609 51.1017 40.8044L51.1018 41.6428C51.1018 46.6333 47.1035 50.6883 42.1407 50.7689L41.99 50.7701V23.5958L42.0039 23.5954L42.0043 21.743C42.0043 14.9212 47.4436 9.391 54.1534 9.391ZM108.56 9.391C115.274 9.391 120.716 14.9528 120.716 21.8136V28.9565C120.716 35.8173 115.274 41.3791 108.56 41.3791C101.846 41.3791 96.4037 35.8173 96.4037 28.9565V21.8136C96.4037 14.9528 101.846 9.391 108.56 9.391ZM81.3531 8.80406C88.0668 8.80406 93.5094 14.3658 93.5094 21.2266V28.3696C93.5094 35.2304 88.0668 40.7922 81.3531 40.7922C74.6394 40.7922 69.1969 35.2304 69.1969 28.3696V21.2266C69.1969 14.3658 74.6394 8.80406 81.3531 8.80406ZM132.872 0V31.5146C132.872 36.5872 128.808 40.709 123.764 40.7909L123.611 40.7922V9.27759C123.611 4.15372 127.757 0 132.872 0ZM108.56 18.7079C106.882 18.7079 105.521 20.0984 105.521 21.8136V28.9565C105.521 30.6717 106.882 32.0622 108.56 32.0622C110.238 32.0622 111.599 30.6717 111.599 28.9565V21.8136C111.599 20.0984 110.238 18.7079 108.56 18.7079ZM54.1534 18.655C52.476 18.655 51.1161 20.0375 51.1161 21.743V28.8454C51.1161 30.5508 52.476 31.9333 54.1534 31.9333C55.8308 31.9333 57.1907 30.5508 57.1907 28.8454V21.743C57.1907 20.0375 55.8308 18.655 54.1534 18.655ZM81.3531 18.121C79.6747 18.121 78.314 19.5114 78.314 21.2266V28.3696C78.314 30.0848 79.6747 31.4752 81.3531 31.4752C83.0315 31.4752 84.3922 30.0848 84.3922 28.3696V21.2266C84.3922 19.5114 83.0315 18.121 81.3531 18.121Z" fill="white"/>
<g id="together">
<path d="M98.8525 49.2816H98.5998C98.3485 49.2816 98.1278 49.0464 98.1278 48.6801V46.9494H98.6667C98.9176 46.9494 99.109 46.7834 99.109 46.5472C99.109 46.4278 99.0645 46.3216 98.983 46.2456C98.902 46.1701 98.7908 46.1302 98.6667 46.1302H98.1278V45.1597C98.1278 44.8947 97.9301 44.6984 97.6633 44.6984C97.3964 44.6984 97.1987 44.8947 97.1987 45.1597V46.1302H96.9497C96.8256 46.1302 96.7144 46.1701 96.6334 46.2456C96.552 46.3216 96.5075 46.4278 96.5075 46.5472C96.5075 46.7834 96.6988 46.9494 96.9497 46.9494H97.1987V48.6801C97.1987 49.5419 97.7971 50.2042 98.5998 50.2042H98.7336C99.0224 50.2042 99.2651 50.0218 99.2651 49.7429C99.2651 49.4901 99.0937 49.2816 98.8525 49.2816Z" fill="white"/>
<path fill-rule="evenodd" clip-rule="evenodd" d="M104.456 48.0971L104.456 48.0965C104.448 46.8442 103.561 45.9531 102.319 45.9531C101.694 45.9531 101.157 46.1736 100.776 46.5551C100.395 46.9365 100.175 47.4735 100.175 48.0971C100.175 48.7171 100.395 49.2523 100.776 49.6327C101.157 50.0131 101.694 50.2337 102.319 50.2337C102.94 50.2337 103.475 50.013 103.856 49.6326C104.236 49.2522 104.456 48.7171 104.456 48.0971ZM102.319 46.8018C102.681 46.8018 102.985 46.9362 103.199 47.1621C103.413 47.3884 103.542 47.7117 103.542 48.0971C103.542 48.4824 103.413 48.8038 103.199 49.0281C102.986 49.2522 102.682 49.3849 102.319 49.3849C101.956 49.3849 101.65 49.2521 101.435 49.0279C101.219 48.8034 101.089 48.482 101.089 48.0971C101.089 47.3314 101.602 46.8018 102.319 46.8018Z" fill="white"/>
<path fill-rule="evenodd" clip-rule="evenodd" d="M107.691 51.8795C106.96 51.8795 106.293 51.5887 105.85 51.0332C105.768 50.933 105.737 50.816 105.757 50.7039C105.776 50.5926 105.844 50.4945 105.944 50.4268L105.945 50.4263C106.168 50.279 106.437 50.3454 106.583 50.5352C106.831 50.8492 107.211 51.0308 107.706 51.0308C108.04 51.0308 108.344 50.9087 108.564 50.6776C108.785 50.4466 108.929 50.0998 108.929 49.6396V49.5811C108.6 49.9921 108.123 50.2337 107.558 50.2337C106.975 50.2337 106.474 50.0115 106.12 49.6302C105.766 49.2494 105.562 48.7151 105.562 48.0971C105.562 47.4735 105.782 46.9365 106.163 46.5551C106.544 46.1736 107.082 45.9531 107.706 45.9531C108.948 45.9531 109.835 46.8442 109.843 48.0965L109.843 48.0971L109.843 49.6912C109.843 50.9039 108.966 51.8795 107.691 51.8795ZM107.706 49.3849C107.344 49.3849 107.038 49.2521 106.822 49.0279C106.606 48.8034 106.476 48.482 106.476 48.0971C106.476 47.3314 106.989 46.8018 107.706 46.8018C108.069 46.8018 108.372 46.9362 108.586 47.1621C108.8 47.3884 108.929 47.7117 108.929 48.0971C108.929 48.4824 108.801 48.8038 108.587 49.0281C108.373 49.2522 108.069 49.3849 107.706 49.3849Z" fill="white"/>
<path fill-rule="evenodd" clip-rule="evenodd" d="M114.55 49.1477C114.387 49.014 114.146 49.0195 113.967 49.1523C113.781 49.2889 113.444 49.4145 113.161 49.4145C112.487 49.4145 111.989 49.0219 111.847 48.4476H114.558C114.679 48.4476 114.789 48.4072 114.868 48.3317C114.948 48.2559 114.993 48.15 114.993 48.0307C114.993 47.4299 114.815 46.9099 114.478 46.539C114.141 46.1669 113.652 45.9531 113.049 45.9531C112.439 45.9531 111.912 46.1741 111.539 46.5558C111.165 46.9373 110.949 47.474 110.949 48.0971C110.949 48.7181 111.177 49.2536 111.571 49.6337C111.965 50.0138 112.518 50.2337 113.161 50.2337C113.633 50.2337 114.211 50.0433 114.563 49.7637C114.665 49.6853 114.721 49.5773 114.717 49.4603C114.713 49.345 114.652 49.2357 114.552 49.1492L114.55 49.1477ZM113.049 46.7723C113.361 46.7723 113.607 46.8767 113.785 47.0503C113.943 47.2044 114.053 47.4177 114.106 47.6727H111.855C111.919 47.4175 112.044 47.2051 112.222 47.0513C112.424 46.8768 112.701 46.7723 113.049 46.7723Z" fill="white"/>
<path d="M117.97 49.2816H117.718C117.466 49.2816 117.246 49.0464 117.246 48.6801V46.9494H117.784C118.035 46.9494 118.227 46.7834 118.227 46.5472C118.227 46.4278 118.182 46.3216 118.101 46.2456C118.02 46.1701 117.909 46.1302 117.784 46.1302H117.246V45.1597C117.246 44.8947 117.048 44.6984 116.781 44.6984C116.514 44.6984 116.316 44.8947 116.316 45.1597V46.1302H116.067C115.943 46.1302 115.832 46.1701 115.751 46.2456C115.67 46.3216 115.625 46.4278 115.625 46.5472C115.625 46.7834 115.817 46.9494 116.067 46.9494H116.316V48.6801C116.316 49.5419 116.915 50.2042 117.718 50.2042H117.851C118.14 50.2042 118.383 50.0218 118.383 49.7429C118.383 49.4901 118.211 49.2816 117.97 49.2816Z" fill="white"/>
<path d="M121.615 45.9457C121.166 45.9457 120.759 46.085 120.444 46.3283V44.7243C120.444 44.5915 120.397 44.4731 120.311 44.3878C120.225 44.3025 120.106 44.2556 119.972 44.2556C119.839 44.2556 119.72 44.3025 119.634 44.3878C119.548 44.4731 119.5 44.5915 119.5 44.7243V49.7429C119.5 49.8757 119.548 49.994 119.634 50.0794C119.72 50.1647 119.839 50.2115 119.972 50.2115C120.106 50.2115 120.225 50.1647 120.311 50.0794C120.397 49.994 120.444 49.8757 120.444 49.7429V47.6616C120.444 47.1872 120.871 46.8092 121.466 46.8092C121.788 46.8092 122.058 46.8985 122.247 47.0764C122.435 47.2533 122.555 47.5293 122.555 47.9273V49.7429C122.555 50.0079 122.76 50.2115 123.027 50.2115C123.294 50.2115 123.499 50.0079 123.499 49.7429V47.9273C123.499 47.295 123.299 46.7976 122.958 46.4581C122.618 46.1188 122.145 45.9457 121.615 45.9457Z" fill="white"/>
<path fill-rule="evenodd" clip-rule="evenodd" d="M128.346 48.4476H125.636C125.777 49.0219 126.275 49.4145 126.949 49.4145C127.232 49.4145 127.57 49.2888 127.756 49.1522C127.934 49.0195 128.175 49.0141 128.339 49.1477L128.34 49.1493C128.441 49.2357 128.501 49.345 128.505 49.4603C128.509 49.5773 128.454 49.6853 128.352 49.7637C127.999 50.0433 127.421 50.2337 126.949 50.2337C126.307 50.2337 125.753 50.0138 125.36 49.6337C124.966 49.2536 124.738 48.7181 124.738 48.0971C124.738 47.474 124.954 46.9373 125.327 46.5558C125.701 46.1741 126.227 45.9531 126.838 45.9531C127.441 45.9531 127.93 46.1669 128.267 46.539C128.603 46.9099 128.781 47.4299 128.781 48.0307C128.781 48.15 128.737 48.2559 128.657 48.3317C128.577 48.4072 128.468 48.4476 128.346 48.4476ZM126.838 46.7723C127.15 46.7723 127.395 46.8767 127.573 47.0503C127.731 47.2044 127.841 47.4177 127.894 47.6727H125.644C125.707 47.4175 125.832 47.2051 126.01 47.0513C126.212 46.8768 126.489 46.7723 126.838 46.7723Z" fill="white"/>
<path d="M132.019 45.9383C131.576 45.9383 131.166 46.099 130.859 46.3655C130.847 46.2616 130.811 46.171 130.742 46.1028C130.657 46.0179 130.536 45.9826 130.399 45.9826C130.263 45.9826 130.143 46.0209 130.058 46.1056C129.973 46.1903 129.934 46.3088 129.934 46.4439V49.7429C129.934 49.881 129.972 50.0002 130.058 50.0844C130.144 50.1685 130.264 50.2042 130.399 50.2042C130.538 50.2042 130.658 50.1662 130.743 50.0807C130.827 49.9954 130.863 49.8766 130.863 49.7429V47.5878C130.863 47.2868 131.02 47.0584 131.292 46.922C131.567 46.7837 131.962 46.7401 132.423 46.8294C132.532 46.8541 132.645 46.8525 132.741 46.8052C132.841 46.7562 132.91 46.665 132.942 46.5401C132.963 46.4535 132.955 46.3675 132.917 46.2892C132.879 46.212 132.815 46.1475 132.733 46.0964C132.57 45.995 132.325 45.9383 132.019 45.9383Z" fill="white"/>
</g>
</g>
</g>
</svg>
