<svg width="259" height="46" viewBox="0 0 259 46" fill="none" xmlns="http://www.w3.org/2000/svg">
<path d="M71.186 28.0485C70.7425 28.605 70.1733 29.0493 69.5248 29.345C68.8377 29.6522 68.0916 29.8062 67.3386 29.796C66.602 29.8115 65.8714 29.6606 65.2016 29.3549C64.5318 29.0491 63.9401 28.5963 63.4709 28.0304C62.454 26.8534 61.9455 25.2126 61.9455 23.108C61.9455 21.6784 62.1718 20.4758 62.6244 19.5001C63.03 18.5761 63.707 17.7963 64.5662 17.2633C65.4372 16.7414 66.4379 16.4742 67.454 16.4921C68.7093 16.4921 69.7338 16.8055 70.5274 17.4324C71.321 18.0592 71.8181 18.986 72.0188 20.2127H77.2241C77.1622 18.7032 76.664 17.2436 75.7892 16.0095C74.9055 14.8058 73.7222 13.8522 72.356 13.2428C70.8146 12.5557 69.1401 12.2154 67.4518 12.2461C65.2882 12.2461 63.4075 12.6783 61.8097 13.5427C60.2263 14.392 58.9279 15.6856 58.0755 17.2633C57.1853 18.8778 56.7402 20.826 56.7402 23.108C56.7402 25.3373 57.1619 27.266 58.0053 28.8941C58.8138 30.4882 60.0902 31.7993 61.6649 32.653C63.2611 33.5294 65.1539 33.9676 67.3431 33.9676C69.0106 33.9921 70.6638 33.6591 72.1908 32.9912C73.5741 32.3876 74.7855 31.4517 75.7168 30.2673C76.6363 29.0613 77.197 27.622 77.335 26.1138H72.1297C71.9627 26.8203 71.6404 27.4811 71.186 28.0485Z" fill="#9CA3AF"/>
<path d="M90.5922 12.2463C88.3789 12.2463 86.4801 12.6845 84.8959 13.5609C83.3313 14.4185 82.0576 15.7197 81.2363 17.2996C80.3809 18.9156 79.9531 20.8638 79.9531 23.1443C79.9531 25.3736 80.3809 27.2971 81.2363 28.9146C82.0576 30.4944 83.3313 31.7957 84.8959 32.6532C86.4801 33.5296 88.3789 33.9678 90.5922 33.9678C92.8056 33.9678 94.7051 33.5296 96.2909 32.6532C97.8526 31.7986 99.1205 30.4961 99.93 28.9146C100.775 27.2986 101.197 25.3751 101.195 23.1443C101.195 19.7364 100.258 17.0681 98.3843 15.1394C96.5104 13.2107 93.913 12.2463 90.5922 12.2463ZM94.5731 27.9743C93.6045 29.1679 92.2775 29.7647 90.5922 29.7647C88.8843 29.7647 87.5453 29.1694 86.5751 27.9788C85.605 26.7882 85.1207 25.1662 85.1222 23.1127C85.1222 21.0307 85.6065 19.4019 86.5751 18.2263C87.5438 17.0508 88.8828 16.4623 90.5922 16.4607C92.279 16.4607 93.606 17.0493 94.5731 18.2263C95.5402 19.4034 96.0246 21.0322 96.0261 23.1127C96.0261 25.1647 95.5418 26.7852 94.5731 27.9743Z" fill="#9CA3AF"/>
<path d="M119.655 14.952C118.898 14.1049 117.965 13.4317 116.921 12.979C115.798 12.4842 114.582 12.2343 113.355 12.2461C111.637 12.2185 109.952 12.7167 108.527 13.6735C107.094 14.6541 105.948 15.9964 105.207 17.5632C104.382 19.2942 103.968 21.1917 103.999 23.108C103.97 25.011 104.384 26.8947 105.207 28.6122C105.95 30.1831 107.095 31.5316 108.527 32.5222C109.948 33.4894 111.634 33.9943 113.355 33.9676C114.611 33.9838 115.855 33.7212 116.996 33.1987C118.045 32.7186 118.978 32.0196 119.732 31.149L119.845 33.5166H124.793V5.78131H119.655V14.952ZM119.655 25.8883C119.295 26.9795 118.62 27.9404 117.713 28.6505C116.836 29.334 115.751 29.6984 114.638 29.6833C113.627 29.698 112.638 29.3959 111.809 28.8196C110.964 28.2262 110.299 27.4136 109.885 26.47C109.418 25.4112 109.187 24.2643 109.206 23.108C109.184 21.9383 109.415 20.7775 109.885 19.7053C110.296 18.7656 110.962 17.9588 111.809 17.376C112.642 16.8112 113.63 16.516 114.638 16.5304C115.745 16.5145 116.826 16.8641 117.713 17.5248C118.631 18.2267 119.309 19.1937 119.655 20.2939V25.8883Z" fill="#9CA3AF"/>
<path d="M146.759 15.2341C145.112 13.2182 142.49 12.2095 138.893 12.208C136.58 12.208 134.605 12.6402 132.97 13.5046C131.365 14.3405 130.055 15.6449 129.215 17.2432C128.348 18.8742 127.914 20.8165 127.914 23.0699C127.914 25.3233 128.348 27.2647 129.215 28.8943C130.046 30.4857 131.333 31.7944 132.913 32.6532C134.511 33.5296 136.429 33.9678 138.666 33.9678C141.559 33.9678 143.911 33.2793 145.723 31.9023C147.535 30.5253 148.591 28.671 148.891 26.3395H143.686C143.475 27.3538 142.871 28.2446 142.007 28.8199C141.025 29.49 139.856 29.8319 138.666 29.7962C137.459 29.7962 136.447 29.5084 135.629 28.9326C134.803 28.3456 134.152 27.547 133.744 26.6213C133.315 25.6433 133.092 24.5881 133.088 23.5209H148.851C149.104 20.0167 148.407 17.2545 146.759 15.2341ZM133.57 19.913C133.778 19.2613 134.099 18.6509 134.518 18.1091C135.473 16.9065 136.919 16.3052 138.856 16.3052C140.189 16.3052 141.283 16.6434 142.138 17.3199C142.546 17.6254 142.882 18.0155 143.123 18.4633C143.364 18.9111 143.504 19.4057 143.534 19.913H133.57Z" fill="#9CA3AF"/>
<path d="M187.777 12.2464C186.68 12.2233 185.592 12.4304 184.581 12.8543C183.57 13.2781 182.66 13.9092 181.911 14.7065C181.666 14.9568 181.44 15.2274 181.214 15.5115L181.03 12.6974H176.083V33.5169H181.288V20.4204C181.792 19.4697 182.463 18.6166 183.269 17.9017C184.245 17.0473 185.498 16.5732 186.797 16.5668C187.876 16.5668 188.696 16.8757 189.248 17.489L191.896 13.2588C190.638 12.5621 189.216 12.2126 187.777 12.2464Z" fill="#F9FAFB"/>
<path d="M210.318 15.2341C208.67 13.2183 206.048 12.2096 202.451 12.2081C200.135 12.2081 198.161 12.6403 196.529 13.5046C194.923 14.3393 193.613 15.644 192.774 17.2433C191.905 18.8743 191.471 20.8165 191.473 23.0699C191.474 25.3233 191.908 27.2648 192.774 28.8943C193.604 30.4858 194.892 31.7945 196.472 32.6533C198.068 33.5297 199.986 33.9679 202.225 33.9679C205.117 33.9679 207.469 33.2794 209.279 31.9024C211.09 30.5254 212.146 28.6711 212.448 26.3395H207.24C207.03 27.3545 206.427 28.2459 205.561 28.8199C204.58 29.4902 203.411 29.8321 202.223 29.7963C201.016 29.7963 200.003 29.5084 199.185 28.9327C198.36 28.3449 197.708 27.5466 197.298 26.6214C196.871 25.6428 196.649 24.5879 196.644 23.5209H212.409C212.663 20.0168 211.966 17.2545 210.318 15.2341ZM197.126 19.9131C197.334 19.2614 197.655 18.6509 198.074 18.1091C199.029 16.9065 200.475 16.3052 202.413 16.3052C203.745 16.3052 204.84 16.6435 205.697 17.3199C206.104 17.6259 206.439 18.0162 206.68 18.4639C206.92 18.9116 207.061 19.4061 207.091 19.9131H197.126Z" fill="#F9FAFB"/>
<path d="M231.608 13.2609C230.462 12.5844 229.098 12.2462 227.514 12.2462C225.976 12.2471 224.466 12.6557 223.139 13.43C222.254 13.943 221.477 14.6213 220.851 15.4278L220.724 12.6971H215.745V33.5166H220.914V21.0019C221.638 19.5836 222.406 18.5215 223.216 17.827C224.116 17.018 225.285 16.5691 226.497 16.5665C226.978 16.5492 227.457 16.6399 227.897 16.832C228.338 17.024 228.73 17.3125 229.043 17.676C229.686 18.4156 230.008 19.3867 230.008 20.5893V33.5166H235.213V20.2939C235.213 18.6659 234.898 17.2573 234.269 16.0682C233.666 14.9008 232.743 13.9274 231.608 13.2609Z" fill="#F9FAFB"/>
<path d="M256.538 15.7598C255.717 14.5878 254.57 13.6802 253.239 13.1486C251.817 12.5473 250.138 12.2467 248.201 12.2467C246.478 12.2143 244.763 12.5011 243.145 13.0922C241.79 13.584 240.587 14.4195 239.655 15.5163C238.776 16.597 238.256 17.9231 238.166 19.3113H243.183C243.23 18.8177 243.386 18.3406 243.64 17.9146C243.894 17.4887 244.241 17.1246 244.654 16.8489C245.51 16.2626 246.629 15.9688 248.013 15.9672C249.421 15.9672 250.527 16.2927 251.333 16.9436C252.139 17.5945 252.541 18.4965 252.539 19.6495V21.0024H248.239C245.27 21.0024 242.956 21.5977 241.296 22.7883C239.636 23.9789 238.806 25.6385 238.806 27.7671C238.782 28.9054 239.083 30.027 239.676 31.0007C240.266 31.939 241.109 32.6937 242.108 33.1789C243.242 33.7261 244.49 33.9966 245.75 33.9681C247.61 33.9681 249.194 33.6111 250.502 32.8971C251.329 32.449 252.049 31.8292 252.614 31.0796L252.729 33.5171H257.708V19.9517C257.708 18.2966 257.318 16.8993 256.538 15.7598ZM252.539 26.6622C251.976 27.5288 251.245 28.2753 250.389 28.8585C249.375 29.5374 248.178 29.8914 246.956 29.8732C245.998 29.8732 245.244 29.641 244.693 29.1765C244.432 28.9742 244.221 28.7149 244.077 28.4185C243.933 28.122 243.86 27.7966 243.862 27.4672C243.843 27.0476 243.939 26.6306 244.138 26.2603C244.337 25.89 244.633 25.5802 244.994 25.3634C245.748 24.8869 246.78 24.6486 248.088 24.6486H252.539V26.6622Z" fill="#F9FAFB"/>
<path d="M170.226 5.80475H163.162L151.62 26.1688V30.0224H165.145V33.8242H170.235V30.0134H173.333V25.3976H170.226V5.80475ZM165.145 19.2327V25.3976H157.339L165.26 11.2097L165.145 19.2327Z" fill="#F9FAFB"/>
<path d="M48.0602 27.2487L45.4643 14.9347C45.4415 14.8253 45.4089 14.7181 45.367 14.6145C44.9981 13.3337 44.5047 13.0563 43.8394 12.5174C43.2238 12.0529 42.959 11.877 42.959 11.877C42.959 11.877 41.2752 15.7509 40.8158 16.1185C36.3121 19.7263 28.7667 25.3478 26.9223 26.3625L26.8883 26.3805C26.2821 26.7489 25.596 26.967 24.8877 27.0164V45.5495C26.4626 45.5085 28.0007 45.0659 29.3552 44.2642C31.392 43.1367 36.81 38.8028 43.1604 33.6661L45.6499 31.6548C47.3043 30.3266 48.0986 29.0075 48.0805 27.6162C48.0855 27.4933 48.0787 27.3703 48.0602 27.2487Z" fill="#9CA3AF"/>
<path d="M23.2699 26.515L8.73142 15.8493C8.61015 15.7491 8.50216 15.6339 8.41005 15.5065C8.39719 15.1565 8.29105 14.8162 8.10252 14.5206C7.914 14.225 7.64988 13.9847 7.33731 13.8244L7.4301 11.7003C7.4301 11.7003 7.12684 11.8987 6.43431 12.3158C5.563 12.8367 4.90895 13.2178 4.46084 15.2675L4.12363 16.9452L2.00984 27.4846C1.98042 27.633 1.96752 27.7843 1.97137 27.9356C2.02116 29.8409 3.66195 31.1758 4.03763 31.4555L20.6175 44.1641C21.8569 45.0895 23.3689 45.5803 24.9175 45.5599V27.0133C24.3261 27.0493 23.7414 26.8725 23.2699 26.515Z" fill="#E5E7EB"/>
<path d="M44.1631 12.7447C44.1348 12.7244 44.1076 12.7026 44.0817 12.6793C43.5702 12.2486 33.4742 5.33959 27.5018 1.26047C26.7113 0.716812 25.7699 0.433387 24.8095 0.449968C23.8492 0.466549 22.9182 0.782303 22.1471 1.35292L21.4161 1.90312C20.1488 2.85243 17.7951 4.609 14.9571 6.62263C11.7027 8.9339 8.7085 10.9453 6.04477 12.5395C4.91319 13.216 3.86761 15.0447 6.72371 17.2748C7.02471 17.5003 22.0498 28.6057 22.0498 28.6057C23.7743 29.8707 25.8157 29.7579 27.8412 28.5876C29.8124 27.503 36.792 22.2964 41.1939 18.8216L42.3119 17.9355C42.416 17.852 42.511 17.7709 42.6016 17.6897C44.4822 16.1406 46.0597 14.0503 44.1631 12.7447Z" fill="#E5E7EB"/>
<path d="M17.9218 16.7566C18.4286 17.1806 19.0366 17.4672 19.6871 17.5886C20.3133 17.6953 20.9542 17.6799 21.5746 17.5435C22.2178 17.4057 22.8473 17.2102 23.4552 16.9595C23.892 16.7814 24.3334 16.5852 24.8131 16.3597C24.8539 16.3417 25.0395 16.2492 25.0644 16.2763L27.4203 18.0802C27.5855 18.202 27.5923 18.2606 27.2641 18.3914C26.9788 18.496 26.6764 18.5464 26.3725 18.5402H26.3498C25.6385 18.53 24.9493 18.2929 24.3831 17.8637C24.3181 17.8144 24.2386 17.7876 24.1568 17.7876C24.0751 17.7876 23.9956 17.8144 23.9305 17.8637L21.7262 19.5684C21.6808 19.6031 21.6443 19.6479 21.6195 19.6992C21.5948 19.7505 21.5825 19.8069 21.5836 19.8638C21.5844 19.9225 21.5989 19.9801 21.626 20.0322C21.6532 20.0843 21.6921 20.1293 21.7398 20.1637C22.4975 20.7262 23.3775 21.1031 24.3085 21.2641C24.6732 21.3273 25.0427 21.3589 25.4129 21.3588C26.1299 21.355 26.8423 21.2448 27.5267 21.0319C28.2622 20.807 28.9635 20.4831 29.611 20.069C29.6318 20.0542 29.6568 20.0462 29.6823 20.0462C29.7079 20.0462 29.7328 20.0542 29.7536 20.069L30.8852 20.9304C30.9505 20.9791 31.0299 21.0054 31.1115 21.0054C31.1931 21.0054 31.2725 20.9791 31.3378 20.9304L32.4038 20.0916C32.4493 20.0566 32.4859 20.0114 32.5107 19.9597C32.5355 19.908 32.5477 19.8512 32.5464 19.7939C32.5453 19.7373 32.5313 19.6817 32.5054 19.6313C32.4796 19.5809 32.4425 19.537 32.397 19.503L31.4306 18.7815C31.4171 18.7708 31.4059 18.7575 31.3978 18.7424C31.3896 18.7273 31.3846 18.7106 31.3831 18.6935C31.3811 18.675 31.3833 18.6562 31.3896 18.6387C31.3958 18.6211 31.406 18.6052 31.4193 18.5921C31.8618 18.1476 32.2341 17.639 32.5237 17.0835C32.8886 16.4275 33.0187 15.6673 32.8926 14.9279C32.7374 14.2259 32.3104 13.6133 31.7045 13.2231C31.145 12.8118 30.5025 12.5264 29.8215 12.3866C29.2097 12.2727 28.582 12.2727 27.9703 12.3866C27.3604 12.4987 26.7636 12.6724 26.1891 12.9052C25.6709 13.1149 24.7701 13.5298 24.6547 13.5817C24.5393 13.6335 24.399 13.6741 24.3334 13.6268L22.2626 12.0799C22.346 12.0399 22.4322 12.006 22.5206 11.9784C22.914 11.8556 23.3266 11.8051 23.7381 11.8296C24.0818 11.8497 24.4155 11.9518 24.7113 12.1273C24.7745 12.1659 24.8478 12.185 24.9219 12.1822C24.996 12.1794 25.0676 12.1548 25.1277 12.1115L27.0921 10.6706C27.1424 10.6336 27.1826 10.5846 27.2089 10.5281C27.2353 10.4716 27.247 10.4094 27.2429 10.3472C27.2388 10.285 27.2192 10.2249 27.1857 10.1723C27.1523 10.1196 27.1061 10.0762 27.0514 10.046C26.3987 9.68431 25.672 9.47534 24.9263 9.43491C24.0074 9.38538 23.0871 9.50306 22.2105 9.78217C21.6195 9.96575 21.0485 10.2083 20.5064 10.506C20.4864 10.5186 20.4632 10.5253 20.4396 10.5253C20.4159 10.5253 20.3928 10.5186 20.3728 10.506L19.4268 9.79795C19.363 9.75291 19.2867 9.72872 19.2084 9.72872C19.1302 9.72872 19.0539 9.75291 18.99 9.79795L17.9943 10.4744C17.9456 10.5071 17.9055 10.5511 17.8775 10.6025C17.8496 10.6539 17.8345 10.7113 17.8336 10.7698C17.8316 10.8284 17.8437 10.8866 17.8689 10.9395C17.8941 10.9925 17.9317 11.0387 17.9784 11.0742L18.6732 11.6064C18.6879 11.6171 18.7 11.631 18.7086 11.647C18.7172 11.663 18.7221 11.6807 18.723 11.6988C18.7229 11.718 18.7189 11.7369 18.7111 11.7543C18.7033 11.7718 18.6919 11.7875 18.6777 11.8003C18.2551 12.1643 17.885 12.5847 17.5778 13.0495C17.1605 13.638 16.9504 14.3477 16.9804 15.0677C17.0108 15.3989 17.1103 15.7202 17.2724 16.011C17.4345 16.3018 17.6557 16.5557 17.9218 16.7566ZM20.4407 13.6358C20.4911 13.505 20.5572 13.3809 20.6376 13.266C20.7689 13.0766 20.7938 13.0721 20.9137 13.1623L22.43 14.3213C22.5704 14.434 22.6564 14.4791 22.301 14.6122C22.0895 14.685 21.8699 14.7319 21.647 14.752C21.4886 14.778 21.3266 14.7714 21.1709 14.7326C21.0152 14.6939 20.8692 14.6237 20.7417 14.5265C20.5944 14.437 20.4835 14.2987 20.4284 14.1358C20.3733 13.9728 20.3777 13.7958 20.4407 13.6358ZM29.1041 15.3518C29.4979 15.6404 29.6427 15.9719 29.5567 16.3665C29.5046 16.5886 29.4024 16.796 29.258 16.973C29.1426 17.1129 29.0769 17.1512 28.9638 17.0745L27.065 15.6562C26.8387 15.4668 26.8387 15.4668 27.2257 15.2954C27.5193 15.1964 27.8228 15.1291 28.1309 15.0947C28.4761 15.0566 28.8232 15.1483 29.1041 15.3518Z" fill="white"/>
</svg>
