<svg width="300" height="80" viewBox="0 0 300 80" fill="none" xmlns="http://www.w3.org/2000/svg">
<ellipse cx="31" cy="48.1369" rx="31" ry="31.0002" fill="#8050E3"/>
<path d="M27.3843 15.8828C26.9237 26.4458 27.1212 50.649 31.5957 62.9575" stroke="#DECEFF" stroke-width="5.63638" stroke-linecap="round"/>
<path d="M28.1184 18.4742C27.6468 12.3947 25.7199 -1.44637 12.9861 8.05472C17.3846 7.8231 24.8092 12.8285 28.1184 18.4742Z" fill="#DECEFF" stroke="#B18CFF" stroke-width="2"/>
<path d="M27.937 20.4674C24.5837 14.2969 16.0327 5.92757 8.65486 21.8149C12.6641 19.5327 22.1334 16.0681 27.937 20.4674Z" fill="#DECEFF" stroke="#B18CFF" stroke-width="2"/>
<path d="M29.5499 21.4118C23.999 18.3553 12.7511 16.9114 15.0483 32.4429C16.9278 28.8004 23.0357 20.8658 29.5499 21.4118Z" fill="#DECEFF" stroke="#B18CFF" stroke-width="2"/>
<path d="M28.0276 19.4715C28.2466 14.7666 31.0199 -0.725593 42.3433 5.69834C38.5271 5.82361 30.7175 14.9044 28.0276 19.4715Z" fill="#DECEFF" stroke="#B18CFF" stroke-width="2"/>
<path d="M27.937 20.4679C31.1492 13.9344 39.4965 4.89606 47.1883 21.011C43.1431 18.8263 33.6295 15.6591 27.937 20.4679Z" fill="#DECEFF" stroke="#B18CFF" stroke-width="2"/>
<path d="M27.8463 21.4647C33.319 18.2923 44.1796 16.4106 41.8007 31.6421C39.985 28.1529 34.2445 20.7086 27.8463 21.4647Z" fill="#DECEFF" stroke="#B18CFF" stroke-width="2"/>
<path d="M71.3585 43.6036C71.3585 30.4262 80.8001 21.3921 93.2983 21.3921C106.408 21.3921 113.404 29.7469 114.219 40.4111L103.147 40.8187C102.468 36.0639 99.887 31.6488 93.2304 31.6488C86.9133 31.6488 83.2454 36.3356 83.2454 43.6036C83.2454 50.8716 86.9133 55.5584 93.2304 55.5584C99.887 55.5584 102.468 51.1433 103.147 46.3885L114.219 46.864C113.404 57.5282 106.408 65.8151 93.2983 65.8151C80.8001 65.8151 71.3585 56.7811 71.3585 43.6036ZM135.951 52.3659V51.8905L131.468 52.7056C128.819 53.249 127.257 54.0641 127.257 56.0339C127.257 57.5962 128.48 58.615 130.314 58.615C133.438 58.615 135.951 56.3056 135.951 52.3659ZM146.752 45.7772V56.1018C146.752 57.6641 147.431 58.3433 148.586 58.3433C149.469 58.3433 150.148 58.2075 151.031 57.8679V63.7094C149.469 64.7962 147.295 65.6793 144.17 65.6793C140.435 65.6793 137.514 63.7773 136.495 60.3132C134.729 63.8453 131.265 65.6793 126.442 65.6793C120.532 65.6793 116.661 62.6226 116.661 57.4603C116.661 51.6188 120.872 49.1055 127.461 47.9508L135.951 46.5244V46.0489C135.951 43.5357 134.797 42.0413 132.148 42.0413C129.702 42.0413 128.48 43.6036 128.004 45.8451L117.815 45.1659C118.766 38.5092 123.725 33.8903 132.827 33.8903C140.842 33.8903 146.752 37.3545 146.752 45.7772ZM165.251 49.6489V50.0565C165.251 54.4716 167.628 57.3245 171.364 57.3245C175.643 57.3245 177.613 54.2678 177.613 49.8527C177.613 45.5055 175.643 42.4489 171.364 42.4489C167.628 42.4489 165.251 45.3017 165.251 49.6489ZM164.639 59.7698L162.737 65H154.247V22.2072H165.251V39.9357C166.745 36.3356 170.141 33.8903 175.235 33.8903C184.134 33.8903 188.685 40.9545 188.685 49.8527C188.685 58.8188 184.134 65.8151 175.032 65.8151C170.141 65.8151 166.337 63.4377 164.639 59.7698ZM210.576 52.3659V51.8905L206.093 52.7056C203.444 53.249 201.882 54.0641 201.882 56.0339C201.882 57.5962 203.104 58.615 204.938 58.615C208.063 58.615 210.576 56.3056 210.576 52.3659ZM221.376 45.7772V56.1018C221.376 57.6641 222.055 58.3433 223.21 58.3433C224.093 58.3433 224.772 58.2075 225.655 57.8679V63.7094C224.093 64.7962 221.92 65.6793 218.795 65.6793C215.059 65.6793 212.138 63.7773 211.12 60.3132C209.353 63.8453 205.889 65.6793 201.067 65.6793C195.157 65.6793 191.285 62.6226 191.285 57.4603C191.285 51.6188 195.497 49.1055 202.086 47.9508L210.576 46.5244V46.0489C210.576 43.5357 209.421 42.0413 206.772 42.0413C204.327 42.0413 203.104 43.6036 202.629 45.8451L192.44 45.1659C193.391 38.5092 198.35 33.8903 207.452 33.8903C215.467 33.8903 221.376 37.3545 221.376 45.7772ZM239.875 50.1244V65H228.871V34.7054H239.875V39.2564C241.505 35.9281 245.105 33.8903 249.656 33.8903C257.943 33.8903 260.592 39.664 260.592 45.981V65H249.588V48.9018C249.588 44.7583 248.434 42.5847 245.105 42.5847C241.37 42.5847 239.875 45.5734 239.875 50.1244ZM283.741 52.3659V51.8905L279.258 52.7056C276.609 53.249 275.047 54.0641 275.047 56.0339C275.047 57.5962 276.27 58.615 278.104 58.615C281.228 58.615 283.741 56.3056 283.741 52.3659ZM294.542 45.7772V56.1018C294.542 57.6641 295.221 58.3433 296.376 58.3433C297.259 58.3433 297.938 58.2075 298.821 57.8679V63.7094C297.259 64.7962 295.085 65.6793 291.96 65.6793C288.225 65.6793 285.304 63.7773 284.285 60.3132C282.519 63.8453 279.055 65.6793 274.232 65.6793C268.322 65.6793 264.451 62.6226 264.451 57.4603C264.451 51.6188 268.662 49.1055 275.251 47.9508L283.741 46.5244V46.0489C283.741 43.5357 282.587 42.0413 279.938 42.0413C277.492 42.0413 276.27 43.6036 275.794 45.8451L265.605 45.1659C266.556 38.5092 271.515 33.8903 280.617 33.8903C288.632 33.8903 294.542 37.3545 294.542 45.7772Z" fill="#DECEFF"/>
</svg>
