<svg width="96" height="96" viewBox="0 0 96 96" fill="none" xmlns="http://www.w3.org/2000/svg">
<g id="noun-docs-1796156 1">
<g id="Group">
<path id="Vector" d="M71.9992 10.8C71.9992 6.82905 68.7702 3.60001 64.7992 3.60001H26.3992C22.4283 3.60001 19.1992 6.82905 19.1992 10.8V78C19.1992 81.971 22.4283 85.2 26.3992 85.2C26.3992 89.171 29.6283 92.4 33.5992 92.4H71.9992C75.9702 92.4 79.1992 89.171 79.1992 85.2V18C79.1992 14.029 75.9702 10.8 71.9992 10.8ZM26.3992 80.4C25.0755 80.4 23.9992 79.3238 23.9992 78V10.8C23.9992 9.47625 25.0755 8.40001 26.3992 8.40001H64.7992C66.123 8.40001 67.1992 9.47625 67.1992 10.8V78C67.1992 79.3238 66.123 80.4 64.7992 80.4H26.3992ZM74.3992 85.2C74.3992 86.5238 73.323 87.6 71.9992 87.6H33.5992C32.2755 87.6 31.1992 86.5238 31.1992 85.2H64.7992C68.7702 85.2 71.9992 81.971 71.9992 78V15.6C73.323 15.6 74.3992 16.6762 74.3992 18V85.2Z" fill="#B18CFF"/>
<path id="Vector_2" d="M32.3996 20.4C32.3996 21.7256 31.3252 22.8 29.9996 22.8C28.674 22.8 27.5996 21.7256 27.5996 20.4C27.5996 19.0744 28.674 18 29.9996 18C31.3252 18 32.3996 19.0744 32.3996 20.4Z" fill="#DECEFF"/>
<path id="Vector_3" d="M39.5988 20.4C39.5988 21.7256 38.5244 22.8 37.1988 22.8C35.8732 22.8 34.7988 21.7256 34.7988 20.4C34.7988 19.0744 35.8732 18 37.1988 18C38.5244 18 39.5988 19.0744 39.5988 20.4Z" fill="#DECEFF"/>
<path id="Vector_4" d="M46.8 20.4C46.8 21.7256 45.7256 22.8 44.4 22.8C43.0744 22.8 42 21.7256 42 20.4C42 19.0744 43.0744 18 44.4 18C45.7256 18 46.8 19.0744 46.8 20.4Z" fill="#DECEFF"/>
<path id="Vector_5" d="M61.1996 30H29.9996C28.6749 30 27.5996 31.0753 27.5996 32.4C27.5996 33.7247 28.6749 34.8 29.9996 34.8H61.1996C62.5243 34.8 63.5996 33.7247 63.5996 32.4C63.5996 31.0753 62.5243 30 61.1996 30Z" fill="#DECEFF"/>
<path id="Vector_6" d="M61.1996 42H29.9996C28.6749 42 27.5996 43.0753 27.5996 44.4C27.5996 45.7247 28.6749 46.8 29.9996 46.8H61.1996C62.5243 46.8 63.5996 45.7247 63.5996 44.4C63.5996 43.0753 62.5243 42 61.1996 42Z" fill="#DECEFF"/>
<path id="Vector_7" d="M61.1996 54H29.9996C28.6749 54 27.5996 55.0753 27.5996 56.4C27.5996 57.7247 28.6749 58.8 29.9996 58.8H61.1996C62.5243 58.8 63.5996 57.7247 63.5996 56.4C63.5996 55.0753 62.5243 54 61.1996 54Z" fill="#DECEFF"/>
<path id="Vector_8" d="M44.3996 66H29.9996C28.6749 66 27.5996 67.0753 27.5996 68.4C27.5996 69.7247 28.6749 70.8 29.9996 70.8H44.3996C45.7243 70.8 46.7996 69.7247 46.7996 68.4C46.7996 67.0753 45.7243 66 44.3996 66Z" fill="#DECEFF"/>
</g>
</g>
</svg>
