<svg width="96" height="96" viewBox="0 0 96 96" fill="none" xmlns="http://www.w3.org/2000/svg">
<g id="noun-docs-1796156 1">
<g id="Group">
<path id="Vector" d="M72.0002 10.8C72.0002 6.82905 68.7712 3.60001 64.8002 3.60001H26.4002C22.4292 3.60001 19.2002 6.82905 19.2002 10.8V78C19.2002 81.971 22.4292 85.2 26.4002 85.2C26.4002 89.171 29.6292 92.4 33.6002 92.4H72.0002C75.9712 92.4 79.2002 89.171 79.2002 85.2V18C79.2002 14.029 75.9712 10.8 72.0002 10.8ZM26.4002 80.4C25.0764 80.4 24.0002 79.3238 24.0002 78V10.8C24.0002 9.47625 25.0764 8.40001 26.4002 8.40001H64.8002C66.124 8.40001 67.2002 9.47625 67.2002 10.8V78C67.2002 79.3238 66.124 80.4 64.8002 80.4H26.4002ZM74.4002 85.2C74.4002 86.5238 73.324 87.6 72.0002 87.6H33.6002C32.2764 87.6 31.2002 86.5238 31.2002 85.2H64.8002C68.7712 85.2 72.0002 81.971 72.0002 78V15.6C73.324 15.6 74.4002 16.6762 74.4002 18V85.2Z" fill="#6538C1"/>
<path id="Vector_2" d="M32.4006 20.4C32.4006 21.7256 31.3262 22.8 30.0006 22.8C28.675 22.8 27.6006 21.7256 27.6006 20.4C27.6006 19.0744 28.675 18 30.0006 18C31.3262 18 32.4006 19.0744 32.4006 20.4Z" fill="#DECEFF"/>
<path id="Vector_3" d="M39.5998 20.4C39.5998 21.7256 38.5254 22.8 37.1998 22.8C35.8742 22.8 34.7998 21.7256 34.7998 20.4C34.7998 19.0744 35.8742 18 37.1998 18C38.5254 18 39.5998 19.0744 39.5998 20.4Z" fill="#DECEFF"/>
<path id="Vector_4" d="M46.8 20.4C46.8 21.7256 45.7256 22.8 44.4 22.8C43.0744 22.8 42 21.7256 42 20.4C42 19.0744 43.0744 18 44.4 18C45.7256 18 46.8 19.0744 46.8 20.4Z" fill="#DECEFF"/>
<path id="Vector_5" d="M61.2006 30H30.0006C28.6759 30 27.6006 31.0753 27.6006 32.4C27.6006 33.7247 28.6759 34.8 30.0006 34.8H61.2006C62.5253 34.8 63.6006 33.7247 63.6006 32.4C63.6006 31.0753 62.5253 30 61.2006 30Z" fill="#DECEFF"/>
<path id="Vector_6" d="M61.2006 42H30.0006C28.6759 42 27.6006 43.0753 27.6006 44.4C27.6006 45.7247 28.6759 46.8 30.0006 46.8H61.2006C62.5253 46.8 63.6006 45.7247 63.6006 44.4C63.6006 43.0753 62.5253 42 61.2006 42Z" fill="#DECEFF"/>
<path id="Vector_7" d="M61.2006 54H30.0006C28.6759 54 27.6006 55.0753 27.6006 56.4C27.6006 57.7247 28.6759 58.8 30.0006 58.8H61.2006C62.5253 58.8 63.6006 57.7247 63.6006 56.4C63.6006 55.0753 62.5253 54 61.2006 54Z" fill="#DECEFF"/>
<path id="Vector_8" d="M44.4006 66H30.0006C28.6759 66 27.6006 67.0753 27.6006 68.4C27.6006 69.7247 28.6759 70.8 30.0006 70.8H44.4006C45.7253 70.8 46.8006 69.7247 46.8006 68.4C46.8006 67.0753 45.7253 66 44.4006 66Z" fill="#DECEFF"/>
</g>
</g>
</svg>
