<svg id="e23EL9wW6Sn1" xmlns="http://www.w3.org/2000/svg" xmlns:xlink="http://www.w3.org/1999/xlink" viewBox="0 0 1440 260" shape-rendering="geometricPrecision" text-rendering="geometricPrecision"><g transform="translate(0-8)"><path d="M1440,225.714l-24-14.095c-24-14.095-72-42.286-120-35.238s-96,49.333-144,42.286c-48-7.048-96-63.429-144-84.572s-96-7.047-144,14.096c-48,21.142-96,49.333-144,49.333s-96-28.191-144-35.238c-48-7.048-96,7.047-144,24.666s-96,38.762-144,28.191c-48-10.572-96-52.857-144-74C96,120,48,120,24,120h-24l.000013,148L24,268c24,0,72,0,120,0s96,0,144,0s96,0,144,0s96,0,144,0s96,0,144,0s96,0,144,0s96,0,144,0s96,0,144,0s96,0,144,0s96,0,120,0h24v-42.286Z" clip-rule="evenodd" fill="#4c249f" fill-rule="evenodd"/></g></svg>
