<svg width="261" height="38" viewBox="0 0 261 38" fill="none" xmlns="http://www.w3.org/2000/svg">
<g opacity="0.5">
<path d="M56.753 32.2888C46.4547 32.2888 40.4736 25.903 40.4736 16.2344C40.4736 6.2509 46.9944 0 56.7979 0C59.721 0 62.2843 0.539645 64.6228 1.34911V10.3882C62.0145 9.12902 59.4062 8.58937 57.2476 8.58937C52.8405 8.58937 49.4228 10.8829 49.4228 16.1894C49.4228 21.4959 52.6157 24.0143 56.9328 24.0143C57.6074 24.0143 58.3269 23.9693 59.0914 23.8344V19.9669H53.695V12.6817H67.2311V30.1303C63.7684 31.7042 59.9009 32.2888 56.753 32.2888Z" fill="#F3F4F6"/>
<path d="M69.6114 31.8391V0.449705H87.1341V8.31955H78.3806V12.4568H83.6422V19.5172H78.3806V23.9693H84.9463V31.8391H69.6114Z" fill="#F3F4F6"/>
<path d="M87.1341 31.8391V0.449705H97.6572L103.189 19.4722H103.279L103.009 0.449705H110.294V31.8391H99.8158L94.2844 12.7716H94.1945L94.4643 31.8391H87.1341Z" fill="#F3F4F6"/>
<path d="M113.001 31.8391V0.449705H128.246V8.31955H121.77V12.4568H127.032V19.5172H121.77V23.9693H130.524V31.8391H113.001Z" fill="#F3F4F6"/>
<path d="M130.524 31.8391V0.449705H142.935C148.557 0.449705 151.975 3.5077 151.975 8.81422C151.975 12.6817 150.041 15.1101 147.298 16.0994V16.1894C150.266 16.9089 151.84 19.2024 151.84 23.0699L152.444 31.8391H142.98V22.89C142.98 20.5515 142.261 19.6971 140.507 19.6971H139.293V31.8391H130.524ZM139.293 12.4119H140.822C142.441 12.4119 143.34 11.3775 143.34 9.80357C143.34 8.2296 142.441 7.24025 140.822 7.24025H139.293V12.4119Z" fill="#F3F4F6"/>
<path d="M152.444 31.8391L158.2 0.449705H170.927L176.863 31.8391H168.139L167.644 28.2865H161.528L160.988 31.8391H152.444ZM162.562 21.1811H166.61L164.631 7.73493H164.541L162.562 21.1811Z" fill="#F3F4F6"/>
<path d="M178.763 31.8391V8.63434H175.121V0.449705H192.929V8.63434H187.533V31.8391H178.763Z" fill="#F3F4F6"/>
<path d="M192.929 31.8391V0.449705H201.698V31.8391H192.929Z" fill="#F3F4F6"/>
<path d="M219.636 32.2888C209.923 32.2888 203.492 25.8581 203.492 16.1444C203.492 6.43079 209.923 0 219.636 0C229.395 0 235.871 6.43079 235.871 16.1444C235.871 25.8131 229.395 32.2888 219.636 32.2888ZM213.071 16.1444C213.071 20.3267 215.769 23.2947 219.681 23.2947C223.594 23.2947 226.337 20.3716 226.337 16.1444C226.337 11.9172 223.594 8.9941 219.681 8.9941C215.769 8.9941 213.071 11.9172 213.071 16.1444Z" fill="#F3F4F6"/>
<path d="M237.68 31.8391V0.449705H248.203L253.734 19.4722H253.824L253.555 0.449705H260.84V31.8391H250.362L244.83 12.7716H244.74L245.01 31.8391H237.68Z" fill="#F3F4F6"/>
<path d="M-0.000363871 21.1361C-0.000364262 16.6635 1.77637 12.3741 4.93897 9.21145C8.10157 6.04885 12.391 4.27211 16.8636 4.27211C21.3362 4.27211 25.6256 6.04884 28.7882 9.21144C31.9508 12.374 33.7275 16.6635 33.7275 21.1361L16.8636 21.1361L-0.000363871 21.1361Z" fill="#E5E7EB"/>
<path d="M8.49062e-05 21.136C8.51669e-05 18.1543 1.18457 15.2947 3.29298 13.1863C5.40138 11.0779 8.26099 9.8934 11.2427 9.8934C14.2245 9.8934 17.0841 11.0779 19.1925 13.1863C21.3009 15.2947 22.4854 18.1543 22.4854 21.136L11.2427 21.136L8.49062e-05 21.136Z" fill="#9CA3AF"/>
<path d="M33.728 21.0234C33.728 22.5441 33.1357 24.0025 32.0815 25.0778C31.0273 26.1531 29.5975 26.7572 28.1067 26.7572C26.6158 26.7572 25.186 26.1531 24.1318 25.0778C23.0776 24.0025 22.4854 22.5441 22.4854 21.0234L28.1067 21.0234L33.728 21.0234Z" fill="#289E80"/>
<ellipse cx="28.1067" cy="21.136" rx="5.62132" ry="5.62132" fill="#E5E7EB"/>
</g>
</svg>
