<svg width="221" height="34" viewBox="0 0 221 34" fill="none" xmlns="http://www.w3.org/2000/svg">
<g id="Group 358">
<g id="GENERATION">
<path d="M16.5157 33.1966C6.21741 33.1966 0.236328 26.8107 0.236328 17.1421C0.236328 7.15862 6.75706 0.907715 16.5606 0.907715C19.4837 0.907715 22.047 1.44736 24.3855 2.25683V11.2959C21.7772 10.0367 19.1689 9.49708 17.0103 9.49708C12.6032 9.49708 9.18546 11.7906 9.18546 17.0971C9.18546 22.4036 12.3784 24.922 16.6955 24.922C17.3701 24.922 18.0896 24.877 18.8541 24.7421V20.8746H13.4577V13.5894H26.9938V31.038C23.5311 32.6119 19.6636 33.1966 16.5157 33.1966Z" fill="#F3F4F6"/>
<path d="M29.3741 32.7468V1.35742H46.8968V9.22726H38.1433V13.3645H43.4049V20.4249H38.1433V24.877H44.709V32.7468H29.3741Z" fill="#F3F4F6"/>
<path d="M46.8968 32.7468V1.35742H57.4199L62.9513 20.38H63.0412L62.7714 1.35742H70.0566V32.7468H59.5785L54.0471 13.6793H53.9571L54.227 32.7468H46.8968Z" fill="#F3F4F6"/>
<path d="M72.7636 32.7468V1.35742H88.0086V9.22726H81.5329V13.3645H86.7944V20.4249H81.5329V24.877H90.2863V32.7468H72.7636Z" fill="#F3F4F6"/>
<path d="M90.2863 32.7468V1.35742H102.698C108.32 1.35742 111.737 4.41541 111.737 9.72194C111.737 13.5894 109.804 16.0178 107.06 17.0072V17.0971C110.028 17.8166 111.602 20.1101 111.602 23.9776L112.207 32.7468H102.743V23.7977C102.743 21.4592 102.024 20.6048 100.27 20.6048H99.0556V32.7468H90.2863ZM99.0556 13.3196H100.585C102.204 13.3196 103.103 12.2853 103.103 10.7113C103.103 9.13732 102.204 8.14797 100.585 8.14797H99.0556V13.3196Z" fill="#F3F4F6"/>
<path d="M112.207 32.7468L117.963 1.35742H130.69L136.626 32.7468H127.901L127.407 29.1942H121.291L120.751 32.7468H112.207ZM122.325 22.0888H126.372L124.394 8.64264H124.304L122.325 22.0888Z" fill="#F3F4F6"/>
<path d="M138.526 32.7468V9.54205H134.883V1.35742H152.692V9.54205H147.295V32.7468H138.526Z" fill="#F3F4F6"/>
<path d="M152.692 32.7468V1.35742H161.461V32.7468H152.692Z" fill="#F3F4F6"/>
<path d="M179.399 33.1966C169.685 33.1966 163.255 26.7658 163.255 17.0521C163.255 7.3385 169.685 0.907715 179.399 0.907715C189.158 0.907715 195.633 7.3385 195.633 17.0521C195.633 26.7208 189.158 33.1966 179.399 33.1966ZM172.833 17.0521C172.833 21.2344 175.531 24.2024 179.444 24.2024C183.356 24.2024 186.1 21.2794 186.1 17.0521C186.1 12.8249 183.356 9.90182 179.444 9.90182C175.531 9.90182 172.833 12.8249 172.833 17.0521Z" fill="#F3F4F6"/>
<path d="M197.443 32.7468V1.35742H207.966L213.497 20.38H213.587L213.317 1.35742H220.602V32.7468H210.124L204.593 13.6793H204.503L204.773 32.7468H197.443Z" fill="#F3F4F6"/>
</g>
</g>
</svg>
