<svg id="eT9USjVq6Gr1" xmlns="http://www.w3.org/2000/svg" xmlns:xlink="http://www.w3.org/1999/xlink" viewBox="0 0 1440 190" shape-rendering="geometricPrecision" text-rendering="geometricPrecision"><g><path d="M1480,57.4287l-24,12.4761c-24,12.4762-72,37.4282-120,31.1902-48-6.2378-96-43.6664-144-37.4283s-96,56.1433-144,74.8573-96,6.238-144-12.476c-48-18.715-96-43.667-144-43.667s-96,24.952-144,31.19-96-6.238-144-21.8329c-48-15.5953-96-34.3095-144-24.9524s-96,46.7853-144,65.5003C136,151,88,151,64,151h-24v-131h24c24,0,72,0,120,0s96,0,144,0s96,0,144,0s96,0,144,0s96,.0001,144,.0001s96,0,144,0s96,0,144,0s96,0,144,0s96,0,144,0s96,0,120,0h24v37.4286Z" transform="translate(-40-20)" clip-rule="evenodd" fill="#4c249f" fill-rule="evenodd"/></g></svg>
