<svg width="180" height="175" viewBox="0 0 180 175" fill="none" xmlns="http://www.w3.org/2000/svg">
<path d="M135.793 114.535H146.999L147.823 119.149H136.452L135.793 114.535ZM134.31 103.164H145.186L145.846 106.46H134.804L134.31 103.164ZM115.358 114.535H127.883L128.542 119.149H115.688L115.358 114.535ZM114.864 103.164H126.235L126.564 106.46H115.028L114.864 103.164ZM94.0992 106.46V103.164H106.953L107.118 106.46H94.0992ZM94.0992 119.149V114.535H107.283L107.448 119.149H94.0992ZM72.346 106.46L72.5108 103.164H86.1889V106.46H72.346ZM71.8515 119.149L72.0164 114.535H86.0241V119.149H71.8515ZM53.8886 106.46L54.3831 103.164H64.6005L64.4357 106.46H53.8886ZM52.2407 119.149L52.8998 114.535H64.1061L63.9413 119.149H52.2407ZM34.2777 106.46L34.7721 103.164H45.9784L45.6488 106.46H34.2777ZM32.3002 119.149L33.1241 114.535H44.66L44.1656 119.149H32.3002ZM23.0715 93.2757V12.5246C23.0715 8.2399 24.5547 6.75671 28.8395 6.75671H151.778C156.063 6.75671 157.546 8.2399 157.546 12.5246V93.2757H23.0715ZM8.07496 153.592L22.0827 101.68H26.8619L24.2251 118.16C23.5659 122.939 27.0267 127.059 31.8058 127.059H148.153C152.932 127.059 156.393 122.939 155.733 118.16L153.097 101.68H158.535L171.719 153.592H8.07496ZM7.91016 166.776V161.667H171.719V166.776H7.91016ZM121.291 147.329H62.1285C60.3157 147.329 59.3269 145.681 59.4917 144.033L60.975 134.146C61.1398 132.992 62.4581 132.333 63.6117 132.333H119.643C120.796 132.333 121.95 133.157 122.28 134.146L123.928 144.033C124.257 145.846 123.104 147.329 121.291 147.329Z" fill="#C8ADFF"/>
<path d="M135.793 114.535H146.999L147.823 119.149H136.452L135.793 114.535ZM134.31 103.164H145.187L145.846 106.459H134.804L134.31 103.164ZM115.358 114.535H127.883L128.542 119.149H115.688L115.358 114.535ZM114.864 103.164H126.235L126.564 106.459H115.029L114.864 103.164ZM94.0993 106.459V103.164H106.954L107.118 106.459H94.0993ZM94.0993 119.149V114.535H107.283L107.448 119.149H94.0993ZM72.3461 106.459L72.5109 103.164H86.189V106.459H72.3461ZM71.8516 119.149L72.0165 114.535H86.0242V119.149H71.8516ZM53.8887 106.459L54.3832 103.164H64.6006L64.4358 106.459H53.8887ZM52.2408 119.149L52.8999 114.535H64.1062L63.9414 119.149H52.2408ZM34.2779 106.459L34.7722 103.164H45.9785L45.6489 106.459H34.2779ZM32.3003 119.149L33.1242 114.535H44.6601L44.1657 119.149H32.3003ZM31.1467 85.2006H149.636V14.8318H31.1467V85.2006ZM23.0716 93.2757V12.5246C23.0716 8.2399 24.5548 6.75671 28.8396 6.75671H151.778C156.063 6.75671 157.546 8.2399 157.546 12.5246V93.2757H23.0716ZM8.07506 153.592L22.0828 101.68H26.862L24.2252 118.16C23.566 122.939 27.0268 127.059 31.8059 127.059H148.153C152.932 127.059 156.393 122.939 155.734 118.16L153.097 101.68H158.535L171.719 153.592H8.07506ZM7.91026 166.776V161.667H171.719V166.776H7.91026ZM0 167.929C0 171.719 3.13112 174.851 6.92146 174.851H173.037C176.828 174.851 179.959 171.719 179.959 167.929V156.064C179.959 154.91 180.124 153.262 179.794 152.109L166.94 100.856L166.116 97.89V7.91031C166.116 3.62556 162.655 0 158.206 0H23.0716C18.7869 0 15.3261 3.62556 15.3261 7.91031V97.89C14.9965 98.5492 14.8318 99.2084 14.667 100.032L0.823987 151.614C0.494392 152.933 0.329565 153.921 0.329565 155.404V167.929H0ZM121.291 147.329H62.1286C60.3158 147.329 59.327 145.681 59.4918 144.033L60.9751 134.146C61.1399 132.992 62.4582 132.333 63.6118 132.333H119.643C120.796 132.333 121.95 133.157 122.28 134.146L123.928 144.033C124.257 145.846 123.104 147.329 121.291 147.329Z" fill="#36147D"/>
<path d="M104.94 34.1164C100.136 34.1164 96.2419 37.9343 96.2419 42.6438L113.638 42.6438C113.638 37.9343 109.744 34.1164 104.94 34.1164Z" fill="#FFB636"/>
<path d="M98.0511 56.0511C105.521 48.5812 105.521 36.47 98.0511 29L71 56.0511C78.47 63.5211 90.5812 63.5211 98.0511 56.0511Z" fill="#9B6AFF"/>
<path d="M82.2553 40.256C77.169 40.256 73.0458 44.3793 73.0458 49.4656L91.4648 49.4656C91.4648 44.3793 87.3416 40.256 82.2553 40.256Z" fill="#8050E3"/>
<ellipse cx="96.7525" cy="39.0622" rx="2.55821" ry="2.55821" fill="#21064E"/>
<rect x="79.5283" y="61.0629" width="2.72875" height="6.4808" fill="#9B6AFF"/>
<path d="M82.9387 64.1328C81.0549 64.1328 79.5277 65.6599 79.5277 67.5437L86.3496 67.5437C86.3496 65.6599 84.8225 64.1328 82.9387 64.1328Z" fill="#FFB636"/>
</svg>
