<svg width="191" height="40" viewBox="0 0 191 40" fill="none" xmlns="http://www.w3.org/2000/svg">
<g clip-path="url(#clip0_252_2020)">
<path d="M48.9766 16.6342C48.9766 9.55773 53.0944 6.32257 58.504 6.32257C61.974 6.32257 64.8417 7.79998 66.4593 10.6222C68.0769 7.79998 70.8991 6.32257 74.4146 6.32257C79.8242 6.32257 83.942 9.55773 83.942 16.6342V29.768H78.9453V16.6342C78.9453 12.6565 76.8656 10.9518 73.9524 10.9518C71.0393 10.9518 69.0012 12.755 69.0012 16.6342V29.768H64.0083V16.6342C64.0083 12.7512 61.8338 10.9518 58.9661 10.9518C56.0985 10.9518 53.9732 12.6603 53.9732 16.6342V29.768H48.9766V16.6342Z" fill="white"/>
<path d="M87.5488 18.5624C87.5488 11.3003 92.6364 6.30743 99.8947 6.30743C107.066 6.30743 112.059 11.164 112.059 18.5169V29.768H107.479V25.0516C106.047 28.5671 102.808 30.3552 99.0158 30.3552C93.2729 30.3703 87.5488 26.2563 87.5488 18.5624ZM107.066 18.3313C107.066 14.0317 104.198 10.9329 99.8492 10.9329C95.5003 10.9329 92.5872 14.0317 92.5872 18.3313C92.5872 22.631 95.5041 25.76 99.8492 25.76C104.194 25.76 107.066 22.6461 107.066 18.3465V18.3313Z" fill="white"/>
<path d="M115.665 18.3464C115.665 11.4102 120.753 6.32257 127.965 6.32257C134.118 6.32257 138.652 10.0199 139.807 15.3386H134.765C133.701 12.6868 131.25 10.948 127.965 10.948C123.62 10.948 120.707 14.0468 120.707 18.3464C120.707 22.6461 123.62 25.76 127.965 25.76C131.25 25.76 133.701 24.0023 134.765 21.3657H139.807C138.671 26.6692 134.125 30.3855 127.965 30.3855C120.753 30.3703 115.665 25.2827 115.665 18.3464Z" fill="white"/>
<path d="M143.414 16.4031C143.414 9.60318 147.437 6.32257 153.358 6.32257C159.279 6.32257 163.253 9.60318 163.253 16.4978V16.6682H158.306V16.4031C158.306 12.4709 156.317 10.948 153.358 10.948C150.4 10.948 148.407 12.4633 148.407 16.4031V29.768H143.414V16.4031Z" fill="white"/>
<path d="M190.289 16.7289C190.157 15.259 190.032 13.7854 189.884 12.3156C189.832 11.9117 189.747 11.5126 189.63 11.1223C188.873 8.19776 186.979 6.65595 183.978 6.39835C181.343 6.21145 178.698 6.57792 176.212 7.47421C173.182 8.50461 170.42 10.0123 168.212 12.3989C166.677 14.0506 165.67 15.9523 165.639 18.2669C165.639 19.4867 165.594 20.7141 165.692 21.9263C165.779 23.1434 165.968 24.351 166.257 25.5365C166.464 26.3722 166.873 27.1443 167.449 27.785C168.024 28.4256 168.748 28.9153 169.556 29.2111C171.143 29.8189 172.818 30.1669 174.515 30.2415C176.534 30.3779 178.561 30.5219 180.576 30.1165C184.812 29.2679 187.838 26.9079 189.441 22.8431C190.206 20.8694 190.293 18.8124 190.289 16.7289Z" fill="white"/>
<path d="M190.289 16.7289C190.289 18.8124 190.206 20.8694 189.429 22.8317C187.827 26.8965 184.8 29.2717 180.565 30.1051C178.576 30.4656 176.547 30.5548 174.534 30.3703C172.823 30.2475 171.143 29.8524 169.556 29.1998C168.748 28.904 168.024 28.4143 167.449 27.7736C166.873 27.1329 166.464 26.3609 166.257 25.5252C165.968 24.3397 165.779 23.132 165.692 21.915C165.594 20.7027 165.62 19.4754 165.639 18.2555C165.67 15.9409 166.507 12.5732 168.041 10.9367C169.433 9.06346 171.428 7.72597 173.689 7.14843C175.539 6.69465 177.428 6.42187 179.33 6.33396C180.879 6.25971 182.432 6.28502 183.978 6.40972C187.009 6.66732 188.857 8.20913 189.63 11.1337C189.747 11.524 189.831 11.923 189.884 12.3269C190.159 13.778 190.295 15.252 190.289 16.7289ZM185.126 18.5624C185.126 14.3499 182.72 11.5276 178.845 11.0124C177.459 10.8008 176.042 11.0046 174.771 11.5979C173.501 12.1912 172.435 13.1475 171.708 14.3461C170.918 15.7237 170.571 17.3104 170.712 18.892C170.916 21.6384 172.075 23.8167 174.651 24.9986C177.227 26.1805 179.856 26.0479 182.228 24.3963C184.319 22.9454 185.065 20.7937 185.126 18.5624Z" fill="white"/>
<path d="M185.126 18.5623C185.066 20.8012 184.32 22.9529 182.24 24.3962C179.857 26.0479 177.247 26.1729 174.663 24.9986C172.08 23.8242 170.932 21.6308 170.712 18.8843C170.571 17.3028 170.919 15.7161 171.709 14.3385C172.436 13.1399 173.502 12.1835 174.772 11.5902C176.042 10.9969 177.46 10.7932 178.846 11.0048C182.721 11.52 185.138 14.3422 185.126 18.5623Z" fill="#4C249F"/>
<path d="M0.839844 30.6393C0.839844 25.2411 4.79855 21.2823 10.4127 21.2823C16.0269 21.2823 19.9894 25.2411 19.9894 30.6393C19.9894 36.0375 16.0307 40 10.4127 40C4.79476 40 0.839844 36.0375 0.839844 30.6393Z" fill="white"/>
<path d="M20.4327 0C10.4696 0 3.44243 7.02339 3.44243 16.6038C3.43915 17.9858 3.59422 19.3636 3.9046 20.7103C5.87501 19.5489 8.12571 18.9488 10.4128 18.9753C17.315 18.9753 22.3192 23.8659 22.3192 30.6393C22.32 31.4784 22.2401 32.3157 22.0806 33.1395C31.1458 32.4084 37.4191 25.6464 37.4191 16.6038C37.4191 7.02339 30.3882 0 20.4327 0Z" fill="white"/>
</g>
<defs>
<clipPath id="clip0_252_2020">
<rect width="189.45" height="40" fill="white" transform="translate(0.839844)"/>
</clipPath>
</defs>
</svg>
