<svg width="180" height="180" viewBox="0 0 180 180" fill="none" xmlns="http://www.w3.org/2000/svg">
<path d="M90.0189 179.963C139.612 179.963 180 139.593 180 89.9814C180 67.3271 171.601 46.5995 157.72 30.792L163.557 26.5082H156.242C154.69 26.5082 153.324 25.4043 152.856 23.9451L150.574 17.0048L148.928 22.1119C133.12 8.3247 112.58 0.00012207 90.0189 0.00012207C70.1145 0.00012207 51.6506 6.49142 36.7597 17.4538L10.551 10.5135L17.4913 36.7222C6.52895 51.6131 0.0375977 70.0583 0.0375977 89.9814C0.0375977 139.574 40.4076 179.963 90.0189 179.963Z" fill="#DECEFF"/>
<path d="M122.364 149.994H129.678C131.231 149.994 132.69 148.89 133.158 147.431L135.347 140.491L137.629 147.431C138.078 148.89 139.462 149.994 141.015 149.994H148.329L142.493 154.278C141.314 155.195 140.94 156.205 140.94 157.009C140.94 157.552 141.127 158.188 141.483 159.291L143.484 165.221L137.554 160.938C136.918 160.489 136.095 160.208 135.365 160.208C134.636 160.208 133.906 160.489 133.364 160.938L127.34 165.221L129.267 159.291C129.641 158.188 129.809 157.552 129.809 157.009C129.809 155.999 129.267 155.007 128.35 154.278L122.42 149.994H122.364ZM20.2416 46.8614L10.5513 10.5135L46.8992 20.2037C47.1799 20.7462 47.3482 21.476 47.3482 22.2991C47.3482 31.6153 32.2703 47.2357 22.3181 47.2357C21.495 47.2357 20.7653 47.142 20.2228 46.8614H20.2416Z" fill="#B623A7"/>
<path d="M24.1694 96.1923C24.1694 88.8778 29.9312 83.3218 36.9651 83.3218C43.999 83.3218 49.7608 89.0836 49.7608 96.1923C49.7608 103.301 44.0925 108.894 36.9651 108.894C29.8377 108.894 24.1694 103.133 24.1694 96.1923Z" fill="#FA48E8"/>
<path d="M145.373 91.9084C145.373 88.803 147.936 86.2401 150.948 86.2401C151.677 86.2401 152.313 86.3336 152.949 86.5207C150.218 87.9799 148.478 90.8981 148.478 94.1906C148.478 94.4712 148.291 94.6395 148.104 94.6395C146.458 94.6395 145.373 93.4611 145.373 91.9084ZM104.367 118.678C105.19 118.042 105.92 117.313 106.556 116.49H146.477C158.075 116.49 167.485 107.08 167.485 95.5749C167.485 86.4458 160.002 79.0378 150.948 79.0378C144.007 79.0378 138.246 84.8745 138.246 91.9084C138.246 97.3896 142.717 101.86 148.104 101.86C152.22 101.86 155.587 98.381 155.587 94.1906C155.587 93.1804 156.41 92.3573 157.42 92.3573C158.431 92.3573 159.254 93.1804 159.254 94.1906C159.254 100.401 154.222 105.434 148.104 105.434C140.883 105.434 134.673 99.6718 134.673 91.9084C134.673 82.7793 141.987 75.4647 150.929 75.4647C161.611 75.4647 171.021 84.1448 171.021 95.5562C171.021 112.093 159.141 120.119 139.873 120.119H105.976C105.433 119.576 104.872 119.108 104.33 118.659L104.367 118.678ZM48.3765 143.166L42.4463 138.882H49.7608C51.3135 138.882 52.7727 137.778 53.2403 136.319L55.4291 129.379L57.7113 136.319C58.1603 137.778 59.5446 138.882 61.0973 138.882H68.4118L62.5752 143.166C61.3966 144.083 61.0225 145.093 61.0225 145.897C61.0225 146.44 61.2096 147.076 61.565 148.179L63.5667 154.11L57.6365 149.826C57.0004 149.377 56.1774 149.096 55.4478 149.096C54.7182 149.096 53.9886 149.377 53.4461 149.826L47.4224 154.11L49.3492 148.179C49.7234 147.076 49.8918 146.44 49.8918 145.897C49.8918 144.887 49.3492 143.896 48.4326 143.166H48.3765Z" fill="#8050E3"/>
<path d="M145.373 91.9083C145.373 88.8029 147.936 86.24 150.948 86.24C151.678 86.24 152.314 86.3336 152.95 86.5207C150.218 87.9798 148.479 90.8981 148.479 94.1906C148.479 94.4712 148.292 94.6395 148.105 94.6395C146.458 94.6395 145.373 93.461 145.373 91.9083ZM138.526 127.265H139.892C148.572 127.265 156.149 125.712 162.172 122.7C158.88 130.108 154.409 136.861 149.021 142.792H143.54L138.695 127.714L138.508 127.265H138.526ZM137.61 26.5082H144.924C146.477 26.5082 147.936 25.4043 148.404 23.9451L150.593 17.0049L152.875 23.9451C153.324 25.4043 154.708 26.5082 156.261 26.5082H163.575L157.739 30.792C156.56 31.7087 156.186 32.719 156.186 33.5234C156.186 34.0659 156.373 34.7019 156.728 35.8056L158.73 41.7357L152.8 37.4519C152.164 37.0029 151.341 36.7223 150.611 36.7223C149.882 36.7223 149.152 37.0029 148.61 37.4519L142.586 41.7357L144.513 35.8056C144.887 34.7019 145.055 34.0659 145.055 33.5234C145.055 32.5132 144.513 31.5216 143.596 30.792L137.666 26.5082H137.61ZM122.363 150.013H129.678C131.231 150.013 132.69 148.909 133.158 147.45L135.346 140.509L137.629 147.45C138.078 148.909 139.462 150.013 141.015 150.013H148.329L142.492 154.297C141.314 155.213 140.94 156.223 140.94 157.028C140.94 157.57 141.127 158.206 141.482 159.31L143.484 165.24L137.554 160.956C136.918 160.507 136.095 160.227 135.365 160.227C134.635 160.227 133.906 160.507 133.363 160.956L127.34 165.24L129.266 159.31C129.641 158.206 129.809 157.57 129.809 157.028C129.809 156.018 129.266 155.026 128.35 154.297L122.42 150.013H122.363ZM104.367 118.678C105.19 118.042 105.92 117.313 106.556 116.49H146.477C158.075 116.49 167.485 107.08 167.485 95.5749C167.485 86.4458 160.002 79.0378 150.948 79.0378C144.008 79.0378 138.246 84.8745 138.246 91.9083C138.246 97.3895 142.717 101.86 148.105 101.86C152.22 101.86 155.587 98.381 155.587 94.1906C155.587 93.1804 156.41 92.3573 157.421 92.3573C158.431 92.3573 159.254 93.1804 159.254 94.1906C159.254 100.401 154.222 105.434 148.105 105.434C140.884 105.434 134.673 99.6718 134.673 91.9083C134.673 82.7793 141.987 75.4647 150.929 75.4647C161.611 75.4647 171.021 84.1448 171.021 95.5561C171.021 112.093 159.142 120.119 139.873 120.119H105.976C105.433 119.576 104.872 119.108 104.33 118.659L104.367 118.678ZM102.085 66.6162C102.085 58.9463 108.202 52.9227 115.779 52.9227C123.355 52.9227 129.566 58.9463 129.566 66.6162C129.566 69.5346 127.19 72.0039 124.178 72.0039C121.166 72.0039 118.79 69.5346 118.79 66.6162C118.79 64.97 117.425 63.6978 115.779 63.6978C114.132 63.6978 112.86 64.97 112.86 66.6162C112.86 69.5346 110.391 72.0039 107.473 72.0039C104.367 72.0039 102.085 69.5346 102.085 66.6162ZM100.252 30.2682C101.711 27.7988 105.003 26.9757 107.566 28.4349L126.835 39.4909C129.491 41.0436 130.389 44.336 128.836 46.8988C127.826 48.7321 126.105 49.5553 124.178 49.5553C123.261 49.5553 122.251 49.3683 121.447 48.9194L102.178 37.6764C99.6156 36.2172 98.6989 32.9246 100.252 30.2682ZM76.3252 85.7162C76.3252 78.0462 82.4424 72.0226 90.0188 72.0226C97.5952 72.0226 103.806 78.0462 103.806 85.7162C103.806 88.6345 101.43 91.1038 98.4183 91.1038C95.4065 91.1038 93.0307 88.6345 93.0307 85.7162C93.0307 84.0699 91.665 82.798 90.0188 82.798C88.3726 82.798 87.1005 84.0699 87.1005 85.7162C87.1005 88.6345 84.6312 91.1038 81.7129 91.1038C78.6075 91.1038 76.3252 88.6345 76.3252 85.7162ZM52.1181 159.516L55.4106 157.14L67.7386 166.007C62.2574 164.455 56.9633 162.266 52.1181 159.516ZM51.2015 46.8801C49.6488 44.3172 50.5654 41.0436 53.2031 39.4722L72.4715 28.4162C75.0344 26.957 78.3081 27.7803 79.786 30.2497C81.3387 32.9061 80.422 36.1798 77.8591 37.6576L58.5908 48.9006C57.7677 49.3496 56.7575 49.5366 55.8596 49.5366C53.9327 49.5366 52.2116 48.7134 51.2015 46.8801ZM50.4719 66.6162C50.4719 58.9463 56.5892 52.9227 64.1656 52.9227C71.742 52.9227 77.9527 58.9463 77.9527 66.6162C77.9527 69.5346 75.5769 72.0039 72.565 72.0039C69.5532 72.0039 67.1774 69.5346 67.1774 66.6162C67.1774 64.97 65.8118 63.6978 64.1656 63.6978C62.5193 63.6978 61.2472 64.97 61.2472 66.6162C61.2472 69.5346 58.7779 72.0039 55.8596 72.0039C52.7542 72.0039 50.4719 69.5346 50.4719 66.6162ZM23.9826 96.0238C23.9826 88.9899 29.7444 83.1533 36.7783 83.1533C43.8121 83.1533 49.5739 88.9899 49.5739 96.0238C49.5739 103.058 43.9057 108.82 36.7783 108.82C29.6508 108.82 23.9826 103.058 23.9826 96.0238ZM16.7616 96.0238C16.7616 107.08 25.7971 116.022 36.7595 116.022C47.7219 116.022 56.7575 107.061 56.7575 96.0238C56.7575 84.9866 48.0774 76.026 36.7595 76.026C25.4417 76.026 16.7616 85.155 16.7616 96.0238ZM10.8315 90.0002C10.8315 77.1297 13.9368 64.783 19.418 54.0076C20.3347 54.2883 21.3449 54.3817 22.3363 54.3817C36.217 54.3817 54.4004 36.3855 54.4004 22.2242C54.4004 21.2141 54.3069 20.2974 54.1198 19.3994C64.8951 13.9182 77.0547 10.8129 90.0188 10.8129C102.983 10.8129 115.049 13.9182 125.824 19.3994C124.084 19.68 123 21.2328 123 22.9538C123 24.0576 123.542 25.1426 124.459 25.7786L137.254 35.0011L132.783 48.6949C132.409 49.7986 132.147 50.7899 132.147 51.3512C132.147 53.1845 133.794 54.7373 135.795 54.7373C136.525 54.7373 137.254 54.4566 137.89 54.0076L150.593 44.7849L158.899 50.8088C162.921 57.9362 165.932 65.6995 167.579 74.0055C163.014 70.4511 157.252 68.3374 150.948 68.3374C137.984 68.3374 127.47 78.9256 127.47 91.9083C127.47 100.046 131.848 106.07 137.067 109.362H108.015C106.743 103.245 100.158 102.141 93.9473 102.141C90.1123 102.141 88.4661 103.787 88.4661 105.789C88.4661 107.791 90.1124 109.343 92.114 109.343H92.4882C98.6054 109.343 101.075 110.073 101.075 112.075C101.075 114.076 98.6054 115.087 92.3946 115.087H92.114C90.1124 115.087 88.4661 116.639 88.4661 118.641C88.4661 120.643 90.1124 122.195 92.114 122.195H92.3946C98.6989 122.195 101.075 123.374 101.075 125.301C101.075 127.227 98.6989 127.957 92.3946 127.957H92.114C90.1124 127.957 88.4661 129.603 88.4661 131.511C88.4661 133.419 90.1124 135.159 92.9372 135.159C100.252 135.159 107.098 133.419 108.109 127.209H132.129L131.942 127.658L127.096 142.735H111.289C109.1 142.735 107.734 144.475 107.734 146.384C107.734 147.487 108.277 148.572 109.194 149.208L121.989 158.431L120.437 163.089C111.027 167.017 100.794 169.113 90.0188 169.113C83.5274 169.113 77.2231 168.383 71.1994 166.83C72.6586 166.456 73.8558 165.091 73.8558 163.351C73.8558 162.808 73.6688 162.247 73.4069 161.424L68.8423 147.263L81.638 138.04C82.5547 137.404 83.0036 136.394 83.0036 135.028C83.0036 133.475 81.8251 131.549 79.4493 131.549H63.6418L58.7966 116.471C58.3476 115.105 56.9633 114.095 55.4106 114.095C53.9514 114.095 52.4923 115.105 52.0246 116.471L47.1794 131.549H31.3719C29.1832 131.549 27.8175 133.289 27.8175 135.197C27.8175 136.3 28.36 137.385 29.2767 138.021L42.0724 147.244L40.6133 151.809C22.4299 137.292 10.8315 114.899 10.8315 89.8693V90.0002ZM10.5509 10.5323L46.8988 20.2224C47.1794 20.765 47.3478 21.4945 47.3478 22.3176C47.3478 31.6338 32.2699 47.2544 22.3177 47.2544C21.4946 47.2544 20.7649 47.1607 20.2224 46.8801L10.5321 10.5323H10.5509ZM0.0374508 90.0002C0.0374508 119.875 14.6477 146.365 37.115 162.715C37.0214 163.164 36.928 163.444 36.928 163.725C36.928 165.558 38.5741 167.111 40.5758 167.111C41.3054 167.111 41.9414 166.83 42.5775 166.475C56.3647 175.062 72.6212 180 89.9814 180C99.3911 180 108.427 178.541 117.013 175.885C117.462 177.25 118.847 178.261 120.493 178.261C121.222 178.261 121.952 177.98 122.588 177.531L135.29 168.308L148.086 177.531C148.628 177.98 149.451 178.261 150.181 178.261C152.014 178.261 153.735 176.708 153.735 174.613C153.735 174.07 153.548 173.509 153.286 172.686L148.722 158.524L161.518 149.302C162.434 148.666 162.883 147.656 162.883 146.29C162.883 145.467 162.603 144.644 161.966 143.914C173.284 128.93 179.963 110.204 179.963 90.0189C179.963 72.6587 175.024 56.4956 166.438 42.7085L163.968 35.0386L176.764 25.8159C177.681 25.1798 178.129 24.1697 178.129 22.804C178.129 21.2513 176.951 19.3245 174.575 19.3245H158.768L153.922 4.2467C153.473 2.88108 152.089 1.87086 150.536 1.87086C149.077 1.87086 147.618 2.88108 147.15 4.2467L142.941 17.3043C128.05 6.52894 109.699 0.0375977 89.9627 0.0375977C73.5191 0.0375977 57.9922 4.50845 44.654 12.2719L6.92167 2.03916C3.90982 1.21605 1.8146 2.76871 1.8146 5.05098C1.8146 6.22953 2.73124 9.61556 3.27375 11.6359L12.2345 44.7849C4.47102 58.1231 0 73.5566 0 90.0002H0.0374508ZM61.5091 148.179L63.5108 154.11L57.5806 149.826C56.9446 149.377 56.1215 149.096 55.3919 149.096C54.6623 149.096 53.9327 149.377 53.3902 149.826L47.3665 154.11L49.2934 148.179C49.6675 147.076 49.8359 146.44 49.8359 145.897C49.8359 144.887 49.2934 143.896 48.3767 143.166L42.4465 138.882H49.761C51.3137 138.882 52.7729 137.778 53.2406 136.319L55.4293 129.379L57.7116 136.319C58.1605 137.778 59.5449 138.882 61.0976 138.882H68.4121L62.5754 143.166C61.3969 144.083 61.0227 145.093 61.0227 145.897C61.0227 146.44 61.2098 147.076 61.5652 148.179H61.5091Z" fill="#36147D"/>
</svg>
