<svg width="180" height="180" viewBox="0 0 180 180" fill="none" xmlns="http://www.w3.org/2000/svg">
<path d="M89.9999 179.1C139.107 179.1 179.1 139.126 179.1 90.0001C179.1 67.5677 170.783 47.0432 157.038 31.3904L162.817 27.1486H155.575C154.037 27.1486 152.685 26.0555 152.222 24.6106L149.962 17.7383L148.332 22.7953C132.679 9.14319 112.34 0.900146 89.9999 0.900146C70.2904 0.900146 52.0073 7.32786 37.2623 18.1829L11.3103 11.3106L18.1827 37.2626C7.32767 52.0076 0.899902 70.2722 0.899902 90.0001C0.899902 139.107 40.8745 179.1 89.9999 179.1Z" fill="#DECEFF"/>
<mask id="mask0_540_2745" style="mask-type:alpha" maskUnits="userSpaceOnUse" x="134" y="13" width="38" height="35">
<path d="M144 20.5L152.5 14.5L155.5 22.5L170 24.5L161 33.5V47L151 41.5L139 45L141.5 34.5L135 24.5L144 20.5Z" fill="#EEF28F" stroke="black"/>
</mask>
<g mask="url(#mask0_540_2745)">
<path d="M90 180C139.603 180 180 139.622 180 90.0001C180 67.3411 171.599 46.6092 157.715 30.7984L163.553 26.5137H156.237C154.684 26.5137 153.318 25.4096 152.85 23.9501L150.568 17.0084L148.921 22.1165C133.11 8.32643 112.565 0.00012207 90 0.00012207C70.0914 0.00012207 51.6237 6.49277 36.7297 17.4574L10.5156 10.5157L17.4574 36.7299C6.4927 51.6239 0 70.0729 0 90.0001C0 139.603 40.3783 180 90 180Z" fill="#FFB636"/>
</g>
<path d="M122.364 149.963H129.678C131.231 149.963 132.69 148.859 133.158 147.4L135.347 140.461L137.629 147.4C138.078 148.859 139.462 149.963 141.015 149.963H148.329L142.493 154.246C141.314 155.162 140.94 156.172 140.94 156.976C140.94 157.519 141.127 158.155 141.483 159.258L143.484 165.187L137.554 160.904C136.918 160.455 136.095 160.175 135.365 160.175C134.636 160.175 133.906 160.455 133.364 160.904L127.34 165.187L129.267 159.258C129.641 158.155 129.809 157.519 129.809 156.976C129.809 155.966 129.267 154.975 128.35 154.246L122.42 149.963H122.364ZM20.2416 46.8516L10.5513 10.5114L46.8992 20.1995C47.1799 20.7419 47.3482 21.4715 47.3482 22.2945C47.3482 31.6087 32.2703 47.2258 22.3181 47.2258C21.495 47.2258 20.7653 47.1322 20.2228 46.8516H20.2416Z" fill="#B623A7"/>
<path d="M24.1694 96.1723C24.1694 88.8593 29.9312 83.3044 36.9651 83.3044C43.999 83.3044 49.7608 89.0651 49.7608 96.1723C49.7608 103.28 44.0925 108.872 36.9651 108.872C29.8377 108.872 24.1694 103.111 24.1694 96.1723Z" fill="#FA48E8"/>
<path d="M145.373 91.8892C145.373 88.7845 147.936 86.2221 150.948 86.2221C151.677 86.2221 152.313 86.3156 152.949 86.5027C150.218 87.9615 148.478 90.8792 148.478 94.1709C148.478 94.4515 148.291 94.6198 148.104 94.6198C146.458 94.6198 145.373 93.4416 145.373 91.8892ZM104.367 118.653C105.19 118.018 105.92 117.288 106.556 116.465H146.477C158.075 116.465 167.485 107.057 167.485 95.555C167.485 86.4278 160.002 79.0214 150.948 79.0214C144.007 79.0214 138.246 84.8568 138.246 91.8892C138.246 97.3692 142.717 101.839 148.104 101.839C152.22 101.839 155.587 98.3605 155.587 94.1709C155.587 93.161 156.41 92.3381 157.42 92.3381C158.431 92.3381 159.254 93.161 159.254 94.1709C159.254 100.38 154.222 105.412 148.104 105.412C140.883 105.412 134.673 99.651 134.673 91.8892C134.673 82.762 141.987 75.449 150.929 75.449C161.611 75.449 171.021 84.1273 171.021 95.5362C171.021 112.07 159.141 120.094 139.873 120.094H105.976C105.433 119.551 104.872 119.084 104.33 118.635L104.367 118.653ZM48.3765 143.136L42.4463 138.853H49.7608C51.3135 138.853 52.7727 137.75 53.2403 136.291L55.4291 129.352L57.7113 136.291C58.1603 137.75 59.5446 138.853 61.0973 138.853H68.4118L62.5752 143.136C61.3966 144.053 61.0225 145.062 61.0225 145.867C61.0225 146.409 61.2096 147.045 61.565 148.148L63.5667 154.077L57.6365 149.794C57.0004 149.345 56.1774 149.065 55.4478 149.065C54.7182 149.065 53.9886 149.345 53.4461 149.794L47.4224 154.077L49.3492 148.148C49.7234 147.045 49.8918 146.409 49.8918 145.867C49.8918 144.857 49.3492 143.866 48.4326 143.136H48.3765Z" fill="#9B6AFF"/>
<path d="M145.403 91.8898C145.403 88.7838 147.967 86.2203 150.979 86.2203C151.709 86.2203 152.345 86.3139 152.981 86.501C150.249 87.9605 148.509 90.8794 148.509 94.1725C148.509 94.4532 148.322 94.6216 148.135 94.6216C146.489 94.6216 145.403 93.4428 145.403 91.8898ZM138.555 127.254H139.921C148.603 127.254 156.181 125.701 162.206 122.688C158.913 130.098 154.441 136.852 149.052 142.784H143.57L138.723 127.703L138.536 127.254H138.555ZM137.638 26.4762H144.954C146.507 26.4762 147.967 25.372 148.435 23.9125L150.624 16.9708L152.906 23.9125C153.356 25.372 154.74 26.4762 156.293 26.4762H163.609L157.771 30.7608C156.593 31.6777 156.218 32.6882 156.218 33.4928C156.218 34.0354 156.405 34.6715 156.761 35.7755L158.763 41.7067L152.832 37.4221C152.195 36.973 151.372 36.6923 150.642 36.6923C149.913 36.6923 149.183 36.973 148.64 37.4221L142.615 41.7067L144.543 35.7755C144.917 34.6715 145.085 34.0354 145.085 33.4928C145.085 32.4824 144.543 31.4906 143.626 30.7608L137.694 26.4762H137.638ZM122.389 150.006H129.705C131.258 150.006 132.717 148.902 133.185 147.443L135.374 140.501L137.657 147.443C138.106 148.902 139.491 150.006 141.044 150.006H148.36L142.522 154.291C141.343 155.208 140.969 156.218 140.969 157.023C140.969 157.565 141.156 158.202 141.512 159.306L143.514 165.237L137.582 160.952C136.946 160.503 136.123 160.223 135.393 160.223C134.663 160.223 133.934 160.503 133.391 160.952L127.366 165.237L129.293 159.306C129.667 158.202 129.836 157.565 129.836 157.023C129.836 156.012 129.293 155.021 128.376 154.291L122.445 150.006H122.389ZM104.389 118.665C105.212 118.029 105.942 117.299 106.578 116.476H146.507C158.108 116.476 167.52 107.064 167.52 95.5571C167.52 86.4261 160.035 79.0166 150.979 79.0166C144.038 79.0166 138.274 84.8545 138.274 91.8898C138.274 97.3722 142.746 101.844 148.135 101.844C152.252 101.844 155.62 98.3638 155.62 94.1725C155.62 93.1621 156.443 92.3389 157.453 92.3389C158.464 92.3389 159.287 93.1621 159.287 94.1725C159.287 100.385 154.254 105.418 148.135 105.418C140.913 105.418 134.701 99.6549 134.701 91.8898C134.701 82.7589 142.017 75.4428 150.961 75.4428C161.645 75.4428 171.056 84.1247 171.056 95.5384C171.056 112.079 159.175 120.106 139.902 120.106H105.998C105.455 119.563 104.894 119.096 104.351 118.646L104.389 118.665ZM102.106 66.5925C102.106 58.921 108.225 52.8961 115.803 52.8961C123.381 52.8961 129.592 58.921 129.592 66.5925C129.592 69.5114 127.216 71.9813 124.204 71.9813C121.191 71.9813 118.815 69.5114 118.815 66.5925C118.815 64.9459 117.449 63.6735 115.803 63.6735C114.156 63.6735 112.884 64.9459 112.884 66.5925C112.884 69.5114 110.414 71.9813 107.495 71.9813C104.389 71.9813 102.106 69.5114 102.106 66.5925ZM100.272 30.2369C101.732 27.767 105.025 26.9438 107.588 28.4032L126.861 39.4615C129.518 41.0145 130.416 44.3076 128.863 46.871C127.852 48.7047 126.131 49.528 124.204 49.528C123.287 49.528 122.277 49.341 121.472 48.8919L102.2 37.6466C99.6362 36.1871 98.7193 32.8938 100.272 30.2369ZM76.341 85.6964C76.341 78.0248 82.4595 72 90.0374 72C97.6154 72 103.827 78.0248 103.827 85.6964C103.827 88.6153 101.451 91.0852 98.4387 91.0852C95.4262 91.0852 93.0499 88.6153 93.0499 85.6964C93.0499 84.0498 91.684 82.7776 90.0374 82.7776C88.3909 82.7776 87.1185 84.0498 87.1185 85.6964C87.1185 88.6153 84.6487 91.0852 81.7298 91.0852C78.6238 91.0852 76.341 88.6153 76.341 85.6964ZM52.1289 159.512L55.422 157.135L67.7527 166.004C62.2703 164.451 56.9751 162.262 52.1289 159.512ZM51.2121 46.8523C49.659 44.2888 50.5759 41.0145 53.2142 39.4428L72.4865 28.3845C75.0499 26.925 78.3243 27.7485 79.8025 30.2184C81.3555 32.8753 80.4387 36.1497 77.8753 37.6278L58.6029 48.8732C57.7797 49.3223 56.7693 49.5093 55.8711 49.5093C53.9439 49.5093 52.2225 48.6859 51.2121 46.8523ZM50.4824 66.5925C50.4824 58.921 56.6009 52.8961 64.1788 52.8961C71.7568 52.8961 77.9689 58.921 77.9689 66.5925C77.9689 69.5114 75.5925 71.9813 72.5801 71.9813C69.5676 71.9813 67.1913 69.5114 67.1913 66.5925C67.1913 64.9459 65.8254 63.6735 64.1788 63.6735C62.5323 63.6735 61.2599 64.9459 61.2599 66.5925C61.2599 69.5114 58.7901 71.9813 55.8711 71.9813C52.7651 71.9813 50.4824 69.5114 50.4824 66.5925ZM23.9875 96.0062C23.9875 88.9708 29.7505 83.133 36.7859 83.133C43.8212 83.133 49.5842 88.9708 49.5842 96.0062C49.5842 103.042 43.9148 108.805 36.7859 108.805C29.657 108.805 23.9875 103.042 23.9875 96.0062ZM16.7651 96.0062C16.7651 107.064 25.8025 116.008 36.7671 116.008C47.7318 116.008 56.7692 107.046 56.7692 96.0062C56.7692 84.9667 48.0873 76.0042 36.7671 76.0042C25.447 76.0042 16.7651 85.1351 16.7651 96.0062ZM10.8337 89.9813C10.8337 77.1081 13.9397 64.7588 19.4221 53.9813C20.3389 54.2619 21.3493 54.3554 22.341 54.3554C36.2245 54.3554 54.4117 36.3555 54.4117 22.1913C54.4117 21.1809 54.3181 20.264 54.131 19.3659C64.9086 13.8835 77.0707 10.7776 90.0374 10.7776C103.004 10.7776 115.073 13.8835 125.85 19.3659C124.11 19.6465 123.025 21.1996 123.025 22.921C123.025 24.025 123.568 25.1102 124.484 25.7464L137.283 34.9708L132.811 48.6674C132.437 49.7714 132.175 50.7629 132.175 51.3242C132.175 53.1579 133.821 54.711 135.823 54.711C136.553 54.711 137.283 54.4303 137.919 53.9813L150.624 44.7566L158.931 50.7818C162.954 57.9107 165.967 65.6756 167.613 73.9833C163.048 70.4282 157.285 68.314 150.979 68.314C138.013 68.314 127.497 78.9044 127.497 91.8898C127.497 100.029 131.875 106.054 137.096 109.347H108.037C106.765 103.229 100.179 102.125 93.9668 102.125C90.131 102.125 88.4844 103.771 88.4844 105.773C88.4844 107.775 90.131 109.328 92.1331 109.328H92.5073C98.6258 109.328 101.096 110.058 101.096 112.06C101.096 114.062 98.6258 115.073 92.4138 115.073H92.1331C90.131 115.073 88.4844 116.626 88.4844 118.628C88.4844 120.63 90.131 122.183 92.1331 122.183H92.4138C98.7194 122.183 101.096 123.362 101.096 125.289C101.096 127.216 98.7194 127.946 92.4138 127.946H92.1331C90.131 127.946 88.4844 129.592 88.4844 131.501C88.4844 133.409 90.131 135.15 92.9564 135.15C100.272 135.15 107.121 133.41 108.131 127.198H132.156L131.969 127.647L127.123 142.728H111.312C109.123 142.728 107.757 144.468 107.757 146.376C107.757 147.48 108.299 148.566 109.216 149.202L122.015 158.426L120.462 163.085C111.05 167.014 100.815 169.11 90.0374 169.11C83.5447 169.11 77.2391 168.38 71.2141 166.827C72.6736 166.453 73.8711 165.087 73.8711 163.347C73.8711 162.805 73.684 162.243 73.4221 161.42L68.8566 147.256L81.6549 138.031C82.5718 137.395 83.0208 136.385 83.0208 135.019C83.0208 133.466 81.842 131.538 79.4657 131.538H63.6549L58.8088 116.457C58.3597 115.092 56.9751 114.081 55.422 114.081C53.9626 114.081 52.5031 115.092 52.0353 116.457L47.1892 131.538H31.3784C29.1892 131.538 27.8233 133.279 27.8233 135.187C27.8233 136.291 28.3659 137.376 29.2827 138.013L42.0811 147.237L40.6217 151.803C22.4346 137.283 10.8337 114.886 10.8337 89.8504V89.9813ZM10.553 10.4969L46.9085 20.189C47.1892 20.7317 47.3576 21.4614 47.3576 22.2847C47.3576 31.6028 32.2766 47.2266 22.3223 47.2266C21.499 47.2266 20.7692 47.1329 20.2266 46.8523L10.5343 10.4969H10.553ZM0.0374586 89.9813C0.0374586 119.863 14.6507 146.358 37.1227 162.711C37.0291 163.16 36.9356 163.441 36.9356 163.721C36.9356 165.555 38.5821 167.108 40.5842 167.108C41.3139 167.108 41.9501 166.827 42.5863 166.472C56.3763 175.06 72.6362 180 90 180C99.4117 180 108.449 178.541 117.037 175.884C117.487 177.25 118.871 178.26 120.518 178.26C121.247 178.26 121.977 177.979 122.613 177.53L135.318 168.306L148.116 177.53C148.659 177.979 149.482 178.26 150.212 178.26C152.046 178.26 153.767 176.707 153.767 174.611C153.767 174.069 153.58 173.507 153.318 172.684L148.753 158.52L161.551 149.295C162.468 148.659 162.917 147.649 162.917 146.283C162.917 145.459 162.636 144.636 162 143.906C173.32 128.919 180 110.189 180 90C180 72.6362 175.06 56.4698 166.472 42.6797L164.002 35.0083L176.8 25.7836C177.717 25.1474 178.166 24.1371 178.166 22.7712C178.166 21.2182 176.988 19.291 174.611 19.291H158.8L153.954 4.20998C153.505 2.84408 152.121 1.83364 150.568 1.83364C149.108 1.83364 147.649 2.84408 147.181 4.20998L142.971 17.2702C128.077 6.49269 109.721 0 89.9813 0C73.5343 0 58.0042 4.47178 44.6632 12.2369L6.9231 2.00198C3.91063 1.17869 1.81497 2.73168 1.81497 5.01443C1.81497 6.19322 2.73181 9.57996 3.27443 11.6007L12.237 44.7566C4.47195 58.0976 0 73.5343 0 89.9813H0.0374586ZM61.5219 148.173L63.5239 154.104L57.5925 149.819C56.9563 149.37 56.1331 149.089 55.4034 149.089C54.6736 149.089 53.9439 149.37 53.4013 149.819L47.3763 154.104L49.3036 148.173C49.6778 147.069 49.8462 146.432 49.8462 145.89C49.8462 144.879 49.3036 143.888 48.3867 143.158L42.4553 138.873H49.7713C51.3243 138.873 52.7838 137.769 53.2516 136.31L55.4408 129.368L57.7235 136.31C58.1726 137.769 59.5572 138.873 61.1102 138.873H68.4262L62.5884 143.158C61.4096 144.075 61.0353 145.085 61.0353 145.89C61.0353 146.432 61.2225 147.069 61.578 148.173H61.5219Z" fill="#36147D"/>
</svg>
