<svg width="134" height="73" viewBox="0 0 134 73" fill="none" xmlns="http://www.w3.org/2000/svg">
<path d="M27.7405 18.3201H26.2205V7.12012H27.7405V8.24012C28.1405 7.52012 29.2605 6.96012 30.3805 6.96012C32.3805 6.96012 33.8205 8.48012 33.8205 11.1201C33.8205 13.7601 32.2205 15.2801 30.2205 15.2801C29.1005 15.2801 28.1405 14.7201 27.7405 14.0001V18.3201ZM29.9965 14.0001H30.1245C31.3405 14.0001 32.3005 13.0401 32.3005 11.1201C32.3005 9.20012 31.3405 8.24012 30.1245 8.24012H29.9965C28.8605 8.24012 27.7405 9.20012 27.7405 11.1201C27.7405 13.0401 28.8605 14.0001 29.9965 14.0001ZM39.0958 15.2801C36.9358 15.2801 35.2558 13.6001 35.2558 11.1201C35.2558 8.64012 36.9358 6.96012 39.0958 6.96012C41.2558 6.96012 42.9358 8.64012 42.9358 11.1201C42.9358 13.6001 41.2558 15.2801 39.0958 15.2801ZM39.0318 14.0001H39.1598C40.4558 14.0001 41.4158 12.9601 41.4158 11.1201C41.4158 9.28012 40.4558 8.24012 39.1598 8.24012H39.0318C37.7358 8.24012 36.7758 9.28012 36.7758 11.1201C36.7758 12.9601 37.7358 14.0001 39.0318 14.0001ZM52.3849 13.4401L54.0649 7.12012H55.6649L53.1849 15.1201H51.5049L49.7449 8.86412L47.9849 15.1201H46.3049L43.8249 7.12012H45.4249L47.1849 13.4401L48.9449 7.12012H50.5449L52.3849 13.4401ZM60.3446 15.2801C58.3606 15.2801 56.5686 13.9041 56.5686 11.1041C56.5686 8.33612 58.4086 6.96012 60.2966 6.96012C62.3766 6.96012 63.6886 8.40012 63.6886 10.4801V11.3601H58.0886C58.1846 13.1841 59.3526 14.0001 60.3286 14.0001H60.4566C61.2406 14.0001 61.9926 13.6001 62.1526 12.7521H63.6726C63.3846 14.3681 61.9926 15.2801 60.3446 15.2801ZM58.1846 10.1601H62.1686C62.1046 8.76812 61.2726 8.24012 60.3606 8.24012H60.2326C59.4006 8.24012 58.4726 8.73612 58.1846 10.1601ZM67.178 15.1201H65.658V7.12012H67.098V8.88012C67.418 7.68012 68.378 7.04012 69.418 7.04012H70.138V8.51212H69.498C68.058 8.51212 67.178 9.47212 67.178 11.0721V15.1201ZM74.7196 15.2801C72.7356 15.2801 70.9436 13.9041 70.9436 11.1041C70.9436 8.33612 72.7836 6.96012 74.6716 6.96012C76.7516 6.96012 78.0636 8.40012 78.0636 10.4801V11.3601H72.4636C72.5596 13.1841 73.7276 14.0001 74.7036 14.0001H74.8316C75.6156 14.0001 76.3676 13.6001 76.5276 12.7521H78.0476C77.7596 14.3681 76.3676 15.2801 74.7196 15.2801ZM72.5596 10.1601H76.5436C76.4796 8.76812 75.6476 8.24012 74.7356 8.24012H74.6076C73.7756 8.24012 72.8476 8.73612 72.5596 10.1601ZM83.009 15.2801C81.009 15.2801 79.569 13.7601 79.569 11.1201C79.569 8.48012 81.169 6.96012 83.169 6.96012C84.289 6.96012 85.249 7.52012 85.649 8.24012V3.92012H87.169V15.1201H85.649V14.0001C85.249 14.7201 84.129 15.2801 83.009 15.2801ZM83.265 14.0001H83.393C84.529 14.0001 85.649 13.0401 85.649 11.1201C85.649 9.20012 84.529 8.24012 83.393 8.24012H83.265C82.049 8.24012 81.089 9.20012 81.089 11.1201C81.089 13.0401 82.049 14.0001 83.265 14.0001ZM97.6305 15.2801C96.5105 15.2801 95.3905 14.7201 94.9905 14.0001V15.1201H93.4705V3.92012H94.9905V8.24012C95.3905 7.52012 96.3505 6.96012 97.4705 6.96012C99.4705 6.96012 101.071 8.48012 101.071 11.1201C101.071 13.7601 99.6305 15.2801 97.6305 15.2801ZM97.2465 14.0001H97.3745C98.5905 14.0001 99.5505 13.0401 99.5505 11.1201C99.5505 9.20012 98.5905 8.24012 97.3745 8.24012H97.2465C96.1105 8.24012 94.9905 9.20012 94.9905 11.1201C94.9905 13.0401 96.1105 14.0001 97.2465 14.0001ZM108.446 7.12012H110.014L106.734 14.9441V16.4001C106.734 17.5201 106.174 18.0801 105.054 18.0801H102.414V16.7201H104.654C105.134 16.7201 105.294 16.5601 105.294 16.0801V14.9601L101.934 7.12012H103.55L106.046 13.0241L108.446 7.12012Z" fill="#C8ADFF"/>
<path fill-rule="evenodd" clip-rule="evenodd" d="M6.40112 32.8657C6.2902 32.1029 6.67242 32.016 6.87739 32.0679C6.87739 32.0679 10.293 33.5302 16.9961 33.5992C23.6992 33.6682 27.3158 31.9579 27.3158 31.9579C27.5166 31.9038 27.9054 31.9865 27.854 32.7502C27.8026 33.5139 27.7669 35.7196 27.7554 36.727L31.6107 36.7062C32.0835 36.686 32.9704 36.964 32.7359 38.2376C32.6882 38.4967 32.6208 38.9399 32.5343 39.5088C32.0891 42.4357 31.1377 48.6915 29.7577 50.3413C28.7927 51.6189 27.4479 52.2623 26.393 52.5331C25.5166 52.816 24.5887 52.7748 24.2679 52.7606L24.2678 52.7606C24.2218 52.7585 24.1883 52.757 24.1692 52.7571C23.5024 53.8741 21.7802 56.2903 20.2257 57.0197C19.7172 57.2185 19.7295 57.4146 19.7391 57.5687C19.7399 57.5812 19.7406 57.5935 19.7411 57.6055C19.8815 59.0361 20.358 62.2357 21.1414 63.5887C21.2462 63.7908 21.2797 63.9449 21.3027 64.0506C21.3278 64.1661 21.3404 64.2239 21.4198 64.2234L22.3836 64.2182C22.4851 64.2177 22.7286 64.2164 22.8992 64.4275C22.9904 64.5404 23.142 64.5366 23.3069 64.5325C23.5277 64.5269 23.7724 64.5208 23.9282 64.7931C24.095 65.0846 24.0758 65.3974 24.0659 65.5587C24.0637 65.5938 24.062 65.6217 24.0627 65.6406L25.5845 65.6324C25.7705 65.6314 26.1463 65.7248 26.1611 66.1065L26.2852 69.2868C26.2874 69.3447 26.2854 69.3921 26.2838 69.4309C26.2764 69.6049 26.2764 69.6049 26.7034 69.6026L28.0223 69.5955C28.1069 69.5951 28.2763 69.6048 28.2945 70.0712L28.3503 71.5023C28.3545 71.6083 28.3627 71.8204 27.9062 71.8228L9.39546 71.9225C8.93891 71.925 8.93064 71.7129 8.92651 71.6069L8.87071 70.1758C8.85252 69.7094 9.02108 69.6978 9.10574 69.6974L10.4247 69.6903C10.8517 69.688 10.8517 69.688 10.8307 69.5141L10.8307 69.5141L10.8307 69.514C10.826 69.4753 10.8203 69.428 10.8181 69.3701L10.6941 66.1898C10.6792 65.8081 11.0475 65.7107 11.2335 65.7097L12.7553 65.7015C12.7545 65.6826 12.7506 65.6547 12.7458 65.6196C12.7233 65.4586 12.6796 65.1461 12.8237 64.8529C12.9582 64.5791 13.2033 64.5825 13.4244 64.5857C13.5896 64.588 13.7414 64.5902 13.8237 64.4764C13.9778 64.2635 14.2213 64.2622 14.3227 64.2617L15.2866 64.2565C15.366 64.256 15.3741 64.1982 15.3902 64.0824C15.4049 63.9765 15.4264 63.8221 15.5154 63.619C16.193 62.2582 16.4198 59.0548 16.4486 57.6232C16.4481 57.6113 16.4479 57.5991 16.4477 57.5866L16.4477 57.5864C16.4453 57.4323 16.4423 57.2362 15.9186 57.0429C14.3078 56.3305 12.3979 53.9339 11.6443 52.8246C11.6253 52.8247 11.5922 52.8265 11.5467 52.829L11.5465 52.829L11.546 52.8291L11.546 52.8291C11.2264 52.8468 10.3021 52.8979 9.40404 52.6246C8.32844 52.3653 6.934 51.7366 5.86985 50.47C4.36178 48.8357 2.92297 42.5927 2.2498 39.6718C2.11896 39.1041 2.01704 38.6619 1.94916 38.4034C1.61548 37.1328 2.48035 36.8454 2.95449 36.8605L6.80977 36.8398C6.71977 35.8329 6.51205 33.6286 6.40112 32.8657ZM4.0662 38.6243C3.47274 38.6182 3.64351 39.3416 3.77343 39.892C3.79029 39.9634 3.80646 40.0319 3.82019 40.0956C3.93968 40.6495 4.48274 42.932 5.81492 46.6007C7.1471 50.2694 9.4394 50.519 10.419 50.1852C9.67573 48.6546 8.03793 43.7497 7.67857 42.0512C7.3192 40.3527 6.88929 38.6534 6.46583 38.649L4.0662 38.6243ZM31.008 39.8947C31.1016 39.3446 31.2247 38.6215 30.6316 38.6263L28.2334 38.6453C27.8102 38.6486 27.4923 40.347 27.245 42.0449C26.9976 43.7427 25.6832 48.6441 25.0408 50.173C26.0425 50.5091 28.3186 50.265 29.4088 46.5991C30.4991 42.9333 30.8917 40.6519 30.9747 40.0982C30.9842 40.0346 30.9958 39.9661 31.008 39.8947L31.008 39.8947ZM21.069 45.6755L17.7053 47.9769L14.1678 45.7054L17.8163 50.908L17.8164 50.9095L17.8168 50.9087L17.8173 50.9095L17.8173 50.908L21.069 45.6755ZM17.3271 38.0043L17.3269 38.0009L17.3261 38.0026L17.3251 38.001L17.3252 38.0043L14.091 44.2676L17.6487 46.51L17.6487 46.5113L17.6496 46.5106L17.6506 46.5112L17.6505 46.5101L21.0365 44.2375L17.3271 38.0043Z" fill="#FFB636"/>
<path d="M28.9537 31.9974C28.9178 33.0637 23.9828 33.9335 17.9311 33.9402C11.8794 33.9468 6.85561 33.0865 6.89154 32.0202C6.92747 30.9539 12.0095 30.0853 18.0612 30.0787C24.1129 30.072 28.9897 30.9311 28.9537 31.9974Z" fill="#FFD469"/>
<path d="M25.2037 35.7448C25.8859 35.7353 26.0078 35.7336 27.2012 35.3722C27.1309 36.0286 26.9536 40.9978 26.7754 41.7798C26.2992 43.8693 25.8713 47.0941 24.8664 47.7301C24.6755 47.851 23.7531 47.7456 23.3933 47.5774C23.0336 47.4092 23.9777 45.6104 24.9198 41.8056C25.2059 37.7144 24.7338 35.9483 25.2037 35.7448Z" fill="#FFCC4E"/>
<path d="M55.2 30.5111C61.9098 30.5111 67.3491 36.0413 67.3491 42.8631V49.9655C67.3491 56.7873 61.9098 62.3174 55.2 62.3174C54.1461 62.3174 53.1234 62.181 52.1483 61.9245L52.1485 62.763C52.1485 67.7534 48.1501 71.8084 43.1873 71.889L43.0366 71.8902V44.7159L43.0505 44.7156L43.0509 42.8631C43.0509 36.0413 48.4903 30.5111 55.2 30.5111ZM109.607 30.5111C116.32 30.5111 121.763 36.0729 121.763 42.9337V50.0767C121.763 56.9374 116.32 62.4992 109.607 62.4992C102.893 62.4992 97.4504 56.9374 97.4504 50.0767V42.9337C97.4504 36.0729 102.893 30.5111 109.607 30.5111ZM82.3997 29.9242C89.1135 29.9242 94.556 35.486 94.556 42.3467V49.4897C94.556 56.3505 89.1135 61.9123 82.3997 61.9123C75.686 61.9123 70.2435 56.3505 70.2435 49.4897V42.3467C70.2435 35.486 75.686 29.9242 82.3997 29.9242ZM133.919 21.1201V52.6347C133.919 57.7073 129.855 61.8291 124.81 61.911L124.657 61.9123V30.3977C124.657 25.2738 128.804 21.1201 133.919 21.1201ZM109.607 39.828C107.928 39.828 106.568 41.2185 106.568 42.9337V50.0767C106.568 51.7919 107.928 53.1823 109.607 53.1823C111.285 53.1823 112.646 51.7919 112.646 50.0767V42.9337C112.646 41.2185 111.285 39.828 109.607 39.828ZM55.2 39.7751C53.5226 39.7751 52.1627 41.1576 52.1627 42.8631V49.9655C52.1627 51.6709 53.5226 53.0535 55.2 53.0535C56.8775 53.0535 58.2373 51.6709 58.2373 49.9655V42.8631C58.2373 41.1576 56.8775 39.7751 55.2 39.7751ZM82.3997 39.2411C80.7213 39.2411 79.3607 40.6315 79.3607 42.3467V49.4897C79.3607 51.2049 80.7213 52.5954 82.3997 52.5954C84.0782 52.5954 85.4388 51.2049 85.4388 49.4897V42.3467C85.4388 40.6315 84.0782 39.2411 82.3997 39.2411Z" fill="white"/>
<path d="M99.8993 70.402H99.6465C99.3952 70.402 99.1746 70.1668 99.1746 69.8005V68.0698H99.7134C99.9643 68.0698 100.156 67.9037 100.156 67.6676C100.156 67.5482 100.111 67.442 100.03 67.366C99.9488 67.2905 99.8375 67.2506 99.7134 67.2506H99.1746V66.2801C99.1746 66.0151 98.9769 65.8188 98.71 65.8188C98.4431 65.8188 98.2455 66.0151 98.2455 66.2801V67.2506H97.9965C97.8723 67.2506 97.7611 67.2905 97.6801 67.366C97.5987 67.442 97.5542 67.5482 97.5542 67.6676C97.5542 67.9037 97.7456 68.0698 97.9965 68.0698H98.2455V69.8005C98.2455 70.6622 98.8439 71.3245 99.6465 71.3245H99.7803C100.069 71.3245 100.312 71.1422 100.312 70.8633C100.312 70.6104 100.14 70.402 99.8993 70.402Z" fill="white"/>
<path fill-rule="evenodd" clip-rule="evenodd" d="M105.503 69.2174L105.503 69.2169C105.495 67.9646 104.607 67.0735 103.366 67.0735C102.741 67.0735 102.204 67.294 101.822 67.6755C101.441 68.0569 101.221 68.5939 101.221 69.2174C101.221 69.8374 101.441 70.3726 101.823 70.753C102.204 71.1335 102.741 71.354 103.366 71.354C103.987 71.354 104.522 71.1334 104.902 70.753C105.283 70.3726 105.503 69.8374 105.503 69.2174ZM103.366 67.9222C103.728 67.9222 104.032 68.0566 104.246 68.2824C104.46 68.5087 104.588 68.8321 104.588 69.2174C104.588 69.6027 104.46 69.9241 104.246 70.1485C104.032 70.3725 103.728 70.5053 103.366 70.5053C103.003 70.5053 102.697 70.3725 102.481 70.1482C102.266 69.9237 102.136 69.6024 102.136 69.2174C102.136 68.4518 102.649 67.9222 103.366 67.9222Z" fill="white"/>
<path fill-rule="evenodd" clip-rule="evenodd" d="M108.738 72.9999C108.007 72.9999 107.34 72.709 106.897 72.1536C106.814 72.0533 106.783 71.9364 106.803 71.8243C106.823 71.713 106.891 71.6149 106.991 71.5472L106.992 71.5467C107.215 71.3993 107.484 71.4657 107.63 71.6556C107.878 71.9696 108.258 72.1511 108.753 72.1511C109.086 72.1511 109.39 72.0291 109.611 71.798C109.832 71.5669 109.976 71.2201 109.976 70.7599V70.7014C109.647 71.1125 109.169 71.354 108.604 71.354C108.022 71.354 107.521 71.1318 107.167 70.7506C106.812 70.3698 106.609 69.8355 106.609 69.2174C106.609 68.5939 106.829 68.0569 107.21 67.6755C107.591 67.294 108.128 67.0735 108.753 67.0735C109.995 67.0735 110.882 67.9646 110.89 69.2169L110.89 69.2174L110.89 70.8116C110.89 72.0242 110.013 72.9999 108.738 72.9999ZM108.753 70.5053C108.39 70.5053 108.084 70.3725 107.869 70.1482C107.653 69.9237 107.523 69.6024 107.523 69.2174C107.523 68.4518 108.036 67.9222 108.753 67.9222C109.115 67.9222 109.419 68.0566 109.633 68.2824C109.847 68.5087 109.976 68.8321 109.976 69.2174C109.976 69.6027 109.847 69.9241 109.633 70.1485C109.42 70.3725 109.116 70.5053 108.753 70.5053Z" fill="white"/>
<path fill-rule="evenodd" clip-rule="evenodd" d="M115.597 70.268C115.433 70.1344 115.192 70.1398 115.014 70.2727C114.828 70.4093 114.491 70.5348 114.207 70.5348C113.533 70.5348 113.036 70.1422 112.894 69.568H115.605C115.726 69.568 115.835 69.5276 115.915 69.4521C115.995 69.3763 116.039 69.2704 116.039 69.151C116.039 68.5503 115.861 68.0303 115.525 67.6594C115.188 67.2873 114.699 67.0735 114.096 67.0735C113.485 67.0735 112.959 67.2945 112.585 67.6761C112.212 68.0576 111.996 68.5944 111.996 69.2174C111.996 69.8384 112.224 70.3739 112.618 70.7541C113.011 71.1341 113.565 71.354 114.207 71.354C114.68 71.354 115.258 71.1637 115.61 70.8841C115.712 70.8056 115.767 70.6977 115.763 70.5807C115.76 70.4654 115.699 70.3561 115.599 70.2696L115.597 70.268ZM114.096 67.8927C114.408 67.8927 114.653 67.997 114.832 68.1707C114.99 68.3248 115.1 68.5381 115.153 68.7931H112.902C112.965 68.5378 113.091 68.3254 113.269 68.1717C113.471 67.9971 113.747 67.8927 114.096 67.8927Z" fill="white"/>
<path d="M119.017 70.402H118.764C118.513 70.402 118.292 70.1668 118.292 69.8005V68.0698H118.831C119.082 68.0698 119.273 67.9037 119.273 67.6676C119.273 67.5482 119.229 67.442 119.148 67.366C119.067 67.2905 118.955 67.2506 118.831 67.2506H118.292V66.2801C118.292 66.0151 118.095 65.8188 117.828 65.8188C117.561 65.8188 117.363 66.0151 117.363 66.2801V67.2506H117.114C116.99 67.2506 116.879 67.2905 116.798 67.366C116.716 67.442 116.672 67.5482 116.672 67.6676C116.672 67.9037 116.863 68.0698 117.114 68.0698H117.363V69.8005C117.363 70.6622 117.962 71.3245 118.764 71.3245H118.898C119.187 71.3245 119.43 71.1422 119.43 70.8633C119.43 70.6104 119.258 70.402 119.017 70.402Z" fill="white"/>
<path d="M122.662 67.0661C122.213 67.0661 121.806 67.2054 121.491 67.4486V65.8446C121.491 65.7118 121.444 65.5935 121.358 65.5082C121.272 65.4228 121.153 65.376 121.019 65.376C120.885 65.376 120.766 65.4228 120.68 65.5082C120.594 65.5935 120.547 65.7118 120.547 65.8446V70.8633C120.547 70.9961 120.594 71.1144 120.68 71.1997C120.766 71.285 120.885 71.3319 121.019 71.3319C121.153 71.3319 121.272 71.285 121.358 71.1997C121.444 71.1144 121.491 70.9961 121.491 70.8633V68.782C121.491 68.3076 121.918 67.9296 122.513 67.9296C122.835 67.9296 123.105 68.0189 123.294 68.1967C123.482 68.3737 123.602 68.6496 123.602 69.0477V70.8633C123.602 71.1282 123.807 71.3319 124.074 71.3319C124.341 71.3319 124.546 71.1282 124.546 70.8633V69.0477C124.546 68.4154 124.346 67.918 124.005 67.5784C123.664 67.2392 123.191 67.0661 122.662 67.0661Z" fill="white"/>
<path fill-rule="evenodd" clip-rule="evenodd" d="M129.393 69.568H126.682C126.824 70.1422 127.322 70.5348 127.996 70.5348C128.279 70.5348 128.617 70.4092 128.803 70.2726C128.981 70.1398 129.222 70.1344 129.385 70.268L129.387 70.2696C129.487 70.3561 129.548 70.4654 129.552 70.5807C129.556 70.6977 129.5 70.8056 129.399 70.8841C129.046 71.1637 128.468 71.354 127.996 71.354C127.353 71.354 126.8 71.1341 126.406 70.7541C126.013 70.3739 125.784 69.8384 125.784 69.2174C125.784 68.5944 126 68.0576 126.374 67.6761C126.747 67.2945 127.274 67.0735 127.884 67.0735C128.487 67.0735 128.976 67.2873 129.314 67.6594C129.65 68.0303 129.828 68.5503 129.828 69.151C129.828 69.2704 129.784 69.3763 129.703 69.4521C129.624 69.5276 129.514 69.568 129.393 69.568ZM127.884 67.8927C128.196 67.8927 128.442 67.997 128.62 68.1707C128.778 68.3248 128.888 68.5381 128.941 68.7931H126.69C126.754 68.5378 126.879 68.3254 127.057 68.1717C127.259 67.9971 127.536 67.8927 127.884 67.8927Z" fill="white"/>
<path d="M133.066 67.0587C132.623 67.0587 132.212 67.2194 131.906 67.4859C131.894 67.382 131.857 67.2914 131.789 67.2232C131.703 67.1383 131.583 67.103 131.445 67.103C131.309 67.103 131.19 67.1412 131.105 67.2259C131.019 67.3106 130.981 67.4292 130.981 67.5642V70.8633C130.981 71.0013 131.019 71.1205 131.105 71.2048C131.191 71.2888 131.311 71.3245 131.445 71.3245C131.584 71.3245 131.704 71.2866 131.789 71.2011C131.874 71.1158 131.91 70.9969 131.91 70.8633V68.7082C131.91 68.4071 132.067 68.1787 132.338 68.0423C132.613 67.904 133.009 67.8605 133.47 67.9497C133.579 67.9745 133.691 67.9728 133.788 67.9256C133.888 67.8766 133.957 67.7854 133.988 67.6604C134.01 67.5738 134.002 67.4879 133.963 67.4095C133.926 67.3323 133.861 67.2678 133.779 67.2167C133.617 67.1154 133.372 67.0587 133.066 67.0587Z" fill="white"/>
</svg>
