<svg width="339" height="200" viewBox="0 0 339 200" fill="none" xmlns="http://www.w3.org/2000/svg">
<rect width="339" height="200" rx="8" fill="#4C249F"/>
<path fill-rule="evenodd" clip-rule="evenodd" d="M0 146.689C0 143.607 1.76935 140.8 4.54899 139.471L5.085 139.215C10.17 136.783 20.6225 131.921 30.7925 139.215C40.9625 146.509 51.415 165.96 61.585 173.255C72.0375 180.549 82.2075 175.686 92.3775 170.823C102.83 165.96 113 161.098 123.17 144.078C133.622 127.058 143.792 97.881 153.962 100.312C164.415 102.744 174.585 136.783 185.038 136.783C195.208 136.783 205.378 102.744 215.83 90.5868C226 78.4297 236.17 88.1554 246.622 100.312C256.793 112.469 266.962 127.058 277.415 129.489C287.585 131.921 298.037 122.195 308.207 129.489C318.378 136.783 328.83 161.098 333.915 173.255L338.38 183.93C338.789 184.908 339 185.957 339 187.017V194.915C339 197.723 336.723 200 333.915 200C328.83 200 318.378 200 308.207 200C298.037 200 287.585 200 277.415 200C266.962 200 256.793 200 246.622 200C236.17 200 226 200 215.83 200C205.378 200 195.208 200 185.038 200C174.585 200 164.415 200 153.962 200C143.792 200 133.622 200 123.17 200C113 200 102.83 200 92.3775 200C82.2075 200 72.0375 200 61.585 200C51.415 200 40.9625 200 30.7925 200C20.6225 200 10.17 200 5.085 200C2.27663 200 0 197.723 0 194.915V146.689Z" fill="url(#paint0_linear_777_501)"/>
<path fill-rule="evenodd" clip-rule="evenodd" d="M49.4849 77.2523C50.2127 76.8565 51.1235 77.1256 51.5193 77.8534L91.9388 152.178L89.3033 153.611L48.8838 79.2866C48.488 78.5589 48.7572 77.648 49.4849 77.2523Z" fill="#6538C1"/>
<path fill-rule="evenodd" clip-rule="evenodd" d="M93.52 153.294C94.0723 153.3 94.5246 152.857 94.5302 152.305L95.395 68.2572C95.4007 67.705 94.9576 67.2527 94.4053 67.247C93.8531 67.2413 93.4008 67.6844 93.3951 68.2366L92.5304 152.284C92.5247 152.836 92.9678 153.289 93.52 153.294Z" fill="#6538C1"/>
<path fill-rule="evenodd" clip-rule="evenodd" d="M15.1263 88.3128C15.6657 87.6841 16.6126 87.6116 17.2414 88.1509L90.9307 151.36L88.9775 153.637L15.2882 90.428C14.6594 89.8886 14.5869 88.9416 15.1263 88.3128Z" fill="#6538C1"/>
<path fill-rule="evenodd" clip-rule="evenodd" d="M127.435 59.3303C128.214 59.612 128.617 60.4719 128.335 61.251L95.4003 152.351C95.1186 153.13 94.2587 153.533 93.4796 153.252C92.7006 152.97 92.2973 152.11 92.579 151.331L125.514 60.231C125.796 59.4519 126.656 59.0487 127.435 59.3303Z" fill="#6538C1"/>
<mask id="mask0_777_501" style="mask-type:alpha" maskUnits="userSpaceOnUse" x="13" y="18" width="118" height="116">
<ellipse cx="71.6763" cy="75.5607" rx="58.548" ry="57.4296" transform="rotate(165.59 71.6763 75.5607)" fill="#6538C1"/>
</mask>
<g mask="url(#mask0_777_501)">
</g>
<mask id="mask1_777_501" style="mask-type:alpha" maskUnits="userSpaceOnUse" x="13" y="18" width="118" height="116">
<path d="M15.411 90.0182C7.58215 59.55 26.4147 28.3654 57.4972 20.3787C88.5797 12.392 120.113 30.6351 127.942 61.1033C135.77 91.5715 116.938 122.756 85.8554 130.743C54.7729 138.729 23.2399 120.486 15.411 90.0182Z" fill="#6538C1" stroke="#4C249F" stroke-width="0.91"/>
</mask>
<g mask="url(#mask1_777_501)">
<rect x="168.076" y="50.791" width="199.063" height="173.724" transform="rotate(165.59 168.076 50.791)" fill="#6538C1"/>
<path d="M50.6018 84.1462C49.4453 79.6454 46.8204 75.6975 43.2489 73.0877C39.6775 70.4779 35.4213 69.3974 31.3265 70.0609C27.2317 70.7244 23.5983 73.0834 21.1488 76.6688C18.6994 80.2542 17.6132 84.8034 18.1063 89.4118L34.6209 88.2526L50.6018 84.1462Z" fill="#4C249F"/>
<ellipse cx="72.7268" cy="73.8145" rx="21" ry="22" transform="rotate(-14.4105 72.7268 73.8145)" fill="#4C249F"/>
<path d="M125.277 61.8602C123.391 58.5129 120.51 56.5392 116.995 55.1706C113.48 53.802 109.628 53.7324 106.106 54.974C102.584 56.2155 99.6134 58.6901 97.7094 61.969C95.8054 65.2479 95.0876 69.1247 95.6803 72.928L111.509 70.5604L125.277 61.8602Z" fill="#4C249F"/>
</g>
<path d="M98.4963 151.019C94.5251 152.039 92.1013 155.962 93.0826 159.781L107.463 156.086C106.482 152.267 102.467 149.998 98.4963 151.019Z" fill="#FFB636"/>
<path d="M97.3726 170.268C101.991 162.624 99.4679 152.803 91.7362 148.332L75.0098 176.014C82.7416 180.485 92.7537 177.912 97.3726 170.268Z" fill="#9B6AFF"/>
<path d="M81.0245 160.816C76.8197 161.896 74.2702 166.116 75.33 170.24L90.5568 166.328C89.497 162.203 85.2292 159.736 81.0245 160.816Z" fill="#8050E3"/>
<ellipse cx="92.7593" cy="156.768" rx="2.18353" ry="2.14182" transform="rotate(-14.4105 92.7593 156.768)" fill="#21064E"/>
<rect x="83.104" y="178.268" width="2.32909" height="5.42593" transform="rotate(-14.4105 83.104 178.268)" fill="#9B6AFF"/>
<path d="M86.5635 180.033C85.0061 180.433 84.0619 181.996 84.4544 183.523L90.0939 182.074C89.7014 180.547 88.1208 179.633 86.5635 180.033Z" fill="#FFB636"/>
<rect x="125.316" y="60.3022" width="1" height="3" transform="rotate(11.2186 125.316 60.3022)" fill="#6538C1"/>
<path fill-rule="evenodd" clip-rule="evenodd" d="M164.07 33.4121C164.386 33.404 164.652 33.6512 164.663 33.9643L165.801 65.9354L164.656 65.9646L163.518 33.9935C163.507 33.6805 163.754 33.4201 164.07 33.4121Z" fill="#6538C1"/>
<path fill-rule="evenodd" clip-rule="evenodd" d="M166.156 66.5812C166.346 66.6788 166.578 66.6079 166.675 66.423L181.381 38.2776C181.478 38.0926 181.402 37.8636 181.212 37.7661C181.022 37.6686 180.79 37.7395 180.693 37.9244L165.987 66.0698C165.89 66.2548 165.966 66.4837 166.156 66.5812Z" fill="#6538C1"/>
<path fill-rule="evenodd" clip-rule="evenodd" d="M150.375 31.2296C150.667 31.1112 151.004 31.25 151.127 31.5397L165.595 65.4882L164.538 65.9172L150.071 31.9686C149.947 31.679 150.083 31.3481 150.375 31.2296Z" fill="#6538C1"/>
<path fill-rule="evenodd" clip-rule="evenodd" d="M193.912 40.7792C194.132 41.009 194.124 41.3687 193.894 41.5825L166.965 66.5881C166.735 66.8019 166.369 66.789 166.149 66.5592C165.929 66.3293 165.937 65.9697 166.167 65.7558L193.096 40.7503C193.326 40.5364 193.692 40.5494 193.912 40.7792Z" fill="#6538C1"/>
<mask id="mask2_777_501" style="mask-type:alpha" maskUnits="userSpaceOnUse" x="149" y="14" width="46" height="45">
<ellipse cx="22.4494" cy="21.7297" rx="22.4494" ry="21.7297" transform="matrix(-0.976158 -0.217088 0.211562 -0.977371 189.3 62.77)" fill="#6538C1"/>
</mask>
<g mask="url(#mask2_777_501)">
</g>
<mask id="mask3_777_501" style="mask-type:alpha" maskUnits="userSpaceOnUse" x="149" y="14" width="46" height="45">
<path d="M150.513 31.8839C152.996 20.4136 164.613 13.2253 176.484 15.8653C188.356 18.5054 195.936 29.963 193.453 41.4333C190.97 52.9035 179.354 60.0919 167.482 57.4518C155.611 54.8118 148.031 43.3541 150.513 31.8839Z" fill="#6538C1" stroke="#4C249F" stroke-width="0.91"/>
</mask>
<g mask="url(#mask3_777_501)">
<rect width="76.345" height="65.7486" transform="matrix(-0.976158 -0.217087 0.211563 -0.977371 209.296 45.0386)" fill="#6538C1"/>
<path d="M163.256 35.9349C163.628 34.2168 163.402 32.4318 162.624 30.9349C161.847 29.438 160.573 28.3388 159.057 27.8558C157.542 27.3729 155.895 27.5416 154.444 28.3285C152.993 29.1153 151.845 30.4626 151.228 32.1025L157.082 34.5619L163.256 35.9349Z" fill="#4C249F"/>
<ellipse cx="8.05102" cy="8.32309" rx="8.05102" ry="8.32309" transform="matrix(0.976158 0.217087 -0.211562 0.977371 166.545 26.3687)" fill="#4C249F"/>
<path d="M192.732 41.2744C192.657 39.8168 192.006 38.6517 191.035 37.5813C190.064 36.511 188.754 35.8215 187.334 35.6324C185.914 35.4432 184.473 35.7662 183.26 36.5454C182.046 37.3247 181.138 38.5111 180.691 39.8993L186.523 41.8353L192.732 41.2744Z" fill="#4C249F"/>
</g>
<path d="M168.251 66.6663C166.714 66.3255 165.211 67.2319 164.894 68.691L170.46 69.9253C170.777 68.4663 169.788 67.0072 168.251 66.6663Z" fill="#FFB636"/>
<path d="M164.568 72.9627C167.462 71.185 168.275 67.4416 166.382 64.6017L155.902 71.0396C157.794 73.8795 161.674 74.7405 164.568 72.9627Z" fill="#9B6AFF"/>
<path d="M160.571 66.9608C158.943 66.5999 157.347 67.5847 157.005 69.1604L162.898 70.4673C163.24 68.8916 162.198 67.3217 160.571 66.9608Z" fill="#8050E3"/>
<ellipse cx="0.837808" cy="0.809872" rx="0.837808" ry="0.809872" transform="matrix(0.97628 0.216526 -0.212188 0.977232 164.65 66.647)" fill="#21064E"/>
<rect width="0.89203" height="2.04994" transform="matrix(0.976289 0.216484 -0.212234 0.977222 158.293 73.1968)" fill="#9B6AFF"/>
<path d="M159.178 74.3854C158.575 74.2517 157.984 74.6165 157.857 75.2L160.04 75.6841C160.167 75.1005 159.781 74.5191 159.178 74.3854Z" fill="#FFB636"/>
<rect width="0.383273" height="1.13571" transform="matrix(0.791804 0.610775 -0.620858 0.783923 193.021 40.7412)" fill="#6538C1"/>
<path fill-rule="evenodd" clip-rule="evenodd" d="M276.484 77.457C276.947 77.2248 277.51 77.4151 277.741 77.8819L301.319 125.56L299.642 126.401L276.063 78.7227C275.832 78.2558 276.021 77.6891 276.484 77.457Z" fill="#6538C1"/>
<path fill-rule="evenodd" clip-rule="evenodd" d="M302.279 126.302C302.622 126.319 302.912 126.051 302.928 125.704L305.287 72.891C305.303 72.544 305.037 72.2492 304.695 72.2327C304.352 72.2161 304.061 72.4839 304.046 72.8309L301.686 125.644C301.671 125.991 301.936 126.286 302.279 126.302Z" fill="#6538C1"/>
<path fill-rule="evenodd" clip-rule="evenodd" d="M254.832 83.595C255.182 83.2116 255.775 83.1878 256.155 83.5418L300.709 125.022L299.439 126.41L254.885 84.93C254.505 84.576 254.481 83.9783 254.832 83.595Z" fill="#6538C1"/>
<path fill-rule="evenodd" clip-rule="evenodd" d="M325.45 68.0399C325.928 68.235 326.16 68.7847 325.967 69.2677L303.469 125.754C303.277 126.237 302.733 126.471 302.255 126.276C301.777 126.081 301.545 125.531 301.737 125.048L324.235 68.5615C324.428 68.0784 324.971 67.8449 325.45 68.0399Z" fill="#6538C1"/>
<mask id="mask4_777_501" style="mask-type:alpha" maskUnits="userSpaceOnUse" x="253" y="40" width="74" height="74">
<ellipse cx="36.5414" cy="36.0918" rx="36.5414" ry="36.0918" transform="matrix(-0.976594 0.215098 -0.212226 -0.977222 333.694 104.33)" fill="#6538C1"/>
</mask>
<g mask="url(#mask4_777_501)">
</g>
<mask id="mask5_777_501" style="mask-type:alpha" maskUnits="userSpaceOnUse" x="253" y="40" width="74" height="74">
<path d="M255.106 84.6824C250.93 65.4542 263.316 46.3832 282.785 42.0952C302.254 37.8072 321.414 49.93 325.59 69.1582C329.766 88.3864 317.38 107.457 297.911 111.745C278.442 116.033 259.282 103.911 255.106 84.6824Z" fill="#6538C1" stroke="#4C249F" stroke-width="0.91"/>
</mask>
<g mask="url(#mask5_777_501)">
<rect width="124.227" height="109.163" transform="matrix(-0.976595 0.215097 -0.212227 -0.977222 350.938 63.502)" fill="#6538C1"/>
<path d="M277.039 81.8034C276.419 78.949 274.871 76.4087 272.702 74.6874C270.534 72.9661 267.904 72.1901 265.335 72.5136C262.767 72.837 260.448 74.2363 258.84 76.4332C257.231 78.6301 256.451 81.4636 256.655 84.3703L266.98 84.0188L277.039 81.8034Z" fill="#4C249F"/>
<ellipse cx="13.1076" cy="13.8269" rx="13.1076" ry="13.8269" transform="matrix(0.976594 -0.215098 0.212227 0.977222 275.305 65.1548)" fill="#4C249F"/>
<path d="M324.05 69.5651C322.95 67.4212 321.199 66.1168 319.039 65.1778C316.879 64.2388 314.48 64.1075 312.257 64.8067C310.034 65.5058 308.127 66.9914 306.866 69.0062C305.606 71.0209 305.071 73.4379 305.355 75.8387L315.273 74.7127L324.05 69.5651Z" fill="#4C249F"/>
</g>
<path d="M305.434 124.992C302.936 125.541 301.338 127.949 301.865 130.369L310.909 128.38C310.383 125.96 307.931 124.443 305.434 124.992Z" fill="#FFB636"/>
<path d="M304.311 137.059C307.356 132.362 306.001 126.129 301.284 123.139L290.256 140.151C294.973 143.142 301.265 141.757 304.311 137.059Z" fill="#9B6AFF"/>
<path d="M294.334 130.736C291.689 131.318 290.006 133.908 290.575 136.522L300.151 134.417C299.583 131.802 296.978 130.155 294.334 130.736Z" fill="#8050E3"/>
<ellipse cx="1.36234" cy="1.34652" rx="1.36234" ry="1.34652" transform="matrix(0.976663 -0.21478 0.212526 0.977156 300.115 127.444)" fill="#21064E"/>
<rect width="1.45452" height="3.41271" transform="matrix(0.976668 -0.214758 0.212547 0.977152 295.25 141.753)" fill="#9B6AFF"/>
<path d="M297.369 142.945C296.389 143.161 295.766 144.12 295.977 145.089L299.523 144.309C299.313 143.34 298.348 142.73 297.369 142.945Z" fill="#FFB636"/>
<rect width="0.624308" height="1.88498" transform="matrix(0.972433 0.233183 -0.22671 0.973962 324.107 68.6021)" fill="#6538C1"/>
<defs>
<linearGradient id="paint0_linear_777_501" x1="169.5" y1="85" x2="169.5" y2="200" gradientUnits="userSpaceOnUse">
<stop stop-color="#9422ED"/>
<stop offset="1" stop-color="#B49FE1" stop-opacity="0.2"/>
</linearGradient>
</defs>
</svg>
