<svg width="212" height="126" viewBox="0 0 212 126" fill="none" xmlns="http://www.w3.org/2000/svg">
<path d="M0 5.00295C0 2.2399 2.2399 0 5.00295 0H206.997C209.76 0 212 2.2399 212 5.00295V120.071C212 122.834 209.76 125.074 206.997 125.074H5.00294C2.23989 125.074 0 122.834 0 120.071V5.00295Z" fill="#4C249F"/>
<path fill-rule="evenodd" clip-rule="evenodd" d="M48.7788 16.2598C46.0158 16.2598 43.7759 18.4997 43.7759 21.2627V30.6882L39.4343 46.0173C38.901 47.9006 40.6396 49.6392 42.5228 49.1058L56.9253 45.0267H118.195C120.958 45.0267 123.198 42.7868 123.198 40.0238V21.2627C123.198 18.4997 120.958 16.2598 118.195 16.2598H48.7788Z" fill="#6538C1" fill-opacity="0.6"/>
<path fill-rule="evenodd" clip-rule="evenodd" d="M48.7788 16.2598C46.0158 16.2598 43.7759 18.4997 43.7759 21.2627V30.6882L39.4343 46.0173C38.901 47.9006 40.6396 49.6392 42.5228 49.1058L56.9253 45.0267H118.195C120.958 45.0267 123.198 42.7868 123.198 40.0238V21.2627C123.198 18.4997 120.958 16.2598 118.195 16.2598H48.7788Z" fill="url(#paint0_linear_836_422)" fill-opacity="0.6"/>
<path fill-rule="evenodd" clip-rule="evenodd" d="M164.472 63.7881C167.235 63.7881 169.475 66.028 169.475 68.791V78.2165L173.816 93.5457C174.35 95.4289 172.611 97.1675 170.728 96.6341L156.325 92.555H95.056C92.2929 92.555 90.053 90.3152 90.053 87.5521V68.791C90.053 66.028 92.2929 63.7881 95.056 63.7881H164.472Z" fill="#6538C1" fill-opacity="0.6"/>
<path fill-rule="evenodd" clip-rule="evenodd" d="M164.472 63.7881C167.235 63.7881 169.475 66.028 169.475 68.791V78.2165L173.816 93.5457C174.35 95.4289 172.611 97.1675 170.728 96.6341L156.325 92.555H95.056C92.2929 92.555 90.053 90.3152 90.053 87.5521V68.791C90.053 66.028 92.2929 63.7881 95.056 63.7881H164.472Z" fill="url(#paint1_linear_836_422)" fill-opacity="0.6"/>
<rect x="96.3068" y="70.042" width="66.9145" height="3.12684" fill="#B18CFF"/>
<rect x="96.3068" y="76.2954" width="60.1383" height="3.12684" fill="#B18CFF"/>
<rect x="96.3068" y="82.5493" width="64.3734" height="3.12684" fill="#B18CFF"/>
<mask id="mask0_836_422" style="mask-type:alpha" maskUnits="userSpaceOnUse" x="10" y="39" width="25" height="25">
<circle cx="22.2006" cy="51.5931" r="12.1947" fill="#C8ADFF"/>
</mask>
<g mask="url(#mask0_836_422)">
<circle cx="22.2006" cy="51.5931" r="12.1947" fill="#F5F0FF" fill-opacity="0.1"/>
<rect x="13.7581" y="56.0562" width="16.885" height="18.42" rx="7.50442" fill="#9B6AFF"/>
<ellipse cx="22.2005" cy="51.5932" rx="5.941" ry="6.56637" fill="#B18CFF"/>
<circle cx="19.898" cy="50.8827" r="1.535" fill="#6538C1"/>
<circle cx="24.503" cy="50.8827" r="1.535" fill="#6538C1"/>
<path d="M24.5031 54.5208C24.5031 54.9279 24.2605 55.3184 23.8287 55.6062C23.3969 55.8941 22.8112 56.0558 22.2006 56.0558C21.5899 56.0558 21.0043 55.8941 20.5725 55.6062C20.1407 55.3184 19.8981 54.9279 19.8981 54.5208L22.2006 54.5208H24.5031Z" fill="#8050E3"/>
</g>
<mask id="mask1_836_422" style="mask-type:alpha" maskUnits="userSpaceOnUse" x="177" y="85" width="25" height="26">
<circle cx="189.799" cy="97.8705" r="12.1947" fill="#C8ADFF"/>
</mask>
<g mask="url(#mask1_836_422)">
<circle cx="189.799" cy="97.8705" r="12.1947" fill="#F5F0FF" fill-opacity="0.1"/>
</g>
<path d="M192.773 92.3652C191.341 92.6801 190.44 94.1296 190.76 95.6028L195.946 94.4624C195.625 92.9892 194.204 92.0503 192.773 92.3652Z" fill="#FFB636"/>
<path d="M192.216 99.6821C193.932 96.8529 193.107 93.0596 190.373 91.2096L184.157 101.455C186.891 103.305 190.499 102.511 192.216 99.6821Z" fill="#9B6AFF"/>
<path d="M186.433 95.7698C184.916 96.1032 183.968 97.6633 184.314 99.2544L189.805 98.0469C189.458 96.4558 187.949 95.4363 186.433 95.7698Z" fill="#8050E3"/>
<ellipse cx="0.781092" cy="0.819544" rx="0.781092" ry="0.819544" transform="matrix(0.976659 -0.214802 0.212545 0.977152 189.733 93.814)" fill="#21064E"/>
<rect width="0.833939" height="2.07711" transform="matrix(0.976664 -0.214778 0.212565 0.977148 187.04 102.464)" fill="#9B6AFF"/>
<path d="M188.267 103.204C187.706 103.327 187.354 103.905 187.483 104.495L189.516 104.047C189.388 103.458 188.829 103.08 188.267 103.204Z" fill="#FFB636"/>
<rect x="51.9056" y="22.5132" width="62.5369" height="3.12684" fill="#B18CFF"/>
<rect x="51.9056" y="28.7666" width="56.204" height="3.12684" fill="#B18CFF"/>
<rect x="51.9056" y="35.0205" width="60.1621" height="3.12684" fill="#B18CFF"/>
<circle cx="19.7221" cy="50.7221" r="1.72214" fill="url(#paint2_linear_836_422)"/>
<path d="M19.7484 49.4712C20.1392 49.4712 20.4561 49.7933 20.4561 50.1907V50.6044C20.4561 51.0017 20.1392 51.3238 19.7484 51.3238C19.687 51.3238 19.6275 51.3159 19.5707 51.3009L19.5707 51.3498C19.5707 51.6405 19.3378 51.8767 19.0487 51.8814L19.0399 51.8814V50.2986L19.0407 50.2986L19.0407 50.1907C19.0407 49.7933 19.3576 49.4712 19.7484 49.4712ZM19.7484 50.0108C19.6507 50.0108 19.5715 50.0913 19.5715 50.1907V50.6044C19.5715 50.7037 19.6507 50.7842 19.7484 50.7842C19.8461 50.7842 19.9253 50.7037 19.9253 50.6044V50.1907C19.9253 50.0913 19.8461 50.0108 19.7484 50.0108Z" fill="white"/>
<circle cx="24.7221" cy="50.7221" r="1.72214" fill="url(#paint3_linear_836_422)"/>
<path d="M24.7484 49.4712C25.1392 49.4712 25.4561 49.7933 25.4561 50.1907V50.6044C25.4561 51.0017 25.1392 51.3238 24.7484 51.3238C24.687 51.3238 24.6275 51.3159 24.5707 51.3009L24.5707 51.3498C24.5707 51.6405 24.3378 51.8767 24.0487 51.8814L24.0399 51.8814V50.2986L24.0407 50.2986L24.0407 50.1907C24.0407 49.7933 24.3576 49.4712 24.7484 49.4712ZM24.7484 50.0108C24.6507 50.0108 24.5715 50.0913 24.5715 50.1907V50.6044C24.5715 50.7037 24.6507 50.7842 24.7484 50.7842C24.8461 50.7842 24.9253 50.7037 24.9253 50.6044V50.1907C24.9253 50.0913 24.8461 50.0108 24.7484 50.0108Z" fill="white"/>
<defs>
<linearGradient id="paint0_linear_836_422" x1="81.2672" y1="16.2598" x2="81.2672" y2="49.2035" gradientUnits="userSpaceOnUse">
<stop stop-color="#9422ED"/>
<stop offset="1" stop-color="#B49FE1" stop-opacity="0.2"/>
</linearGradient>
<linearGradient id="paint1_linear_836_422" x1="131.984" y1="63.7881" x2="131.984" y2="96.7318" gradientUnits="userSpaceOnUse">
<stop stop-color="#9422ED"/>
<stop offset="1" stop-color="#B49FE1" stop-opacity="0.2"/>
</linearGradient>
<linearGradient id="paint2_linear_836_422" x1="19.7221" y1="49" x2="19.7221" y2="52.4443" gradientUnits="userSpaceOnUse">
<stop stop-color="#7E46F2"/>
<stop offset="1" stop-color="#46279A"/>
</linearGradient>
<linearGradient id="paint3_linear_836_422" x1="24.7221" y1="49" x2="24.7221" y2="52.4443" gradientUnits="userSpaceOnUse">
<stop stop-color="#7E46F2"/>
<stop offset="1" stop-color="#46279A"/>
</linearGradient>
</defs>
</svg>
