<svg width="213" height="133" viewBox="0 0 213 133" fill="none" xmlns="http://www.w3.org/2000/svg">
<path d="M0.666626 8C0.666626 3.58172 4.24835 0 8.66663 0H205.333C209.752 0 213.333 3.58172 213.333 8V125C213.333 129.418 209.752 133 205.333 133H8.66663C4.24835 133 0.666626 129.418 0.666626 125V8Z" fill="#4C249F"/>
<path d="M105.02 66.3536C105.215 66.1583 105.215 65.8417 105.02 65.6464L101.838 62.4645C101.643 62.2692 101.326 62.2692 101.131 62.4645C100.936 62.6597 100.936 62.9763 101.131 63.1716L103.96 66L101.131 68.8284C100.936 69.0237 100.936 69.3403 101.131 69.5355C101.326 69.7308 101.643 69.7308 101.838 69.5355L105.02 66.3536ZM74.6666 66.5L75.7888 66.5L75.7888 65.5L74.6666 65.5L74.6666 66.5ZM78.0331 66.5L80.2774 66.5L80.2774 65.5L78.0331 65.5L78.0331 66.5ZM82.5217 66.5L84.7661 66.5L84.7661 65.5L82.5217 65.5L82.5217 66.5ZM87.0104 66.5L89.2547 66.5L89.2547 65.5L87.0104 65.5L87.0104 66.5ZM91.499 66.5L92.6212 66.5L92.6212 65.5L91.499 65.5L91.499 66.5ZM92.6212 66.5L93.625 66.5L93.625 65.5L92.6212 65.5L92.6212 66.5ZM95.6325 66.5L97.6401 66.5L97.6401 65.5L95.6325 65.5L95.6325 66.5ZM99.6477 66.5L101.655 66.5L101.655 65.5L99.6477 65.5L99.6477 66.5ZM103.663 66.5L104.667 66.5L104.667 65.5L103.663 65.5L103.663 66.5Z" fill="url(#paint0_linear_816_1116)"/>
<path d="M104.301 25.3536C104.496 25.1583 104.496 24.8417 104.301 24.6464L101.119 21.4645C100.924 21.2692 100.607 21.2692 100.412 21.4645C100.217 21.6597 100.217 21.9763 100.412 22.1716L103.24 25L100.412 27.8284C100.217 28.0237 100.217 28.3403 100.412 28.5355C100.607 28.7308 100.924 28.7308 101.119 28.5355L104.301 25.3536ZM68.113 40.7253L68.58 39.7999L67.6872 39.3494L67.2202 40.2747L68.113 40.7253ZM69.5138 37.9492L70.4477 36.0986L69.5549 35.6481L68.6211 37.4987L69.5138 37.9492ZM71.3816 34.2479L72.3155 32.3972L71.4227 31.9467L70.4888 33.7974L71.3816 34.2479ZM73.2493 30.5465L73.7163 29.6212L72.8235 29.1707L72.3566 30.096L73.2493 30.5465ZM73.7163 29.6212C73.8731 29.3104 74.0498 29.0137 74.2444 28.7324L73.4219 28.1636C73.2014 28.4824 73.0012 28.8186 72.8235 29.1707L73.7163 29.6212ZM75.6398 27.214C76.1728 26.7746 76.7641 26.4107 77.3964 26.1329L76.9942 25.2173C76.2776 25.5322 75.6076 25.9446 75.0037 26.4425L75.6398 27.214ZM79.3807 25.5711C79.7194 25.5241 80.0639 25.5 80.4121 25.5V24.5C80.0177 24.5 79.6274 24.5273 79.2434 24.5805L79.3807 25.5711ZM80.4121 25.5H81.3927V24.5H80.4121V25.5ZM83.354 25.5H85.3152V24.5H83.354V25.5ZM87.2765 25.5H89.2378V24.5H87.2765V25.5ZM91.1991 25.5H93.1603V24.5H91.1991V25.5ZM95.1216 25.5H97.0829V24.5H95.1216V25.5ZM99.0441 25.5H101.005V24.5H99.0441V25.5ZM102.967 25.5H103.947V24.5H102.967V25.5Z" fill="url(#paint1_linear_816_1116)"/>
<path d="M104.301 106.146C104.496 106.342 104.496 106.658 104.301 106.854L101.119 110.036C100.924 110.231 100.607 110.231 100.412 110.036C100.217 109.84 100.217 109.524 100.412 109.328L103.24 106.5L100.412 103.672C100.217 103.476 100.217 103.16 100.412 102.964C100.607 102.769 100.924 102.769 101.119 102.964L104.301 106.146ZM68.113 90.7747L68.58 91.7001L67.6872 92.1506L67.2202 91.2253L68.113 90.7747ZM69.5138 93.5508L70.4477 95.4014L69.5549 95.8519L68.6211 94.0013L69.5138 93.5508ZM71.3816 97.2521L72.3155 99.1028L71.4227 99.5533L70.4888 97.7026L71.3816 97.2521ZM73.2493 100.953L73.7163 101.879L72.8235 102.329L72.3566 101.404L73.2493 100.953ZM73.7163 101.879C73.8731 102.19 74.0498 102.486 74.2444 102.768L73.4219 103.336C73.2014 103.018 73.0012 102.681 72.8235 102.329L73.7163 101.879ZM75.6398 104.286C76.1728 104.725 76.7641 105.089 77.3964 105.367L76.9942 106.283C76.2776 105.968 75.6076 105.555 75.0037 105.058L75.6398 104.286ZM79.3807 105.929C79.7194 105.976 80.0639 106 80.4121 106V107C80.0177 107 79.6274 106.973 79.2434 106.919L79.3807 105.929ZM80.4121 106H81.3927V107H80.4121V106ZM83.354 106H85.3152V107H83.354V106ZM87.2765 106H89.2378V107H87.2765V106ZM91.1991 106H93.1603V107H91.1991V106ZM95.1216 106H97.0829V107H95.1216V106ZM99.0441 106H101.005V107H99.0441V106ZM102.967 106H103.947V107H102.967V106Z" fill="url(#paint2_linear_816_1116)"/>
<path d="M122.403 24.344C122.403 26.544 122.211 27.056 120.283 27.056C118.347 27.056 118.139 26.544 118.139 24.344C118.139 22.04 118.459 21.616 120.267 21.616C122.187 21.616 122.403 22.184 122.403 24.344ZM121.843 24.344H121.851C121.851 22.4 121.715 22.064 120.267 22.064C118.907 22.064 118.699 22.36 118.699 24.344C118.699 26.312 118.811 26.6 120.275 26.6C121.779 26.6 121.843 26.24 121.843 24.344ZM126.766 27H125.55V26.688L125.742 26.64C125.79 26.632 125.854 26.608 125.854 26.544C125.854 26.504 125.846 26.488 125.814 26.44L125.086 25.328C125.022 25.232 124.974 25.2 124.886 25.2C124.806 25.2 124.758 25.232 124.694 25.328L123.966 26.44C123.942 26.488 123.934 26.504 123.934 26.544C123.934 26.608 123.99 26.632 124.038 26.64L124.23 26.688V27H123.038V26.688L123.246 26.64C123.342 26.616 123.366 26.576 123.414 26.496L124.358 25.064L123.446 23.784C123.39 23.704 123.374 23.664 123.286 23.64L123.086 23.592V23.28H124.27V23.592L124.078 23.64C123.966 23.656 123.942 23.736 124.006 23.824L124.662 24.816C124.75 24.944 124.798 24.984 124.886 24.984C124.982 24.984 125.022 24.928 125.086 24.832L125.75 23.824C125.806 23.744 125.782 23.664 125.686 23.64L125.486 23.592V23.28H126.654V23.592L126.446 23.64C126.334 23.664 126.326 23.704 126.278 23.784L125.422 25.064L126.39 26.496C126.446 26.576 126.47 26.616 126.558 26.64L126.766 26.688V27ZM127.484 23.296C127.484 21.856 128.1 21.624 129.436 21.624C130.404 21.624 130.94 21.728 131.236 22.152C131.596 22.672 131.564 23.72 131.564 24.344C131.564 24.96 131.596 26.008 131.236 26.528C130.94 26.952 130.404 27.056 129.436 27.056C128.516 27.056 127.772 26.864 127.772 26.864L127.844 26.432C127.844 26.432 128.628 26.608 129.428 26.608C130.116 26.608 130.54 26.528 130.756 26.224C131.012 25.856 130.988 25.104 130.988 24.664C130.988 24.592 130.988 24.512 130.868 24.512C130.804 24.512 130.764 24.544 130.716 24.576L130.268 24.88C130.268 24.88 129.772 24.976 129.436 24.976C127.94 24.976 127.484 24.728 127.484 23.296ZM128.052 23.304C128.052 24.472 128.46 24.52 129.492 24.52C130.276 24.52 130.996 24.288 130.996 24.288C131.004 24.032 131.004 24.088 130.996 23.568C130.972 22.48 130.852 22.088 129.516 22.08C128.484 22.072 128.052 22.128 128.052 23.304ZM136.207 27H133.423V26.552H134.575V22.112H133.271V21.672H135.119V26.552H136.207V27ZM141.986 25.384C141.986 26.824 141.378 27.056 140.042 27.056C139.074 27.056 138.538 26.952 138.242 26.528C137.882 26.008 137.906 24.96 137.906 24.344C137.906 23.72 137.882 22.672 138.242 22.152C138.538 21.728 139.074 21.624 140.042 21.624C140.962 21.624 141.706 21.816 141.706 21.816L141.634 22.248C141.634 22.248 140.85 22.072 140.05 22.072C139.362 22.072 138.93 22.152 138.722 22.456C138.466 22.824 138.49 23.576 138.49 24.016C138.49 24.088 138.49 24.168 138.61 24.168C138.674 24.168 138.714 24.136 138.762 24.104L139.21 23.8C139.21 23.8 139.698 23.704 140.042 23.704C141.538 23.704 141.986 23.952 141.986 25.384ZM141.426 25.376C141.426 24.208 141.018 24.16 139.986 24.16C139.202 24.16 138.482 24.392 138.482 24.392C138.474 24.648 138.474 24.592 138.482 25.112C138.506 26.2 138.626 26.592 139.962 26.6C140.994 26.608 141.426 26.552 141.426 25.376ZM145.165 21.648L145.133 22.016C145.133 22.016 144.877 21.984 144.629 21.984C144.381 21.984 144.133 22 144.021 22.12C143.901 22.256 143.885 22.512 143.885 22.784V23.28H145.061V23.672H143.885V26.496C143.885 26.6 143.901 26.624 143.997 26.64L144.205 26.68V27H143.061V26.688L143.269 26.648C143.365 26.624 143.381 26.6 143.381 26.504V23.672H142.677V23.28H143.381V22.776C143.381 22.376 143.405 21.992 143.741 21.76C143.941 21.616 144.261 21.592 144.557 21.592C144.837 21.592 145.165 21.648 145.165 21.648ZM149.242 21.672V22.136H146.226V23.776C146.226 23.872 146.266 23.936 146.354 23.936C146.418 23.936 146.45 23.912 146.49 23.88L146.93 23.576C146.93 23.576 147.266 23.512 147.602 23.512C148.882 23.512 149.554 23.784 149.554 25.28C149.554 26.704 148.898 27.056 147.586 27.056C146.594 27.056 145.802 26.88 145.802 26.88L145.866 26.44C145.866 26.44 146.706 26.6 147.514 26.6C148.65 26.6 149.002 26.312 149.002 25.288C149.002 24.136 148.49 23.976 147.53 23.976C146.746 23.976 146.074 24.264 146.074 24.264L145.738 24.112V21.672H149.242ZM151.421 22.28H150.789V21.672H151.421V22.28ZM151.445 27.848C151.445 28.2 151.301 28.576 150.525 28.576C150.285 28.576 149.941 28.528 149.941 28.528L149.981 28.152C149.981 28.152 150.189 28.176 150.309 28.176C150.861 28.176 150.941 28.12 150.941 27.68V23.784C150.941 23.68 150.925 23.656 150.829 23.64L150.621 23.6V23.28H151.445V27.848ZM152.409 24.72L154.857 21.672H155.569L153.001 24.76C152.921 24.856 152.857 24.928 152.857 25.064C152.857 25.232 152.985 25.312 153.161 25.312H155.521V23.352H156.057V25.312H156.969V25.768H156.057V27H155.521V25.768H152.409V24.72ZM157.964 27V26.104C157.964 24.96 158.412 24.784 159.196 24.472L160.38 24C160.98 23.76 161.204 23.592 161.204 23.04C161.204 22.304 160.94 22.072 159.884 22.072C158.932 22.072 158.092 22.272 158.092 22.272L158.012 21.824C158.012 21.824 158.836 21.616 159.916 21.616C161.204 21.616 161.756 21.912 161.756 22.976C161.756 24.128 161.212 24.2 160.052 24.656C158.82 25.144 158.492 25.184 158.492 26.072V26.528H161.836V27H157.964ZM162.895 27V26.272H163.703V27H162.895ZM164.488 27V26.272H165.296V27H164.488ZM166.082 27V26.272H166.89V27H166.082Z" fill="#DECEFF" fill-opacity="0.75"/>
<path d="M122.403 65.344C122.403 67.544 122.211 68.056 120.283 68.056C118.347 68.056 118.139 67.544 118.139 65.344C118.139 63.04 118.459 62.616 120.267 62.616C122.187 62.616 122.403 63.184 122.403 65.344ZM121.843 65.344H121.851C121.851 63.4 121.715 63.064 120.267 63.064C118.907 63.064 118.699 63.36 118.699 65.344C118.699 67.312 118.811 67.6 120.275 67.6C121.779 67.6 121.843 67.24 121.843 65.344ZM126.766 68H125.55V67.688L125.742 67.64C125.79 67.632 125.854 67.608 125.854 67.544C125.854 67.504 125.846 67.488 125.814 67.44L125.086 66.328C125.022 66.232 124.974 66.2 124.886 66.2C124.806 66.2 124.758 66.232 124.694 66.328L123.966 67.44C123.942 67.488 123.934 67.504 123.934 67.544C123.934 67.608 123.99 67.632 124.038 67.64L124.23 67.688V68H123.038V67.688L123.246 67.64C123.342 67.616 123.366 67.576 123.414 67.496L124.358 66.064L123.446 64.784C123.39 64.704 123.374 64.664 123.286 64.64L123.086 64.592V64.28H124.27V64.592L124.078 64.64C123.966 64.656 123.942 64.736 124.006 64.824L124.662 65.816C124.75 65.944 124.798 65.984 124.886 65.984C124.982 65.984 125.022 65.928 125.086 65.832L125.75 64.824C125.806 64.744 125.782 64.664 125.686 64.64L125.486 64.592V64.28H126.654V64.592L126.446 64.64C126.334 64.664 126.326 64.704 126.278 64.784L125.422 66.064L126.39 67.496C126.446 67.576 126.47 67.616 126.558 67.64L126.766 67.688V68ZM131.124 62.672V63.136H128.108V64.776C128.108 64.872 128.148 64.936 128.236 64.936C128.3 64.936 128.332 64.912 128.372 64.88L128.812 64.576C128.812 64.576 129.148 64.512 129.484 64.512C130.764 64.512 131.436 64.784 131.436 66.28C131.436 67.704 130.78 68.056 129.468 68.056C128.476 68.056 127.684 67.88 127.684 67.88L127.748 67.44C127.748 67.44 128.588 67.6 129.396 67.6C130.532 67.6 130.884 67.312 130.884 66.288C130.884 65.136 130.372 64.976 129.412 64.976C128.628 64.976 127.956 65.264 127.956 65.264L127.62 65.112V62.672H131.124ZM132.503 66.912C132.503 66.064 132.775 65.808 133.759 65.792L135.383 65.768V65.304C135.383 65.016 135.287 64.84 135.055 64.736C134.887 64.664 134.655 64.64 134.327 64.64C133.575 64.64 132.831 64.816 132.831 64.816L132.759 64.416C132.759 64.416 133.415 64.232 134.319 64.232C134.839 64.232 135.215 64.28 135.471 64.424C135.759 64.568 135.887 64.832 135.887 65.288V67.496C135.887 67.6 135.903 67.624 135.999 67.64L136.207 67.68V68H135.423L135.391 67.8C135.383 67.752 135.367 67.672 135.263 67.672C135.199 67.672 135.143 67.712 135.095 67.744L134.719 68C134.719 68 134.295 68.056 133.959 68.056C132.831 68.056 132.503 67.816 132.503 66.912ZM135.383 67.472V66.144L134.095 66.168C133.399 66.176 133.031 66.088 133.031 66.92C133.031 67.608 133.319 67.648 134.047 67.648C134.599 67.648 135.383 67.472 135.383 67.472ZM139.103 62.616H139.095C140.295 62.616 141.063 62.824 141.063 63.88C141.063 64.248 140.959 64.48 140.831 64.688L140.135 65.08C140.087 65.112 140.063 65.136 140.063 65.192C140.063 65.272 140.119 65.296 140.183 65.32C140.823 65.584 141.135 66.04 141.135 66.68C141.135 67.696 140.615 68.056 139.095 68.056C137.815 68.056 137.063 67.816 137.063 66.56C137.063 66.192 137.167 65.96 137.295 65.752L137.991 65.36C138.039 65.328 138.063 65.304 138.063 65.248C138.063 65.168 138.007 65.144 137.943 65.12C137.343 64.872 137.135 64.504 137.135 63.88C137.135 62.824 137.895 62.616 139.103 62.616ZM140.511 63.88C140.511 63.272 140.127 63.072 139.103 63.072C138.079 63.072 137.687 63.272 137.687 63.88C137.687 64.528 138.183 64.864 139.567 65.136C139.567 65.136 139.823 65.056 140.039 64.872C140.255 64.68 140.511 64.368 140.511 63.88ZM140.583 66.584C140.583 65.792 139.607 65.496 138.583 65.296C138.583 65.296 138.311 65.384 138.095 65.568C137.879 65.76 137.623 66.072 137.623 66.56C137.623 67.44 138.007 67.6 139.111 67.6C139.751 67.6 140.175 67.52 140.383 67.312C140.567 67.12 140.583 66.848 140.583 66.584ZM142.074 66.912C142.074 66.064 142.346 65.808 143.33 65.792L144.954 65.768V65.304C144.954 65.016 144.858 64.84 144.626 64.736C144.458 64.664 144.226 64.64 143.898 64.64C143.146 64.64 142.402 64.816 142.402 64.816L142.33 64.416C142.33 64.416 142.986 64.232 143.89 64.232C144.41 64.232 144.786 64.28 145.042 64.424C145.33 64.568 145.458 64.832 145.458 65.288V67.496C145.458 67.6 145.474 67.624 145.57 67.64L145.778 67.68V68H144.994L144.962 67.8C144.954 67.752 144.938 67.672 144.834 67.672C144.77 67.672 144.714 67.712 144.666 67.744L144.29 68C144.29 68 143.866 68.056 143.53 68.056C142.402 68.056 142.074 67.816 142.074 66.912ZM144.954 67.472V66.144L143.666 66.168C142.97 66.176 142.602 66.088 142.602 66.92C142.602 67.608 142.89 67.648 143.618 67.648C144.17 67.648 144.954 67.472 144.954 67.472ZM147.233 63.28H146.601V62.672H147.233V63.28ZM147.257 68.848C147.257 69.2 147.113 69.576 146.337 69.576C146.097 69.576 145.753 69.528 145.753 69.528L145.793 69.152C145.793 69.152 146.001 69.176 146.121 69.176C146.673 69.176 146.753 69.12 146.753 68.68V64.784C146.753 64.68 146.737 64.656 146.641 64.64L146.433 64.6V64.28H147.257V68.848ZM150.501 62.616H150.493C151.693 62.616 152.461 62.824 152.461 63.88C152.461 64.248 152.357 64.48 152.229 64.688L151.533 65.08C151.485 65.112 151.461 65.136 151.461 65.192C151.461 65.272 151.517 65.296 151.581 65.32C152.221 65.584 152.533 66.04 152.533 66.68C152.533 67.696 152.013 68.056 150.493 68.056C149.213 68.056 148.461 67.816 148.461 66.56C148.461 66.192 148.565 65.96 148.693 65.752L149.389 65.36C149.437 65.328 149.461 65.304 149.461 65.248C149.461 65.168 149.405 65.144 149.341 65.12C148.741 64.872 148.533 64.504 148.533 63.88C148.533 62.824 149.293 62.616 150.501 62.616ZM151.909 63.88C151.909 63.272 151.525 63.072 150.501 63.072C149.477 63.072 149.085 63.272 149.085 63.88C149.085 64.528 149.581 64.864 150.965 65.136C150.965 65.136 151.221 65.056 151.437 64.872C151.653 64.68 151.909 64.368 151.909 63.88ZM151.981 66.584C151.981 65.792 151.005 65.496 149.981 65.296C149.981 65.296 149.709 65.384 149.493 65.568C149.277 65.76 149.021 66.072 149.021 66.56C149.021 67.44 149.405 67.6 150.509 67.6C151.149 67.6 151.573 67.52 151.781 67.312C151.965 67.12 151.981 66.848 151.981 66.584ZM157.176 68H154.392V67.552H155.544V63.112H154.24V62.672H156.088V67.552H157.176V68ZM162.123 66.128C162.123 67.608 161.779 68.056 160.355 68.056C159.899 68.056 159.291 67.992 158.859 67.856V63.176C158.859 63.072 158.843 63.048 158.747 63.032L158.539 62.992V62.672H159.355V64.424C159.355 64.528 159.403 64.592 159.499 64.592C159.555 64.592 159.595 64.568 159.635 64.536L160.003 64.288C160.003 64.288 160.315 64.232 160.707 64.232C161.867 64.232 162.123 64.904 162.123 66.128ZM161.595 66.128C161.595 64.936 161.403 64.64 160.475 64.64C159.915 64.64 159.363 64.8 159.363 64.8V67.536C159.363 67.536 159.811 67.648 160.451 67.648C161.395 67.648 161.595 67.392 161.595 66.128ZM162.918 68V67.272H163.726V68H162.918ZM164.512 68V67.272H165.32V68H164.512ZM166.106 68V67.272H166.914V68H166.106Z" fill="#DECEFF" fill-opacity="0.75"/>
<path d="M122.403 110.344C122.403 112.544 122.211 113.056 120.283 113.056C118.347 113.056 118.139 112.544 118.139 110.344C118.139 108.04 118.459 107.616 120.267 107.616C122.187 107.616 122.403 108.184 122.403 110.344ZM121.843 110.344H121.851C121.851 108.4 121.715 108.064 120.267 108.064C118.907 108.064 118.699 108.36 118.699 110.344C118.699 112.312 118.811 112.6 120.275 112.6C121.779 112.6 121.843 112.24 121.843 110.344ZM126.766 113H125.55V112.688L125.742 112.64C125.79 112.632 125.854 112.608 125.854 112.544C125.854 112.504 125.846 112.488 125.814 112.44L125.086 111.328C125.022 111.232 124.974 111.2 124.886 111.2C124.806 111.2 124.758 111.232 124.694 111.328L123.966 112.44C123.942 112.488 123.934 112.504 123.934 112.544C123.934 112.608 123.99 112.632 124.038 112.64L124.23 112.688V113H123.038V112.688L123.246 112.64C123.342 112.616 123.366 112.576 123.414 112.496L124.358 111.064L123.446 109.784C123.39 109.704 123.374 109.664 123.286 109.64L123.086 109.592V109.28H124.27V109.592L124.078 109.64C123.966 109.656 123.942 109.736 124.006 109.824L124.662 110.816C124.75 110.944 124.798 110.984 124.886 110.984C124.982 110.984 125.022 110.928 125.086 110.832L125.75 109.824C125.806 109.744 125.782 109.664 125.686 109.64L125.486 109.592V109.28H126.654V109.592L126.446 109.64C126.334 109.664 126.326 109.704 126.278 109.784L125.422 111.064L126.39 112.496C126.446 112.576 126.47 112.616 126.558 112.64L126.766 112.688V113ZM130.7 111.144C130.7 112.72 130.444 113.056 129.012 113.056C127.58 113.056 127.324 112.72 127.324 111.144C127.324 109.568 127.58 109.232 129.012 109.232C130.444 109.232 130.7 109.568 130.7 111.144ZM130.172 111.144C130.172 109.792 130.068 109.632 129.012 109.632C127.956 109.632 127.852 109.792 127.852 111.144C127.852 112.496 127.956 112.656 129.012 112.656C130.068 112.656 130.172 112.496 130.172 111.144ZM131.776 113V112.104C131.776 110.96 132.224 110.784 133.008 110.472L134.192 110C134.792 109.76 135.016 109.592 135.016 109.04C135.016 108.304 134.752 108.072 133.696 108.072C132.744 108.072 131.904 108.272 131.904 108.272L131.824 107.824C131.824 107.824 132.648 107.616 133.728 107.616C135.016 107.616 135.568 107.912 135.568 108.976C135.568 110.128 135.024 110.2 133.864 110.656C132.632 111.144 132.304 111.184 132.304 112.072V112.528H135.648V113H131.776ZM137.771 113H136.627V112.688L136.835 112.648C136.931 112.624 136.947 112.6 136.947 112.504V108.176C136.947 108.072 136.931 108.048 136.835 108.032L136.627 107.992V107.672H137.451V112.496C137.451 112.6 137.467 112.624 137.563 112.64L137.771 112.68V113ZM140.536 109.232C141.368 109.232 141.504 109.384 141.664 109.52C141.784 109.632 141.832 109.592 141.936 109.536L142.344 109.296C142.56 109.248 142.88 109.232 143.112 109.232C144.216 109.232 144.504 109.512 144.504 110.592V112.504C144.504 112.6 144.52 112.632 144.616 112.648L144.824 112.688V113.008H143.68V112.688L143.888 112.648C143.984 112.632 144 112.608 144 112.504V110.696C144 109.808 143.848 109.64 142.968 109.64C142.56 109.64 142.176 109.704 141.776 109.76C141.872 109.96 141.928 110.16 141.928 110.384V112.496C141.928 112.6 141.944 112.624 142.04 112.64L142.248 112.68V113H141.104V112.688L141.312 112.648C141.408 112.624 141.424 112.6 141.424 112.504V110.696C141.424 109.808 141.272 109.64 140.392 109.64C139.832 109.64 139.336 109.768 139.336 109.768V112.496C139.336 112.6 139.352 112.624 139.448 112.64L139.656 112.68V113H138.512V112.688L138.72 112.648C138.816 112.624 138.832 112.6 138.832 112.504V109.784C138.832 109.68 138.816 109.656 138.72 109.64L138.512 109.6V109.28H139.256L139.288 109.48C139.296 109.528 139.304 109.608 139.416 109.608C139.472 109.608 139.528 109.568 139.576 109.536L139.96 109.28C139.96 109.28 140.32 109.232 140.536 109.232ZM145.607 108.144V107.672H149.583L149.599 108.104C149.647 109.232 149.447 109.488 148.655 110.176C147.935 110.816 147.575 111.184 147.575 112.176V113H147.015V112.176C147.015 111.064 147.327 110.616 148.175 109.872C148.887 109.248 149.039 109.016 149.023 108.432L149.015 108.144H145.607ZM151.042 107.672H154.578V108.488L152.986 109.8C152.946 109.824 152.922 109.864 152.922 109.912C152.93 109.992 152.986 110.032 153.082 110.024C153.138 110.024 153.282 110.008 153.41 110.008C154.402 109.984 154.866 110.504 154.866 111.448C154.866 112.832 153.89 113.056 152.746 113.056C151.842 113.056 151.114 112.888 151.114 112.888L151.178 112.448C151.178 112.448 151.97 112.592 152.778 112.592C153.69 112.592 154.314 112.424 154.314 111.504C154.314 110.792 154.082 110.432 153.346 110.432C152.97 110.432 152.53 110.464 152.53 110.464L152.282 109.88L154.05 108.408C154.106 108.36 154.138 108.32 154.13 108.24C154.114 108.152 154.034 108.136 153.946 108.136H151.042V107.672ZM159.629 113H156.845V112.552H157.997V108.112H156.693V107.672H158.541V112.552H159.629V113ZM161.136 111.912C161.136 111.064 161.408 110.808 162.392 110.792L164.016 110.768V110.304C164.016 110.016 163.92 109.84 163.688 109.736C163.52 109.664 163.288 109.64 162.96 109.64C162.208 109.64 161.464 109.816 161.464 109.816L161.392 109.416C161.392 109.416 162.048 109.232 162.952 109.232C163.472 109.232 163.848 109.28 164.104 109.424C164.392 109.568 164.52 109.832 164.52 110.288V112.496C164.52 112.6 164.536 112.624 164.632 112.64L164.84 112.68V113H164.056L164.024 112.8C164.016 112.752 164 112.672 163.896 112.672C163.832 112.672 163.776 112.712 163.728 112.744L163.352 113C163.352 113 162.928 113.056 162.592 113.056C161.464 113.056 161.136 112.816 161.136 111.912ZM164.016 112.472V111.144L162.728 111.168C162.032 111.176 161.664 111.088 161.664 111.92C161.664 112.608 161.952 112.648 162.68 112.648C163.232 112.648 164.016 112.472 164.016 112.472ZM165.52 113V112.272H166.328V113H165.52ZM167.113 113V112.272H167.921V113H167.113ZM168.707 113V112.272H169.515V113H168.707Z" fill="#DECEFF" fill-opacity="0.75"/>
<path d="M72.2679 49.9945H65.2445L65.8874 46.2814C65.9426 45.9625 65.8504 45.636 65.6354 45.3893C65.4206 45.1423 65.1045 45 64.7714 45H34.5626C34.2297 45 33.9136 45.1423 33.6986 45.3893C33.4836 45.6362 33.3914 45.9625 33.4466 46.2814L34.0895 49.9945H27.0661C25.8523 49.9945 24.7596 50.6007 24.1425 51.6159C23.5256 52.6312 23.5075 53.8536 24.094 54.8857L29.5623 64.5062C31.1552 67.3086 34.1918 69.0493 37.4871 69.0493H37.6237C38.3828 71.0241 39.656 72.7996 41.3421 74.1888C42.2419 74.9303 43.2361 75.5415 44.2915 76.0143L41.2089 91.8017H38.4852C37.8604 91.8017 37.3536 92.2939 37.3536 92.9008C37.3536 93.5078 37.8603 94 38.4852 94H60.9812C61.606 94 62.1128 93.5078 62.1128 92.9008C62.1128 92.2939 61.606 91.8017 60.9812 91.8017H57.6149L54.5711 76.215C55.8025 75.72 56.9585 75.0397 57.9911 74.1887C59.6781 72.7986 60.9521 71.0219 61.7103 69.0493H61.846C65.1416 69.0493 68.1786 67.3084 69.7713 64.5061L75.2391 54.8857C75.8259 53.8536 75.8076 52.6313 75.1909 51.6159C74.5738 50.6008 73.4809 49.9947 72.2672 49.9947L72.2679 49.9945ZM31.544 63.4436L26.0757 53.8232C25.7939 53.3273 25.9933 52.8959 26.0919 52.7332C26.1907 52.5707 26.4832 52.1928 27.0664 52.1928H34.4707L36.9806 66.6868C36.9887 66.7361 36.9994 66.785 37.0081 66.8341C34.7244 66.6774 32.661 65.4086 31.5442 63.4436L31.544 63.4436ZM55.3117 91.8018H43.5128L46.4496 76.7628C47.4948 77.0268 48.5755 77.1655 49.6671 77.1655C50.5899 77.1655 51.5048 77.0666 52.3972 76.877L55.3117 91.8018ZM49.6671 74.9672C44.5141 74.9672 40.0206 71.259 39.2139 66.332L35.9006 47.1985H63.4337L60.1189 66.3419C59.3134 71.2595 54.8201 74.9676 49.6671 74.9676L49.6671 74.9672ZM73.2586 53.8232L67.7903 63.4436C66.6734 65.4085 64.6102 66.6773 62.3264 66.8343C62.3345 66.7883 62.3447 66.7427 62.3522 66.6966L64.8638 52.1927H72.2681C72.8513 52.1927 73.1438 52.5707 73.2426 52.7331C73.3413 52.8958 73.5404 53.3272 73.2587 53.8231L73.2586 53.8232Z" fill="url(#paint3_linear_816_1116)"/>
<defs>
<linearGradient id="paint0_linear_816_1116" x1="90.5301" y1="65.7357" x2="81.2631" y2="65.7509" gradientUnits="userSpaceOnUse">
<stop stop-color="#9422ED"/>
<stop offset="1" stop-color="#B49FE1" stop-opacity="0.2"/>
</linearGradient>
<linearGradient id="paint1_linear_816_1116" x1="85.807" y1="25" x2="85.807" y2="40.5" gradientUnits="userSpaceOnUse">
<stop stop-color="#9422ED"/>
<stop offset="1" stop-color="#B49FE1" stop-opacity="0.2"/>
</linearGradient>
<linearGradient id="paint2_linear_816_1116" x1="85.807" y1="106.5" x2="85.807" y2="91" gradientUnits="userSpaceOnUse">
<stop stop-color="#9422ED"/>
<stop offset="1" stop-color="#B49FE1" stop-opacity="0.2"/>
</linearGradient>
<linearGradient id="paint3_linear_816_1116" x1="49.6666" y1="45" x2="49.6666" y2="94" gradientUnits="userSpaceOnUse">
<stop stop-color="#9422ED"/>
<stop offset="1" stop-color="#B49FE1" stop-opacity="0.2"/>
</linearGradient>
</defs>
</svg>
