<svg width="213" height="133" viewBox="0 0 213 133" fill="none" xmlns="http://www.w3.org/2000/svg">
<g clip-path="url(#clip0_836_148)">
<rect x="0.333252" width="212.667" height="133" rx="8" fill="#4C249F"/>
<path d="M160.98 58.8536C161.175 59.0488 161.492 59.0488 161.687 58.8536L164.869 55.6716C165.064 55.4763 165.064 55.1597 164.869 54.9645C164.674 54.7692 164.357 54.7692 164.162 54.9645L161.333 57.7929L158.505 54.9645C158.31 54.7692 157.993 54.7692 157.798 54.9645C157.602 55.1597 157.602 55.4763 157.798 55.6716L160.98 58.8536ZM59.8333 40V38.9167H58.8333V40H59.8333ZM59.8333 36.75V34.5833H58.8333V36.75H59.8333ZM59.8333 32.4167V30.25H58.8333V32.4167H59.8333ZM59.8333 28.0833V27H58.8333V28.0833H59.8333ZM59.8333 27C59.8333 26.6675 59.8549 26.3404 59.8967 26.0198L58.9051 25.8905C58.8577 26.2538 58.8333 26.6242 58.8333 27H59.8333ZM60.4022 24.1292C60.6549 23.5198 60.9858 22.9506 61.3825 22.4344L60.5896 21.8251C60.1402 22.4098 59.7651 23.0549 59.4784 23.7462L60.4022 24.1292ZM62.7676 21.0493C63.2839 20.6525 63.853 20.3216 64.4625 20.0689L64.0794 19.1452C63.3881 19.4319 62.7431 19.807 62.1583 20.2563L62.7676 21.0493ZM66.3531 19.5634C66.6736 19.5216 67.0008 19.5 67.3333 19.5V18.5C66.9574 18.5 66.5871 18.5244 66.2237 18.5718L66.3531 19.5634ZM67.3333 19.5H68.3105V18.5H67.3333V19.5ZM70.2651 19.5H72.2196V18.5H70.2651V19.5ZM74.1742 19.5H76.1287V18.5H74.1742V19.5ZM78.0833 19.5H80.0378V18.5H78.0833V19.5ZM81.9923 19.5H83.9469V18.5H81.9923V19.5ZM85.9014 19.5H87.856V18.5H85.9014V19.5ZM89.8105 19.5H91.7651V18.5H89.8105V19.5ZM93.7196 19.5H95.6742V18.5H93.7196V19.5ZM97.6287 19.5H99.5833V18.5H97.6287V19.5ZM101.538 19.5H103.492V18.5H101.538V19.5ZM105.447 19.5H107.401V18.5H105.447V19.5ZM109.356 19.5H111.311V18.5H109.356V19.5ZM113.265 19.5H115.22V18.5H113.265V19.5ZM117.174 19.5H119.129V18.5H117.174V19.5ZM121.083 19.5H123.038V18.5H121.083V19.5ZM124.992 19.5H126.947V18.5H124.992V19.5ZM128.901 19.5H130.856V18.5H128.901V19.5ZM132.811 19.5H134.765V18.5H132.811V19.5ZM136.72 19.5H138.674V18.5H136.72V19.5ZM140.629 19.5H142.583V18.5H140.629V19.5ZM144.538 19.5H146.492V18.5H144.538V19.5ZM148.447 19.5H150.401V18.5H148.447V19.5ZM152.356 19.5H153.333V18.5H152.356V19.5ZM153.333 19.5C153.666 19.5 153.993 19.5216 154.313 19.5634L154.443 18.5718C154.079 18.5244 153.709 18.5 153.333 18.5V19.5ZM156.204 20.0689C156.813 20.3216 157.383 20.6525 157.899 21.0493L158.508 20.2563C157.923 19.807 157.278 19.4319 156.587 19.1452L156.204 20.0689ZM159.284 22.4344C159.681 22.9506 160.012 23.5198 160.264 24.1292L161.188 23.7462C160.901 23.0549 160.526 22.4098 160.077 21.8251L159.284 22.4344ZM160.77 26.0198C160.812 26.3404 160.833 26.6675 160.833 27H161.833C161.833 26.6242 161.809 26.2538 161.761 25.8905L160.77 26.0198ZM160.833 27V27.9844H161.833V27H160.833ZM160.833 29.9531V31.9219H161.833V29.9531H160.833ZM160.833 33.8906V35.8594H161.833V33.8906H160.833ZM160.833 37.8281V39.7969H161.833V37.8281H160.833ZM160.833 41.7656V43.7344H161.833V41.7656H160.833ZM160.833 45.7031V47.6719H161.833V45.7031H160.833ZM160.833 49.6406V51.6094H161.833V49.6406H160.833ZM160.833 53.5781V55.5469H161.833V53.5781H160.833ZM160.833 57.5156V58.5H161.833V57.5156H160.833Z" fill="url(#paint0_linear_836_148)"/>
<path d="M89.2292 73.1521L83.3037 58.666C83.2103 58.4334 83.0551 58.2306 82.8553 58.0797L67.0654 46.2494C66.7645 46.0388 66.3922 45.9568 66.0307 46.0217L44.3084 49.2777C43.9943 49.3266 43.7066 49.4827 43.4945 49.7192L36.9067 56.9553C36.7963 57.0799 36.7078 57.2221 36.6447 57.3761L29.4154 75.8079C29.3059 76.1111 29.3059 76.443 29.4154 76.7461L31.7193 83.6442C31.781 83.8185 31.8749 83.9799 31.9953 84.1203L46.4814 100.572C46.575 100.678 46.6844 100.769 46.8056 100.841L51.7379 103.801C51.946 103.927 52.184 103.996 52.4277 104.001C52.5125 104.007 52.5979 104.007 52.683 104.001L70.4526 100.71C70.5889 100.681 70.7209 100.635 70.8456 100.572L82.0205 94.6399C82.3407 94.4767 82.5873 94.198 82.7104 93.8603L89.2636 74.111C89.3671 73.7975 89.3552 73.4573 89.2292 73.1521ZM80.3651 59.6731L64.1338 72.9245L42.6943 64.695L45.633 51.8713L65.879 48.7808L80.3651 59.6731ZM39.128 58.6245L43.8671 53.4163L41.225 64.9017L33.5543 80.5122L32.1747 76.332L39.128 58.6245ZM34.2234 82.5197L34.1475 82.3885L42.2252 66.0261L63.644 74.1797L66.7757 93.5773L48.4956 98.675L48.3715 98.5991L34.2234 82.5197ZM69.7281 98.0267L52.6759 101.207L50.1237 99.6753L67.6795 94.7846L77.7508 93.8051L69.7281 98.0267ZM80.3651 92.1426L68.1554 93.3634L65.0029 73.959L81.186 60.7766L86.4837 73.7244L80.3651 92.1426Z" fill="url(#paint1_linear_836_148)"/>
<path d="M62.4272 62.9436L62.3733 62.9019C61.806 62.4528 61.3972 62.0403 61.147 61.6643C60.8968 61.2884 60.7481 60.9144 60.7009 60.5424C60.6537 60.1704 60.6555 59.7693 60.7061 59.339C60.7352 59.0788 60.7309 58.8215 60.6932 58.5671C60.6525 58.3104 60.5662 58.0662 60.4342 57.8345C60.3045 57.5999 60.1214 57.3909 59.8849 57.2077C59.5914 56.9803 59.2836 56.852 58.9612 56.8227C58.6389 56.7934 58.3301 56.8488 58.0347 56.9889C57.7392 57.129 57.4825 57.3397 57.2644 57.6212C57.0742 57.8668 56.9418 58.1427 56.8673 58.4492C56.7928 58.7556 56.8057 59.0699 56.906 59.392C57.0062 59.714 57.2238 60.0239 57.5585 60.3216L56.6816 61.4535C56.1911 61.0351 55.8575 60.5658 55.6808 60.0456C55.5064 59.5223 55.4765 58.9888 55.5911 58.4451C55.708 57.8984 55.9544 57.3825 56.3302 56.8974C56.7385 56.3704 57.1983 55.9935 57.7094 55.7666C58.223 55.5367 58.7447 55.457 59.2747 55.5274C59.8071 55.5949 60.3068 55.8096 60.7739 56.1715C61.1033 56.4267 61.3618 56.7084 61.5494 57.0167C61.7394 57.322 61.8661 57.6501 61.9295 58.0011C61.9953 58.3492 62.0069 58.7176 61.9645 59.1064C61.925 59.4975 61.9351 59.8431 61.9948 60.1433C62.0515 60.4412 62.1763 60.7224 62.3692 60.9868C62.562 61.2512 62.8418 61.5303 63.2084 61.8239L63.2623 61.8657L62.4272 62.9436ZM65.5316 64.4288C65.3599 64.6504 65.1332 64.7791 64.8516 64.8148C64.5699 64.8505 64.3183 64.7826 64.0967 64.6109C63.8751 64.4392 63.7465 64.2126 63.7107 63.9309C63.675 63.6493 63.7429 63.3976 63.9146 63.1761C64.0863 62.9545 64.313 62.8258 64.5946 62.7901C64.8763 62.7543 65.1279 62.8223 65.3495 62.994C65.4962 63.1076 65.6019 63.2495 65.6667 63.4194C65.7338 63.5864 65.7572 63.7603 65.7369 63.9411C65.716 64.1165 65.6476 64.2791 65.5316 64.4288Z" fill="#B18CFF" fill-opacity="0.8"/>
<g filter="url(#filter0_dd_836_148)">
<path fill-rule="evenodd" clip-rule="evenodd" d="M179.333 82C179.333 72.0589 171.274 64 161.333 64C151.392 64 143.333 72.0589 143.333 82C143.333 91.9411 151.392 100 161.333 100C171.274 100 179.333 91.9411 179.333 82ZM167.496 76.1209H170.274L170.274 76.1209C170.754 76.1209 171.187 76.3436 171.431 76.7165C171.675 77.0895 171.682 77.5385 171.45 77.9176L169.287 81.4516C168.657 82.4811 167.455 83.1206 166.151 83.1206H166.098C165.798 83.8452 165.294 84.4979 164.626 85.0085C164.218 85.3211 163.761 85.571 163.273 85.7529L164.478 91.4786H165.809C166.057 91.4786 166.257 91.6594 166.257 91.8824C166.257 92.1053 166.057 92.2861 165.809 92.2861H156.91C156.663 92.2861 156.462 92.1053 156.462 91.8824C156.462 91.6594 156.663 91.4786 156.91 91.4786H157.987L159.207 85.6791C158.789 85.5054 158.396 85.2809 158.04 85.0085C157.373 84.4982 156.869 83.846 156.569 83.1206H156.515C155.211 83.1206 154.01 82.4811 153.38 81.4517L151.217 77.9176C150.985 77.5385 150.992 77.0894 151.236 76.7165C151.48 76.3435 151.912 76.1209 152.392 76.1209H155.171L154.917 74.7569C154.895 74.6397 154.931 74.5198 155.016 74.4291C155.101 74.3384 155.226 74.2861 155.358 74.2861H167.309C167.441 74.2861 167.566 74.3384 167.651 74.4291C167.736 74.5198 167.772 74.6397 167.75 74.7569L167.496 76.1209ZM152.001 77.5273L154.164 81.0613L154.164 81.0613C154.606 81.7832 155.422 82.2493 156.325 82.3068C156.324 82.2989 156.322 82.291 156.321 82.2832C156.319 82.273 156.316 82.2629 156.315 82.2527L155.322 76.9284H152.393C152.162 76.9284 152.046 77.0672 152.007 77.1269C151.968 77.1867 151.889 77.3451 152.001 77.5273ZM158.899 91.4786H163.566L162.413 85.996C162.06 86.0657 161.698 86.102 161.333 86.102C160.902 86.102 160.474 86.0511 160.061 85.9541L158.899 91.4786ZM157.198 82.1224C157.517 83.9323 159.295 85.2945 161.333 85.2945L161.333 85.2946C163.372 85.2946 165.15 83.9325 165.468 82.126L166.78 75.0938H155.887L157.198 82.1224ZM168.503 81.0613L170.666 77.5273L170.666 77.5273C170.778 77.3451 170.699 77.1866 170.66 77.1269C170.621 77.0672 170.505 76.9284 170.275 76.9284H167.345L166.352 82.2563C166.349 82.2733 166.345 82.29 166.342 82.3069C167.245 82.2492 168.061 81.7831 168.503 81.0613Z" fill="url(#paint2_linear_836_148)"/>
</g>
</g>
<defs>
<filter id="filter0_dd_836_148" x="138.333" y="63" width="46" height="46" filterUnits="userSpaceOnUse" color-interpolation-filters="sRGB">
<feFlood flood-opacity="0" result="BackgroundImageFix"/>
<feColorMatrix in="SourceAlpha" type="matrix" values="0 0 0 0 0 0 0 0 0 0 0 0 0 0 0 0 0 0 127 0" result="hardAlpha"/>
<feMorphology radius="2" operator="erode" in="SourceAlpha" result="effect1_dropShadow_836_148"/>
<feOffset dy="2"/>
<feGaussianBlur stdDeviation="2"/>
<feColorMatrix type="matrix" values="0 0 0 0 0 0 0 0 0 0 0 0 0 0 0 0 0 0 0.05 0"/>
<feBlend mode="normal" in2="BackgroundImageFix" result="effect1_dropShadow_836_148"/>
<feColorMatrix in="SourceAlpha" type="matrix" values="0 0 0 0 0 0 0 0 0 0 0 0 0 0 0 0 0 0 127 0" result="hardAlpha"/>
<feMorphology radius="1" operator="erode" in="SourceAlpha" result="effect2_dropShadow_836_148"/>
<feOffset dy="4"/>
<feGaussianBlur stdDeviation="3"/>
<feColorMatrix type="matrix" values="0 0 0 0 0 0 0 0 0 0 0 0 0 0 0 0 0 0 0.1 0"/>
<feBlend mode="normal" in2="effect1_dropShadow_836_148" result="effect2_dropShadow_836_148"/>
<feBlend mode="normal" in="SourceGraphic" in2="effect2_dropShadow_836_148" result="shape"/>
</filter>
<linearGradient id="paint0_linear_836_148" x1="110.333" y1="19" x2="110.333" y2="58.5" gradientUnits="userSpaceOnUse">
<stop stop-color="#9422ED"/>
<stop offset="1" stop-color="#B49FE1" stop-opacity="0.2"/>
</linearGradient>
<linearGradient id="paint1_linear_836_148" x1="59.3333" y1="46" x2="59.3333" y2="104.006" gradientUnits="userSpaceOnUse">
<stop stop-color="#9422ED"/>
<stop offset="1" stop-color="#B49FE1" stop-opacity="0.2"/>
</linearGradient>
<linearGradient id="paint2_linear_836_148" x1="162.718" y1="101.385" x2="162.718" y2="65.3846" gradientUnits="userSpaceOnUse">
<stop stop-color="#9422ED"/>
<stop offset="1" stop-color="#B49FE1" stop-opacity="0.2"/>
</linearGradient>
<clipPath id="clip0_836_148">
<rect width="212.667" height="133" fill="white" transform="translate(0.333252)"/>
</clipPath>
</defs>
</svg>
