<svg width="339" height="200" viewBox="0 0 339 200" fill="none" xmlns="http://www.w3.org/2000/svg">
<rect width="339" height="200" rx="8" fill="#4C249F"/>
<mask id="mask0_816_769" style="mask-type:alpha" maskUnits="userSpaceOnUse" x="69" y="37" width="201" height="77">
<rect x="69" y="37" width="201" height="77" fill="#D9D9D9"/>
</mask>
<g mask="url(#mask0_816_769)">
<path d="M81.0607 84.4027C80.4749 83.8169 79.5251 83.8169 78.9393 84.4027L69.3934 93.9487C68.8076 94.5344 68.8076 95.4842 69.3934 96.07C69.9792 96.6558 70.9289 96.6558 71.5147 96.07L80 87.5847L88.4853 96.07C89.0711 96.6558 90.0208 96.6558 90.6066 96.07C91.1924 95.4842 91.1924 94.5344 90.6066 93.9487L81.0607 84.4027ZM81.5 121.463L81.5 118.463L78.5 118.463L78.5 121.463L81.5 121.463ZM81.5 112.463L81.5 106.463L78.5 106.463L78.5 112.463L81.5 112.463ZM81.5 100.463L81.5 94.4634L78.5 94.4634L78.5 100.463L81.5 100.463ZM81.5 88.4634L81.5 85.4634L78.5 85.4634L78.5 88.4634L81.5 88.4634ZM81.0607 84.4027C80.4749 83.8169 79.5251 83.8169 78.9393 84.4027L69.3934 93.9487C68.8076 94.5344 68.8076 95.4842 69.3934 96.07C69.9792 96.6558 70.9289 96.6558 71.5147 96.07L80 87.5847L88.4853 96.07C89.0711 96.6558 90.0208 96.6558 90.6066 96.07C91.1924 95.4842 91.1924 94.5344 90.6066 93.9487L81.0607 84.4027ZM81.5 121.463L81.5 118.463L78.5 118.463L78.5 121.463L81.5 121.463ZM81.5 112.463L81.5 106.463L78.5 106.463L78.5 112.463L81.5 112.463ZM81.5 100.463L81.5 94.4634L78.5 94.4634L78.5 100.463L81.5 100.463ZM81.5 88.4634L81.5 85.4634L78.5 85.4634L78.5 88.4634L81.5 88.4634Z" fill="url(#paint0_linear_816_769)" fill-opacity="0.6"/>
<path d="M126.061 72.4027C125.475 71.8169 124.525 71.8169 123.939 72.4027L114.393 81.9487C113.808 82.5344 113.808 83.4842 114.393 84.07C114.979 84.6558 115.929 84.6558 116.515 84.07L125 75.5847L133.485 84.07C134.071 84.6558 135.021 84.6558 135.607 84.07C136.192 83.4842 136.192 82.5344 135.607 81.9487L126.061 72.4027ZM126.5 121.463L126.5 118.463L123.5 118.463L123.5 121.463L126.5 121.463ZM126.5 112.463L126.5 106.463L123.5 106.463L123.5 112.463L126.5 112.463ZM126.5 100.463L126.5 94.4634L123.5 94.4634L123.5 100.463L126.5 100.463ZM126.5 88.4634L126.5 82.4634L123.5 82.4634L123.5 88.4634L126.5 88.4634ZM126.5 76.4634L126.5 73.4634L123.5 73.4634L123.5 76.4634L126.5 76.4634ZM126.061 72.4027C125.475 71.8169 124.525 71.8169 123.939 72.4027L114.393 81.9487C113.808 82.5344 113.808 83.4842 114.393 84.07C114.979 84.6558 115.929 84.6558 116.515 84.07L125 75.5847L133.485 84.07C134.071 84.6558 135.021 84.6558 135.607 84.07C136.192 83.4842 136.192 82.5344 135.607 81.9487L126.061 72.4027ZM126.5 121.463L126.5 118.463L123.5 118.463L123.5 121.463L126.5 121.463ZM126.5 112.463L126.5 106.463L123.5 106.463L123.5 112.463L126.5 112.463ZM126.5 100.463L126.5 94.4634L123.5 94.4634L123.5 100.463L126.5 100.463ZM126.5 88.4634L126.5 82.4634L123.5 82.4634L123.5 88.4634L126.5 88.4634ZM126.5 76.4634L126.5 73.4634L123.5 73.4634L123.5 76.4634L126.5 76.4634Z" fill="url(#paint1_linear_816_769)" fill-opacity="0.6"/>
<path d="M171.061 60.4027C170.475 59.8169 169.525 59.8169 168.939 60.4027L159.393 69.9487C158.808 70.5344 158.808 71.4842 159.393 72.07C159.979 72.6558 160.929 72.6558 161.515 72.07L170 63.5847L178.485 72.07C179.071 72.6558 180.021 72.6558 180.607 72.07C181.192 71.4842 181.192 70.5344 180.607 69.9487L171.061 60.4027ZM171.5 121.463L171.5 118.463L168.5 118.463L168.5 121.463L171.5 121.463ZM171.5 112.463L171.5 106.463L168.5 106.463L168.5 112.463L171.5 112.463ZM171.5 100.463L171.5 94.4634L168.5 94.4634L168.5 100.463L171.5 100.463ZM171.5 88.4634L171.5 82.4634L168.5 82.4634L168.5 88.4634L171.5 88.4634ZM171.5 76.4634L171.5 70.4634L168.5 70.4634L168.5 76.4634L171.5 76.4634ZM171.5 64.4634L171.5 61.4634L168.5 61.4634L168.5 64.4634L171.5 64.4634ZM171.061 60.4027C170.475 59.8169 169.525 59.8169 168.939 60.4027L159.393 69.9487C158.808 70.5344 158.808 71.4842 159.393 72.07C159.979 72.6558 160.929 72.6558 161.515 72.07L170 63.5847L178.485 72.07C179.071 72.6558 180.021 72.6558 180.607 72.07C181.192 71.4842 181.192 70.5344 180.607 69.9487L171.061 60.4027ZM171.5 121.463L171.5 118.463L168.5 118.463L168.5 121.463L171.5 121.463ZM171.5 112.463L171.5 106.463L168.5 106.463L168.5 112.463L171.5 112.463ZM171.5 100.463L171.5 94.4634L168.5 94.4634L168.5 100.463L171.5 100.463ZM171.5 88.4634L171.5 82.4634L168.5 82.4634L168.5 88.4634L171.5 88.4634ZM171.5 76.4634L171.5 70.4634L168.5 70.4634L168.5 76.4634L171.5 76.4634ZM171.5 64.4634L171.5 61.4634L168.5 61.4634L168.5 64.4634L171.5 64.4634Z" fill="url(#paint2_linear_816_769)" fill-opacity="0.6"/>
<path d="M216.061 48.4027C215.475 47.8169 214.525 47.8169 213.939 48.4027L204.393 57.9487C203.808 58.5344 203.808 59.4842 204.393 60.07C204.979 60.6558 205.929 60.6558 206.515 60.07L215 51.5847L223.485 60.07C224.071 60.6558 225.021 60.6558 225.607 60.07C226.192 59.4842 226.192 58.5344 225.607 57.9487L216.061 48.4027ZM216.5 121.463L216.5 118.463L213.5 118.463L213.5 121.463L216.5 121.463ZM216.5 112.463L216.5 106.463L213.5 106.463L213.5 112.463L216.5 112.463ZM216.5 100.463L216.5 94.4634L213.5 94.4634L213.5 100.463L216.5 100.463ZM216.5 88.4634L216.5 82.4634L213.5 82.4634L213.5 88.4634L216.5 88.4634ZM216.5 76.4634L216.5 70.4634L213.5 70.4634L213.5 76.4634L216.5 76.4634ZM216.5 64.4634L216.5 58.4634L213.5 58.4634L213.5 64.4634L216.5 64.4634ZM216.5 52.4634L216.5 49.4634L213.5 49.4634L213.5 52.4634L216.5 52.4634ZM216.061 48.4027C215.475 47.8169 214.525 47.8169 213.939 48.4027L204.393 57.9487C203.808 58.5344 203.808 59.4842 204.393 60.07C204.979 60.6558 205.929 60.6558 206.515 60.07L215 51.5847L223.485 60.07C224.071 60.6558 225.021 60.6558 225.607 60.07C226.192 59.4842 226.192 58.5344 225.607 57.9487L216.061 48.4027ZM216.5 121.463L216.5 118.463L213.5 118.463L213.5 121.463L216.5 121.463ZM216.5 112.463L216.5 106.463L213.5 106.463L213.5 112.463L216.5 112.463ZM216.5 100.463L216.5 94.4634L213.5 94.4634L213.5 100.463L216.5 100.463ZM216.5 88.4634L216.5 82.4634L213.5 82.4634L213.5 88.4634L216.5 88.4634ZM216.5 76.4634L216.5 70.4634L213.5 70.4634L213.5 76.4634L216.5 76.4634ZM216.5 64.4634L216.5 58.4634L213.5 58.4634L213.5 64.4634L216.5 64.4634ZM216.5 52.4634L216.5 49.4634L213.5 49.4634L213.5 52.4634L216.5 52.4634Z" fill="url(#paint3_linear_816_769)" fill-opacity="0.6"/>
<path d="M261.061 36.4027C260.475 35.8169 259.525 35.8169 258.939 36.4027L249.393 45.9487C248.808 46.5344 248.808 47.4842 249.393 48.07C249.979 48.6558 250.929 48.6558 251.515 48.07L260 39.5847L268.485 48.07C269.071 48.6558 270.021 48.6558 270.607 48.07C271.192 47.4842 271.192 46.5344 270.607 45.9487L261.061 36.4027ZM261.5 121.463L261.5 118.463L258.5 118.463L258.5 121.463L261.5 121.463ZM261.5 112.463L261.5 106.463L258.5 106.463L258.5 112.463L261.5 112.463ZM261.5 100.463L261.5 94.4634L258.5 94.4634L258.5 100.463L261.5 100.463ZM261.5 88.4634L261.5 82.4634L258.5 82.4634L258.5 88.4634L261.5 88.4634ZM261.5 76.4634L261.5 70.4634L258.5 70.4634L258.5 76.4634L261.5 76.4634ZM261.5 64.4634L261.5 58.4634L258.5 58.4634L258.5 64.4634L261.5 64.4634ZM261.5 52.4634L261.5 46.4634L258.5 46.4634L258.5 52.4634L261.5 52.4634ZM261.5 40.4634L261.5 37.4634L258.5 37.4634L258.5 40.4634L261.5 40.4634ZM261.061 36.4027C260.475 35.8169 259.525 35.8169 258.939 36.4027L249.393 45.9487C248.808 46.5344 248.808 47.4842 249.393 48.07C249.979 48.6558 250.929 48.6558 251.515 48.07L260 39.5847L268.485 48.07C269.071 48.6558 270.021 48.6558 270.607 48.07C271.192 47.4842 271.192 46.5344 270.607 45.9487L261.061 36.4027ZM261.5 121.463L261.5 118.463L258.5 118.463L258.5 121.463L261.5 121.463ZM261.5 112.463L261.5 106.463L258.5 106.463L258.5 112.463L261.5 112.463ZM261.5 100.463L261.5 94.4634L258.5 94.4634L258.5 100.463L261.5 100.463ZM261.5 88.4634L261.5 82.4634L258.5 82.4634L258.5 88.4634L261.5 88.4634ZM261.5 76.4634L261.5 70.4634L258.5 70.4634L258.5 76.4634L261.5 76.4634ZM261.5 64.4634L261.5 58.4634L258.5 58.4634L258.5 64.4634L261.5 64.4634ZM261.5 52.4634L261.5 46.4634L258.5 46.4634L258.5 52.4634L261.5 52.4634ZM261.5 40.4634L261.5 37.4634L258.5 37.4634L258.5 40.4634L261.5 40.4634Z" fill="url(#paint4_linear_816_769)" fill-opacity="0.6"/>
</g>
<path d="M87.0872 135.249C84.53 135.25 82.453 137.259 82.4483 139.736L91.7087 139.732C91.7135 137.255 89.6444 135.248 87.0872 135.249Z" fill="#FFB636"/>
<path d="M83.4027 146.795C87.3847 142.859 87.3976 136.481 83.4315 132.549L69.0115 146.801C72.9776 150.733 79.4208 150.73 83.4027 146.795Z" fill="#9B6AFF"/>
<path d="M75.0136 138.479C72.3059 138.48 70.1067 140.649 70.1016 143.325L79.9069 143.321C79.912 140.646 77.7212 138.478 75.0136 138.479Z" fill="#8050E3"/>
<ellipse cx="1.36234" cy="1.34652" rx="1.36234" ry="1.34652" transform="matrix(1 -0.000355933 -0.00195157 0.999999 81.3667 136.503)" fill="#21064E"/>
<rect width="1.45452" height="3.41271" transform="matrix(1 -0.000333388 -0.00193012 0.999999 73.5463 149.437)" fill="#9B6AFF"/>
<path d="M75.36 151.055C74.3572 151.055 73.5427 151.859 73.5408 152.849L77.1724 152.848C77.1743 151.857 76.3629 151.054 75.36 151.055Z" fill="#FFB636"/>
<path d="M130.087 135.249C127.53 135.25 125.453 137.259 125.448 139.736L134.709 139.732C134.714 137.255 132.644 135.248 130.087 135.249Z" fill="#FFB636"/>
<path d="M126.403 146.795C130.385 142.859 130.398 136.481 126.432 132.549L112.011 146.801C115.978 150.733 122.421 150.73 126.403 146.795Z" fill="#9B6AFF"/>
<path d="M118.014 138.479C115.306 138.48 113.107 140.649 113.102 143.325L122.907 143.321C122.912 140.646 120.721 138.478 118.014 138.479Z" fill="#8050E3"/>
<ellipse cx="1.36234" cy="1.34652" rx="1.36234" ry="1.34652" transform="matrix(1 -0.000355933 -0.00195157 0.999999 124.367 136.503)" fill="#21064E"/>
<rect width="1.45452" height="3.41271" transform="matrix(1 -0.000333388 -0.00193012 0.999999 116.546 149.437)" fill="#9B6AFF"/>
<path d="M118.36 151.055C117.357 151.055 116.543 151.859 116.541 152.849L120.172 152.848C120.174 151.857 119.363 151.054 118.36 151.055Z" fill="#FFB636"/>
<path d="M174.087 135.249C171.53 135.25 169.453 137.259 169.448 139.736L178.709 139.732C178.714 137.255 176.644 135.248 174.087 135.249Z" fill="#FFB636"/>
<path d="M170.403 146.795C174.385 142.859 174.398 136.481 170.432 132.549L156.011 146.801C159.978 150.733 166.421 150.73 170.403 146.795Z" fill="#9B6AFF"/>
<path d="M162.014 138.479C159.306 138.48 157.107 140.649 157.102 143.325L166.907 143.321C166.912 140.646 164.721 138.478 162.014 138.479Z" fill="#8050E3"/>
<ellipse cx="1.36234" cy="1.34652" rx="1.36234" ry="1.34652" transform="matrix(1 -0.000355933 -0.00195157 0.999999 168.367 136.503)" fill="#21064E"/>
<rect width="1.45452" height="3.41271" transform="matrix(1 -0.000333388 -0.00193012 0.999999 160.546 149.437)" fill="#9B6AFF"/>
<path d="M162.36 151.055C161.357 151.055 160.543 151.859 160.541 152.849L164.172 152.848C164.174 151.857 163.363 151.054 162.36 151.055Z" fill="#FFB636"/>
<path d="M222.087 135.249C219.53 135.25 217.453 137.259 217.448 139.736L226.709 139.732C226.714 137.255 224.644 135.248 222.087 135.249Z" fill="#FFB636"/>
<path d="M218.403 146.795C222.385 142.859 222.398 136.481 218.432 132.549L204.011 146.801C207.978 150.733 214.421 150.73 218.403 146.795Z" fill="#9B6AFF"/>
<path d="M210.014 138.479C207.306 138.48 205.107 140.649 205.102 143.325L214.907 143.321C214.912 140.646 212.721 138.478 210.014 138.479Z" fill="#8050E3"/>
<ellipse cx="1.36234" cy="1.34652" rx="1.36234" ry="1.34652" transform="matrix(1 -0.000355933 -0.00195157 0.999999 216.367 136.503)" fill="#21064E"/>
<rect width="1.45452" height="3.41271" transform="matrix(1 -0.000333388 -0.00193012 0.999999 208.546 149.437)" fill="#9B6AFF"/>
<path d="M210.36 151.055C209.357 151.055 208.543 151.859 208.541 152.849L212.172 152.848C212.174 151.857 211.363 151.054 210.36 151.055Z" fill="#FFB636"/>
<path d="M265.087 135.249C262.53 135.25 260.453 137.259 260.448 139.736L269.709 139.732C269.714 137.255 267.644 135.248 265.087 135.249Z" fill="#FFB636"/>
<path d="M261.403 146.795C265.385 142.859 265.398 136.481 261.432 132.549L247.011 146.801C250.978 150.733 257.421 150.73 261.403 146.795Z" fill="#9B6AFF"/>
<path d="M253.014 138.479C250.306 138.48 248.107 140.649 248.102 143.325L257.907 143.321C257.912 140.646 255.721 138.478 253.014 138.479Z" fill="#8050E3"/>
<ellipse cx="1.36234" cy="1.34652" rx="1.36234" ry="1.34652" transform="matrix(1 -0.000355933 -0.00195157 0.999999 259.367 136.503)" fill="#21064E"/>
<rect width="1.45452" height="3.41271" transform="matrix(1 -0.000333388 -0.00193012 0.999999 251.546 149.437)" fill="#9B6AFF"/>
<path d="M253.36 151.055C252.357 151.055 251.543 151.859 251.541 152.849L255.172 152.848C255.174 151.857 254.363 151.054 253.36 151.055Z" fill="#FFB636"/>
<defs>
<linearGradient id="paint0_linear_816_769" x1="80" y1="84.5" x2="80" y2="111" gradientUnits="userSpaceOnUse">
<stop stop-color="#9422ED"/>
<stop offset="1" stop-color="#B49FE1" stop-opacity="0.2"/>
</linearGradient>
<linearGradient id="paint1_linear_816_769" x1="125" y1="71.5" x2="125" y2="121.5" gradientUnits="userSpaceOnUse">
<stop stop-color="#9422ED"/>
<stop offset="1" stop-color="#B49FE1" stop-opacity="0"/>
</linearGradient>
<linearGradient id="paint2_linear_816_769" x1="170" y1="60.5" x2="170" y2="121.5" gradientUnits="userSpaceOnUse">
<stop stop-color="#9422ED"/>
<stop offset="1" stop-color="#B49FE1" stop-opacity="0"/>
</linearGradient>
<linearGradient id="paint3_linear_816_769" x1="215" y1="49" x2="215" y2="122" gradientUnits="userSpaceOnUse">
<stop stop-color="#9422ED"/>
<stop offset="1" stop-color="#B49FE1" stop-opacity="0"/>
</linearGradient>
<linearGradient id="paint4_linear_816_769" x1="260" y1="42" x2="260" y2="121" gradientUnits="userSpaceOnUse">
<stop stop-color="#9422ED"/>
<stop offset="1" stop-color="#B49FE1" stop-opacity="0"/>
</linearGradient>
</defs>
</svg>
