<svg width="339" height="200" viewBox="0 0 339 200" fill="none" xmlns="http://www.w3.org/2000/svg">
<rect width="339" height="200" rx="8" fill="#4C249F"/>
<path d="M81.0607 104.403C80.4749 103.817 79.5251 103.817 78.9393 104.403L69.3934 113.949C68.8076 114.534 68.8076 115.484 69.3934 116.07C69.9792 116.656 70.9289 116.656 71.5147 116.07L80 107.585L88.4853 116.07C89.0711 116.656 90.0208 116.656 90.6066 116.07C91.1924 115.484 91.1924 114.534 90.6066 113.949L81.0607 104.403ZM81.5 141.463L81.5 138.463L78.5 138.463L78.5 141.463L81.5 141.463ZM81.5 132.463L81.5 126.463L78.5 126.463L78.5 132.463L81.5 132.463ZM81.5 120.463L81.5 114.463L78.5 114.463L78.5 120.463L81.5 120.463ZM81.5 108.463L81.5 105.463L78.5 105.463L78.5 108.463L81.5 108.463ZM81.0607 104.403C80.4749 103.817 79.5251 103.817 78.9393 104.403L69.3934 113.949C68.8076 114.534 68.8076 115.484 69.3934 116.07C69.9792 116.656 70.9289 116.656 71.5147 116.07L80 107.585L88.4853 116.07C89.0711 116.656 90.0208 116.656 90.6066 116.07C91.1924 115.484 91.1924 114.534 90.6066 113.949L81.0607 104.403ZM81.5 141.463L81.5 138.463L78.5 138.463L78.5 141.463L81.5 141.463ZM81.5 132.463L81.5 126.463L78.5 126.463L78.5 132.463L81.5 132.463ZM81.5 120.463L81.5 114.463L78.5 114.463L78.5 120.463L81.5 120.463ZM81.5 108.463L81.5 105.463L78.5 105.463L78.5 108.463L81.5 108.463Z" fill="url(#paint0_linear_777_572)" fill-opacity="0.6"/>
<path d="M126.061 92.4027C125.475 91.8169 124.525 91.8169 123.939 92.4027L114.393 101.949C113.808 102.534 113.808 103.484 114.393 104.07C114.979 104.656 115.929 104.656 116.515 104.07L125 95.5847L133.485 104.07C134.071 104.656 135.021 104.656 135.607 104.07C136.192 103.484 136.192 102.534 135.607 101.949L126.061 92.4027ZM126.5 141.463L126.5 138.463L123.5 138.463L123.5 141.463L126.5 141.463ZM126.5 132.463L126.5 126.463L123.5 126.463L123.5 132.463L126.5 132.463ZM126.5 120.463L126.5 114.463L123.5 114.463L123.5 120.463L126.5 120.463ZM126.5 108.463L126.5 102.463L123.5 102.463L123.5 108.463L126.5 108.463ZM126.5 96.4634L126.5 93.4634L123.5 93.4634L123.5 96.4634L126.5 96.4634ZM126.061 92.4027C125.475 91.8169 124.525 91.8169 123.939 92.4027L114.393 101.949C113.808 102.534 113.808 103.484 114.393 104.07C114.979 104.656 115.929 104.656 116.515 104.07L125 95.5847L133.485 104.07C134.071 104.656 135.021 104.656 135.607 104.07C136.192 103.484 136.192 102.534 135.607 101.949L126.061 92.4027ZM126.5 141.463L126.5 138.463L123.5 138.463L123.5 141.463L126.5 141.463ZM126.5 132.463L126.5 126.463L123.5 126.463L123.5 132.463L126.5 132.463ZM126.5 120.463L126.5 114.463L123.5 114.463L123.5 120.463L126.5 120.463ZM126.5 108.463L126.5 102.463L123.5 102.463L123.5 108.463L126.5 108.463ZM126.5 96.4634L126.5 93.4634L123.5 93.4634L123.5 96.4634L126.5 96.4634Z" fill="url(#paint1_linear_777_572)" fill-opacity="0.6"/>
<path d="M171.061 80.4027C170.475 79.8169 169.525 79.8169 168.939 80.4027L159.393 89.9487C158.808 90.5344 158.808 91.4842 159.393 92.07C159.979 92.6558 160.929 92.6558 161.515 92.07L170 83.5847L178.485 92.07C179.071 92.6558 180.021 92.6558 180.607 92.07C181.192 91.4842 181.192 90.5344 180.607 89.9487L171.061 80.4027ZM171.5 141.463L171.5 138.463L168.5 138.463L168.5 141.463L171.5 141.463ZM171.5 132.463L171.5 126.463L168.5 126.463L168.5 132.463L171.5 132.463ZM171.5 120.463L171.5 114.463L168.5 114.463L168.5 120.463L171.5 120.463ZM171.5 108.463L171.5 102.463L168.5 102.463L168.5 108.463L171.5 108.463ZM171.5 96.4634L171.5 90.4634L168.5 90.4634L168.5 96.4634L171.5 96.4634ZM171.5 84.4634L171.5 81.4634L168.5 81.4634L168.5 84.4634L171.5 84.4634ZM171.061 80.4027C170.475 79.8169 169.525 79.8169 168.939 80.4027L159.393 89.9487C158.808 90.5344 158.808 91.4842 159.393 92.07C159.979 92.6558 160.929 92.6558 161.515 92.07L170 83.5847L178.485 92.07C179.071 92.6558 180.021 92.6558 180.607 92.07C181.192 91.4842 181.192 90.5344 180.607 89.9487L171.061 80.4027ZM171.5 141.463L171.5 138.463L168.5 138.463L168.5 141.463L171.5 141.463ZM171.5 132.463L171.5 126.463L168.5 126.463L168.5 132.463L171.5 132.463ZM171.5 120.463L171.5 114.463L168.5 114.463L168.5 120.463L171.5 120.463ZM171.5 108.463L171.5 102.463L168.5 102.463L168.5 108.463L171.5 108.463ZM171.5 96.4634L171.5 90.4634L168.5 90.4634L168.5 96.4634L171.5 96.4634ZM171.5 84.4634L171.5 81.4634L168.5 81.4634L168.5 84.4634L171.5 84.4634Z" fill="url(#paint2_linear_777_572)" fill-opacity="0.6"/>
<path d="M216.061 68.4027C215.475 67.8169 214.525 67.8169 213.939 68.4027L204.393 77.9487C203.808 78.5344 203.808 79.4842 204.393 80.07C204.979 80.6558 205.929 80.6558 206.515 80.07L215 71.5847L223.485 80.07C224.071 80.6558 225.021 80.6558 225.607 80.07C226.192 79.4842 226.192 78.5344 225.607 77.9487L216.061 68.4027ZM216.5 141.463L216.5 138.463L213.5 138.463L213.5 141.463L216.5 141.463ZM216.5 132.463L216.5 126.463L213.5 126.463L213.5 132.463L216.5 132.463ZM216.5 120.463L216.5 114.463L213.5 114.463L213.5 120.463L216.5 120.463ZM216.5 108.463L216.5 102.463L213.5 102.463L213.5 108.463L216.5 108.463ZM216.5 96.4634L216.5 90.4634L213.5 90.4634L213.5 96.4634L216.5 96.4634ZM216.5 84.4634L216.5 78.4634L213.5 78.4634L213.5 84.4634L216.5 84.4634ZM216.5 72.4634L216.5 69.4634L213.5 69.4634L213.5 72.4634L216.5 72.4634ZM216.061 68.4027C215.475 67.8169 214.525 67.8169 213.939 68.4027L204.393 77.9487C203.808 78.5344 203.808 79.4842 204.393 80.07C204.979 80.6558 205.929 80.6558 206.515 80.07L215 71.5847L223.485 80.07C224.071 80.6558 225.021 80.6558 225.607 80.07C226.192 79.4842 226.192 78.5344 225.607 77.9487L216.061 68.4027ZM216.5 141.463L216.5 138.463L213.5 138.463L213.5 141.463L216.5 141.463ZM216.5 132.463L216.5 126.463L213.5 126.463L213.5 132.463L216.5 132.463ZM216.5 120.463L216.5 114.463L213.5 114.463L213.5 120.463L216.5 120.463ZM216.5 108.463L216.5 102.463L213.5 102.463L213.5 108.463L216.5 108.463ZM216.5 96.4634L216.5 90.4634L213.5 90.4634L213.5 96.4634L216.5 96.4634ZM216.5 84.4634L216.5 78.4634L213.5 78.4634L213.5 84.4634L216.5 84.4634ZM216.5 72.4634L216.5 69.4634L213.5 69.4634L213.5 72.4634L216.5 72.4634Z" fill="url(#paint3_linear_777_572)" fill-opacity="0.6"/>
<path d="M261.061 56.4027C260.475 55.8169 259.525 55.8169 258.939 56.4027L249.393 65.9487C248.808 66.5344 248.808 67.4842 249.393 68.07C249.979 68.6558 250.929 68.6558 251.515 68.07L260 59.5847L268.485 68.07C269.071 68.6558 270.021 68.6558 270.607 68.07C271.192 67.4842 271.192 66.5344 270.607 65.9487L261.061 56.4027ZM261.5 141.463L261.5 138.463L258.5 138.463L258.5 141.463L261.5 141.463ZM261.5 132.463L261.5 126.463L258.5 126.463L258.5 132.463L261.5 132.463ZM261.5 120.463L261.5 114.463L258.5 114.463L258.5 120.463L261.5 120.463ZM261.5 108.463L261.5 102.463L258.5 102.463L258.5 108.463L261.5 108.463ZM261.5 96.4634L261.5 90.4634L258.5 90.4634L258.5 96.4634L261.5 96.4634ZM261.5 84.4634L261.5 78.4634L258.5 78.4634L258.5 84.4634L261.5 84.4634ZM261.5 72.4634L261.5 66.4634L258.5 66.4634L258.5 72.4634L261.5 72.4634ZM261.5 60.4634L261.5 57.4634L258.5 57.4634L258.5 60.4634L261.5 60.4634ZM261.061 56.4027C260.475 55.8169 259.525 55.8169 258.939 56.4027L249.393 65.9487C248.808 66.5344 248.808 67.4842 249.393 68.07C249.979 68.6558 250.929 68.6558 251.515 68.07L260 59.5847L268.485 68.07C269.071 68.6558 270.021 68.6558 270.607 68.07C271.192 67.4842 271.192 66.5344 270.607 65.9487L261.061 56.4027ZM261.5 141.463L261.5 138.463L258.5 138.463L258.5 141.463L261.5 141.463ZM261.5 132.463L261.5 126.463L258.5 126.463L258.5 132.463L261.5 132.463ZM261.5 120.463L261.5 114.463L258.5 114.463L258.5 120.463L261.5 120.463ZM261.5 108.463L261.5 102.463L258.5 102.463L258.5 108.463L261.5 108.463ZM261.5 96.4634L261.5 90.4634L258.5 90.4634L258.5 96.4634L261.5 96.4634ZM261.5 84.4634L261.5 78.4634L258.5 78.4634L258.5 84.4634L261.5 84.4634ZM261.5 72.4634L261.5 66.4634L258.5 66.4634L258.5 72.4634L261.5 72.4634ZM261.5 60.4634L261.5 57.4634L258.5 57.4634L258.5 60.4634L261.5 60.4634Z" fill="url(#paint4_linear_777_572)" fill-opacity="0.6"/>
<defs>
<linearGradient id="paint0_linear_777_572" x1="80" y1="104.5" x2="80" y2="141.5" gradientUnits="userSpaceOnUse">
<stop stop-color="#9422ED"/>
<stop offset="1" stop-color="#B49FE1" stop-opacity="0.2"/>
</linearGradient>
<linearGradient id="paint1_linear_777_572" x1="125" y1="91.5" x2="125" y2="141.5" gradientUnits="userSpaceOnUse">
<stop stop-color="#9422ED"/>
<stop offset="1" stop-color="#B49FE1" stop-opacity="0"/>
</linearGradient>
<linearGradient id="paint2_linear_777_572" x1="170" y1="80.5" x2="170" y2="141.5" gradientUnits="userSpaceOnUse">
<stop stop-color="#9422ED"/>
<stop offset="1" stop-color="#B49FE1" stop-opacity="0"/>
</linearGradient>
<linearGradient id="paint3_linear_777_572" x1="215" y1="69" x2="215" y2="142" gradientUnits="userSpaceOnUse">
<stop stop-color="#9422ED"/>
<stop offset="1" stop-color="#B49FE1" stop-opacity="0"/>
</linearGradient>
<linearGradient id="paint4_linear_777_572" x1="260" y1="62" x2="260" y2="141" gradientUnits="userSpaceOnUse">
<stop stop-color="#9422ED"/>
<stop offset="1" stop-color="#B49FE1" stop-opacity="0"/>
</linearGradient>
</defs>
</svg>
