<svg width="339" height="200" viewBox="0 0 339 200" fill="none" xmlns="http://www.w3.org/2000/svg">
<path d="M0 8C0 3.58173 3.58172 0 8 0H331C335.418 0 339 3.58172 339 8V192C339 196.418 335.418 200 331 200H7.99999C3.58171 200 0 196.418 0 192V8Z" fill="#4C249F"/>
<g filter="url(#filter0_dd_777_250)">
<path d="M58.3571 115.23C67.223 115.23 74.4192 108.095 74.4192 99.2827C74.4192 90.4701 67.223 83.3351 58.3571 83.3351C49.4913 83.3351 42.2951 90.4701 42.2951 99.2827C42.2951 108.095 49.4913 115.23 58.3571 115.23Z" fill="url(#paint0_linear_777_250)" stroke="#6538C1" stroke-width="1.40984"/>
<path d="M64.773 115.23C73.6388 115.23 80.835 108.095 80.835 99.2827C80.835 90.4701 73.6388 83.3351 64.773 83.3351C55.9071 83.3351 48.7109 90.4701 48.7109 99.2827C48.7109 108.095 55.9071 115.23 64.773 115.23Z" fill="url(#paint1_linear_777_250)" stroke="#6538C1" stroke-width="1.40984"/>
<path d="M70.6428 115.23C79.5086 115.23 86.7048 108.095 86.7048 99.2822C86.7048 90.4697 79.5086 83.3346 70.6428 83.3346C61.7769 83.3346 54.5807 90.4697 54.5807 99.2822C54.5807 108.095 61.7769 115.23 70.6428 115.23Z" fill="url(#paint2_linear_777_250)" stroke="#6538C1" stroke-width="1.40984"/>
<path d="M70.2136 105.714C69.5932 105.703 68.9898 105.652 68.4033 105.562C67.8168 105.46 67.3431 105.325 66.9822 105.156V103.718C67.3657 103.898 67.8563 104.056 68.4541 104.191C69.0518 104.327 69.6383 104.4 70.2136 104.411V100.994C69.6609 100.836 69.1759 100.667 68.7586 100.486C68.3526 100.295 68.0198 100.08 67.7604 99.8434C67.501 99.6066 67.3036 99.3359 67.1683 99.0314C67.0442 98.7156 66.9822 98.3546 66.9822 97.9486C66.9822 97.396 67.1119 96.9222 67.3713 96.5275C67.642 96.1327 68.0198 95.8226 68.5048 95.597C68.9898 95.3601 69.5594 95.2248 70.2136 95.191V93.7022H71.2963V95.174C71.8941 95.1853 72.4355 95.253 72.9204 95.3771C73.4167 95.4899 73.8678 95.6308 74.2739 95.8L73.8171 97.052C73.4562 96.9053 73.0558 96.7813 72.6159 96.6798C72.1873 96.567 71.7475 96.4937 71.2963 96.4598V99.8603C72.0407 100.075 72.661 100.306 73.1573 100.554C73.6536 100.791 74.0257 101.09 74.2739 101.451C74.5333 101.8 74.663 102.257 74.663 102.821C74.663 103.611 74.3697 104.253 73.7833 104.75C73.1968 105.235 72.3678 105.534 71.2963 105.646V107.524H70.2136V105.714ZM71.2963 104.327C71.9617 104.259 72.4467 104.107 72.7513 103.87C73.0558 103.622 73.208 103.306 73.208 102.923C73.208 102.641 73.1516 102.409 73.0389 102.229C72.9261 102.037 72.7287 101.874 72.4467 101.738C72.176 101.603 71.7926 101.473 71.2963 101.349V104.327ZM70.2136 96.4937C69.8075 96.5162 69.4748 96.5895 69.2154 96.7136C68.956 96.8264 68.7586 96.9786 68.6233 97.1704C68.4992 97.3621 68.4372 97.5821 68.4372 97.8302C68.4372 98.1234 68.4879 98.3772 68.5894 98.5915C68.7022 98.7945 68.8883 98.9693 69.1477 99.116C69.4071 99.2513 69.7624 99.3754 70.2136 99.4881V96.4937Z" fill="#FFBFF9"/>
<path d="M60.1608 92.1966L60.3647 91.9961L62.004 92.6869L62.0206 92.6706L61.3399 91.0371L61.5438 90.8367L62.9413 92.2367L62.7815 92.3938L61.7197 91.3301L61.7059 91.3437L62.3269 92.8408L62.1726 92.9925L60.6701 92.3623L60.6563 92.3758L61.7181 93.4395L61.5583 93.5966L60.1608 92.1966Z" fill="#FFBFF9"/>
<path d="M63.5888 91.8219C63.5122 91.8766 63.4324 91.912 63.3492 91.928C63.2656 91.9435 63.1856 91.937 63.1093 91.9086C63.0325 91.8797 62.9658 91.8262 62.9091 91.7481C62.8593 91.6794 62.8325 91.6139 62.8288 91.5518C62.8247 91.4891 62.8366 91.4292 62.8644 91.3721C62.8923 91.315 62.9294 91.2608 62.9758 91.2094C63.0223 91.1572 63.071 91.1074 63.1218 91.0599C63.1885 90.9981 63.2429 90.9485 63.2851 90.9112C63.3275 90.873 63.3548 90.8404 63.3671 90.8134C63.3799 90.7861 63.3756 90.7576 63.354 90.7279L63.3495 90.7217C63.2936 90.6446 63.2289 90.5999 63.1554 90.5876C63.0825 90.5749 63.0033 90.5992 62.9178 90.6603C62.8292 90.7237 62.7737 90.7926 62.7513 90.8671C62.7289 90.9416 62.7233 91.0081 62.7346 91.0664L62.5131 91.1299C62.4916 91.0346 62.4924 90.9478 62.5154 90.8697C62.5385 90.7907 62.5754 90.7209 62.6261 90.6601C62.677 90.5985 62.7328 90.5459 62.7936 90.5024C62.8324 90.4746 62.8804 90.4474 62.9376 90.4208C62.9949 90.3933 63.0573 90.3767 63.1249 90.3711C63.193 90.3651 63.2634 90.3792 63.3361 90.4134C63.4087 90.4476 63.4796 90.5124 63.5487 90.6077L64.1222 91.3978L63.9366 91.5306L63.8187 91.3682L63.8093 91.3749C63.8156 91.4099 63.8148 91.4528 63.807 91.5034C63.7991 91.5541 63.7784 91.6073 63.7447 91.663C63.7111 91.7187 63.6591 91.7717 63.5888 91.8219ZM63.497 91.6361C63.5704 91.5836 63.6219 91.5251 63.6515 91.4604C63.6816 91.3954 63.693 91.3311 63.6859 91.2674C63.6792 91.2034 63.6578 91.1464 63.6215 91.0964L63.4991 90.9278C63.498 90.9428 63.4869 90.9637 63.4659 90.9907C63.4449 91.0167 63.4192 91.045 63.3888 91.0754C63.3585 91.105 63.3286 91.1335 63.2991 91.1609C63.2697 91.1874 63.246 91.2091 63.228 91.226C63.1843 91.2667 63.1466 91.3091 63.1148 91.3532C63.0832 91.3963 63.0645 91.4409 63.0589 91.4869C63.0533 91.5319 63.0676 91.5779 63.1016 91.6247C63.148 91.6887 63.207 91.7201 63.2786 91.7188C63.3502 91.7165 63.423 91.689 63.497 91.6361Z" fill="#FFBFF9"/>
<path d="M64.4854 91.1784L63.7481 89.8941L63.9402 89.7855L64.0515 89.9795L64.065 89.9719C64.0521 89.895 64.0652 89.8193 64.1043 89.7448C64.1433 89.6703 64.2016 89.6111 64.2791 89.5673C64.2937 89.559 64.3121 89.549 64.3343 89.5371C64.3565 89.5253 64.3736 89.5168 64.3855 89.5115L64.5007 89.7122C64.493 89.7143 64.4761 89.7206 64.45 89.7309C64.4242 89.7403 64.3981 89.7525 64.3717 89.7674C64.3088 89.803 64.2601 89.8479 64.2258 89.902C64.1916 89.9553 64.1734 90.0129 64.171 90.0748C64.1688 90.1358 64.1844 90.1953 64.2176 90.2533L64.6842 91.0659L64.4854 91.1784Z" fill="#FFBFF9"/>
<path d="M65.3301 90.1149L65.2117 89.8596L65.2542 89.8409L65.5805 88.9769L65.8392 88.8628L65.4897 89.7792L65.472 89.787L65.3301 90.1149ZM65.3556 90.6933L64.5496 88.8922L64.7587 88.8L65.5647 90.6011L65.3556 90.6933ZM66.2204 90.3121L65.3897 89.878L65.474 89.6682L66.4862 90.1949L66.2204 90.3121Z" fill="#FFBFF9"/>
<path d="M67.2245 89.9992C67.0873 90.041 66.9597 90.047 66.8416 90.0173C66.724 89.9867 66.6215 89.9253 66.5342 89.8332C66.4473 89.7402 66.3814 89.6214 66.3366 89.4766C66.2918 89.3319 66.2789 89.1962 66.2979 89.0697C66.3173 88.9423 66.3653 88.833 66.4419 88.7419C66.519 88.6499 66.6217 88.5844 66.7502 88.5452C66.8244 88.5226 66.9014 88.5126 66.9813 88.5151C67.0612 88.5175 67.1393 88.5373 67.2157 88.5745C67.2919 88.611 67.3615 88.6689 67.4247 88.7483C67.4878 88.8277 67.5397 88.9334 67.5805 89.0652L67.609 89.1572L66.5117 89.4917L66.4536 89.3041L67.3285 89.0374C67.3038 88.9576 67.2658 88.8914 67.2143 88.8386C67.1634 88.7857 67.103 88.7501 67.0331 88.7318C66.9639 88.7133 66.8897 88.7161 66.8106 88.7402C66.7235 88.7668 66.6547 88.8112 66.6044 88.8736C66.5544 88.9351 66.523 89.0051 66.5101 89.0835C66.4972 89.1619 66.5028 89.2401 66.5269 89.318L66.5656 89.4431C66.5986 89.5498 66.6451 89.6346 66.7052 89.6975C66.7656 89.7596 66.8352 89.7998 66.9139 89.8181C66.9924 89.8358 67.0758 89.8311 67.1642 89.8042C67.2216 89.7867 67.2711 89.7629 67.3125 89.7328C67.3543 89.7019 67.3872 89.6651 67.4111 89.6222C67.4348 89.5787 67.4484 89.5296 67.4517 89.4749L67.6813 89.4694C67.681 89.5473 67.663 89.6212 67.6272 89.6912C67.5912 89.7606 67.5392 89.8221 67.4713 89.8757C67.4031 89.9286 67.3209 89.9698 67.2245 89.9992Z" fill="#FFBFF9"/>
<path d="M68.4549 88.1592L68.4919 88.3482L67.7343 88.4941L67.6973 88.3051L68.4549 88.1592ZM67.8502 87.915L68.0748 87.8717L68.3452 89.2547C68.3575 89.3177 68.3759 89.3631 68.4005 89.3911C68.4255 89.4183 68.4537 89.4344 68.485 89.4395C68.5168 89.4438 68.5492 89.4428 68.5822 89.4365C68.6069 89.4317 68.627 89.4265 68.6423 89.421C68.6576 89.4148 68.6698 89.4098 68.6789 89.4061L68.7638 89.5975C68.7496 89.6061 68.7295 89.6159 68.7033 89.6268C68.6773 89.6384 68.6433 89.6482 68.6014 89.6563C68.538 89.6685 68.4731 89.6669 68.4069 89.6516C68.3414 89.6361 68.2832 89.6045 68.2324 89.5568C68.1822 89.5089 68.1489 89.4428 68.1324 89.3584L67.8502 87.915Z" fill="#FFBFF9"/>
<path d="M69.1205 89.5565L68.9382 88.0895L69.1652 88.0617L69.3475 89.5287L69.1205 89.5565ZM69.0232 87.8309C68.979 87.8363 68.939 87.826 68.9032 87.8C68.868 87.7739 68.8478 87.7399 68.8426 87.6979C68.8374 87.6558 68.8486 87.6179 68.8763 87.5842C68.9047 87.5503 68.941 87.5307 68.9853 87.5253C69.0295 87.5198 69.0692 87.5302 69.1044 87.5563C69.1402 87.5823 69.1607 87.6163 69.1659 87.6583C69.1711 87.7003 69.1596 87.7382 69.1312 87.7721C69.1035 87.8059 69.0675 87.8255 69.0232 87.8309Z" fill="#FFBFF9"/>
<path d="M69.913 88.5811L69.9436 89.4698L69.7149 89.4775L69.664 88.0003L69.885 87.9928L69.8929 88.2236L69.9123 88.223C69.9446 88.1468 69.9955 88.0847 70.065 88.0368C70.1344 87.9882 70.2254 87.962 70.3378 87.9582C70.4385 87.9548 70.5274 87.9723 70.6044 88.0108C70.6814 88.0486 70.7423 88.1082 70.7871 88.1894C70.8319 88.2701 70.8565 88.3732 70.8608 88.4989L70.8932 89.4376L70.6645 89.4453L70.6327 88.5221C70.6287 88.406 70.5952 88.3166 70.5323 88.2539C70.4693 88.1906 70.3848 88.1607 70.2789 88.1643C70.2059 88.1668 70.1412 88.1847 70.0848 88.2181C70.029 88.2514 69.9857 88.2988 69.9548 88.3602C69.924 88.4216 69.91 88.4952 69.913 88.5811Z" fill="#FFBFF9"/>
<path d="M71.7957 90.0815C71.6857 90.0709 71.5925 90.0477 71.5161 90.012C71.4397 89.9769 71.3773 89.9341 71.329 89.8837C71.2813 89.8339 71.2445 89.7821 71.2186 89.728L71.4124 89.6191C71.4304 89.6479 71.4534 89.6811 71.4816 89.7186C71.5097 89.7567 71.5498 89.7912 71.602 89.822C71.6547 89.8536 71.7258 89.8736 71.8152 89.8823C71.9349 89.8938 72.0365 89.8746 72.1199 89.8247C72.2034 89.7747 72.2511 89.6885 72.2632 89.5659L72.2924 89.267L72.2731 89.2652C72.2538 89.2904 72.2267 89.3213 72.192 89.3579C72.1579 89.3939 72.1108 89.4245 72.0505 89.4496C71.991 89.4742 71.9129 89.4818 71.8164 89.4725C71.6968 89.4609 71.5921 89.4224 71.5024 89.3571C71.4133 89.2917 71.3464 89.2028 71.3016 89.0902C71.2574 88.9776 71.2429 88.8447 71.2579 88.6915C71.2726 88.5408 71.3122 88.4121 71.3765 88.3056C71.441 88.1983 71.5238 88.1187 71.625 88.0666C71.7263 88.0138 71.8393 87.9935 71.9641 88.0055C72.0606 88.0148 72.1356 88.0382 72.1891 88.0756C72.2433 88.1124 72.2835 88.1524 72.3098 88.1955C72.3368 88.2381 72.3574 88.273 72.3716 88.3001L72.3948 88.3024L72.4177 88.0687L72.6377 88.0899L72.4894 89.6032C72.477 89.7296 72.438 89.8296 72.3723 89.9032C72.3072 89.9775 72.2243 90.0285 72.1235 90.0561C72.0234 90.0845 71.9141 90.0929 71.7957 90.0815ZM71.8672 89.2724C71.9586 89.2812 72.0378 89.2679 72.1049 89.2325C72.172 89.1971 72.2258 89.142 72.2662 89.0673C72.3067 88.9926 72.3322 88.9009 72.3429 88.7924C72.3533 88.6864 72.3463 88.5913 72.3221 88.5071C72.2979 88.4229 72.2565 88.3548 72.198 88.3027C72.1395 88.2506 72.0639 88.2201 71.9712 88.2112C71.8747 88.2019 71.7919 88.2184 71.7229 88.2607C71.6544 88.3031 71.6001 88.3636 71.5599 88.4422C71.5204 88.5209 71.4957 88.61 71.486 88.7096C71.476 88.8118 71.4832 88.9037 71.5077 88.9853C71.5328 89.0664 71.5751 89.1324 71.6344 89.1832C71.6944 89.2335 71.772 89.2632 71.8672 89.2724Z" fill="#FFBFF9"/>
<path d="M73.5399 89.7497L74.1112 87.8623L74.776 88.0605C74.9085 88.1 75.0108 88.1554 75.0831 88.2265C75.1556 88.297 75.2013 88.3766 75.2204 88.4654C75.2396 88.5535 75.2353 88.6436 75.2074 88.7358C75.1828 88.8169 75.148 88.8795 75.1029 88.9237C75.0584 88.968 75.008 88.9985 74.9517 89.0152C74.896 89.0321 74.8386 89.0398 74.7797 89.0383L74.7741 89.0567C74.8312 89.0778 74.8835 89.1155 74.9312 89.1699C74.9788 89.2243 75.0121 89.2918 75.0308 89.3724C75.0496 89.453 75.044 89.5431 75.0138 89.6427C74.9852 89.7373 74.9378 89.8159 74.8716 89.8786C74.8054 89.9412 74.7188 89.9807 74.612 89.9971C74.5051 90.0134 74.3768 89.9993 74.227 89.9546L73.5399 89.7497ZM73.8315 89.6156L74.2883 89.7519C74.4388 89.7967 74.5543 89.7997 74.6349 89.7608C74.7163 89.7214 74.7696 89.6603 74.7947 89.5773C74.814 89.5134 74.8155 89.4495 74.799 89.3857C74.7828 89.3212 74.7493 89.2637 74.6985 89.213C74.6478 89.1617 74.5811 89.1237 74.4981 89.099L74.0301 88.9595L73.8315 89.6156ZM74.0904 88.7604L74.5175 88.8878C74.5868 88.9084 74.6534 88.9136 74.7173 88.9031C74.7819 88.8929 74.838 88.8681 74.8856 88.8287C74.9339 88.7896 74.9681 88.7368 74.9882 88.6704C75.0133 88.5875 75.0055 88.5085 74.9648 88.4334C74.9243 88.3576 74.8409 88.301 74.7146 88.2633L74.2801 88.1337L74.0904 88.7604Z" fill="#FFBFF9"/>
<path d="M76.2815 90.099L76.6461 89.3038L76.8544 89.3978L76.2375 90.7431L76.0293 90.6491L76.1337 90.4214L76.1196 90.415C76.0565 90.4689 75.9804 90.5047 75.8914 90.5223C75.8026 90.5393 75.7071 90.5247 75.6047 90.4785C75.52 90.4402 75.4531 90.3878 75.4041 90.3212C75.3554 90.2541 75.3293 90.1747 75.3259 90.0829C75.3228 89.9906 75.3475 89.8872 75.4 89.7728L75.7919 88.9179L76.0002 89.012L75.6146 89.8528C75.5697 89.9509 75.5614 90.0416 75.59 90.125C75.6191 90.2086 75.6769 90.27 75.7634 90.3091C75.8151 90.3324 75.8738 90.3431 75.9394 90.341C76.0056 90.3392 76.0693 90.3193 76.1307 90.2815C76.1927 90.2439 76.2429 90.1831 76.2815 90.099Z" fill="#FFBFF9"/>
<path d="M77.035 91.2354C76.9299 91.1699 76.8538 91.0858 76.8066 90.9829C76.7598 90.8796 76.7442 90.7654 76.7599 90.6403C76.7759 90.5148 76.8258 90.3857 76.9097 90.2531C76.9928 90.1216 77.0876 90.0216 77.1942 89.9531C77.3008 89.8847 77.4113 89.8493 77.5256 89.8471C77.64 89.8448 77.7502 89.8768 77.8565 89.9429C77.9386 89.994 77.9949 90.048 78.0254 90.1048C78.0567 90.1615 78.0742 90.2148 78.0777 90.2647C78.0821 90.3144 78.0846 90.3545 78.0851 90.3851L78.1015 90.3954L78.491 89.7791L78.6849 89.8998L77.6297 91.5693L77.4425 91.4527L77.5641 91.2603L77.5411 91.246C77.5124 91.2599 77.4739 91.2761 77.4257 91.2945C77.3778 91.3124 77.3208 91.3198 77.2549 91.3166C77.1894 91.3129 77.1161 91.2858 77.035 91.2354ZM77.1705 91.0789C77.2483 91.1273 77.3267 91.1481 77.4058 91.1413C77.4852 91.134 77.5615 91.1031 77.6348 91.0488C77.7084 90.9939 77.7751 90.9191 77.8349 90.8246C77.8939 90.7311 77.9319 90.6408 77.9489 90.5536C77.9661 90.4659 77.9603 90.3858 77.9314 90.3133C77.9028 90.2402 77.8491 90.1791 77.7702 90.13C77.6881 90.0789 77.6064 90.0572 77.5252 90.065C77.4449 90.0725 77.3686 90.1034 77.2962 90.1575C77.2247 90.2115 77.1612 90.2824 77.1055 90.3705C77.0492 90.4596 77.0117 90.5491 76.9931 90.639C76.9753 90.7286 76.98 90.8118 77.0071 90.8885C77.035 90.965 77.0895 91.0284 77.1705 91.0789Z" fill="#FFBFF9"/>
<path d="M78.0344 92.621C77.9496 92.5507 77.8858 92.4794 77.8429 92.4072C77.7997 92.3354 77.7725 92.2652 77.7612 92.1966C77.75 92.1288 77.749 92.0653 77.7583 92.0062L77.9803 92.0246C77.9788 92.0584 77.979 92.0987 77.9809 92.1455C77.9825 92.1927 77.996 92.2436 78.0217 92.2983C78.0473 92.3538 78.0947 92.4102 78.1637 92.4673C78.256 92.5438 78.3508 92.5847 78.4481 92.5901C78.5454 92.5955 78.6338 92.551 78.7133 92.4564L78.9072 92.2259L78.8923 92.2136C78.862 92.2236 78.8221 92.234 78.7726 92.2448C78.724 92.2555 78.6677 92.2544 78.6036 92.2414C78.5405 92.2284 78.4717 92.1911 78.3973 92.1294C78.305 92.0529 78.2404 91.9626 78.2034 91.8584C78.1669 91.7547 78.1621 91.6437 78.189 91.5256C78.2164 91.408 78.2798 91.29 78.3792 91.1718C78.4769 91.0556 78.5826 90.9714 78.6963 90.9193C78.8104 90.8668 78.924 90.8473 79.0372 90.8608C79.1508 90.8739 79.2558 90.9203 79.352 91.0001C79.4264 91.0617 79.4751 91.123 79.4981 91.1838C79.522 91.2445 79.5325 91.3 79.5298 91.3504C79.5279 91.4006 79.5251 91.441 79.5215 91.4713L79.5393 91.4861L79.6909 91.3059L79.8606 91.4465L78.8791 92.6137C78.797 92.7112 78.708 92.772 78.612 92.7961C78.5161 92.8211 78.4186 92.8168 78.3197 92.7833C78.2208 92.7507 78.1257 92.6966 78.0344 92.621ZM78.5528 91.9925C78.6233 92.0509 78.6963 92.0842 78.7718 92.0925C78.8474 92.1007 78.9231 92.0853 78.9989 92.0462C79.0747 92.0071 79.1479 91.9457 79.2183 91.8619C79.287 91.7802 79.3353 91.6977 79.3631 91.6146C79.3909 91.5315 79.3954 91.4521 79.3766 91.3764C79.3577 91.3006 79.3126 91.2331 79.2412 91.1739C79.1667 91.1123 79.089 91.0796 79.0079 91.0759C78.9273 91.0727 78.848 91.0923 78.7702 91.1348C78.6929 91.1777 78.6219 91.2375 78.5573 91.3144C78.491 91.3932 78.4448 91.4731 78.4187 91.5543C78.3935 91.6353 78.391 91.7134 78.4111 91.7886C78.4321 91.8637 78.4794 91.9317 78.5528 91.9925Z" fill="#FFBFF9"/>
<path d="M79.6144 93.3429C79.5172 93.2382 79.4566 93.1265 79.4327 93.0079C79.4097 92.8894 79.4212 92.7712 79.4673 92.6532C79.5142 92.5352 79.5938 92.425 79.706 92.3224C79.8182 92.2198 79.9359 92.1497 80.0591 92.112C80.1833 92.0744 80.3033 92.0702 80.4192 92.0994C80.536 92.1287 80.6399 92.1924 80.731 92.2906C80.7836 92.3472 80.826 92.4118 80.8582 92.4844C80.8904 92.557 80.9061 92.6355 80.9054 92.7199C80.9051 92.8039 80.8825 92.8913 80.8376 92.982C80.7927 93.0728 80.7191 93.165 80.6169 93.2584L80.5456 93.3236L79.7679 92.4856L79.9133 92.3526L80.5334 93.0207C80.5952 92.9642 80.639 92.9015 80.6647 92.8327C80.6909 92.7643 80.6972 92.6948 80.6836 92.6244C80.6705 92.5544 80.6359 92.4892 80.5798 92.4288C80.5181 92.3623 80.448 92.3199 80.3697 92.3017C80.2922 92.2836 80.215 92.2857 80.1382 92.308C80.0613 92.3303 79.9927 92.369 79.9323 92.4242L79.8354 92.5129C79.7526 92.5885 79.6957 92.6668 79.6644 92.7477C79.6341 92.8286 79.6276 92.9083 79.6449 92.9866C79.6628 93.0645 79.703 93.1372 79.7656 93.2047C79.8063 93.2486 79.8493 93.2826 79.8945 93.3066C79.9406 93.3308 79.9883 93.3443 80.0376 93.3472C80.0874 93.3497 80.1378 93.3406 80.189 93.32L80.2931 93.5231C80.2222 93.5565 80.1472 93.5723 80.0682 93.5705C79.9896 93.5682 79.9113 93.5482 79.8333 93.5105C79.7557 93.4724 79.6828 93.4165 79.6144 93.3429Z" fill="#FFBFF9"/>
<path d="M81.7831 93.5974L81.6279 93.7127L81.1655 93.0995L81.3207 92.9842L81.7831 93.5974ZM81.7411 92.9507L81.8782 93.1325L80.7419 93.9767C80.6901 94.0151 80.657 94.0514 80.6423 94.0855C80.6286 94.1198 80.6262 94.152 80.6352 94.1821C80.6452 94.2124 80.6602 94.2409 80.6803 94.2676C80.6954 94.2877 80.7089 94.3033 80.7206 94.3146C80.7329 94.3255 80.7427 94.3343 80.7501 94.3408L80.6134 94.5001C80.5994 94.4912 80.5818 94.4774 80.5605 94.4588C80.5387 94.4406 80.515 94.4145 80.4894 94.3806C80.4507 94.3292 80.4239 94.2707 80.4089 94.2048C80.3944 94.1395 80.3977 94.0737 80.4188 94.0076C80.4403 93.9419 80.4858 93.8833 80.5551 93.8318L81.7411 92.9507Z" fill="#FFBFF9"/>
</g>
<path d="M236.354 101.354C236.549 101.158 236.549 100.842 236.354 100.646L233.172 97.4645C232.976 97.2692 232.66 97.2692 232.464 97.4645C232.269 97.6597 232.269 97.9763 232.464 98.1716L235.293 101L232.464 103.828C232.269 104.024 232.269 104.34 232.464 104.536C232.66 104.731 232.976 104.731 233.172 104.536L236.354 101.354ZM218.737 101.5L229.069 101.5L229.069 100.5L218.737 100.5L218.737 101.5ZM229.069 101.5L236 101.5L236 100.5L229.069 100.5L229.069 101.5Z" fill="url(#paint3_linear_777_250)"/>
<path d="M206.822 158V158.5H206.495L206.363 158.201L206.822 158ZM235.634 157.646C235.83 157.842 235.83 158.158 235.634 158.354L232.452 161.536C232.257 161.731 231.94 161.731 231.745 161.536C231.55 161.34 231.55 161.024 231.745 160.828L234.574 158L231.745 155.172C231.55 154.976 231.55 154.66 231.745 154.464C231.94 154.269 232.257 154.269 232.452 154.464L235.634 157.646ZM195.458 130.799L207.28 157.799L206.363 158.201L194.542 131.201L195.458 130.799ZM206.822 157.5H235.281V158.5H206.822V157.5Z" fill="url(#paint4_linear_777_250)"/>
<path d="M206.822 42V41.5H206.495L206.363 41.7995L206.822 42ZM235.634 42.3536C235.83 42.1583 235.83 41.8417 235.634 41.6464L232.452 38.4645C232.257 38.2692 231.94 38.2692 231.745 38.4645C231.55 38.6597 231.55 38.9763 231.745 39.1716L234.574 42L231.745 44.8284C231.55 45.0237 231.55 45.3403 231.745 45.5355C231.94 45.7308 232.257 45.7308 232.452 45.5355L235.634 42.3536ZM195.458 69.2005L207.28 42.2005L206.363 41.7995L194.542 68.7995L195.458 69.2005ZM206.822 42.5H235.281V41.5H206.822V42.5Z" fill="url(#paint5_linear_777_250)"/>
<path d="M247.736 41.344C247.736 43.544 247.544 44.056 245.616 44.056C243.68 44.056 243.472 43.544 243.472 41.344C243.472 39.04 243.792 38.616 245.6 38.616C247.52 38.616 247.736 39.184 247.736 41.344ZM247.176 41.344H247.184C247.184 39.4 247.048 39.064 245.6 39.064C244.24 39.064 244.032 39.36 244.032 41.344C244.032 43.312 244.144 43.6 245.608 43.6C247.112 43.6 247.176 43.24 247.176 41.344ZM252.099 44H250.883V43.688L251.075 43.64C251.123 43.632 251.187 43.608 251.187 43.544C251.187 43.504 251.179 43.488 251.147 43.44L250.419 42.328C250.355 42.232 250.307 42.2 250.219 42.2C250.139 42.2 250.091 42.232 250.027 42.328L249.299 43.44C249.275 43.488 249.267 43.504 249.267 43.544C249.267 43.608 249.323 43.632 249.371 43.64L249.563 43.688V44H248.371V43.688L248.579 43.64C248.675 43.616 248.699 43.576 248.747 43.496L249.691 42.064L248.779 40.784C248.723 40.704 248.707 40.664 248.619 40.64L248.419 40.592V40.28H249.603V40.592L249.411 40.64C249.299 40.656 249.275 40.736 249.339 40.824L249.995 41.816C250.083 41.944 250.131 41.984 250.219 41.984C250.315 41.984 250.355 41.928 250.419 41.832L251.083 40.824C251.139 40.744 251.115 40.664 251.019 40.64L250.819 40.592V40.28H251.987V40.592L251.779 40.64C251.667 40.664 251.659 40.704 251.611 40.784L250.755 42.064L251.723 43.496C251.779 43.576 251.803 43.616 251.891 43.64L252.099 43.688V44ZM252.818 40.296C252.818 38.856 253.434 38.624 254.77 38.624C255.738 38.624 256.274 38.728 256.57 39.152C256.93 39.672 256.898 40.72 256.898 41.344C256.898 41.96 256.93 43.008 256.57 43.528C256.274 43.952 255.738 44.056 254.77 44.056C253.85 44.056 253.106 43.864 253.106 43.864L253.178 43.432C253.178 43.432 253.962 43.608 254.762 43.608C255.45 43.608 255.874 43.528 256.09 43.224C256.346 42.856 256.322 42.104 256.322 41.664C256.322 41.592 256.322 41.512 256.202 41.512C256.138 41.512 256.098 41.544 256.05 41.576L255.602 41.88C255.602 41.88 255.106 41.976 254.77 41.976C253.274 41.976 252.818 41.728 252.818 40.296ZM253.386 40.304C253.386 41.472 253.794 41.52 254.826 41.52C255.61 41.52 256.33 41.288 256.33 41.288C256.338 41.032 256.338 41.088 256.33 40.568C256.306 39.48 256.186 39.088 254.85 39.08C253.818 39.072 253.386 39.128 253.386 40.304ZM261.541 44H258.757V43.552H259.909V39.112H258.605V38.672H260.453V43.552H261.541V44ZM267.32 42.384C267.32 43.824 266.712 44.056 265.376 44.056C264.408 44.056 263.872 43.952 263.576 43.528C263.216 43.008 263.24 41.96 263.24 41.344C263.24 40.72 263.216 39.672 263.576 39.152C263.872 38.728 264.408 38.624 265.376 38.624C266.296 38.624 267.04 38.816 267.04 38.816L266.968 39.248C266.968 39.248 266.184 39.072 265.384 39.072C264.696 39.072 264.264 39.152 264.056 39.456C263.8 39.824 263.824 40.576 263.824 41.016C263.824 41.088 263.824 41.168 263.944 41.168C264.008 41.168 264.048 41.136 264.096 41.104L264.544 40.8C264.544 40.8 265.032 40.704 265.376 40.704C266.872 40.704 267.32 40.952 267.32 42.384ZM266.76 42.376C266.76 41.208 266.352 41.16 265.32 41.16C264.536 41.16 263.816 41.392 263.816 41.392C263.808 41.648 263.808 41.592 263.816 42.112C263.84 43.2 263.96 43.592 265.296 43.6C266.328 43.608 266.76 43.552 266.76 42.376ZM270.499 38.648L270.467 39.016C270.467 39.016 270.211 38.984 269.963 38.984C269.715 38.984 269.467 39 269.355 39.12C269.235 39.256 269.219 39.512 269.219 39.784V40.28H270.395V40.672H269.219V43.496C269.219 43.6 269.235 43.624 269.331 43.64L269.539 43.68V44H268.395V43.688L268.603 43.648C268.699 43.624 268.715 43.6 268.715 43.504V40.672H268.011V40.28H268.715V39.776C268.715 39.376 268.739 38.992 269.075 38.76C269.275 38.616 269.595 38.592 269.891 38.592C270.171 38.592 270.499 38.648 270.499 38.648ZM274.575 38.672V39.136H271.559V40.776C271.559 40.872 271.599 40.936 271.687 40.936C271.751 40.936 271.783 40.912 271.823 40.88L272.263 40.576C272.263 40.576 272.599 40.512 272.935 40.512C274.215 40.512 274.887 40.784 274.887 42.28C274.887 43.704 274.231 44.056 272.919 44.056C271.927 44.056 271.135 43.88 271.135 43.88L271.199 43.44C271.199 43.44 272.039 43.6 272.847 43.6C273.983 43.6 274.335 43.312 274.335 42.288C274.335 41.136 273.823 40.976 272.863 40.976C272.079 40.976 271.407 41.264 271.407 41.264L271.071 41.112V38.672H274.575ZM276.754 39.28H276.122V38.672H276.754V39.28ZM276.778 44.848C276.778 45.2 276.634 45.576 275.858 45.576C275.618 45.576 275.274 45.528 275.274 45.528L275.314 45.152C275.314 45.152 275.522 45.176 275.642 45.176C276.194 45.176 276.274 45.12 276.274 44.68V40.784C276.274 40.68 276.258 40.656 276.162 40.64L275.954 40.6V40.28H276.778V44.848ZM277.742 41.72L280.19 38.672H280.902L278.334 41.76C278.254 41.856 278.19 41.928 278.19 42.064C278.19 42.232 278.318 42.312 278.494 42.312H280.854V40.352H281.39V42.312H282.302V42.768H281.39V44H280.854V42.768H277.742V41.72ZM283.297 44V43.104C283.297 41.96 283.745 41.784 284.529 41.472L285.713 41C286.313 40.76 286.537 40.592 286.537 40.04C286.537 39.304 286.273 39.072 285.217 39.072C284.265 39.072 283.425 39.272 283.425 39.272L283.345 38.824C283.345 38.824 284.169 38.616 285.249 38.616C286.537 38.616 287.089 38.912 287.089 39.976C287.089 41.128 286.545 41.2 285.385 41.656C284.153 42.144 283.825 42.184 283.825 43.072V43.528H287.169V44H283.297ZM288.228 44V43.272H289.036V44H288.228ZM289.822 44V43.272H290.63V44H289.822ZM291.415 44V43.272H292.223V44H291.415Z" fill="#DECEFF" fill-opacity="0.5"/>
<path d="M247.736 100.429C247.736 102.629 247.544 103.141 245.616 103.141C243.68 103.141 243.472 102.629 243.472 100.429C243.472 98.1254 243.792 97.7014 245.6 97.7014C247.52 97.7014 247.736 98.2694 247.736 100.429ZM247.176 100.429H247.184C247.184 98.4854 247.048 98.1494 245.6 98.1494C244.24 98.1494 244.032 98.4454 244.032 100.429C244.032 102.397 244.144 102.685 245.608 102.685C247.112 102.685 247.176 102.325 247.176 100.429ZM252.099 103.085H250.883V102.773L251.075 102.725C251.123 102.717 251.187 102.693 251.187 102.629C251.187 102.589 251.179 102.573 251.147 102.525L250.419 101.413C250.355 101.317 250.307 101.285 250.219 101.285C250.139 101.285 250.091 101.317 250.027 101.413L249.299 102.525C249.275 102.573 249.267 102.589 249.267 102.629C249.267 102.693 249.323 102.717 249.371 102.725L249.563 102.773V103.085H248.371V102.773L248.579 102.725C248.675 102.701 248.699 102.661 248.747 102.581L249.691 101.149L248.779 99.8694C248.723 99.7894 248.707 99.7494 248.619 99.7254L248.419 99.6774V99.3654H249.603V99.6774L249.411 99.7254C249.299 99.7414 249.275 99.8214 249.339 99.9094L249.995 100.901C250.083 101.029 250.131 101.069 250.219 101.069C250.315 101.069 250.355 101.013 250.419 100.917L251.083 99.9094C251.139 99.8294 251.115 99.7494 251.019 99.7254L250.819 99.6774V99.3654H251.987V99.6774L251.779 99.7254C251.667 99.7494 251.659 99.7894 251.611 99.8694L250.755 101.149L251.723 102.581C251.779 102.661 251.803 102.701 251.891 102.725L252.099 102.773V103.085ZM252.818 99.3814C252.818 97.9414 253.434 97.7094 254.77 97.7094C255.738 97.7094 256.274 97.8134 256.57 98.2374C256.93 98.7574 256.898 99.8054 256.898 100.429C256.898 101.045 256.93 102.093 256.57 102.613C256.274 103.037 255.738 103.141 254.77 103.141C253.85 103.141 253.106 102.949 253.106 102.949L253.178 102.517C253.178 102.517 253.962 102.693 254.762 102.693C255.45 102.693 255.874 102.613 256.09 102.309C256.346 101.941 256.322 101.189 256.322 100.749C256.322 100.677 256.322 100.597 256.202 100.597C256.138 100.597 256.098 100.629 256.05 100.661L255.602 100.965C255.602 100.965 255.106 101.061 254.77 101.061C253.274 101.061 252.818 100.813 252.818 99.3814ZM253.386 99.3894C253.386 100.557 253.794 100.605 254.826 100.605C255.61 100.605 256.33 100.373 256.33 100.373C256.338 100.117 256.338 100.173 256.33 99.6534C256.306 98.5654 256.186 98.1734 254.85 98.1654C253.818 98.1574 253.386 98.2134 253.386 99.3894ZM261.541 103.085H258.757V102.637H259.909V98.1974H258.605V97.7574H260.453V102.637H261.541V103.085ZM267.32 101.469C267.32 102.909 266.712 103.141 265.376 103.141C264.408 103.141 263.872 103.037 263.576 102.613C263.216 102.093 263.24 101.045 263.24 100.429C263.24 99.8054 263.216 98.7574 263.576 98.2374C263.872 97.8134 264.408 97.7094 265.376 97.7094C266.296 97.7094 267.04 97.9014 267.04 97.9014L266.968 98.3334C266.968 98.3334 266.184 98.1574 265.384 98.1574C264.696 98.1574 264.264 98.2374 264.056 98.5414C263.8 98.9094 263.824 99.6614 263.824 100.101C263.824 100.173 263.824 100.253 263.944 100.253C264.008 100.253 264.048 100.221 264.096 100.189L264.544 99.8854C264.544 99.8854 265.032 99.7894 265.376 99.7894C266.872 99.7894 267.32 100.037 267.32 101.469ZM266.76 101.461C266.76 100.293 266.352 100.245 265.32 100.245C264.536 100.245 263.816 100.477 263.816 100.477C263.808 100.733 263.808 100.677 263.816 101.197C263.84 102.285 263.96 102.677 265.296 102.685C266.328 102.693 266.76 102.637 266.76 101.461ZM270.499 97.7334L270.467 98.1014C270.467 98.1014 270.211 98.0694 269.963 98.0694C269.715 98.0694 269.467 98.0854 269.355 98.2054C269.235 98.3414 269.219 98.5974 269.219 98.8694V99.3654H270.395V99.7574H269.219V102.581C269.219 102.685 269.235 102.709 269.331 102.725L269.539 102.765V103.085H268.395V102.773L268.603 102.733C268.699 102.709 268.715 102.685 268.715 102.589V99.7574H268.011V99.3654H268.715V98.8614C268.715 98.4614 268.739 98.0774 269.075 97.8454C269.275 97.7014 269.595 97.6774 269.891 97.6774C270.171 97.6774 270.499 97.7334 270.499 97.7334ZM274.575 97.7574V98.2214H271.559V99.8614C271.559 99.9574 271.599 100.021 271.687 100.021C271.751 100.021 271.783 99.9974 271.823 99.9654L272.263 99.6614C272.263 99.6614 272.599 99.5974 272.935 99.5974C274.215 99.5974 274.887 99.8694 274.887 101.365C274.887 102.789 274.231 103.141 272.919 103.141C271.927 103.141 271.135 102.965 271.135 102.965L271.199 102.525C271.199 102.525 272.039 102.685 272.847 102.685C273.983 102.685 274.335 102.397 274.335 101.373C274.335 100.221 273.823 100.061 272.863 100.061C272.079 100.061 271.407 100.349 271.407 100.349L271.071 100.197V97.7574H274.575ZM276.754 98.3654H276.122V97.7574H276.754V98.3654ZM276.778 103.933C276.778 104.285 276.634 104.661 275.858 104.661C275.618 104.661 275.274 104.613 275.274 104.613L275.314 104.237C275.314 104.237 275.522 104.261 275.642 104.261C276.194 104.261 276.274 104.205 276.274 103.765V99.8694C276.274 99.7654 276.258 99.7414 276.162 99.7254L275.954 99.6854V99.3654H276.778V103.933ZM277.742 100.805L280.19 97.7574H280.902L278.334 100.845C278.254 100.941 278.19 101.013 278.19 101.149C278.19 101.317 278.318 101.397 278.494 101.397H280.854V99.4374H281.39V101.397H282.302V101.853H281.39V103.085H280.854V101.853H277.742V100.805ZM283.297 103.085V102.189C283.297 101.045 283.745 100.869 284.529 100.557L285.713 100.085C286.313 99.8454 286.537 99.6774 286.537 99.1254C286.537 98.3894 286.273 98.1574 285.217 98.1574C284.265 98.1574 283.425 98.3574 283.425 98.3574L283.345 97.9094C283.345 97.9094 284.169 97.7014 285.249 97.7014C286.537 97.7014 287.089 97.9974 287.089 99.0614C287.089 100.213 286.545 100.285 285.385 100.741C284.153 101.229 283.825 101.269 283.825 102.157V102.613H287.169V103.085H283.297ZM288.228 103.085V102.357H289.036V103.085H288.228ZM289.822 103.085V102.357H290.63V103.085H289.822ZM291.415 103.085V102.357H292.223V103.085H291.415Z" fill="#DECEFF" fill-opacity="0.5"/>
<path d="M247.736 156.922C247.736 159.122 247.544 159.634 245.616 159.634C243.68 159.634 243.472 159.122 243.472 156.922C243.472 154.618 243.792 154.194 245.6 154.194C247.52 154.194 247.736 154.762 247.736 156.922ZM247.176 156.922H247.184C247.184 154.978 247.048 154.642 245.6 154.642C244.24 154.642 244.032 154.938 244.032 156.922C244.032 158.89 244.144 159.178 245.608 159.178C247.112 159.178 247.176 158.818 247.176 156.922ZM252.099 159.578H250.883V159.266L251.075 159.218C251.123 159.21 251.187 159.186 251.187 159.122C251.187 159.082 251.179 159.066 251.147 159.018L250.419 157.906C250.355 157.81 250.307 157.778 250.219 157.778C250.139 157.778 250.091 157.81 250.027 157.906L249.299 159.018C249.275 159.066 249.267 159.082 249.267 159.122C249.267 159.186 249.323 159.21 249.371 159.218L249.563 159.266V159.578H248.371V159.266L248.579 159.218C248.675 159.194 248.699 159.154 248.747 159.074L249.691 157.642L248.779 156.362C248.723 156.282 248.707 156.242 248.619 156.218L248.419 156.17V155.858H249.603V156.17L249.411 156.218C249.299 156.234 249.275 156.314 249.339 156.402L249.995 157.394C250.083 157.522 250.131 157.562 250.219 157.562C250.315 157.562 250.355 157.506 250.419 157.41L251.083 156.402C251.139 156.322 251.115 156.242 251.019 156.218L250.819 156.17V155.858H251.987V156.17L251.779 156.218C251.667 156.242 251.659 156.282 251.611 156.362L250.755 157.642L251.723 159.074C251.779 159.154 251.803 159.194 251.891 159.218L252.099 159.266V159.578ZM256.034 157.722C256.034 159.298 255.778 159.634 254.346 159.634C252.914 159.634 252.658 159.298 252.658 157.722C252.658 156.146 252.914 155.81 254.346 155.81C255.778 155.81 256.034 156.146 256.034 157.722ZM255.506 157.722C255.506 156.37 255.402 156.21 254.346 156.21C253.29 156.21 253.186 156.37 253.186 157.722C253.186 159.074 253.29 159.234 254.346 159.234C255.402 159.234 255.506 159.074 255.506 157.722ZM256.998 155.874C256.998 154.434 257.613 154.202 258.95 154.202C259.918 154.202 260.454 154.306 260.75 154.73C261.11 155.25 261.078 156.298 261.078 156.922C261.078 157.538 261.11 158.586 260.75 159.106C260.454 159.53 259.918 159.634 258.95 159.634C258.03 159.634 257.286 159.442 257.286 159.442L257.358 159.01C257.358 159.01 258.142 159.186 258.942 159.186C259.63 159.186 260.054 159.106 260.27 158.802C260.526 158.434 260.502 157.682 260.502 157.242C260.502 157.17 260.502 157.09 260.382 157.09C260.318 157.09 260.278 157.122 260.23 157.154L259.782 157.458C259.782 157.458 259.286 157.554 258.95 157.554C257.454 157.554 256.998 157.306 256.998 155.874ZM257.566 155.882C257.566 157.05 257.974 157.098 259.006 157.098C259.79 157.098 260.51 156.866 260.51 156.866C260.518 156.61 260.518 156.666 260.51 156.146C260.486 155.058 260.366 154.666 259.03 154.658C257.998 154.65 257.566 154.706 257.566 155.882ZM263.104 159.578H261.96V159.266L262.168 159.226C262.264 159.202 262.28 159.178 262.28 159.082V154.754C262.28 154.65 262.264 154.626 262.168 154.61L261.96 154.57V154.25H262.784V159.074C262.784 159.178 262.8 159.202 262.896 159.218L263.104 159.258V159.578ZM265.869 155.81C266.701 155.81 266.837 155.962 266.997 156.098C267.117 156.21 267.165 156.17 267.269 156.114L267.677 155.874C267.893 155.826 268.213 155.81 268.445 155.81C269.549 155.81 269.837 156.09 269.837 157.17V159.082C269.837 159.178 269.853 159.21 269.949 159.226L270.157 159.266V159.586H269.013V159.266L269.221 159.226C269.317 159.21 269.333 159.186 269.333 159.082V157.274C269.333 156.386 269.181 156.218 268.301 156.218C267.893 156.218 267.509 156.282 267.109 156.338C267.205 156.538 267.261 156.738 267.261 156.962V159.074C267.261 159.178 267.277 159.202 267.373 159.218L267.581 159.258V159.578H266.437V159.266L266.645 159.226C266.741 159.202 266.757 159.178 266.757 159.082V157.274C266.757 156.386 266.605 156.218 265.725 156.218C265.165 156.218 264.669 156.346 264.669 156.346V159.074C264.669 159.178 264.685 159.202 264.781 159.218L264.989 159.258V159.578H263.845V159.266L264.053 159.226C264.149 159.202 264.165 159.178 264.165 159.082V156.362C264.165 156.258 264.149 156.234 264.053 156.218L263.845 156.178V155.858H264.589L264.621 156.058C264.629 156.106 264.637 156.186 264.749 156.186C264.805 156.186 264.861 156.146 264.909 156.114L265.293 155.858C265.293 155.858 265.653 155.81 265.869 155.81ZM270.941 154.722V154.25H274.917L274.933 154.682C274.981 155.81 274.781 156.066 273.989 156.754C273.269 157.394 272.909 157.762 272.909 158.754V159.578H272.349V158.754C272.349 157.642 272.661 157.194 273.509 156.45C274.221 155.826 274.373 155.594 274.357 155.01L274.349 154.722H270.941ZM276.376 154.25H279.912V155.066L278.32 156.378C278.28 156.402 278.256 156.442 278.256 156.49C278.264 156.57 278.32 156.61 278.416 156.602C278.472 156.602 278.616 156.586 278.744 156.586C279.736 156.562 280.2 157.082 280.2 158.026C280.2 159.41 279.224 159.634 278.08 159.634C277.176 159.634 276.448 159.466 276.448 159.466L276.512 159.026C276.512 159.026 277.304 159.17 278.112 159.17C279.024 159.17 279.648 159.002 279.648 158.082C279.648 157.37 279.416 157.01 278.68 157.01C278.304 157.01 277.864 157.042 277.864 157.042L277.616 156.458L279.384 154.986C279.44 154.938 279.472 154.898 279.464 154.818C279.448 154.73 279.368 154.714 279.28 154.714H276.376V154.25ZM284.963 159.578H282.179V159.13H283.331V154.69H282.027V154.25H283.875V159.13H284.963V159.578ZM286.494 159.578V158.85H287.302V159.578H286.494ZM288.087 159.578V158.85H288.895V159.578H288.087ZM289.681 159.578V158.85H290.489V159.578H289.681Z" fill="#DECEFF" fill-opacity="0.5"/>
<path d="M110.354 100.354C110.549 100.158 110.549 99.8417 110.354 99.6464L107.172 96.4645C106.976 96.2692 106.66 96.2692 106.465 96.4645C106.269 96.6597 106.269 96.9763 106.465 97.1716L109.293 100L106.465 102.828C106.269 103.024 106.269 103.34 106.465 103.536C106.66 103.731 106.976 103.731 107.172 103.536L110.354 100.354ZM103.174 100L103.174 100.5L103.174 100ZM93.0001 100.5L103.174 100.5L103.174 99.5L93.0001 99.5L93.0001 100.5ZM103.174 100.5L110 100.5L110 99.5L103.174 99.5L103.174 100.5Z" fill="url(#paint6_linear_777_250)"/>
<path d="M170.354 100.354C170.549 100.158 170.549 99.8417 170.354 99.6464L167.172 96.4645C166.976 96.2692 166.66 96.2692 166.464 96.4645C166.269 96.6597 166.269 96.9763 166.464 97.1716L169.293 100L166.464 102.828C166.269 103.024 166.269 103.34 166.464 103.536C166.66 103.731 166.976 103.731 167.172 103.536L170.354 100.354ZM163.174 100L163.174 100.5L163.174 100ZM153 100.5L163.174 100.5L163.174 99.5L153 99.5L153 100.5ZM163.174 100.5L170 100.5L170 99.5L163.174 99.5L163.174 100.5Z" fill="url(#paint7_linear_777_250)"/>
<rect x="116" y="83" width="32" height="34" rx="7" fill="url(#paint8_linear_777_250)" stroke="#6538C1" stroke-width="2"/>
<path d="M123.136 98.04C123.035 98.04 122.949 98.0053 122.88 97.936C122.811 97.8667 122.776 97.7813 122.776 97.68V92.784C122.776 92.6827 122.811 92.5973 122.88 92.528C122.949 92.4533 123.035 92.416 123.136 92.416H124.96C125.467 92.416 125.88 92.5013 126.2 92.672C126.52 92.8427 126.749 93.0613 126.888 93.328C127.027 93.5947 127.096 93.8827 127.096 94.192C127.096 94.5013 127.027 94.7893 126.888 95.056C126.749 95.3227 126.52 95.5413 126.2 95.712C125.88 95.8827 125.467 95.968 124.96 95.968H123.504V97.68C123.504 97.7813 123.467 97.8667 123.392 97.936C123.323 98.0053 123.237 98.04 123.136 98.04ZM124.888 95.28C125.432 95.28 125.813 95.176 126.032 94.968C126.256 94.76 126.368 94.5013 126.368 94.192C126.368 93.8827 126.256 93.624 126.032 93.416C125.813 93.208 125.432 93.104 124.888 93.104H123.504V95.28H124.888ZM128.305 98.04C128.203 98.04 128.118 98.0053 128.049 97.936C127.979 97.8667 127.945 97.7813 127.945 97.68V94.248C127.945 94.1467 127.979 94.0613 128.049 93.992C128.118 93.9173 128.203 93.88 128.305 93.88C128.406 93.88 128.491 93.9173 128.561 93.992C128.635 94.0613 128.673 94.1467 128.673 94.248V94.592C129.046 94.0907 129.465 93.84 129.929 93.84H129.969C130.07 93.84 130.153 93.8747 130.217 93.944C130.286 94.0133 130.321 94.0987 130.321 94.2C130.321 94.3013 130.286 94.384 130.217 94.448C130.147 94.512 130.059 94.544 129.953 94.544H129.913C129.657 94.544 129.422 94.608 129.209 94.736C128.995 94.8587 128.817 95.0293 128.673 95.248V97.68C128.673 97.7813 128.635 97.8667 128.561 97.936C128.491 98.0053 128.406 98.04 128.305 98.04ZM131.351 93.088C131.239 93.088 131.143 93.048 131.063 92.968C130.983 92.888 130.943 92.792 130.943 92.68V92.648C130.943 92.536 130.983 92.44 131.063 92.36C131.143 92.28 131.239 92.24 131.351 92.24H131.399C131.511 92.24 131.607 92.28 131.687 92.36C131.767 92.44 131.807 92.536 131.807 92.648V92.68C131.807 92.792 131.767 92.888 131.687 92.968C131.607 93.048 131.511 93.088 131.399 93.088H131.351ZM131.367 98.04C131.266 98.04 131.18 98.0053 131.111 97.936C131.042 97.8667 131.007 97.7813 131.007 97.68V94.248C131.007 94.1467 131.042 94.0613 131.111 93.992C131.18 93.9173 131.266 93.88 131.367 93.88C131.474 93.88 131.562 93.9147 131.631 93.984C131.7 94.0533 131.735 94.1413 131.735 94.248V97.68C131.735 97.7813 131.698 97.8667 131.623 97.936C131.554 98.0053 131.468 98.04 131.367 98.04ZM133.191 98C133.047 98 132.927 97.9627 132.831 97.888C132.735 97.8133 132.687 97.7093 132.687 97.576C132.687 97.4533 132.73 97.344 132.815 97.248L135.119 94.6H133.095C132.999 94.6 132.919 94.568 132.855 94.504C132.791 94.44 132.759 94.36 132.759 94.264C132.759 94.168 132.791 94.088 132.855 94.024C132.919 93.9547 132.999 93.92 133.095 93.92H135.519C135.658 93.92 135.77 93.9627 135.855 94.048C135.941 94.1333 135.983 94.2427 135.983 94.376C135.983 94.4987 135.946 94.6053 135.871 94.696L133.631 97.32H135.687C135.783 97.32 135.863 97.3547 135.927 97.424C135.997 97.488 136.031 97.568 136.031 97.664C136.031 97.76 135.997 97.84 135.927 97.904C135.863 97.968 135.783 98 135.687 98H133.191ZM138.808 98.08C138.157 98.08 137.648 97.896 137.28 97.528C136.917 97.1547 136.736 96.632 136.736 95.96C136.736 95.5813 136.805 95.232 136.944 94.912C137.082 94.592 137.296 94.3333 137.584 94.136C137.872 93.9387 138.226 93.84 138.648 93.84C139.042 93.84 139.384 93.9333 139.672 94.12C139.96 94.3013 140.178 94.5467 140.328 94.856C140.477 95.16 140.552 95.4933 140.552 95.856C140.552 95.9573 140.517 96.0427 140.448 96.112C140.384 96.1813 140.296 96.216 140.184 96.216H137.472C137.514 96.5893 137.653 96.88 137.888 97.088C138.122 97.296 138.45 97.4 138.872 97.4C139.096 97.4 139.29 97.3787 139.456 97.336C139.626 97.2933 139.792 97.232 139.952 97.152C139.994 97.1307 140.042 97.12 140.096 97.12C140.181 97.12 140.256 97.1493 140.32 97.208C140.384 97.2667 140.416 97.3413 140.416 97.432C140.416 97.5493 140.346 97.648 140.208 97.728C140 97.8453 139.794 97.9333 139.592 97.992C139.389 98.0507 139.128 98.08 138.808 98.08ZM139.832 95.624C139.816 95.3627 139.746 95.144 139.624 94.968C139.506 94.792 139.36 94.664 139.184 94.584C139.008 94.4987 138.829 94.456 138.648 94.456C138.466 94.456 138.288 94.4987 138.112 94.584C137.936 94.664 137.789 94.792 137.672 94.968C137.554 95.144 137.488 95.3627 137.472 95.624H139.832ZM124.688 108.04C124.469 108.04 124.304 107.917 124.192 107.672L122.216 102.88C122.2 102.837 122.192 102.792 122.192 102.744C122.192 102.632 122.224 102.544 122.288 102.48C122.352 102.411 122.44 102.376 122.552 102.376C122.627 102.376 122.693 102.4 122.752 102.448C122.816 102.491 122.864 102.549 122.896 102.624L124.776 107.312L126.656 102.624C126.688 102.549 126.733 102.491 126.792 102.448C126.856 102.4 126.925 102.376 127 102.376C127.112 102.376 127.2 102.411 127.264 102.48C127.328 102.544 127.36 102.632 127.36 102.744C127.36 102.792 127.352 102.837 127.336 102.88L125.36 107.672C125.248 107.917 125.083 108.04 124.864 108.04H124.688ZM128.789 108.08C128.555 108.08 128.336 108.032 128.133 107.936C127.936 107.84 127.779 107.701 127.661 107.52C127.544 107.333 127.485 107.12 127.485 106.88C127.485 106.485 127.64 106.171 127.949 105.936C128.264 105.701 128.723 105.584 129.325 105.584H130.293V105.52C130.293 105.168 130.205 104.915 130.029 104.76C129.859 104.605 129.589 104.528 129.221 104.528C129.019 104.528 128.837 104.544 128.677 104.576C128.523 104.608 128.349 104.656 128.157 104.72C128.115 104.731 128.08 104.736 128.053 104.736C127.973 104.736 127.904 104.707 127.845 104.648C127.787 104.589 127.757 104.517 127.757 104.432C127.757 104.288 127.827 104.187 127.965 104.128C128.419 103.936 128.88 103.84 129.349 103.84C129.717 103.84 130.027 103.915 130.277 104.064C130.533 104.213 130.72 104.408 130.837 104.648C130.96 104.883 131.021 105.139 131.021 105.416V107.68C131.021 107.781 130.984 107.867 130.909 107.936C130.84 108.005 130.755 108.04 130.653 108.04C130.552 108.04 130.467 108.005 130.397 107.936C130.328 107.867 130.293 107.781 130.293 107.68V107.472C129.899 107.877 129.397 108.08 128.789 108.08ZM129.061 107.44C129.296 107.44 129.523 107.384 129.741 107.272C129.96 107.155 130.144 107.011 130.293 106.84V106.168H129.421C128.616 106.168 128.213 106.379 128.213 106.8C128.213 106.992 128.277 107.147 128.405 107.264C128.539 107.381 128.757 107.44 129.061 107.44ZM133.602 108.08C133.309 108.08 133.053 108.011 132.834 107.872C132.621 107.733 132.455 107.544 132.338 107.304C132.226 107.064 132.17 106.8 132.17 106.512V104.24C132.17 104.139 132.205 104.053 132.274 103.984C132.349 103.915 132.437 103.88 132.538 103.88C132.639 103.88 132.725 103.915 132.794 103.984C132.863 104.053 132.898 104.139 132.898 104.24V106.432C132.898 107.083 133.191 107.408 133.778 107.408C134.045 107.408 134.282 107.339 134.49 107.2C134.703 107.061 134.903 106.875 135.09 106.64V104.24C135.09 104.139 135.125 104.053 135.194 103.984C135.269 103.915 135.357 103.88 135.458 103.88C135.559 103.88 135.645 103.915 135.714 103.984C135.783 104.053 135.818 104.139 135.818 104.24V107.672C135.818 107.773 135.783 107.861 135.714 107.936C135.645 108.005 135.559 108.04 135.458 108.04C135.357 108.04 135.269 108.005 135.194 107.936C135.125 107.861 135.09 107.773 135.09 107.672V107.344C134.887 107.568 134.669 107.747 134.434 107.88C134.199 108.013 133.922 108.08 133.602 108.08ZM137.445 108.04C137.344 108.04 137.258 108.005 137.189 107.936C137.12 107.867 137.085 107.781 137.085 107.68V102.488C137.085 102.387 137.12 102.301 137.189 102.232C137.258 102.157 137.344 102.12 137.445 102.12C137.552 102.12 137.64 102.155 137.709 102.224C137.778 102.293 137.813 102.381 137.813 102.488V107.68C137.813 107.781 137.776 107.867 137.701 107.936C137.632 108.005 137.546 108.04 137.445 108.04ZM140.485 108.08C139.707 108.08 139.317 107.728 139.317 107.024V104.544H138.749C138.707 104.544 138.669 104.531 138.637 104.504C138.611 104.472 138.597 104.435 138.597 104.392C138.597 104.339 138.621 104.293 138.669 104.256L139.757 103.192C139.805 103.144 139.851 103.12 139.893 103.12C139.936 103.12 139.971 103.136 139.997 103.168C140.029 103.2 140.045 103.237 140.045 103.28V103.92H140.949C141.04 103.92 141.115 103.949 141.173 104.008C141.232 104.067 141.261 104.141 141.261 104.232C141.261 104.317 141.232 104.392 141.173 104.456C141.115 104.515 141.04 104.544 140.949 104.544H140.045V106.96C140.045 107.168 140.093 107.301 140.189 107.36C140.291 107.413 140.416 107.44 140.565 107.44C140.672 107.44 140.779 107.424 140.885 107.392C140.907 107.387 140.928 107.381 140.949 107.376C140.976 107.371 141.008 107.368 141.045 107.368C141.12 107.368 141.187 107.397 141.245 107.456C141.304 107.509 141.333 107.576 141.333 107.656C141.333 107.779 141.272 107.872 141.149 107.936C140.941 108.032 140.72 108.08 140.485 108.08Z" fill="#FFBFF9"/>
<rect x="180" y="83" width="32" height="34" rx="7" fill="url(#paint9_linear_777_250)" stroke="#6538C1" stroke-width="2"/>
<path d="M186.136 103.04C186.035 103.04 185.949 103.005 185.88 102.936C185.811 102.867 185.776 102.781 185.776 102.68V97.784C185.776 97.6827 185.811 97.5973 185.88 97.528C185.949 97.4533 186.035 97.416 186.136 97.416H187.96C188.467 97.416 188.88 97.5013 189.2 97.672C189.52 97.8427 189.749 98.0613 189.888 98.328C190.027 98.5947 190.096 98.8827 190.096 99.192C190.096 99.5013 190.027 99.7893 189.888 100.056C189.749 100.323 189.52 100.541 189.2 100.712C188.88 100.883 188.467 100.968 187.96 100.968H186.504V102.68C186.504 102.781 186.467 102.867 186.392 102.936C186.323 103.005 186.237 103.04 186.136 103.04ZM187.888 100.28C188.432 100.28 188.813 100.176 189.032 99.968C189.256 99.76 189.368 99.5013 189.368 99.192C189.368 98.8827 189.256 98.624 189.032 98.416C188.813 98.208 188.432 98.104 187.888 98.104H186.504V100.28H187.888ZM191.305 103.04C191.203 103.04 191.118 103.005 191.049 102.936C190.979 102.867 190.945 102.781 190.945 102.68V99.248C190.945 99.1467 190.979 99.0613 191.049 98.992C191.118 98.9173 191.203 98.88 191.305 98.88C191.406 98.88 191.491 98.9173 191.561 98.992C191.635 99.0613 191.673 99.1467 191.673 99.248V99.592C192.046 99.0907 192.465 98.84 192.929 98.84H192.969C193.07 98.84 193.153 98.8747 193.217 98.944C193.286 99.0133 193.321 99.0987 193.321 99.2C193.321 99.3013 193.286 99.384 193.217 99.448C193.147 99.512 193.059 99.544 192.953 99.544H192.913C192.657 99.544 192.422 99.608 192.209 99.736C191.995 99.8587 191.817 100.029 191.673 100.248V102.68C191.673 102.781 191.635 102.867 191.561 102.936C191.491 103.005 191.406 103.04 191.305 103.04ZM194.351 98.088C194.239 98.088 194.143 98.048 194.063 97.968C193.983 97.888 193.943 97.792 193.943 97.68V97.648C193.943 97.536 193.983 97.44 194.063 97.36C194.143 97.28 194.239 97.24 194.351 97.24H194.399C194.511 97.24 194.607 97.28 194.687 97.36C194.767 97.44 194.807 97.536 194.807 97.648V97.68C194.807 97.792 194.767 97.888 194.687 97.968C194.607 98.048 194.511 98.088 194.399 98.088H194.351ZM194.367 103.04C194.266 103.04 194.18 103.005 194.111 102.936C194.042 102.867 194.007 102.781 194.007 102.68V99.248C194.007 99.1467 194.042 99.0613 194.111 98.992C194.18 98.9173 194.266 98.88 194.367 98.88C194.474 98.88 194.562 98.9147 194.631 98.984C194.7 99.0533 194.735 99.1413 194.735 99.248V102.68C194.735 102.781 194.698 102.867 194.623 102.936C194.554 103.005 194.468 103.04 194.367 103.04ZM196.191 103C196.047 103 195.927 102.963 195.831 102.888C195.735 102.813 195.687 102.709 195.687 102.576C195.687 102.453 195.73 102.344 195.815 102.248L198.119 99.6H196.095C195.999 99.6 195.919 99.568 195.855 99.504C195.791 99.44 195.759 99.36 195.759 99.264C195.759 99.168 195.791 99.088 195.855 99.024C195.919 98.9547 195.999 98.92 196.095 98.92H198.519C198.658 98.92 198.77 98.9627 198.855 99.048C198.941 99.1333 198.983 99.2427 198.983 99.376C198.983 99.4987 198.946 99.6053 198.871 99.696L196.631 102.32H198.687C198.783 102.32 198.863 102.355 198.927 102.424C198.997 102.488 199.031 102.568 199.031 102.664C199.031 102.76 198.997 102.84 198.927 102.904C198.863 102.968 198.783 103 198.687 103H196.191ZM201.808 103.08C201.157 103.08 200.648 102.896 200.28 102.528C199.917 102.155 199.736 101.632 199.736 100.96C199.736 100.581 199.805 100.232 199.944 99.912C200.082 99.592 200.296 99.3333 200.584 99.136C200.872 98.9387 201.226 98.84 201.648 98.84C202.042 98.84 202.384 98.9333 202.672 99.12C202.96 99.3013 203.178 99.5467 203.328 99.856C203.477 100.16 203.552 100.493 203.552 100.856C203.552 100.957 203.517 101.043 203.448 101.112C203.384 101.181 203.296 101.216 203.184 101.216H200.472C200.514 101.589 200.653 101.88 200.888 102.088C201.122 102.296 201.45 102.4 201.872 102.4C202.096 102.4 202.29 102.379 202.456 102.336C202.626 102.293 202.792 102.232 202.952 102.152C202.994 102.131 203.042 102.12 203.096 102.12C203.181 102.12 203.256 102.149 203.32 102.208C203.384 102.267 203.416 102.341 203.416 102.432C203.416 102.549 203.346 102.648 203.208 102.728C203 102.845 202.794 102.933 202.592 102.992C202.389 103.051 202.128 103.08 201.808 103.08ZM202.832 100.624C202.816 100.363 202.746 100.144 202.624 99.968C202.506 99.792 202.36 99.664 202.184 99.584C202.008 99.4987 201.829 99.456 201.648 99.456C201.466 99.456 201.288 99.4987 201.112 99.584C200.936 99.664 200.789 99.792 200.672 99.968C200.554 100.144 200.488 100.363 200.472 100.624H202.832ZM205.835 103.08C205.301 103.08 204.816 102.96 204.379 102.72C204.288 102.656 204.243 102.568 204.243 102.456C204.243 102.371 204.272 102.296 204.331 102.232C204.389 102.168 204.464 102.136 204.555 102.136C204.603 102.136 204.651 102.147 204.699 102.168C204.869 102.243 205.04 102.301 205.211 102.344C205.381 102.387 205.573 102.408 205.787 102.408C206.379 102.408 206.675 102.219 206.675 101.84C206.675 101.717 206.605 101.624 206.467 101.56C206.333 101.496 206.112 101.424 205.803 101.344C205.488 101.269 205.227 101.192 205.019 101.112C204.816 101.032 204.64 100.912 204.491 100.752C204.347 100.587 204.275 100.371 204.275 100.104C204.275 99.7307 204.408 99.4267 204.675 99.192C204.947 98.9573 205.333 98.84 205.835 98.84C206.245 98.84 206.632 98.9067 206.995 99.04C207.069 99.0613 207.125 99.1013 207.163 99.16C207.205 99.2187 207.227 99.28 207.227 99.344C207.227 99.4293 207.195 99.504 207.131 99.568C207.072 99.632 206.997 99.664 206.907 99.664C206.88 99.664 206.845 99.6587 206.803 99.648C206.493 99.552 206.189 99.504 205.891 99.504C205.603 99.504 205.376 99.5573 205.211 99.664C205.051 99.7653 204.971 99.8987 204.971 100.064C204.971 100.224 205.045 100.341 205.195 100.416C205.344 100.491 205.576 100.563 205.891 100.632C206.205 100.712 206.461 100.792 206.659 100.872C206.856 100.947 207.024 101.067 207.163 101.232C207.307 101.397 207.379 101.619 207.379 101.896C207.379 102.237 207.243 102.52 206.971 102.744C206.704 102.968 206.325 103.08 205.835 103.08Z" fill="#FFBFF9"/>
<defs>
<filter id="filter0_dd_777_250" x="38.0656" y="81.925" width="52.8688" height="40.3544" filterUnits="userSpaceOnUse" color-interpolation-filters="sRGB">
<feFlood flood-opacity="0" result="BackgroundImageFix"/>
<feColorMatrix in="SourceAlpha" type="matrix" values="0 0 0 0 0 0 0 0 0 0 0 0 0 0 0 0 0 0 127 0" result="hardAlpha"/>
<feMorphology radius="1.40984" operator="erode" in="SourceAlpha" result="effect1_dropShadow_777_250"/>
<feOffset dy="1.40984"/>
<feGaussianBlur stdDeviation="1.40984"/>
<feColorMatrix type="matrix" values="0 0 0 0 0 0 0 0 0 0 0 0 0 0 0 0 0 0 0.05 0"/>
<feBlend mode="normal" in2="BackgroundImageFix" result="effect1_dropShadow_777_250"/>
<feColorMatrix in="SourceAlpha" type="matrix" values="0 0 0 0 0 0 0 0 0 0 0 0 0 0 0 0 0 0 127 0" result="hardAlpha"/>
<feMorphology radius="0.704918" operator="erode" in="SourceAlpha" result="effect2_dropShadow_777_250"/>
<feOffset dy="2.81967"/>
<feGaussianBlur stdDeviation="2.11475"/>
<feColorMatrix type="matrix" values="0 0 0 0 0 0 0 0 0 0 0 0 0 0 0 0 0 0 0.1 0"/>
<feBlend mode="normal" in2="effect1_dropShadow_777_250" result="effect2_dropShadow_777_250"/>
<feBlend mode="normal" in="SourceGraphic" in2="effect2_dropShadow_777_250" result="shape"/>
</filter>
<linearGradient id="paint0_linear_777_250" x1="58.3571" y1="84.04" x2="58.3571" y2="114.525" gradientUnits="userSpaceOnUse">
<stop stop-color="#9422ED"/>
<stop offset="1" stop-color="#B49FE1" stop-opacity="0.2"/>
</linearGradient>
<linearGradient id="paint1_linear_777_250" x1="64.773" y1="84.04" x2="64.773" y2="114.525" gradientUnits="userSpaceOnUse">
<stop stop-color="#9422ED"/>
<stop offset="1" stop-color="#B49FE1" stop-opacity="0.2"/>
</linearGradient>
<linearGradient id="paint2_linear_777_250" x1="70.6428" y1="84.0396" x2="70.6428" y2="114.525" gradientUnits="userSpaceOnUse">
<stop stop-color="#9422ED"/>
<stop offset="1" stop-color="#B49FE1"/>
</linearGradient>
<linearGradient id="paint3_linear_777_250" x1="227.865" y1="100.736" x2="222.533" y2="100.741" gradientUnits="userSpaceOnUse">
<stop stop-color="#9422ED"/>
<stop offset="1" stop-color="#B49FE1" stop-opacity="0.2"/>
</linearGradient>
<linearGradient id="paint4_linear_777_250" x1="215.14" y1="158" x2="215.14" y2="131" gradientUnits="userSpaceOnUse">
<stop stop-color="#9422ED"/>
<stop offset="1" stop-color="#B49FE1" stop-opacity="0.2"/>
</linearGradient>
<linearGradient id="paint5_linear_777_250" x1="215.14" y1="42" x2="215.14" y2="69" gradientUnits="userSpaceOnUse">
<stop stop-color="#9422ED"/>
<stop offset="1" stop-color="#B49FE1" stop-opacity="0.2"/>
</linearGradient>
<linearGradient id="paint6_linear_777_250" x1="110" y1="100" x2="94.013" y2="99.5445" gradientUnits="userSpaceOnUse">
<stop stop-color="#9422ED"/>
<stop offset="1" stop-color="#B49FE1" stop-opacity="0.2"/>
</linearGradient>
<linearGradient id="paint7_linear_777_250" x1="170" y1="100" x2="154.013" y2="99.5445" gradientUnits="userSpaceOnUse">
<stop stop-color="#9422ED"/>
<stop offset="1" stop-color="#B49FE1" stop-opacity="0.2"/>
</linearGradient>
<linearGradient id="paint8_linear_777_250" x1="132" y1="82" x2="132" y2="118" gradientUnits="userSpaceOnUse">
<stop stop-color="#9422ED"/>
<stop offset="1" stop-color="#B49FE1" stop-opacity="0.2"/>
</linearGradient>
<linearGradient id="paint9_linear_777_250" x1="196" y1="82" x2="196" y2="118" gradientUnits="userSpaceOnUse">
<stop stop-color="#9422ED"/>
<stop offset="1" stop-color="#B49FE1" stop-opacity="0.2"/>
</linearGradient>
</defs>
</svg>
