<svg width="212" height="126" viewBox="0 0 212 126" fill="none" xmlns="http://www.w3.org/2000/svg">
<path d="M0 5.00295C0 2.2399 2.2399 0 5.00295 0H206.997C209.76 0 212 2.2399 212 5.00295V120.071C212 122.834 209.76 125.074 206.997 125.074H5.00294C2.23989 125.074 0 122.834 0 120.071V5.00295Z" fill="#4C249F"/>
<rect x="22.4194" y="47.7783" width="45.5268" height="32.5192" rx="3.25192" fill="#6538C1" fill-opacity="0.6"/>
<rect x="22.4194" y="47.7783" width="45.5268" height="32.5192" rx="3.25192" fill="url(#paint0_linear_777_880)" fill-opacity="0.6"/>
<rect x="24.8584" y="57.5342" width="40.649" height="20.3245" rx="1.62596" fill="url(#paint1_linear_777_880)"/>
<rect x="24.8584" y="50.2173" width="40.649" height="4.87788" rx="1.62596" fill="#DECEFF" fill-opacity="0.4"/>
<path d="M31.9043 52.4217L32.2099 53.4981H32.2229L32.5514 52.4217H32.8018L32.3498 53.8428H32.0896L31.7872 52.7826H31.7742L31.475 53.8428H31.2148L30.7596 52.4217H31.0295L31.3644 53.4981H31.3774L31.6766 52.4217H31.9043ZM33.9907 52.4217L34.2964 53.4981H34.3094L34.6378 52.4217H34.8882L34.4362 53.8428H34.176L33.8736 52.7826H33.8606L33.5614 53.8428H33.3013L32.846 52.4217H33.1159L33.4509 53.4981H33.4639L33.7631 52.4217H33.9907ZM36.0771 52.4217L36.3828 53.4981H36.3958L36.7243 52.4217H36.9747L36.5226 53.8428H36.2625L35.9601 52.7826H35.947L35.6479 53.8428H35.3877L34.9325 52.4217H35.2024L35.5373 53.4981H35.5503L35.8495 52.4217H36.0771ZM36.9927 53.8428V53.5176H37.3179V53.8428H36.9927ZM37.8895 53.0916V53.1729C37.8895 53.4851 38.0879 53.6672 38.3448 53.6672C38.6244 53.6672 38.7773 53.459 38.7773 53.1339C38.7773 52.8087 38.6244 52.6005 38.3448 52.6005C38.0879 52.6005 37.8895 52.7826 37.8895 53.0916ZM37.8895 53.5468L37.831 53.8428H37.6261V51.7941H37.896V52.7209C37.9578 52.5453 38.1399 52.3827 38.4065 52.3827C38.826 52.3827 39.0569 52.7144 39.0569 53.1339C39.0569 53.5534 38.826 53.8818 38.4033 53.8818C38.1399 53.8818 37.9545 53.7257 37.8895 53.5468ZM39.3378 52.4217H39.6077V53.8428H39.3378V52.4217ZM39.3313 52.0997V51.7941H39.6109V52.0997H39.3313ZM40.8509 52.4477L40.8248 52.6916C40.7468 52.6493 40.6915 52.6331 40.6037 52.6331C40.3988 52.6331 40.246 52.8184 40.246 53.0916V53.8428H39.9761V52.4217H40.246V52.7111C40.298 52.5485 40.4444 52.3827 40.6492 52.3827C40.737 52.3827 40.8021 52.4054 40.8509 52.4477ZM41.3161 53.0916V53.1729C41.3161 53.4851 41.5144 53.6672 41.7713 53.6672C42.051 53.6672 42.2038 53.459 42.2038 53.1339C42.2038 52.8087 42.051 52.6005 41.7713 52.6005C41.5144 52.6005 41.3161 52.7826 41.3161 53.0916ZM41.3161 53.5468L41.2575 53.8428H41.0527V51.7941H41.3226V52.7209C41.3844 52.5453 41.5665 52.3827 41.8331 52.3827C42.2526 52.3827 42.4835 52.7144 42.4835 53.1339C42.4835 53.5534 42.2526 53.8818 41.8299 53.8818C41.5665 53.8818 41.3811 53.7257 41.3161 53.5468ZM42.7644 52.4217H43.0343V53.8428H42.7644V52.4217ZM42.7579 52.0997V51.7941H43.0375V52.0997H42.7579ZM43.6726 53.0265V53.8428H43.4027V52.4217H43.6726V52.6753C43.7409 52.503 43.9327 52.3827 44.1441 52.3827C44.5148 52.3827 44.6644 52.6298 44.6644 52.9615V53.8428H44.3945V52.9843C44.3945 52.7469 44.2807 52.5973 44.0563 52.5973C43.8417 52.5973 43.6726 52.7664 43.6726 53.0265ZM45.0647 53.5111V52.6168H44.8501V52.4705L44.9411 52.4542C45.0745 52.4282 45.1037 52.3632 45.1363 52.2266L45.1785 52.0282H45.3314V52.4217H45.7314V52.6168H45.3314V53.4786C45.3314 53.6054 45.3834 53.6639 45.507 53.6639C45.598 53.6639 45.6923 53.6249 45.7736 53.5794V53.7615C45.6696 53.8395 45.5655 53.8818 45.4094 53.8818C45.2078 53.8818 45.0647 53.7875 45.0647 53.5111ZM47.0769 53.3387L47.3012 53.3647C47.2297 53.6867 46.9923 53.8818 46.6379 53.8818C46.2151 53.8818 45.9062 53.5956 45.9062 53.1534C45.9062 52.7046 46.2151 52.3827 46.6248 52.3827C47.0769 52.3827 47.3077 52.7046 47.3077 53.0916V53.1989H46.1761C46.1891 53.4753 46.3875 53.6704 46.6411 53.6704C46.8785 53.6704 47.0183 53.5566 47.0769 53.3387ZM46.1826 53.0233H47.0313C47.0216 52.7957 46.8948 52.5875 46.6248 52.5875C46.3679 52.5875 46.2151 52.7892 46.1826 53.0233ZM48.463 52.4477L48.437 52.6916C48.359 52.6493 48.3037 52.6331 48.2159 52.6331C48.011 52.6331 47.8582 52.8184 47.8582 53.0916V53.8428H47.5883V52.4217H47.8582V52.7111C47.9102 52.5485 48.0565 52.3827 48.2614 52.3827C48.3492 52.3827 48.4142 52.4054 48.463 52.4477ZM48.9347 53.0265V53.8428H48.6648V52.4217H48.9347V52.6753C49.003 52.503 49.1949 52.3827 49.4063 52.3827C49.777 52.3827 49.9266 52.6298 49.9266 52.9615V53.8428H49.6567V52.9843C49.6567 52.7469 49.5428 52.5973 49.3185 52.5973C49.1038 52.5973 48.9347 52.7664 48.9347 53.0265ZM51.3577 53.3387L51.5821 53.3647C51.5105 53.6867 51.2732 53.8818 50.9187 53.8818C50.496 53.8818 50.187 53.5956 50.187 53.1534C50.187 52.7046 50.496 52.3827 50.9057 52.3827C51.3577 52.3827 51.5886 52.7046 51.5886 53.0916V53.1989H50.4569C50.4699 53.4753 50.6683 53.6704 50.922 53.6704C51.1593 53.6704 51.2992 53.5566 51.3577 53.3387ZM50.4634 53.0233H51.3122C51.3024 52.7957 51.1756 52.5875 50.9057 52.5875C50.6488 52.5875 50.496 52.7892 50.4634 53.0233ZM51.9179 53.5111V52.6168H51.7033V52.4705L51.7943 52.4542C51.9276 52.4282 51.9569 52.3632 51.9894 52.2266L52.0317 52.0282H52.1845V52.4217H52.5845V52.6168H52.1845V53.4786C52.1845 53.6054 52.2366 53.6639 52.3601 53.6639C52.4512 53.6639 52.5455 53.6249 52.6268 53.5794V53.7615C52.5227 53.8395 52.4187 53.8818 52.2626 53.8818C52.061 53.8818 51.9179 53.7875 51.9179 53.5111ZM52.8743 53.8428V53.5176H53.1995V53.8428H52.8743ZM53.3659 53.1339C53.3659 52.6818 53.6651 52.3827 54.0943 52.3827C54.5106 52.3827 54.735 52.6623 54.7642 53.0038L54.5268 53.02C54.5041 52.7696 54.3545 52.6005 54.0911 52.6005C53.8244 52.6005 53.6423 52.8054 53.6423 53.1339C53.6423 53.4623 53.8244 53.6672 54.0911 53.6672C54.3545 53.6672 54.5041 53.4883 54.5268 53.2379L54.7642 53.2607C54.735 53.6054 54.5106 53.8818 54.0943 53.8818C53.6651 53.8818 53.3659 53.5859 53.3659 53.1339ZM55.2365 53.1339C55.2365 53.4493 55.3959 53.6737 55.682 53.6737C55.9714 53.6737 56.134 53.4493 56.134 53.1339C56.134 52.8152 55.9714 52.594 55.682 52.594C55.3959 52.594 55.2365 52.8152 55.2365 53.1339ZM56.4105 53.1339C56.4105 53.5761 56.1015 53.8818 55.682 53.8818C55.2658 53.8818 54.9601 53.5761 54.9601 53.1339C54.9601 52.6916 55.2658 52.3827 55.682 52.3827C56.1015 52.3827 56.4105 52.6916 56.4105 53.1339ZM57.8768 52.6916C57.9516 52.516 58.1272 52.3827 58.3548 52.3827C58.7255 52.3827 58.8556 52.6396 58.8556 52.9615V53.8428H58.5857V52.9843C58.5857 52.7469 58.4881 52.5973 58.2702 52.5973C58.0686 52.5973 57.906 52.7664 57.906 53.0265V53.8428H57.6361V52.9843C57.6361 52.7469 57.5386 52.5973 57.3207 52.5973C57.1191 52.5973 56.9597 52.7664 56.9597 53.0265V53.8428H56.6898V52.4217H56.9597V52.6753C57.028 52.503 57.1939 52.3827 57.4117 52.3827C57.6654 52.3827 57.815 52.5062 57.8768 52.6916Z" fill="#8050E3"/>
<rect x="54.1256" y="72.168" width="20.3245" height="13.0077" rx="1.62596" fill="#9B7CCF"/>
<rect x="54.1256" y="72.168" width="20.3245" height="13.0077" rx="1.62596" fill="#6538C1" fill-opacity="0.6"/>
<rect x="54.1256" y="72.168" width="20.3245" height="13.0077" rx="1.62596" fill="url(#paint2_linear_777_880)" fill-opacity="0.6"/>
<path d="M55.976 82.7348V82.7754C55.976 82.9315 56.0752 83.0225 56.2036 83.0225C56.3434 83.0225 56.4199 82.9185 56.4199 82.7559C56.4199 82.5933 56.3434 82.4892 56.2036 82.4892C56.0752 82.4892 55.976 82.5803 55.976 82.7348ZM55.9792 82.9624V83.3835H55.8443V82.3998H55.9792V82.5494C56.0101 82.4616 56.1012 82.3803 56.2345 82.3803C56.4442 82.3803 56.5597 82.5461 56.5597 82.7559C56.5597 82.9656 56.4442 83.1299 56.2345 83.1299C56.1012 83.1299 56.0101 83.0502 55.9792 82.9624ZM57.1781 82.8079V82.3998H57.3131V83.1104H57.1781V82.9852C57.144 83.0697 57.053 83.1299 56.9456 83.1299C56.7603 83.1299 56.692 83.0079 56.692 82.8421V82.3998H56.8269V82.8291C56.8269 82.9478 56.879 83.0242 56.9912 83.0242C57.0969 83.0242 57.1781 82.9396 57.1781 82.8079ZM57.9362 82.4128L57.9232 82.5348C57.8842 82.5136 57.8565 82.5055 57.8126 82.5055C57.7102 82.5055 57.6338 82.5982 57.6338 82.7348V83.1104H57.4988V82.3998H57.6338V82.5445C57.6598 82.4632 57.7329 82.3803 57.8354 82.3803C57.8793 82.3803 57.9118 82.3917 57.9362 82.4128ZM58.1688 82.7348V82.7754C58.1688 82.9315 58.268 83.0225 58.3964 83.0225C58.5363 83.0225 58.6127 82.9185 58.6127 82.7559C58.6127 82.5933 58.5363 82.4892 58.3964 82.4892C58.268 82.4892 58.1688 82.5803 58.1688 82.7348ZM58.172 82.9624V83.3835H58.0371V82.3998H58.172V82.5494C58.2029 82.4616 58.294 82.3803 58.4273 82.3803C58.6371 82.3803 58.7525 82.5461 58.7525 82.7559C58.7525 82.9656 58.6371 83.1299 58.4273 83.1299C58.294 83.1299 58.2029 83.0502 58.172 82.9624ZM58.8929 82.086H59.0279V83.1104H58.8929V82.086ZM59.7519 82.8583L59.8641 82.8713C59.8283 83.0323 59.7096 83.1299 59.5324 83.1299C59.321 83.1299 59.1666 82.9868 59.1666 82.7656C59.1666 82.5413 59.321 82.3803 59.5259 82.3803C59.7519 82.3803 59.8674 82.5413 59.8674 82.7348V82.7884H59.3015C59.308 82.9266 59.4072 83.0242 59.534 83.0242C59.6527 83.0242 59.7226 82.9673 59.7519 82.8583ZM59.3048 82.7006H59.7292C59.7243 82.5868 59.6609 82.4827 59.5259 82.4827C59.3975 82.4827 59.321 82.5835 59.3048 82.7006ZM60.4315 82.7348V82.7754C60.4315 82.9315 60.5307 83.0225 60.6591 83.0225C60.7989 83.0225 60.8754 82.9185 60.8754 82.7559C60.8754 82.5933 60.7989 82.4892 60.6591 82.4892C60.5307 82.4892 60.4315 82.5803 60.4315 82.7348ZM60.4315 82.9624L60.4022 83.1104H60.2998V82.086H60.4347V82.5494C60.4656 82.4616 60.5567 82.3803 60.69 82.3803C60.8998 82.3803 61.0152 82.5461 61.0152 82.7559C61.0152 82.9656 60.8998 83.1299 60.6884 83.1299C60.5567 83.1299 60.464 83.0518 60.4315 82.9624ZM61.1556 82.3998H61.2906V83.1104H61.1556V82.3998ZM61.1524 82.2388V82.086H61.2922V82.2388H61.1524ZM61.9122 82.4128L61.8992 82.5348C61.8601 82.5136 61.8325 82.5055 61.7886 82.5055C61.6862 82.5055 61.6097 82.5982 61.6097 82.7348V83.1104H61.4748V82.3998H61.6097V82.5445C61.6358 82.4632 61.7089 82.3803 61.8114 82.3803C61.8553 82.3803 61.8878 82.3917 61.9122 82.4128ZM62.1448 82.7348V82.7754C62.1448 82.9315 62.244 83.0225 62.3724 83.0225C62.5122 83.0225 62.5887 82.9185 62.5887 82.7559C62.5887 82.5933 62.5122 82.4892 62.3724 82.4892C62.244 82.4892 62.1448 82.5803 62.1448 82.7348ZM62.1448 82.9624L62.1155 83.1104H62.0131V82.086H62.148V82.5494C62.1789 82.4616 62.27 82.3803 62.4033 82.3803C62.613 82.3803 62.7285 82.5461 62.7285 82.7559C62.7285 82.9656 62.613 83.1299 62.4017 83.1299C62.27 83.1299 62.1773 83.0518 62.1448 82.9624Z" fill="#DECEFF" fill-opacity="0.4"/>
<rect x="68.7593" y="81.1104" width="2.43894" height="2.43894" rx="1.21947" fill="#DECEFF" fill-opacity="0.4"/>
<rect x="70.3853" y="81.1104" width="2.43894" height="2.43894" rx="1.21947" fill="#DECEFF" fill-opacity="0.4"/>
<rect x="56.5646" y="75.4199" width="3.25192" height="0.812979" fill="#DECEFF" fill-opacity="0.4"/>
<rect x="60.6294" y="75.4199" width="3.25192" height="0.812979" fill="#DECEFF" fill-opacity="0.4"/>
<rect x="64.6943" y="75.4199" width="3.25192" height="0.812979" fill="#DECEFF" fill-opacity="0.4"/>
<rect x="68.7593" y="75.4199" width="3.25192" height="0.812979" fill="#DECEFF" fill-opacity="0.4"/>
<line x1="148.056" y1="46.1528" x2="161.064" y2="46.1528" stroke="url(#paint3_linear_777_880)" stroke-opacity="0.6" stroke-width="1.62596"/>
<line x1="174.071" y1="72.168" x2="174.071" y2="59.1603" stroke="url(#paint4_linear_777_880)" stroke-opacity="0.6" stroke-width="1.62596"/>
<line x1="161.064" y1="85.9888" x2="148.056" y2="85.9888" stroke="url(#paint5_linear_777_880)" stroke-width="1.62596"/>
<line x1="134.235" y1="72.168" x2="134.235" y2="59.1603" stroke="url(#paint6_linear_777_880)" stroke-opacity="0.6" stroke-width="1.62596"/>
<path d="M122.041 34.771C122.041 33.873 122.769 33.145 123.667 33.145H146.43C147.328 33.145 148.056 33.873 148.056 34.771V57.5344C148.056 58.4324 147.328 59.1604 146.43 59.1604H123.667C122.769 59.1604 122.041 58.4324 122.041 57.5344V34.771Z" fill="#6538C1" fill-opacity="0.6"/>
<path d="M122.041 34.771C122.041 33.873 122.769 33.145 123.667 33.145H146.43C147.328 33.145 148.056 33.873 148.056 34.771V57.5344C148.056 58.4324 147.328 59.1604 146.43 59.1604H123.667C122.769 59.1604 122.041 58.4324 122.041 57.5344V34.771Z" fill="url(#paint7_linear_777_880)" fill-opacity="0.6"/>
<path d="M122.197 34.771C122.197 33.9593 122.855 33.3014 123.667 33.3014H146.43C147.242 33.3014 147.9 33.9593 147.9 34.771V57.5344C147.9 58.346 147.242 59.004 146.43 59.004H123.667C122.855 59.004 122.197 58.346 122.197 57.5344V34.771Z" stroke="#F5F0FF" stroke-opacity="0.3" stroke-width="0.312684"/>
<path d="M137.74 40.4633C136.308 40.7783 135.407 42.2278 135.727 43.7009L140.913 42.5605C140.593 41.0874 139.172 40.1484 137.74 40.4633Z" fill="#FFB636"/>
<path d="M137.183 47.7802C138.899 44.951 138.075 41.1577 135.341 39.3077L129.125 49.5532C131.859 51.4033 135.466 50.6095 137.183 47.7802Z" fill="#9B6AFF"/>
<path d="M131.4 43.8679C129.884 44.2013 128.935 45.7614 129.281 47.3525L134.772 46.145C134.426 44.554 132.916 43.5345 131.4 43.8679Z" fill="#8050E3"/>
<ellipse cx="0.781092" cy="0.819544" rx="0.781092" ry="0.819544" transform="matrix(0.976659 -0.214802 0.212545 0.977152 134.7 41.9116)" fill="#21064E"/>
<rect width="0.833939" height="2.07711" transform="matrix(0.976664 -0.214778 0.212565 0.977148 132.008 50.562)" fill="#9B6AFF"/>
<path d="M133.235 51.3016C132.673 51.4251 132.322 52.003 132.45 52.5922L134.484 52.145C134.355 51.5557 133.796 51.1781 133.235 51.3016Z" fill="#FFB636"/>
<rect x="161.064" y="33.145" width="26.0153" height="26.0153" rx="1.62596" fill="#6538C1" fill-opacity="0.6"/>
<rect x="161.064" y="33.145" width="26.0153" height="26.0153" rx="1.62596" fill="url(#paint8_linear_777_880)" fill-opacity="0.6"/>
<rect x="161.22" y="33.3014" width="25.7027" height="25.7027" rx="1.46962" stroke="#F5F0FF" stroke-opacity="0.3" stroke-width="0.312684"/>
<circle cx="173.852" cy="46.2779" r="7.50442" fill="url(#paint9_linear_777_880)"/>
<path d="M173.966 40.8271C175.669 40.8271 177.05 42.2308 177.05 43.9623V45.7651C177.05 47.4966 175.669 48.9003 173.966 48.9003C173.699 48.9003 173.439 48.8656 173.192 48.8005L173.192 49.0133C173.192 50.28 172.177 51.3093 170.917 51.3297L170.879 51.33V44.4326L170.883 44.4325L170.883 43.9623C170.883 42.2308 172.263 40.8271 173.966 40.8271ZM173.966 43.1785C173.541 43.1785 173.195 43.5295 173.195 43.9623V45.7651C173.195 46.198 173.541 46.5489 173.966 46.5489C174.392 46.5489 174.737 46.198 174.737 45.7651V43.9623C174.737 43.5295 174.392 43.1785 173.966 43.1785Z" fill="white"/>
<path d="M122.041 73.7939C122.041 72.8959 122.769 72.168 123.667 72.168H146.43C147.328 72.168 148.056 72.8959 148.056 73.7939V96.5573C148.056 97.4553 147.328 98.1833 146.43 98.1833H123.667C122.769 98.1833 122.041 97.4553 122.041 96.5573V73.7939Z" fill="#6538C1" fill-opacity="0.6"/>
<path d="M122.041 73.7939C122.041 72.8959 122.769 72.168 123.667 72.168H146.43C147.328 72.168 148.056 72.8959 148.056 73.7939V96.5573C148.056 97.4553 147.328 98.1833 146.43 98.1833H123.667C122.769 98.1833 122.041 97.4553 122.041 96.5573V73.7939Z" fill="url(#paint10_linear_777_880)" fill-opacity="0.6"/>
<path d="M122.197 73.7939C122.197 72.9823 122.855 72.3243 123.667 72.3243H146.43C147.242 72.3243 147.9 72.9823 147.9 73.7939V96.5573C147.9 97.369 147.242 98.027 146.43 98.027H123.667C122.855 98.027 122.197 97.369 122.197 96.5573V73.7939Z" stroke="#F5F0FF" stroke-opacity="0.3" stroke-width="0.312684"/>
<circle cx="135.08" cy="85.0508" r="7.50442" fill="url(#paint11_linear_777_880)"/>
<path d="M135.194 79.6001C136.897 79.6001 138.277 81.0038 138.277 82.7353V84.538C138.277 86.2695 136.897 87.6732 135.194 87.6732C134.926 87.6732 134.666 87.6386 134.419 87.5735L134.419 87.7863C134.419 89.053 133.404 90.0822 132.144 90.1027L132.106 90.103V83.2056L132.11 83.2055L132.11 82.7353C132.11 81.0038 133.49 79.6001 135.194 79.6001ZM135.194 81.9515C134.768 81.9515 134.423 82.3024 134.423 82.7353V84.538C134.423 84.9709 134.768 85.3218 135.194 85.3218C135.619 85.3218 135.964 84.9709 135.964 84.538V82.7353C135.964 82.3024 135.619 81.9515 135.194 81.9515Z" fill="white"/>
<rect x="161.064" y="72.168" width="26.0153" height="26.0153" rx="1.62596" fill="#6538C1" fill-opacity="0.6"/>
<rect x="161.064" y="72.168" width="26.0153" height="26.0153" rx="1.62596" fill="url(#paint12_linear_777_880)" fill-opacity="0.6"/>
<rect x="161.22" y="72.3243" width="25.7027" height="25.7027" rx="1.46962" stroke="#F5F0FF" stroke-opacity="0.3" stroke-width="0.312684"/>
<path d="M177.397 80.6806C175.965 80.9955 175.064 82.4451 175.385 83.9182L180.57 82.7778C180.25 81.3047 178.829 80.3657 177.397 80.6806Z" fill="#FFB636"/>
<path d="M176.84 87.9975C178.556 85.1683 177.732 81.375 174.998 79.525L168.781 89.7705C171.516 91.6205 175.123 90.8268 176.84 87.9975Z" fill="#9B6AFF"/>
<path d="M171.057 84.0852C169.541 84.4186 168.592 85.9787 168.938 87.5698L174.429 86.3623C174.083 84.7713 172.573 83.7517 171.057 84.0852Z" fill="#8050E3"/>
<ellipse cx="0.781092" cy="0.819544" rx="0.781092" ry="0.819544" transform="matrix(0.976659 -0.214802 0.212545 0.977152 174.357 82.1294)" fill="#21064E"/>
<rect width="0.833939" height="2.07711" transform="matrix(0.976664 -0.214778 0.212565 0.977148 171.665 90.7793)" fill="#9B6AFF"/>
<path d="M172.892 91.5189C172.33 91.6424 171.979 92.2202 172.107 92.8095L174.141 92.3623C174.012 91.773 173.453 91.3954 172.892 91.5189Z" fill="#FFB636"/>
<path d="M110.734 67.4587C111.051 67.1412 111.051 66.6264 110.734 66.3089L105.56 61.1352C105.242 60.8177 104.728 60.8177 104.41 61.1352C104.093 61.4526 104.093 61.9674 104.41 62.2849L109.009 66.8838L104.41 71.4827C104.093 71.8002 104.093 72.3149 104.41 72.6324C104.728 72.9499 105.242 72.9499 105.56 72.6324L110.734 67.4587ZM85.7693 67.6968H87.2936V66.0708H85.7693V67.6968ZM90.3423 67.6968H93.391V66.0708H90.3423V67.6968ZM96.4396 67.6968H99.4883V66.0708H96.4396V67.6968ZM102.537 67.6968H105.586V66.0708H102.537V67.6968ZM108.634 67.6968H110.159V66.0708H108.634V67.6968ZM110.734 67.4587C111.051 67.1412 111.051 66.6264 110.734 66.3089L105.56 61.1352C105.242 60.8177 104.728 60.8177 104.41 61.1352C104.093 61.4526 104.093 61.9674 104.41 62.2849L109.009 66.8838L104.41 71.4827C104.093 71.8002 104.093 72.3149 104.41 72.6324C104.728 72.9499 105.242 72.9499 105.56 72.6324L110.734 67.4587ZM85.7693 67.6968H87.2936V66.0708H85.7693V67.6968ZM90.3423 67.6968H93.391V66.0708H90.3423V67.6968ZM96.4396 67.6968H99.4883V66.0708H96.4396V67.6968ZM102.537 67.6968H105.586V66.0708H102.537V67.6968ZM108.634 67.6968H110.159V66.0708H108.634V67.6968Z" fill="url(#paint13_linear_777_880)" fill-opacity="0.6"/>
<defs>
<linearGradient id="paint0_linear_777_880" x1="45.1829" y1="47.7783" x2="45.1829" y2="80.2975" gradientUnits="userSpaceOnUse">
<stop stop-color="#9422ED"/>
<stop offset="1" stop-color="#B49FE1" stop-opacity="0.2"/>
</linearGradient>
<linearGradient id="paint1_linear_777_880" x1="45.1829" y1="57.5342" x2="45.1829" y2="77.8587" gradientUnits="userSpaceOnUse">
<stop stop-color="#9422ED"/>
<stop offset="1" stop-color="#B49FE1" stop-opacity="0.2"/>
</linearGradient>
<linearGradient id="paint2_linear_777_880" x1="64.2879" y1="72.168" x2="64.2879" y2="85.1756" gradientUnits="userSpaceOnUse">
<stop stop-color="#9422ED"/>
<stop offset="1" stop-color="#B49FE1" stop-opacity="0.2"/>
</linearGradient>
<linearGradient id="paint3_linear_777_880" x1="161.064" y1="45.9658" x2="148.056" y2="45.9658" gradientUnits="userSpaceOnUse">
<stop stop-color="#9422ED"/>
<stop offset="1" stop-color="#B49FE1" stop-opacity="0.2"/>
</linearGradient>
<linearGradient id="paint4_linear_777_880" x1="174.884" y1="65.6641" x2="175.884" y2="65.6641" gradientUnits="userSpaceOnUse">
<stop stop-color="#9422ED"/>
<stop offset="1" stop-color="#B49FE1" stop-opacity="0.2"/>
</linearGradient>
<linearGradient id="paint5_linear_777_880" x1="154.56" y1="85.1758" x2="154.56" y2="84.1758" gradientUnits="userSpaceOnUse">
<stop stop-color="#9422ED"/>
<stop offset="1" stop-color="#B49FE1" stop-opacity="0.2"/>
</linearGradient>
<linearGradient id="paint6_linear_777_880" x1="134.048" y1="59.1603" x2="134.048" y2="72.168" gradientUnits="userSpaceOnUse">
<stop stop-color="#9422ED"/>
<stop offset="1" stop-color="#B49FE1" stop-opacity="0.2"/>
</linearGradient>
<linearGradient id="paint7_linear_777_880" x1="135.048" y1="33.145" x2="135.048" y2="59.1604" gradientUnits="userSpaceOnUse">
<stop stop-color="#9422ED"/>
<stop offset="1" stop-color="#B49FE1" stop-opacity="0.2"/>
</linearGradient>
<linearGradient id="paint8_linear_777_880" x1="174.071" y1="33.145" x2="174.071" y2="59.1604" gradientUnits="userSpaceOnUse">
<stop stop-color="#9422ED"/>
<stop offset="1" stop-color="#B49FE1" stop-opacity="0.2"/>
</linearGradient>
<linearGradient id="paint9_linear_777_880" x1="173.852" y1="38.7734" x2="173.852" y2="53.7823" gradientUnits="userSpaceOnUse">
<stop stop-color="#7E46F2"/>
<stop offset="1" stop-color="#46279A"/>
</linearGradient>
<linearGradient id="paint10_linear_777_880" x1="135.048" y1="72.168" x2="135.048" y2="98.1833" gradientUnits="userSpaceOnUse">
<stop stop-color="#9422ED"/>
<stop offset="1" stop-color="#B49FE1" stop-opacity="0.2"/>
</linearGradient>
<linearGradient id="paint11_linear_777_880" x1="135.08" y1="77.5464" x2="135.08" y2="92.5552" gradientUnits="userSpaceOnUse">
<stop stop-color="#7E46F2"/>
<stop offset="1" stop-color="#46279A"/>
</linearGradient>
<linearGradient id="paint12_linear_777_880" x1="174.071" y1="72.168" x2="174.071" y2="98.1833" gradientUnits="userSpaceOnUse">
<stop stop-color="#9422ED"/>
<stop offset="1" stop-color="#B49FE1" stop-opacity="0.2"/>
</linearGradient>
<linearGradient id="paint13_linear_777_880" x1="110.565" y1="66.8838" x2="85.7693" y2="66.8838" gradientUnits="userSpaceOnUse">
<stop stop-color="#9422ED"/>
<stop offset="1" stop-color="#B49FE1" stop-opacity="0.2"/>
</linearGradient>
</defs>
</svg>
