<svg width="213" height="133" viewBox="0 0 213 133" fill="none" xmlns="http://www.w3.org/2000/svg">
<g id="yieldBotGraphic" clip-path="url(#clip0_816_377)">
<g id="Group 406">
<rect id="Rectangle 1" width="212.667" height="133" rx="8" fill="#4C249F"/>
<rect id="Rectangle 2" width="212.667" height="133" rx="8" fill="#4C249F"/>
<rect id="Rectangle 3" width="212.667" height="133" rx="8" fill="#4C249F"/>
<g id="Group 502">
<g id="Group 501">
<circle id="Ellipse 134" opacity="0.7" cx="106" cy="66" r="19" fill="url(#paint0_linear_816_377)"/>
<g id="etherscan-24x24">
<g id="Group 48">
<circle id="Ellipse 3" cx="106" cy="66.7734" r="12" fill="url(#paint1_linear_816_377)"/>
<path id="pool" d="M106.182 58.0566C108.905 58.0566 111.113 60.3012 111.113 63.07V65.9527C111.113 68.7215 108.905 70.966 106.182 70.966C105.754 70.966 105.339 70.9106 104.944 70.8065L104.944 71.1468C104.944 73.1723 103.321 74.8181 101.307 74.8509L101.245 74.8514V63.822L101.251 63.8219L101.251 63.07C101.251 60.3012 103.459 58.0566 106.182 58.0566ZM106.182 61.8167C105.501 61.8167 104.949 62.3778 104.949 63.07V65.9527C104.949 66.6449 105.501 67.206 106.182 67.206C106.863 67.206 107.415 66.6449 107.415 65.9527V63.07C107.415 62.3778 106.863 61.8167 106.182 61.8167Z" fill="white"/>
</g>
</g>
<circle id="Ellipse 136" opacity="0.7" cx="106" cy="17" r="7" fill="url(#paint2_linear_816_377)"/>
<circle id="Ellipse 140" opacity="0.7" cx="141" cy="31" r="7" fill="url(#paint3_linear_816_377)"/>
<circle id="Ellipse 137" opacity="0.7" cx="57" cy="66" r="7" fill="url(#paint4_linear_816_377)"/>
<circle id="Ellipse 139" opacity="0.7" cx="106" cy="115" r="7" fill="url(#paint5_linear_816_377)"/>
<circle id="Ellipse 142" opacity="0.7" cx="71" cy="101" r="7" fill="url(#paint6_linear_816_377)"/>
<circle id="Ellipse 143" opacity="0.7" cx="71" cy="31" r="7" fill="url(#paint7_linear_816_377)"/>
<circle id="Ellipse 141" opacity="0.7" cx="141" cy="101" r="7" fill="url(#paint8_linear_816_377)"/>
<circle id="Ellipse 135" opacity="0.7" cx="155" cy="66" r="7" fill="url(#paint9_linear_816_377)"/>
</g>
<path id="Arrow 13" d="M105.505 39.8951C105.778 40.1684 106.222 40.1684 106.495 39.8951L110.95 35.4403C111.223 35.1669 111.223 34.7237 110.95 34.4504C110.676 34.177 110.233 34.177 109.96 34.4504L106 38.4101L102.04 34.4504C101.767 34.177 101.324 34.177 101.05 34.4504C100.777 34.7237 100.777 35.1669 101.05 35.4403L105.505 39.8951ZM105.3 26.1001L105.3 27.7626L106.7 27.7626L106.7 26.1001L105.3 26.1001ZM105.3 31.0876L105.3 34.4126L106.7 34.4126L106.7 31.0876L105.3 31.0876ZM105.3 37.7376L105.3 39.4001L106.7 39.4001L106.7 37.7376L105.3 37.7376ZM105.505 39.8951C105.778 40.1684 106.222 40.1684 106.495 39.8951L110.95 35.4403C111.223 35.1669 111.223 34.7237 110.95 34.4504C110.676 34.177 110.233 34.177 109.96 34.4504L106 38.4101L102.04 34.4504C101.767 34.177 101.324 34.177 101.05 34.4504C100.777 34.7237 100.777 35.1669 101.05 35.4403L105.505 39.8951ZM105.3 26.1001L105.3 27.7626L106.7 27.7626L106.7 26.1001L105.3 26.1001ZM105.3 31.0876L105.3 34.4126L106.7 34.4126L106.7 31.0876L105.3 31.0876ZM105.3 37.7376L105.3 39.4001L106.7 39.4001L106.7 37.7376L105.3 37.7376Z" fill="url(#paint10_linear_816_377)" fill-opacity="0.3"/>
<path id="Arrow 16" d="M80.245 66.1449C80.5184 65.8715 80.5184 65.4283 80.245 65.1549L75.7902 60.7002C75.5168 60.4268 75.0736 60.4268 74.8003 60.7002C74.5269 60.9735 74.5269 61.4167 74.8003 61.6901L78.7601 65.6499L74.8003 69.6097C74.5269 69.8831 74.5269 70.3263 74.8003 70.5997C75.0736 70.873 75.5168 70.873 75.7902 70.5997L80.245 66.1449ZM66.45 66.3499L68.1125 66.3499L68.1125 64.9499L66.45 64.9499L66.45 66.3499ZM71.4375 66.3499L74.7625 66.3499L74.7625 64.9499L71.4375 64.9499L71.4375 66.3499ZM78.0875 66.3499L79.75 66.3499L79.75 64.9499L78.0875 64.9499L78.0875 66.3499ZM80.245 66.1449C80.5184 65.8715 80.5184 65.4283 80.245 65.1549L75.7902 60.7002C75.5168 60.4268 75.0736 60.4268 74.8003 60.7002C74.5269 60.9735 74.5269 61.4167 74.8003 61.6901L78.7601 65.6499L74.8003 69.6097C74.5269 69.8831 74.5269 70.3263 74.8003 70.5997C75.0736 70.873 75.5168 70.873 75.7902 70.5997L80.245 66.1449ZM66.45 66.3499L68.1125 66.3499L68.1125 64.9499L66.45 64.9499L66.45 66.3499ZM71.4375 66.3499L74.7625 66.3499L74.7625 64.9499L71.4375 64.9499L71.4375 66.3499ZM78.0875 66.3499L79.75 66.3499L79.75 64.9499L78.0875 64.9499L78.0875 66.3499Z" fill="url(#paint11_linear_816_377)" fill-opacity="0.3"/>
<path id="Arrow 17" d="M132.105 66.1449C131.832 65.8715 131.832 65.4283 132.105 65.1549L136.56 60.7002C136.833 60.4268 137.276 60.4268 137.55 60.7002C137.823 60.9735 137.823 61.4167 137.55 61.6901L133.59 65.6499L137.55 69.6097C137.823 69.8831 137.823 70.3263 137.55 70.5997C137.276 70.873 136.833 70.873 136.56 70.5997L132.105 66.1449ZM145.9 66.3499L144.238 66.3499L144.238 64.9499L145.9 64.9499L145.9 66.3499ZM140.913 66.3499L137.588 66.3499L137.588 64.9499L140.913 64.9499L140.913 66.3499ZM134.263 66.3499L132.6 66.3499L132.6 64.9499L134.263 64.9499L134.263 66.3499ZM132.105 66.1449C131.832 65.8715 131.832 65.4283 132.105 65.1549L136.56 60.7002C136.833 60.4268 137.276 60.4268 137.55 60.7002C137.823 60.9735 137.823 61.4167 137.55 61.6901L133.59 65.6499L137.55 69.6097C137.823 69.8831 137.823 70.3263 137.55 70.5997C137.276 70.873 136.833 70.873 136.56 70.5997L132.105 66.1449ZM145.9 66.3499L144.238 66.3499L144.238 64.9499L145.9 64.9499L145.9 66.3499ZM140.913 66.3499L137.588 66.3499L137.588 64.9499L140.913 64.9499L140.913 66.3499ZM134.263 66.3499L132.6 66.3499L132.6 64.9499L134.263 64.9499L134.263 66.3499Z" fill="url(#paint12_linear_816_377)" fill-opacity="0.3"/>
<path id="Arrow 14" d="M105.505 91.4052C105.778 91.1319 106.222 91.1319 106.495 91.4052L110.95 95.86C111.223 96.1334 111.223 96.5766 110.95 96.8499C110.676 97.1233 110.233 97.1233 109.96 96.8499L106 92.8901L102.04 96.8499C101.767 97.1233 101.324 97.1233 101.05 96.8499C100.777 96.5766 100.777 96.1334 101.05 95.86L105.505 91.4052ZM105.3 105.2L105.3 103.538L106.7 103.538L106.7 105.2L105.3 105.2ZM105.3 100.213L105.3 96.8877L106.7 96.8877L106.7 100.213L105.3 100.213ZM105.3 93.5627L105.3 91.9002L106.7 91.9002L106.7 93.5627L105.3 93.5627ZM105.505 91.4052C105.778 91.1319 106.222 91.1319 106.495 91.4052L110.95 95.86C111.223 96.1334 111.223 96.5766 110.95 96.8499C110.676 97.1233 110.233 97.1233 109.96 96.8499L106 92.8901L102.04 96.8499C101.767 97.1233 101.324 97.1233 101.05 96.8499C100.777 96.5766 100.777 96.1334 101.05 95.86L105.505 91.4052ZM105.3 105.2L105.3 103.538L106.7 103.538L106.7 105.2L105.3 105.2ZM105.3 100.213L105.3 96.8877L106.7 96.8877L106.7 100.213L105.3 100.213ZM105.3 93.5627L105.3 91.9002L106.7 91.9002L106.7 93.5627L105.3 93.5627Z" fill="url(#paint13_linear_816_377)" fill-opacity="0.3"/>
<path id="Arrow 15" d="M87.4045 84.2002C87.7911 84.2002 88.1045 84.5136 88.1045 84.9002L88.1045 91.2002C88.1045 91.5868 87.7911 91.9002 87.4045 91.9002C87.0179 91.9002 86.7045 91.5868 86.7045 91.2002V85.6002H81.1045C80.7179 85.6002 80.4045 85.2868 80.4045 84.9002C80.4045 84.5136 80.7179 84.2002 81.1045 84.2002L87.4045 84.2002ZM77.505 93.8097L78.6806 92.6341L79.6705 93.6241L78.495 94.7997L77.505 93.8097ZM81.0317 90.283L83.3829 87.9319L84.3728 88.9218L82.0217 91.273L81.0317 90.283ZM85.734 85.5808L86.9095 84.4052L87.8995 85.3951L86.7239 86.5707L85.734 85.5808ZM87.4045 84.2002C87.7911 84.2002 88.1045 84.5136 88.1045 84.9002L88.1045 91.2002C88.1045 91.5868 87.7911 91.9002 87.4045 91.9002C87.0179 91.9002 86.7045 91.5868 86.7045 91.2002V85.6002H81.1045C80.7179 85.6002 80.4045 85.2868 80.4045 84.9002C80.4045 84.5136 80.7179 84.2002 81.1045 84.2002L87.4045 84.2002ZM77.505 93.8097L78.6806 92.6341L79.6705 93.6241L78.495 94.7997L77.505 93.8097ZM81.0317 90.283L83.3829 87.9319L84.3728 88.9218L82.0217 91.273L81.0317 90.283ZM85.734 85.5808L86.9095 84.4052L87.8995 85.3951L86.7239 86.5707L85.734 85.5808Z" fill="url(#paint14_linear_816_377)" fill-opacity="0.3"/>
<path id="Arrow 18" d="M125.6 84.2002C125.213 84.2002 124.9 84.5136 124.9 84.9002L124.9 91.2002C124.9 91.5868 125.213 91.9002 125.6 91.9002C125.987 91.9002 126.3 91.5868 126.3 91.2002V85.6002H131.9C132.287 85.6002 132.6 85.2868 132.6 84.9002C132.6 84.5136 132.287 84.2002 131.9 84.2002L125.6 84.2002ZM135.499 93.8097L134.324 92.6341L133.334 93.6241L134.51 94.7997L135.499 93.8097ZM131.973 90.283L129.622 87.9319L128.632 88.9218L130.983 91.273L131.973 90.283ZM127.271 85.5808L126.095 84.4052L125.105 85.3951L126.281 86.5707L127.271 85.5808ZM125.6 84.2002C125.213 84.2002 124.9 84.5136 124.9 84.9002L124.9 91.2002C124.9 91.5868 125.213 91.9002 125.6 91.9002C125.987 91.9002 126.3 91.5868 126.3 91.2002V85.6002H131.9C132.287 85.6002 132.6 85.2868 132.6 84.9002C132.6 84.5136 132.287 84.2002 131.9 84.2002L125.6 84.2002ZM135.499 93.8097L134.324 92.6341L133.334 93.6241L134.51 94.7997L135.499 93.8097ZM131.973 90.283L129.622 87.9319L128.632 88.9218L130.983 91.273L131.973 90.283ZM127.271 85.5808L126.095 84.4052L125.105 85.3951L126.281 86.5707L127.271 85.5808Z" fill="url(#paint15_linear_816_377)" fill-opacity="0.3"/>
<path id="Arrow 19" d="M87.4045 47.4043C87.7911 47.4043 88.1045 47.0909 88.1045 46.7043L88.1045 40.4043C88.1045 40.0177 87.7911 39.7043 87.4045 39.7043C87.0179 39.7043 86.7045 40.0177 86.7045 40.4043V46.0043H81.1045C80.7179 46.0043 80.4045 46.3177 80.4045 46.7043C80.4045 47.0909 80.7179 47.4043 81.1045 47.4043L87.4045 47.4043ZM77.505 37.7948L78.6806 38.9703L79.6705 37.9804L78.495 36.8048L77.505 37.7948ZM81.0317 41.3215L83.3829 43.6726L84.3728 42.6827L82.0217 40.3315L81.0317 41.3215ZM85.734 46.0237L86.9095 47.1993L87.8995 46.2094L86.7239 45.0338L85.734 46.0237ZM87.4045 47.4043C87.7911 47.4043 88.1045 47.0909 88.1045 46.7043L88.1045 40.4043C88.1045 40.0177 87.7911 39.7043 87.4045 39.7043C87.0179 39.7043 86.7045 40.0177 86.7045 40.4043V46.0043H81.1045C80.7179 46.0043 80.4045 46.3177 80.4045 46.7043C80.4045 47.0909 80.7179 47.4043 81.1045 47.4043L87.4045 47.4043ZM77.505 37.7948L78.6806 38.9703L79.6705 37.9804L78.495 36.8048L77.505 37.7948ZM81.0317 41.3215L83.3829 43.6726L84.3728 42.6827L82.0217 40.3315L81.0317 41.3215ZM85.734 46.0237L86.9095 47.1993L87.8995 46.2094L86.7239 45.0338L85.734 46.0237Z" fill="url(#paint16_linear_816_377)" fill-opacity="0.3"/>
<path id="Arrow 20" d="M125.6 47.4043C125.213 47.4043 124.9 47.0909 124.9 46.7043L124.9 40.4043C124.9 40.0177 125.213 39.7043 125.6 39.7043C125.987 39.7043 126.3 40.0177 126.3 40.4043V46.0043H131.9C132.287 46.0043 132.6 46.3177 132.6 46.7043C132.6 47.0909 132.287 47.4043 131.9 47.4043L125.6 47.4043ZM135.499 37.7948L134.324 38.9703L133.334 37.9804L134.51 36.8048L135.499 37.7948ZM131.973 41.3215L129.622 43.6726L128.632 42.6827L130.983 40.3315L131.973 41.3215ZM127.271 46.0237L126.095 47.1993L125.105 46.2094L126.281 45.0338L127.271 46.0237ZM125.6 47.4043C125.213 47.4043 124.9 47.0909 124.9 46.7043L124.9 40.4043C124.9 40.0177 125.213 39.7043 125.6 39.7043C125.987 39.7043 126.3 40.0177 126.3 40.4043V46.0043H131.9C132.287 46.0043 132.6 46.3177 132.6 46.7043C132.6 47.0909 132.287 47.4043 131.9 47.4043L125.6 47.4043ZM135.499 37.7948L134.324 38.9703L133.334 37.9804L134.51 36.8048L135.499 37.7948ZM131.973 41.3215L129.622 43.6726L128.632 42.6827L130.983 40.3315L131.973 41.3215ZM127.271 46.0237L126.095 47.1993L125.105 46.2094L126.281 45.0338L127.271 46.0237Z" fill="url(#paint17_linear_816_377)" fill-opacity="0.3"/>
</g>
</g>
</g>
<defs>
<linearGradient id="paint0_linear_816_377" x1="106" y1="47" x2="106" y2="85" gradientUnits="userSpaceOnUse">
<stop stop-color="#9422ED"/>
<stop offset="1" stop-color="#B49FE1" stop-opacity="0.2"/>
</linearGradient>
<linearGradient id="paint1_linear_816_377" x1="106" y1="54.7734" x2="106" y2="78.7734" gradientUnits="userSpaceOnUse">
<stop stop-color="#7E46F2"/>
<stop offset="1" stop-color="#46279A"/>
</linearGradient>
<linearGradient id="paint2_linear_816_377" x1="106" y1="10" x2="106" y2="24" gradientUnits="userSpaceOnUse">
<stop stop-color="#9422ED"/>
<stop offset="1" stop-color="#B49FE1" stop-opacity="0.2"/>
</linearGradient>
<linearGradient id="paint3_linear_816_377" x1="141" y1="24" x2="141" y2="38" gradientUnits="userSpaceOnUse">
<stop stop-color="#9422ED"/>
<stop offset="1" stop-color="#B49FE1" stop-opacity="0.2"/>
</linearGradient>
<linearGradient id="paint4_linear_816_377" x1="57" y1="59" x2="57" y2="73" gradientUnits="userSpaceOnUse">
<stop stop-color="#9422ED"/>
<stop offset="1" stop-color="#B49FE1" stop-opacity="0.2"/>
</linearGradient>
<linearGradient id="paint5_linear_816_377" x1="106" y1="108" x2="106" y2="122" gradientUnits="userSpaceOnUse">
<stop stop-color="#9422ED"/>
<stop offset="1" stop-color="#B49FE1" stop-opacity="0.2"/>
</linearGradient>
<linearGradient id="paint6_linear_816_377" x1="71" y1="94" x2="71" y2="108" gradientUnits="userSpaceOnUse">
<stop stop-color="#9422ED"/>
<stop offset="1" stop-color="#B49FE1" stop-opacity="0.2"/>
</linearGradient>
<linearGradient id="paint7_linear_816_377" x1="71" y1="24" x2="71" y2="38" gradientUnits="userSpaceOnUse">
<stop stop-color="#9422ED"/>
<stop offset="1" stop-color="#B49FE1" stop-opacity="0.2"/>
</linearGradient>
<linearGradient id="paint8_linear_816_377" x1="141" y1="94" x2="141" y2="108" gradientUnits="userSpaceOnUse">
<stop stop-color="#9422ED"/>
<stop offset="1" stop-color="#B49FE1" stop-opacity="0.2"/>
</linearGradient>
<linearGradient id="paint9_linear_816_377" x1="155" y1="59" x2="155" y2="73" gradientUnits="userSpaceOnUse">
<stop stop-color="#9422ED"/>
<stop offset="1" stop-color="#B49FE1" stop-opacity="0.2"/>
</linearGradient>
<linearGradient id="paint10_linear_816_377" x1="106" y1="39.0501" x2="106" y2="26.1001" gradientUnits="userSpaceOnUse">
<stop stop-color="#9422ED"/>
<stop offset="1" stop-color="#B49FE1" stop-opacity="0.2"/>
</linearGradient>
<linearGradient id="paint11_linear_816_377" x1="79.4" y1="65.6499" x2="66.45" y2="65.6499" gradientUnits="userSpaceOnUse">
<stop stop-color="#9422ED"/>
<stop offset="1" stop-color="#B49FE1" stop-opacity="0.2"/>
</linearGradient>
<linearGradient id="paint12_linear_816_377" x1="132.95" y1="65.6499" x2="145.9" y2="65.6499" gradientUnits="userSpaceOnUse">
<stop stop-color="#9422ED"/>
<stop offset="1" stop-color="#B49FE1" stop-opacity="0.2"/>
</linearGradient>
<linearGradient id="paint13_linear_816_377" x1="106" y1="92.2502" x2="106" y2="105.2" gradientUnits="userSpaceOnUse">
<stop stop-color="#9422ED"/>
<stop offset="1" stop-color="#B49FE1" stop-opacity="0.2"/>
</linearGradient>
<linearGradient id="paint14_linear_816_377" x1="87.157" y1="85.1477" x2="78" y2="94.3047" gradientUnits="userSpaceOnUse">
<stop stop-color="#9422ED"/>
<stop offset="1" stop-color="#B49FE1" stop-opacity="0.2"/>
</linearGradient>
<linearGradient id="paint15_linear_816_377" x1="125.847" y1="85.1477" x2="135.005" y2="94.3047" gradientUnits="userSpaceOnUse">
<stop stop-color="#9422ED"/>
<stop offset="1" stop-color="#B49FE1" stop-opacity="0.2"/>
</linearGradient>
<linearGradient id="paint16_linear_816_377" x1="87.157" y1="46.4568" x2="78" y2="37.2998" gradientUnits="userSpaceOnUse">
<stop stop-color="#9422ED"/>
<stop offset="1" stop-color="#B49FE1" stop-opacity="0.2"/>
</linearGradient>
<linearGradient id="paint17_linear_816_377" x1="125.847" y1="46.4568" x2="135.005" y2="37.2998" gradientUnits="userSpaceOnUse">
<stop stop-color="#9422ED"/>
<stop offset="1" stop-color="#B49FE1" stop-opacity="0.2"/>
</linearGradient>
<clipPath id="clip0_816_377">
<rect width="212.667" height="133" fill="white"/>
</clipPath>
</defs>
</svg>
