<svg width="339" height="200" viewBox="0 0 339 200" fill="none" xmlns="http://www.w3.org/2000/svg">
<path d="M0 8C0 3.58173 3.58172 0 8 0H331C335.418 0 339 3.58172 339 8V192C339 196.418 335.418 200 331 200H7.99999C3.58171 200 0 196.418 0 192V8Z" fill="#4C249F"/>
<path fill-rule="evenodd" clip-rule="evenodd" d="M227.048 0H8C3.58172 0 0 3.58173 0 8V192C0 196.418 3.58171 200 7.99999 200H111.578L227.048 0Z" fill="url(#paint0_linear_777_1194)"/>
<path d="M230.68 57.1V59.44H221.62C221.59 60.46 221.14 64.33 220.93 65.29C221.8 64.24 223.33 63.37 225.43 63.37C229.72 63.37 231.94 66.25 231.94 69.73C231.94 73.66 229.18 76.36 225.07 76.36C220.51 76.36 217.9 73.51 218.11 69.31L220.63 69.52C220.63 72.37 222.16 74.29 225.13 74.29C227.8 74.29 229.42 72.52 229.42 69.76C229.42 67.27 227.8 65.44 225.13 65.44C223.03 65.44 221.68 66.55 220.99 67.84L218.41 67.66C218.89 65.05 219.52 60.22 219.61 57.1H230.68ZM249.442 66.55C249.442 72.82 246.532 76.36 241.582 76.36C236.632 76.36 233.752 72.82 233.752 66.55C233.752 60.28 236.632 56.74 241.582 56.74C246.532 56.74 249.442 60.28 249.442 66.55ZM246.712 66.55C246.712 61.42 245.062 58.84 241.582 58.84C238.102 58.84 236.452 61.42 236.452 66.55C236.452 71.68 238.102 74.26 241.582 74.26C245.062 74.26 246.712 71.68 246.712 66.55ZM256.248 54.28C257.728 54.28 258.848 54.87 259.608 56.05C260.368 57.21 260.748 58.85 260.748 60.97C260.748 63.09 260.378 64.75 259.638 65.95C258.918 67.13 257.788 67.72 256.248 67.72C255.308 67.72 254.508 67.45 253.848 66.91C253.188 66.37 252.688 65.6 252.348 64.6C252.028 63.58 251.868 62.37 251.868 60.97C251.868 58.85 252.218 57.21 252.918 56.05C253.618 54.87 254.728 54.28 256.248 54.28ZM256.248 56.14C255.488 56.14 254.928 56.55 254.568 57.37C254.228 58.17 254.058 59.37 254.058 60.97C254.058 62.57 254.228 63.78 254.568 64.6C254.928 65.42 255.488 65.83 256.248 65.83C257.028 65.83 257.608 65.43 257.988 64.63C258.368 63.81 258.558 62.59 258.558 60.97C258.558 59.37 258.368 58.17 257.988 57.37C257.608 56.55 257.028 56.14 256.248 56.14ZM269.958 54.58L258.078 76H255.768L267.648 54.58H269.958ZM269.358 62.86C270.338 62.86 271.158 63.13 271.818 63.67C272.478 64.19 272.978 64.95 273.318 65.95C273.678 66.93 273.858 68.13 273.858 69.55C273.858 71.67 273.488 73.33 272.748 74.53C272.028 75.71 270.898 76.3 269.358 76.3C268.418 76.3 267.618 76.03 266.958 75.49C266.298 74.95 265.798 74.18 265.458 73.18C265.138 72.16 264.978 70.95 264.978 69.55C264.978 67.43 265.328 65.79 266.028 64.63C266.728 63.45 267.838 62.86 269.358 62.86ZM269.358 64.75C268.598 64.75 268.038 65.15 267.678 65.95C267.338 66.75 267.168 67.95 267.168 69.55C267.168 71.17 267.338 72.39 267.678 73.21C268.038 74.01 268.598 74.41 269.358 74.41C270.138 74.41 270.718 74.01 271.098 73.21C271.478 72.41 271.668 71.19 271.668 69.55C271.668 67.95 271.478 66.75 271.098 65.95C270.718 65.15 270.138 64.75 269.358 64.75Z" fill="#9B6AFF"/>
<path d="M269.764 95.7638C269.557 95.4243 269.236 95.201 268.883 95.1508C268.801 95.1394 260.685 94 253.861 94C245.661 94 242.737 99.7086 242.737 105.052C242.737 105.431 242.754 105.813 242.784 106.194C241.029 104.093 238.246 102.659 234.138 102.659C227.314 102.659 219.197 103.799 219.116 103.81C218.762 103.86 218.442 104.084 218.234 104.423C218.027 104.763 217.953 105.189 218.029 105.597C218.066 105.791 218.942 110.41 221.299 115.072C224.504 121.417 228.909 124.767 234.046 124.767H234.15C238.24 124.73 241.015 123.297 242.77 121.212V136.519C242.77 137.337 243.338 138 244.04 138C244.741 138 245.31 137.337 245.31 136.519V112.639C247.069 114.676 249.821 116.071 253.853 116.107H253.956C259.092 116.107 263.499 112.757 266.704 106.413C269.06 101.748 269.936 97.1311 269.973 96.9374C270.045 96.5295 269.971 96.1034 269.764 95.7638ZM234.128 121.804H234.046C225.7 121.804 221.994 110.764 220.886 106.563C223.505 106.242 229.18 105.624 234.138 105.624C239.592 105.624 242.721 108.573 242.721 113.714C242.721 118.808 239.59 121.757 234.128 121.804ZM253.952 113.145H253.87C248.41 113.097 245.278 110.148 245.278 105.055C245.278 99.9137 248.407 96.9648 253.861 96.9648C258.819 96.9648 264.492 97.5824 267.113 97.9037C266.005 102.106 262.299 113.145 253.952 113.145Z" fill="url(#paint1_linear_777_1194)"/>
<path opacity="0.7" d="M117.863 96.6887H111.38L111.973 93.203C112.024 92.9035 111.939 92.5971 111.74 92.3654C111.542 92.1336 111.25 92 110.943 92H83.0578C82.7505 92 82.4588 92.1336 82.2603 92.3654C82.0618 92.5973 81.9767 92.9036 82.0277 93.203L82.6212 96.6887H76.138C75.0175 96.6887 74.0089 97.2578 73.4393 98.2109C72.8698 99.1639 72.8531 100.312 73.3945 101.28L78.4422 110.312C79.9125 112.943 82.7156 114.577 85.7574 114.577H85.8834C86.5841 116.431 87.7594 118.098 89.3158 119.402C90.1464 120.098 91.0641 120.672 92.0384 121.115L89.1929 135.936H86.6787C86.1019 135.936 85.6341 136.398 85.6341 136.968C85.6341 137.538 86.1019 138 86.6787 138H107.444C108.021 138 108.489 137.538 108.489 136.968C108.489 136.398 108.021 135.936 107.444 135.936H104.337L101.527 121.304C102.664 120.839 103.731 120.2 104.684 119.402C106.241 118.097 107.417 116.429 108.117 114.577H108.243C111.285 114.577 114.088 112.943 115.558 110.312L120.605 101.28C121.147 100.312 121.13 99.1641 120.561 98.2108C119.991 97.2579 118.982 96.6889 117.862 96.6889L117.863 96.6887ZM80.2714 109.314L75.2237 100.283C74.9637 99.8175 75.1477 99.4125 75.2387 99.2597C75.3299 99.1072 75.5999 98.7524 76.1383 98.7524H82.973L85.2898 112.359C85.2973 112.405 85.3072 112.451 85.3152 112.497C83.2072 112.35 81.3025 111.159 80.2716 109.314L80.2714 109.314ZM102.211 135.936H91.3195L94.0305 121.818C94.9952 122.066 95.9928 122.196 97.0004 122.196C97.8522 122.196 98.6967 122.103 99.5206 121.925L102.211 135.936ZM97.0005 120.132C92.2439 120.132 88.096 116.651 87.3513 112.026L84.2929 94.0639H109.708L106.648 112.035C105.905 116.652 101.757 120.133 97.0004 120.133L97.0005 120.132ZM118.777 100.283L113.73 109.314C112.699 111.159 110.794 112.35 108.686 112.498C108.693 112.454 108.703 112.412 108.71 112.368L111.028 98.7524H117.863C118.401 98.7524 118.671 99.1072 118.762 99.2597C118.854 99.4124 119.037 99.8174 118.777 100.283L118.777 100.283Z" fill="#C8ADFF"/>
<path d="M87.68 57.1V59.44H78.62C78.59 60.46 78.14 64.33 77.93 65.29C78.8 64.24 80.33 63.37 82.43 63.37C86.72 63.37 88.94 66.25 88.94 69.73C88.94 73.66 86.18 76.36 82.07 76.36C77.51 76.36 74.9 73.51 75.11 69.31L77.63 69.52C77.63 72.37 79.16 74.29 82.13 74.29C84.8 74.29 86.42 72.52 86.42 69.76C86.42 67.27 84.8 65.44 82.13 65.44C80.03 65.44 78.68 66.55 77.99 67.84L75.41 67.66C75.89 65.05 76.52 60.22 76.61 57.1H87.68ZM106.442 66.55C106.442 72.82 103.532 76.36 98.5817 76.36C93.6317 76.36 90.7517 72.82 90.7517 66.55C90.7517 60.28 93.6317 56.74 98.5817 56.74C103.532 56.74 106.442 60.28 106.442 66.55ZM103.712 66.55C103.712 61.42 102.062 58.84 98.5817 58.84C95.1017 58.84 93.4517 61.42 93.4517 66.55C93.4517 71.68 95.1017 74.26 98.5817 74.26C102.062 74.26 103.712 71.68 103.712 66.55ZM113.248 54.28C114.728 54.28 115.848 54.87 116.608 56.05C117.368 57.21 117.748 58.85 117.748 60.97C117.748 63.09 117.378 64.75 116.638 65.95C115.918 67.13 114.788 67.72 113.248 67.72C112.308 67.72 111.508 67.45 110.848 66.91C110.188 66.37 109.688 65.6 109.348 64.6C109.028 63.58 108.868 62.37 108.868 60.97C108.868 58.85 109.218 57.21 109.918 56.05C110.618 54.87 111.728 54.28 113.248 54.28ZM113.248 56.14C112.488 56.14 111.928 56.55 111.568 57.37C111.228 58.17 111.058 59.37 111.058 60.97C111.058 62.57 111.228 63.78 111.568 64.6C111.928 65.42 112.488 65.83 113.248 65.83C114.028 65.83 114.608 65.43 114.988 64.63C115.368 63.81 115.558 62.59 115.558 60.97C115.558 59.37 115.368 58.17 114.988 57.37C114.608 56.55 114.028 56.14 113.248 56.14ZM126.958 54.58L115.078 76H112.768L124.648 54.58H126.958ZM126.358 62.86C127.338 62.86 128.158 63.13 128.818 63.67C129.478 64.19 129.978 64.95 130.318 65.95C130.678 66.93 130.858 68.13 130.858 69.55C130.858 71.67 130.488 73.33 129.748 74.53C129.028 75.71 127.898 76.3 126.358 76.3C125.418 76.3 124.618 76.03 123.958 75.49C123.298 74.95 122.798 74.18 122.458 73.18C122.138 72.16 121.978 70.95 121.978 69.55C121.978 67.43 122.328 65.79 123.028 64.63C123.728 63.45 124.838 62.86 126.358 62.86ZM126.358 64.75C125.598 64.75 125.038 65.15 124.678 65.95C124.338 66.75 124.168 67.95 124.168 69.55C124.168 71.17 124.338 72.39 124.678 73.21C125.038 74.01 125.598 74.41 126.358 74.41C127.138 74.41 127.718 74.01 128.098 73.21C128.478 72.41 128.668 71.19 128.668 69.55C128.668 67.95 128.478 66.75 128.098 65.95C127.718 65.15 127.138 64.75 126.358 64.75Z" fill="#C8ADFF"/>
<defs>
<linearGradient id="paint0_linear_777_1194" x1="113.524" y1="0" x2="113.524" y2="200" gradientUnits="userSpaceOnUse">
<stop stop-color="#9422ED"/>
<stop offset="1" stop-color="#B49FE1" stop-opacity="0.2"/>
</linearGradient>
<linearGradient id="paint1_linear_777_1194" x1="244" y1="94" x2="244" y2="138" gradientUnits="userSpaceOnUse">
<stop stop-color="#9422ED"/>
<stop offset="1" stop-color="#B49FE1" stop-opacity="0.2"/>
</linearGradient>
</defs>
</svg>
