<svg width="157" height="155" viewBox="0 0 157 155" fill="none" xmlns="http://www.w3.org/2000/svg">
<g id="Group 2">
<path id="Vector" d="M79.8544 131.097C79.8544 128.125 82.2511 125.811 85.1403 125.811C88.0295 125.811 90.4262 128.142 90.4262 131.097C90.4262 134.052 88.0295 136.301 85.1403 136.301C82.2511 136.301 79.8544 133.97 79.8544 131.097ZM15.8161 21.685H22.2347C23.5972 21.685 24.8777 20.7165 25.2881 19.436L27.2087 13.3457L29.2115 19.436C29.6054 20.7165 30.8202 21.685 32.1827 21.685H38.6013L33.4796 25.4443C32.4454 26.2487 32.1171 27.1351 32.1171 27.8409C32.1171 28.317 32.2812 28.8752 32.5931 29.8437L34.3496 35.0475L29.1458 31.2883C28.5876 30.8943 27.8654 30.6481 27.2251 30.6481C26.5849 30.6481 25.9447 30.8943 25.4686 31.2883L20.1827 35.0475L21.8736 29.8437C22.2019 28.8752 22.3496 28.317 22.3496 27.8409C22.3496 26.9545 21.8736 26.0845 21.0692 25.4443L15.8653 21.685H15.8161ZM20.2976 120.032C18.9351 120.032 17.9009 118.998 17.9009 117.636C17.9009 117.16 18.0651 116.667 18.2949 116.355C21.496 111.463 24.221 105.619 25.9119 99.8409C27.1923 95.5071 27.8325 91.2719 27.8325 87.4142C27.8325 84.0489 27.7504 81.488 24.9433 80.9135C22.2183 80.3553 17.6547 80.5851 14.1253 79.5509C10.4317 78.5824 8.83936 76.0215 8.83936 72.9846C8.83936 68.8149 11.7285 65.5318 16.9324 60.4757L23.9912 53.6631C24.4673 53.187 25.0254 52.9409 25.682 52.9409C26.9625 52.9409 28.0788 54.0571 28.0788 55.3375C28.0788 55.9777 27.8325 56.5359 27.3565 57.0284L16.4563 68.0106C15.0938 69.3731 14.2073 70.9818 14.2073 72.1802C14.2073 73.871 15.5699 74.8232 18.2128 75.2993C21.1841 75.8574 25.4194 76.0215 28.8667 77.2199C32.5603 78.5003 32.5603 83.0639 32.5603 87.3977C32.5603 91.7315 31.838 96.3772 30.4755 101.187C28.6369 107.359 25.7477 113.696 22.5466 118.506C21.6601 119.786 21.0199 120.032 20.2976 120.032Z" fill="#FFB636"/>
<path id="Vector_2" d="M133.075 16.7113C133.075 23.0479 138.196 28.2516 144.615 28.2516C151.034 28.2516 156.155 23.0479 156.155 16.7113C156.155 10.3748 151.034 5.08888 144.615 5.08888C138.196 5.08888 133.075 10.2927 133.075 16.7113ZM120.894 59.3597H127.313C128.675 59.3597 129.956 58.3912 130.366 57.1108L132.287 51.0204L134.289 57.1108C134.683 58.3912 135.898 59.3597 137.261 59.3597H143.679L138.557 63.1189C137.523 63.9233 137.195 64.8098 137.195 65.5157C137.195 65.9917 137.359 66.5498 137.671 67.5184L139.428 72.7223L134.224 68.963C133.666 68.569 132.943 68.3228 132.303 68.3228C131.663 68.3228 131.023 68.569 130.547 68.963L125.261 72.7223L126.951 67.5184C127.28 66.5498 127.427 65.9917 127.427 65.5157C127.427 64.6292 126.951 63.7591 126.147 63.1189L120.943 59.3597H120.894ZM99.0116 126.763C99.0116 127.732 99.4877 128.684 100.292 129.242L111.521 137.335L107.597 149.352C107.269 150.32 107.039 151.19 107.039 151.683C107.039 153.291 108.484 154.654 110.24 154.654C110.88 154.654 111.521 154.408 112.079 154.014L123.225 145.921L134.453 154.014C134.93 154.408 135.652 154.654 136.292 154.654C137.901 154.654 139.411 153.291 139.411 151.453C139.411 150.977 139.247 150.484 139.017 149.762L135.012 137.335L146.24 129.242C147.044 128.684 147.438 127.797 147.438 126.599C147.438 125.237 146.404 123.546 144.319 123.546H130.448L126.196 110.315C125.802 109.116 124.588 108.23 123.225 108.23C121.945 108.23 120.664 109.116 120.254 110.315L116.002 123.546H102.131C100.21 123.546 99.0116 125.072 99.0116 126.747V126.763ZM97.485 107.688C99.6519 106.408 102.213 105.291 104.774 104.405C103.247 106.408 100.85 107.524 97.485 107.688ZM93.5616 21.6853H99.9802C101.343 21.6853 102.623 20.7168 103.034 19.4363L104.954 13.346L106.957 19.4363C107.351 20.7168 108.566 21.6853 109.928 21.6853H116.347L111.225 25.4446C110.191 26.249 109.863 27.1354 109.863 27.8412C109.863 28.3173 110.027 28.8755 110.339 29.844L112.095 35.0478L106.891 31.2886C106.333 30.8947 105.611 30.6484 104.971 30.6484C104.33 30.6484 103.69 30.8947 103.214 31.2886L97.9282 35.0478L99.619 29.844C99.9473 28.8755 100.095 28.3173 100.095 27.8412C100.095 26.9548 99.619 26.0848 98.8146 25.4446L93.6108 21.6853H93.5616ZM79.8543 131.097C79.8543 128.126 82.251 125.811 85.1402 125.811C88.0294 125.811 90.4261 128.142 90.4261 131.097C90.4261 134.052 88.0294 136.301 85.1402 136.301C82.251 136.301 79.8543 133.97 79.8543 131.097ZM77.2934 100.711C78.4097 93.5704 80.2647 83.1627 82.6614 77.6306C85.3865 80.7496 88.5876 82.2763 92.6751 82.2763C95.5643 82.2763 98.2073 81.3077 100.456 79.6333C102.213 82.4404 103.657 85.2475 104.708 88.0546C94.9241 90.4513 84.9104 95.6716 79.7066 102.238C78.9022 101.762 78.0978 101.269 77.3099 100.711H77.2934ZM76.1772 61.3624C77.1457 59.8357 78.0157 58.3911 78.8201 56.9465C80.0185 57.833 81.1512 58.7031 82.3495 59.5896C80.0185 59.5896 78.0157 60.2298 76.1772 61.3461V61.3624ZM68.7244 94.227C69.3646 90.1395 70.4152 84.6073 71.9255 79.5512C73.8461 73.1326 76.8995 65.7619 83.0718 65.7619C88.9159 65.7619 88.604 72.9028 92.6915 72.9028C95.3345 72.9028 98.1416 69.0615 99.7503 66.3365C101.753 62.8891 103.838 58.1614 105.759 52.6293C106.005 51.907 106.645 51.5129 107.285 51.5129C108.402 51.5129 109.124 52.6292 108.73 53.5977C106.645 59.7701 104.396 64.7441 102.163 68.5034C99.5205 72.7551 96.2373 76.0382 92.7079 76.0382C86.6176 76.0382 86.6997 69.0615 82.6943 69.0615C79.0828 69.0615 76.3577 75.7099 74.6012 81.8002C73.1566 87.004 72.2045 92.6183 71.5479 96.5417C70.7435 95.9015 69.8571 95.1791 69.0691 94.5389L68.7408 94.2106L68.7244 94.227ZM59.3509 42.4514C63.1101 42.0574 66.3276 39.7264 68.0841 36.6074C67.526 39.2503 66.8858 41.6634 66.2456 43.7482C63.9145 43.108 61.5999 42.632 59.3509 42.4678V42.4514ZM56.2975 80.6019C60.303 77.9589 64.8666 74.7578 68.4781 70.818C67.5096 72.9849 66.6395 75.2995 65.9172 77.7126C64.801 81.4719 63.9145 85.4938 63.2743 89.0068C60.7134 86.2817 58.3824 83.4746 56.2975 80.5854V80.6019ZM52.6861 30.9931C52.6861 28.0218 55.0828 25.7072 57.972 25.7072C60.8612 25.7072 63.2579 28.0382 63.2579 30.9931C63.2579 33.9479 60.8612 36.197 57.972 36.197C55.0828 36.197 52.6861 33.8658 52.6861 30.9931ZM51.4056 72.3611C54.2127 70.2762 57.7421 67.5512 61.1074 64.2681C66.3112 59.1463 69.8406 53.926 71.3673 48.6401L71.9255 46.7195C74.4863 37.9042 77.4576 24.0328 77.4576 7.92879C77.4576 7.04233 78.1799 6.32007 79.0664 6.32007C79.8707 6.32007 80.593 7.04233 80.593 7.92879C80.593 23.3925 78.9022 37.5102 75.0609 49.855C72.9761 56.5855 69.857 60.197 64.1607 66.3693C61.0417 69.7346 56.7079 72.7879 52.9323 75.2667C52.3741 74.2982 51.8981 73.346 51.4056 72.3775V72.3611ZM47.6464 58.6539C47.6464 51.7592 51.3399 48.7223 57.6601 48.7223C59.7449 48.7223 61.9118 49.0505 64.2264 49.6908C62.6176 53.056 60.1389 56.4213 56.6915 59.7865C54.0486 62.3474 51.3235 64.5143 48.9104 66.3529C48.106 63.7099 47.63 61.1491 47.63 58.6539H47.6464ZM47.6464 141.538C47.6464 138.566 50.0431 136.252 52.9323 136.252C55.8215 136.252 58.2182 138.583 58.2182 141.538C58.2182 144.492 55.8215 146.741 52.9323 146.741C50.0431 146.741 47.6464 144.41 47.6464 141.538ZM38.5027 77.4992L42.7545 67.4856C48.2866 86.3967 69.2825 107.245 87.8817 112.695L77.2278 117.176C75.3892 117.505 72.894 117.176 70.0869 116.208C63.9966 114.205 57.3482 109.789 51.4877 103.863C45.5616 98.0191 41.1457 91.3542 39.143 85.2639C38.1744 82.4568 37.5342 79.8139 38.5848 77.4007L38.5027 77.4828V77.4992ZM29.8516 118.621C32.1005 114.698 34.1033 110.364 35.63 105.964C37.5506 108.525 39.7175 111.02 42.0486 113.335C46.9405 118.227 52.3906 122.397 57.9227 125.352L45.972 130.408L44.6915 130.014C40.9979 128.733 36.7627 125.926 33.0691 122.315C31.9528 121.198 30.8201 119.918 29.868 118.621H29.8516ZM15.8324 21.7182H22.251C23.6135 21.7182 24.894 20.7496 25.3044 19.4692L27.225 13.3789L29.2278 19.4692C29.6218 20.7496 30.8365 21.7182 32.199 21.7182H38.6176L33.4959 25.4774C32.4617 26.2817 32.1334 27.1682 32.1334 27.8741C32.1334 28.3502 32.2975 28.9083 32.6094 29.8768L34.3659 35.0807L29.1621 31.3214C28.604 30.9274 27.8817 30.6812 27.2415 30.6812C26.6012 30.6812 25.961 30.9274 25.485 31.3214L20.199 35.0807L21.8899 29.8768C22.2182 28.9083 22.3659 28.3502 22.3659 27.8741C22.3659 26.9876 21.8899 26.1176 21.0855 25.4774L15.8817 21.7182H15.8324ZM9.57798 145.806L17.9993 126.008L18.8858 126.254C20.3304 128.093 21.9391 129.948 23.6956 131.704C25.6984 133.707 27.8653 135.546 30.0322 137.155L9.59439 145.806H9.57798ZM8.85568 73.0177C8.85568 68.8481 11.7449 65.5649 16.9487 60.5089L24.0075 53.6962C24.4836 53.2202 25.0417 52.9739 25.6984 52.9739C26.9788 52.9739 28.0951 54.0902 28.0951 55.3707C28.0951 56.0109 27.8488 56.569 27.3728 57.0615L16.4726 68.0437C15.1101 69.4062 14.2237 71.015 14.2237 72.2134C14.2237 73.9042 15.5862 74.8563 18.2291 75.3323C21.2004 75.8905 25.4357 76.0547 28.883 77.2531C32.5766 78.5335 32.5766 83.097 32.5766 87.4308C32.5766 91.7646 31.8543 96.4103 30.4918 101.22C28.6532 107.393 25.764 113.729 22.5629 118.539C21.6765 119.819 21.0363 120.066 20.314 120.066C18.9514 120.066 17.9172 119.031 17.9172 117.669C17.9172 117.193 18.0814 116.7 18.3112 116.388C21.5123 111.496 24.2373 105.652 25.9282 99.8741C27.2086 95.5403 27.8488 91.305 27.8488 87.4472C27.8488 84.082 27.7668 81.5212 24.9596 80.9466C22.2346 80.3885 17.671 80.6183 14.1416 79.5841C10.448 78.6155 8.85568 76.0547 8.85568 73.0177ZM3.01163 18.5991C3.01163 19.5676 3.48769 20.5198 4.29207 21.0779L15.5205 29.1709L11.5971 41.1873C11.2688 42.1559 11.039 43.0259 11.039 43.5184C11.039 45.1271 12.4836 46.4896 14.2401 46.4896C14.8803 46.4896 15.5205 46.2435 16.0787 45.8495L27.225 37.7565L38.4535 45.8495C38.9296 46.2435 39.6519 46.4896 40.2921 46.4896C41.9008 46.4896 43.4111 45.1272 43.4111 43.2886C43.4111 42.8126 43.2469 42.32 43.0171 41.5977L39.0116 29.1709L50.2401 21.0779C51.0445 20.5198 51.4384 19.6333 51.4384 18.435C51.4384 17.0725 50.4043 15.3817 48.3194 15.3817H34.448L30.1963 2.15047C29.8023 0.952116 28.5876 0.0656274 27.225 0.0656274C25.9446 0.0656274 24.6642 0.952116 24.2538 2.15047L20.0021 15.3817H6.13064C4.20999 15.3817 3.01163 16.9083 3.01163 18.5827V18.5991ZM3.73393 154.867C4.12791 154.867 4.5383 154.785 4.93229 154.621L41.6382 139.075C41.474 139.88 41.3919 140.684 41.3919 141.554C41.3919 147.89 46.5137 153.094 52.9323 153.094C59.3509 153.094 64.4726 147.89 64.4726 141.554C64.4726 137.384 62.3057 133.773 59.0226 131.688L75.5369 124.711C74.3386 126.55 73.6163 128.717 73.6163 131.13C73.6163 137.466 78.738 142.67 85.1566 142.67C91.5752 142.67 96.697 137.466 96.697 131.13C96.697 125.434 92.6915 120.706 87.3235 119.754L103.28 112.941C108.008 111.25 111.291 107.573 112.505 102.517C113.704 102.353 114.837 102.271 115.871 102.271C124.932 102.271 132.221 107.245 135.75 110.2C138.147 112.202 139.92 113.089 141.923 113.089C146.257 113.089 149.852 109.642 149.852 105.226C149.852 103.223 149.047 101.138 147.521 99.6115C140.79 92.881 129.003 86.5444 115.854 86.5444C114.246 86.5444 112.571 86.6265 110.88 86.8727C109.518 82.9493 107.597 79.0095 105.102 75.1682C105.988 74.134 106.711 73.0013 107.433 71.803C108.96 69.3242 111.127 65.0725 112.719 61.1491L120.582 66.8454L116.659 78.8618C116.33 79.8303 116.101 80.7003 116.101 81.1928C116.101 82.8016 117.545 84.1641 119.302 84.1641C119.942 84.1641 120.582 83.9178 121.14 83.5238L132.287 75.4308L143.515 83.5238C143.991 83.9178 144.713 84.1641 145.354 84.1641C146.962 84.1641 148.473 82.8015 148.473 80.963C148.473 80.4869 148.309 79.9945 148.079 79.2722L144.073 66.8454L155.302 58.7523C156.106 58.1942 156.5 57.3078 156.5 56.1094C156.5 54.7469 155.466 53.056 153.381 53.056H139.51L135.258 39.8248C134.864 38.6264 133.649 37.7401 132.287 37.7401C131.006 37.7401 129.726 38.6264 129.315 39.8248L125.064 53.056H115.132C115.05 48.7222 111.603 45.2749 107.269 45.2749C103.986 45.2749 100.932 47.2777 99.816 50.5608C98.6176 54.1723 96.5328 59.0643 94.842 62.2654C90.6724 57.9316 86.0267 54.1723 81.2168 50.9712C83.7777 42.0738 85.3865 33.3405 86.1908 24.1148L93.2497 29.1709L89.3263 41.1873C88.9979 42.1559 88.7681 43.0259 88.7681 43.5184C88.7681 45.1271 90.2127 46.4896 91.9692 46.4896C92.6094 46.4896 93.2497 46.2435 93.8078 45.8495L104.954 37.7565L116.183 45.8495C116.659 46.2435 117.381 46.4896 118.021 46.4896C119.63 46.4896 121.14 45.1272 121.14 43.2886C121.14 42.8126 120.976 42.32 120.746 41.5977L116.741 29.1709L127.969 21.0779C128.774 20.5198 129.168 19.6333 129.168 18.435C129.168 17.0725 128.133 15.3817 126.049 15.3817H112.177L107.925 2.15047C107.531 0.952116 106.317 0.0656274 104.954 0.0656274C103.674 0.0656274 102.393 0.952116 101.983 2.15047L97.7312 15.3817H86.749C86.8311 12.9029 86.9131 10.4897 86.9131 7.92879C86.9131 3.51292 83.3837 0 79.0499 0C74.7161 0 71.1211 3.52934 71.1211 7.92879C71.1211 15.792 70.3988 23.0806 69.4302 29.4828C68.6259 23.7865 63.816 19.3871 57.972 19.3871C51.5534 19.3871 46.4316 24.5909 46.4316 31.0095C46.4316 36.7879 50.6833 41.5977 56.2155 42.3857C49.1566 42.7797 43.9528 46.8016 42.0322 52.9739L33.6929 72.6894L33.6108 72.6073C30.5575 70.4404 27.1101 69.9644 23.3509 69.6361C24.5493 68.4377 25.9118 67.2393 27.4384 65.7127L31.6902 61.6251C33.4466 59.8686 34.3331 57.6197 34.3331 55.3707C34.3331 50.4788 30.4918 46.7195 25.5178 46.7195C23.3509 46.7195 21.2661 47.5239 19.6737 49.1162L7.32901 61.4609C3.71752 65.0724 2.60124 69.554 2.60124 73.0013C2.60124 83.015 10.6122 86.5444 21.5123 86.8727C21.5123 95.212 17.7531 105.784 13.091 112.925C12.1224 114.369 11.6464 116.044 11.6464 117.652C11.6464 119.261 12.0404 120.771 12.8447 122.068L0.746241 150.451C0.582082 150.845 0.5 151.256 0.5 151.65C0.5 152.454 0.828318 153.259 1.46854 153.899C2.02668 154.539 2.83106 154.867 3.71751 154.867H3.73393Z" fill="#B623A7"/>
<path id="Vector_3" d="M120.894 59.3594H127.313C128.675 59.3594 129.956 58.3909 130.366 57.1104L132.287 51.0201L134.289 57.1104C134.683 58.3909 135.898 59.3594 137.261 59.3594H143.679L138.557 63.1186C137.523 63.923 137.195 64.8095 137.195 65.5153C137.195 65.9914 137.359 66.5495 137.671 67.518L139.427 72.7219L134.224 68.9626C133.666 68.5686 132.943 68.3225 132.303 68.3225C131.663 68.3225 131.023 68.5686 130.547 68.9626L125.261 72.7219L126.951 67.518C127.28 66.5495 127.427 65.9914 127.427 65.5153C127.427 64.6289 126.951 63.7588 126.147 63.1186L120.943 59.3594H120.894ZM52.686 30.9764C52.686 28.0051 55.0828 25.6904 57.9719 25.6904C60.8611 25.6904 63.2579 28.0215 63.2579 30.9764C63.2579 33.9312 60.8611 36.1802 57.9719 36.1802C55.0828 36.1802 52.686 33.8492 52.686 30.9764ZM71.515 96.6234C70.5465 95.819 69.5944 95.0146 68.7079 94.2267C69.3481 90.1391 70.3988 84.607 71.909 79.5509C73.8297 73.1323 76.883 65.7616 83.0554 65.7616C88.8994 65.7616 88.5875 72.9025 92.6751 72.9025C95.318 72.9025 98.1252 69.0612 99.7339 66.3361C101.737 62.8888 103.821 58.1611 105.742 52.6289C105.988 51.9066 106.629 51.5126 107.269 51.5126C108.385 51.5126 109.107 52.6289 108.713 53.5974C106.629 59.7698 104.38 64.7438 102.147 68.503C99.5041 72.7547 96.2209 76.0379 92.6915 76.0379C86.6012 76.0379 86.6833 69.0611 82.6778 69.0611C79.0663 69.0611 76.3413 75.7096 74.5848 81.7998C73.1402 87.0037 72.1881 92.7 71.5315 96.6234H71.515Z" fill="#0DC5A5"/>
<path id="Vector_4" d="M93.5615 21.6854H99.9801C101.343 21.6854 102.623 20.7168 103.033 19.4364L104.954 13.3461L106.957 19.4364C107.351 20.7168 108.566 21.6854 109.928 21.6854H116.347L111.225 25.4447C110.191 26.249 109.862 27.1354 109.862 27.8413C109.862 28.3174 110.027 28.8756 110.339 29.8441L112.095 35.0479L106.891 31.2887C106.333 30.8947 105.611 30.6485 104.971 30.6485C104.33 30.6485 103.69 30.8947 103.214 31.2887L97.9281 35.0479L99.6189 29.8441C99.9473 28.8756 100.095 28.3174 100.095 27.8413C100.095 26.9549 99.6189 26.0849 98.8146 25.4447L93.6107 21.6854H93.5615ZM47.6299 141.521C47.6299 138.55 50.0266 136.235 52.9158 136.235C55.805 136.235 58.2017 138.566 58.2017 141.521C58.2017 144.476 55.805 146.725 52.9158 146.725C50.0266 146.725 47.6299 144.394 47.6299 141.521ZM52.9158 75.2339C52.3577 74.2654 51.8816 73.3132 51.3891 72.3447C54.1962 70.2599 57.7256 67.5349 61.0909 64.2517C66.2947 59.1299 69.8241 53.9098 71.3508 48.6239L71.909 46.7031C74.4698 37.8878 77.4411 24.0164 77.4411 7.91243C77.4411 7.02598 78.1634 6.30371 79.0499 6.30371C79.8542 6.30371 80.5765 7.02598 80.5765 7.91243C80.5765 23.3762 78.8857 37.4939 75.0444 49.8386C72.9596 56.5691 69.8406 60.1806 64.1443 66.353C61.0252 69.7182 56.6914 72.7715 52.9158 75.2503V75.2339Z" fill="#9E01FF"/>
<path id="Vector_5" d="M97.4851 107.688C99.652 106.407 102.213 105.291 104.774 104.405C103.247 106.407 100.85 107.524 97.4851 107.688ZM77.2936 100.711C78.4099 93.5701 80.2649 83.1625 82.6616 77.6303C85.3866 80.7493 88.5877 82.276 92.6753 82.276C95.5644 82.276 98.2074 81.3074 100.456 79.633C102.213 82.4401 103.657 85.2472 104.708 88.0543C94.9242 90.4511 84.9105 95.6713 79.7067 102.238L77.31 100.711H77.2936ZM76.1773 61.3621C77.1458 59.8355 78.0159 58.3909 78.8203 56.9463L82.3497 59.5893C80.0186 59.5893 78.0159 60.2295 76.1773 61.3458V61.3621ZM56.2977 80.6016C60.3032 77.9586 64.8668 74.7575 68.4783 70.8177C67.5097 72.9846 66.6397 75.2992 65.9174 77.7124C64.8011 81.4716 63.9147 85.4935 63.2744 89.0065C60.7136 86.2815 58.3825 83.4743 56.2977 80.5851V80.6016ZM47.6465 58.6371C47.6465 51.7425 51.3401 48.7056 57.6602 48.7056C59.745 48.7056 61.9119 49.0338 64.2265 49.674C62.6178 53.0393 60.139 56.4046 56.6917 59.7698C54.0487 62.3307 51.3237 64.4976 48.9106 66.3362C48.1062 63.6932 47.6301 61.1324 47.6301 58.6371H47.6465ZM38.5029 77.4661L42.7546 67.4525C48.2867 86.3635 69.2826 107.212 87.8818 112.662L77.2279 117.143C75.3894 117.472 72.8941 117.143 70.087 116.175C63.9967 114.172 57.3483 109.756 51.4878 103.83C45.5617 97.986 41.1458 91.3212 39.1431 85.2309C38.1746 82.4238 37.5343 79.7807 38.585 77.3676L38.5029 77.4498V77.4661ZM29.8517 118.588C32.1007 114.665 34.1034 110.331 35.6301 105.931C37.5508 108.492 39.7177 110.987 42.0487 113.302C46.9406 118.194 52.3907 122.364 57.9229 125.318L45.9721 130.374L44.6917 129.981C40.9981 128.7 36.7628 125.893 33.0692 122.281C31.9529 121.165 30.8203 119.885 29.8681 118.588H29.8517ZM30.0159 137.105L9.57812 145.756L17.9995 125.959L18.8859 126.205C20.3305 128.043 21.9393 129.898 23.6958 131.655C25.6985 133.658 27.8654 135.496 30.0323 137.105H30.0159Z" fill="#FA48E8"/>
<path id="Vector_6" d="M139.329 16.7116C139.329 13.7403 141.726 11.4256 144.615 11.4256C147.504 11.4256 149.901 13.7568 149.901 16.7116C149.901 19.6665 147.504 21.9154 144.615 21.9154C141.726 21.9154 139.329 19.5844 139.329 16.7116ZM133.075 16.7116C133.075 23.0481 138.196 28.2519 144.615 28.2519C151.034 28.2519 156.155 23.0481 156.155 16.7116C156.155 10.3751 151.034 5.08915 144.615 5.08915C138.196 5.08915 133.075 10.293 133.075 16.7116ZM120.894 59.36H127.313C128.675 59.36 129.956 58.3915 130.366 57.111L132.287 51.0207L134.289 57.111C134.683 58.3915 135.898 59.36 137.261 59.36H143.679L138.557 63.1192C137.523 63.9236 137.195 64.8101 137.195 65.5159C137.195 65.992 137.359 66.5501 137.671 67.5186L139.428 72.7225L134.224 68.9632C133.666 68.5693 132.943 68.3231 132.303 68.3231C131.663 68.3231 131.023 68.5693 130.547 68.9632L125.261 72.7225L126.951 67.5186C127.28 66.5501 127.427 65.992 127.427 65.5159C127.427 64.6295 126.951 63.7594 126.147 63.1192L120.943 59.36H120.894ZM111.832 129.899H118.251C119.614 129.899 120.894 128.93 121.304 127.65L123.225 121.56L125.228 127.65C125.622 128.93 126.837 129.899 128.199 129.899H134.618L129.496 133.658C128.462 134.463 128.133 135.349 128.133 136.055C128.133 136.531 128.298 137.089 128.609 138.058L130.366 143.261L125.162 139.502C124.604 139.108 123.882 138.862 123.241 138.862C122.601 138.862 121.961 139.108 121.485 139.502L116.199 143.261L117.89 138.058C118.218 137.089 118.366 136.531 118.366 136.055C118.366 135.168 117.89 134.298 117.086 133.658L111.882 129.899H111.832ZM99.0116 126.78C99.0116 127.748 99.4877 128.701 100.292 129.259L111.521 137.352L107.597 149.368C107.269 150.337 107.039 151.207 107.039 151.699C107.039 153.308 108.484 154.671 110.24 154.671C110.88 154.671 111.521 154.424 112.079 154.03L123.225 145.937L134.453 154.03C134.93 154.424 135.652 154.671 136.292 154.671C137.901 154.671 139.411 153.308 139.411 151.469C139.411 150.993 139.247 150.501 139.017 149.779L135.012 137.352L146.24 129.259C147.044 128.701 147.438 127.814 147.438 126.616C147.438 125.253 146.404 123.562 144.319 123.562H130.448L126.196 110.331C125.802 109.133 124.588 108.246 123.225 108.246C121.945 108.246 120.664 109.133 120.254 110.331L116.002 123.562H102.131C100.21 123.562 99.0116 125.089 99.0116 126.764V126.78ZM97.485 107.705C99.6519 106.424 102.213 105.308 104.774 104.422C103.247 106.424 100.85 107.541 97.485 107.705ZM93.5616 21.702H99.9802C101.343 21.702 102.623 20.7335 103.034 19.453L104.954 13.3627L106.957 19.453C107.351 20.7335 108.566 21.702 109.928 21.702H116.347L111.225 25.4612C110.191 26.2656 109.863 27.1521 109.863 27.8579C109.863 28.334 110.027 28.8921 110.339 29.8606L112.095 35.0645L106.891 31.3052C106.333 30.9113 105.611 30.6651 104.971 30.6651C104.33 30.6651 103.69 30.9113 103.214 31.3052L97.9282 35.0645L99.619 29.8606C99.9473 28.8921 100.095 28.334 100.095 27.8579C100.095 26.9715 99.619 26.1014 98.8146 25.4612L93.6108 21.702H93.5616ZM85.5506 105.062C92.1991 97.9209 106.399 92.7991 116.659 92.7991C126.919 92.7991 137.655 98.7253 142.629 103.617C143.351 104.339 143.515 104.733 143.515 105.226C143.515 106.03 142.875 106.753 141.906 106.753C141.512 106.753 141.102 106.588 140.15 105.636C135.98 101.385 125.966 96.0166 116.659 96.0166C107.351 96.0166 94.8584 100.58 88.7681 106.277C87.7339 105.948 86.6012 105.554 85.567 105.078L85.5506 105.062ZM79.8543 131.114C79.8543 128.143 82.251 125.828 85.1402 125.828C88.0294 125.828 90.4261 128.159 90.4261 131.114C90.4261 134.069 88.0294 136.318 85.1402 136.318C82.251 136.318 79.8543 133.987 79.8543 131.114ZM77.2934 100.728C78.4097 93.5871 80.2647 83.1794 82.6614 77.6473C85.3865 80.7663 88.5876 82.2929 92.6751 82.2929C95.5643 82.2929 98.2073 81.3244 100.456 79.65C102.213 82.4571 103.657 85.2642 104.708 88.0713C94.9241 90.468 84.9104 95.6883 79.7066 102.255C78.9022 101.779 78.0978 101.286 77.3099 100.728H77.2934ZM76.1772 61.3791C77.1457 59.8524 78.0157 58.4078 78.8201 56.9632C80.0185 57.8497 81.1512 58.7198 82.3495 59.6063C80.0185 59.6063 78.0157 60.2464 76.1772 61.3627V61.3791ZM68.7244 94.2437C69.3646 90.1562 70.4152 84.624 71.9255 79.5679C73.8461 73.1493 76.8995 65.7785 83.0718 65.7785C88.9159 65.7785 88.604 72.9195 92.6915 72.9195C95.3345 72.9195 98.1416 69.0782 99.7503 66.3532C101.753 62.9058 103.838 58.178 105.759 52.6459C106.005 51.9236 106.645 51.5296 107.285 51.5296C108.402 51.5296 109.124 52.6459 108.73 53.6144C106.645 59.7868 104.396 64.7608 102.163 68.5201C99.5205 72.7718 96.2373 76.0549 92.7079 76.0549C86.6176 76.0549 86.6997 69.0782 82.6943 69.0782C79.0828 69.0782 76.3577 75.7266 74.6012 81.8169C73.1566 87.0207 72.2045 92.6349 71.5479 96.5583C70.7435 95.9181 69.8571 95.1958 69.0691 94.5556L68.7408 94.2273L68.7244 94.2437ZM59.3509 42.4681C63.1101 42.0741 66.3276 39.7431 68.0841 36.6241C67.526 39.267 66.8858 41.6801 66.2456 43.7649C63.9145 43.1247 61.5999 42.6486 59.3509 42.4844V42.4681ZM56.2975 80.6186C60.303 77.9756 64.8666 74.7745 68.4781 70.8347C67.5096 73.0016 66.6395 75.3162 65.9172 77.7293C64.801 81.4886 63.9145 85.5105 63.2743 89.0235C60.7134 86.2984 58.3824 83.4913 56.2975 80.6021V80.6186ZM52.6861 31.0098C52.6861 28.0385 55.0828 25.7239 57.972 25.7239C60.8612 25.7239 63.2579 28.0549 63.2579 31.0098C63.2579 33.9646 60.8612 36.2137 57.972 36.2137C55.0828 36.2137 52.6861 33.8825 52.6861 31.0098ZM51.4056 72.3778C54.2127 70.2929 57.7421 67.5679 61.1074 64.2848C66.3112 59.163 69.8406 53.9427 71.3673 48.6568L71.9255 46.7362C74.4863 37.9209 77.4576 24.0495 77.4576 7.94549C77.4576 7.05904 78.1799 6.33677 79.0664 6.33677C79.8707 6.33677 80.593 7.05904 80.593 7.94549C80.593 23.4092 78.9022 37.5268 75.0609 49.8716C72.9761 56.6021 69.857 60.2136 64.1607 66.3859C61.0417 69.7512 56.7079 72.8046 52.9323 75.2834C52.3741 74.3149 51.8981 73.3627 51.4056 72.3942V72.3778ZM47.6464 58.6706C47.6464 51.7759 51.3399 48.7389 57.6601 48.7389C59.7449 48.7389 61.9118 49.0672 64.2264 49.7075C62.6176 53.0727 60.1389 56.438 56.6915 59.8032C54.0486 62.3641 51.3235 64.531 48.9104 66.3696C48.106 63.7266 47.63 61.1658 47.63 58.6706H47.6464ZM47.6464 141.554C47.6464 138.583 50.0431 136.268 52.9323 136.268C55.8215 136.268 58.2182 138.599 58.2182 141.554C58.2182 144.509 55.8215 146.758 52.9323 146.758C50.0431 146.758 47.6464 144.427 47.6464 141.554ZM38.5027 77.5159L42.7545 67.5023C48.2866 86.4134 69.2825 107.261 87.8817 112.712L77.2278 117.193C75.3892 117.521 72.894 117.193 70.0869 116.225C63.9966 114.222 57.3482 109.806 51.4877 103.88C45.5616 98.0358 41.1457 91.3709 39.143 85.2806C38.1744 82.4735 37.5342 79.8306 38.5848 77.4174L38.5027 77.4995V77.5159ZM29.8516 118.638C32.1005 114.714 34.1033 110.381 35.63 105.981C37.5506 108.542 39.7175 111.037 42.0486 113.352C46.9405 118.244 52.3906 122.413 57.9227 125.368L45.972 130.424L44.6915 130.03C40.9979 128.75 36.7627 125.943 33.0691 122.331C31.9528 121.215 30.8201 119.935 29.868 118.638H29.8516ZM15.8324 21.7349H22.251C23.6135 21.7349 24.894 20.7663 25.3044 19.4859L27.225 13.3956L29.2278 19.4859C29.6218 20.7663 30.8365 21.7349 32.199 21.7349H38.6176L33.4959 25.4941C32.4617 26.2984 32.1334 27.1849 32.1334 27.8908C32.1334 28.3669 32.2975 28.925 32.6094 29.8935L34.3659 35.0973L29.1621 31.3381C28.604 30.9441 27.8817 30.6979 27.2415 30.6979C26.6012 30.6979 25.961 30.9441 25.485 31.3381L20.199 35.0973L21.8899 29.8935C22.2182 28.925 22.3659 28.3669 22.3659 27.8908C22.3659 27.0044 21.8899 26.1343 21.0855 25.4941L15.8817 21.7349H15.8324ZM9.57798 145.822L17.9993 126.025L18.8858 126.271C20.3304 128.11 21.9391 129.965 23.6956 131.721C25.6984 133.724 27.8653 135.562 30.0322 137.171L9.59439 145.822H9.57798ZM8.85568 73.0344C8.85568 68.8648 11.7449 65.5816 16.9487 60.5256L24.0075 53.7129C24.4836 53.2369 25.0417 52.9906 25.6984 52.9906C26.9788 52.9906 28.0951 54.1069 28.0951 55.3874C28.0951 56.0276 27.8488 56.5857 27.3728 57.0782L16.4726 68.0604C15.1101 69.4229 14.2237 71.0317 14.2237 72.2301C14.2237 73.9209 15.5862 74.873 18.2291 75.349C21.2004 75.9072 25.4357 76.0713 28.883 77.2697C32.5766 78.5501 32.5766 83.1137 32.5766 87.4475C32.5766 91.7813 31.8543 96.427 30.4918 101.237C28.6532 107.409 25.764 113.746 22.5629 118.556C21.6765 119.836 21.0363 120.082 20.314 120.082C18.9514 120.082 17.9172 119.048 17.9172 117.686C17.9172 117.209 18.0814 116.717 18.3112 116.405C21.5123 111.513 24.2373 105.669 25.9282 99.8908C27.2086 95.557 27.8488 91.3217 27.8488 87.4639C27.8488 84.0987 27.7668 81.5378 24.9596 80.9632C22.2346 80.4051 17.671 80.635 14.1416 79.6008C10.448 78.6322 8.85568 76.0714 8.85568 73.0344ZM3.01163 18.6158C3.01163 19.5843 3.48769 20.5365 4.29207 21.0946L15.5205 29.1876L11.5971 41.204C11.2688 42.1726 11.039 43.0426 11.039 43.5351C11.039 45.1438 12.4836 46.5063 14.2401 46.5063C14.8803 46.5063 15.5205 46.2601 16.0787 45.8661L27.225 37.7731L38.4535 45.8661C38.9296 46.2601 39.6519 46.5063 40.2921 46.5063C41.9008 46.5063 43.4111 45.1438 43.4111 43.3052C43.4111 42.8292 43.2469 42.3367 43.0171 41.6144L39.0116 29.1876L50.2401 21.0946C51.0445 20.5365 51.4384 19.65 51.4384 18.4517C51.4384 17.0892 50.4043 15.3983 48.3194 15.3983H34.448L30.1963 2.16708C29.8023 0.968718 28.5876 0.0823291 27.225 0.0823291C25.9446 0.0823291 24.6642 0.968718 24.2538 2.16708L20.0021 15.3983H6.13064C4.20999 15.3983 3.01163 16.925 3.01163 18.5994V18.6158ZM3.73393 154.884C4.12791 154.884 4.5383 154.802 4.93229 154.638L41.6382 139.092C41.474 139.896 41.3919 140.701 41.3919 141.571C41.3919 147.907 46.5137 153.111 52.9323 153.111C59.3509 153.111 64.4726 147.907 64.4726 141.571C64.4726 137.401 62.3057 133.79 59.0226 131.705L75.5369 124.728C74.3386 126.567 73.6163 128.733 73.6163 131.147C73.6163 137.483 78.738 142.687 85.1566 142.687C91.5752 142.687 96.697 137.483 96.697 131.147C96.697 125.45 92.6915 120.722 87.3235 119.77L103.28 112.958C108.008 111.267 111.291 107.59 112.505 102.534C113.704 102.37 114.837 102.288 115.871 102.288C124.932 102.288 132.221 107.261 135.75 110.216C138.147 112.219 139.92 113.106 141.923 113.106C146.257 113.106 149.852 109.658 149.852 105.242C149.852 103.24 149.047 101.155 147.521 99.6281C140.79 92.8976 129.003 86.5611 115.854 86.5611C114.246 86.5611 112.571 86.6432 110.88 86.8894C109.518 82.966 107.597 79.0262 105.102 75.1849C105.988 74.1507 106.711 73.018 107.433 71.8197C108.96 69.3409 111.127 65.0891 112.719 61.1657L120.582 66.8621L116.659 78.8785C116.33 79.847 116.101 80.717 116.101 81.2095C116.101 82.8183 117.545 84.1808 119.302 84.1808C119.942 84.1808 120.582 83.9345 121.14 83.5405L132.287 75.4475L143.515 83.5405C143.991 83.9345 144.713 84.1808 145.354 84.1808C146.962 84.1808 148.473 82.8182 148.473 80.9797C148.473 80.5036 148.309 80.0112 148.079 79.2889L144.073 66.8621L155.302 58.769C156.106 58.2109 156.5 57.3244 156.5 56.126C156.5 54.7635 155.466 53.0727 153.381 53.0727H139.51L135.258 39.8415C134.864 38.6431 133.649 37.7568 132.287 37.7568C131.006 37.7568 129.726 38.6431 129.315 39.8415L125.064 53.0727H115.132C115.05 48.7389 111.603 45.2916 107.269 45.2916C103.986 45.2916 100.932 47.2944 99.816 50.5775C98.6176 54.189 96.5328 59.0809 94.842 62.282C90.6724 57.9482 86.0267 54.189 81.2168 50.9879C83.7777 42.0905 85.3865 33.3572 86.1908 24.1315L93.2497 29.1876L89.3263 41.204C88.9979 42.1726 88.7681 43.0426 88.7681 43.5351C88.7681 45.1438 90.2127 46.5063 91.9692 46.5063C92.6094 46.5063 93.2497 46.2601 93.8078 45.8661L104.954 37.7731L116.183 45.8661C116.659 46.2601 117.381 46.5063 118.021 46.5063C119.63 46.5063 121.14 45.1438 121.14 43.3052C121.14 42.8292 120.976 42.3367 120.746 41.6144L116.741 29.1876L127.969 21.0946C128.774 20.5365 129.168 19.65 129.168 18.4517C129.168 17.0892 128.133 15.3983 126.049 15.3983H112.177L107.925 2.16708C107.531 0.968718 106.317 0.0823291 104.954 0.0823291C103.674 0.0823291 102.393 0.968718 101.983 2.16708L97.7312 15.3983H86.749C86.8311 12.9195 86.9131 10.5064 86.9131 7.94549C86.9131 3.52962 83.3837 0.0166016 79.0499 0.0166016C74.7161 0.0166016 71.1211 3.54604 71.1211 7.94549C71.1211 15.8087 70.3988 23.0973 69.4302 29.4995C68.6259 23.8032 63.816 19.4037 57.972 19.4037C51.5534 19.4037 46.4316 24.6076 46.4316 31.0262C46.4316 36.8046 50.6833 41.6144 56.2155 42.4024C49.1566 42.7964 43.9528 46.8183 42.0322 52.9906L33.6929 72.7061L33.6108 72.624C30.5575 70.4571 27.1101 69.9811 23.3509 69.6528C24.5493 68.4544 25.9118 67.256 27.4384 65.7294L31.6902 61.6418C33.4466 59.8853 34.3331 57.6364 34.3331 55.3874C34.3331 50.4955 30.4918 46.7362 25.5178 46.7362C23.3509 46.7362 21.2661 47.5406 19.6737 49.1329L7.32901 61.4776C3.71752 65.0891 2.60124 69.5707 2.60124 73.018C2.60124 83.0317 10.6122 86.5611 21.5123 86.8894C21.5123 95.2287 17.7531 105.8 13.091 112.941C12.1224 114.386 11.6464 116.06 11.6464 117.669C11.6464 119.278 12.0404 120.788 12.8447 122.085L0.746241 150.468C0.582082 150.862 0.5 151.272 0.5 151.666C0.5 152.471 0.828318 153.275 1.46854 153.915C2.02668 154.556 2.83106 154.884 3.71751 154.884H3.73393Z" fill="#36147D"/>
</g>
</svg>
