<svg width="177" height="60" viewBox="0 0 177 60" fill="none" xmlns="http://www.w3.org/2000/svg">
<path d="M42.6572 25.4C42.6572 17.64 48.2172 12.32 55.5772 12.32C63.2972 12.32 67.4172 17.24 67.8972 23.52L61.3772 23.76C60.9772 20.96 59.4572 18.36 55.5372 18.36C51.8172 18.36 49.6572 21.12 49.6572 25.4C49.6572 29.68 51.8172 32.44 55.5372 32.44C59.4572 32.44 60.9772 29.84 61.3772 27.04L67.8972 27.32C67.4172 33.6 63.2972 38.48 55.5772 38.48C48.2172 38.48 42.6572 33.16 42.6572 25.4ZM80.695 30.56V30.28L78.055 30.76C76.495 31.08 75.575 31.56 75.575 32.72C75.575 33.64 76.295 34.24 77.375 34.24C79.215 34.24 80.695 32.88 80.695 30.56ZM87.055 26.68V32.76C87.055 33.68 87.455 34.08 88.135 34.08C88.655 34.08 89.055 34 89.575 33.8V37.24C88.655 37.88 87.375 38.4 85.535 38.4C83.335 38.4 81.615 37.28 81.015 35.24C79.975 37.32 77.935 38.4 75.095 38.4C71.615 38.4 69.335 36.6 69.335 33.56C69.335 30.12 71.815 28.64 75.695 27.96L80.695 27.12V26.84C80.695 25.36 80.015 24.48 78.455 24.48C77.015 24.48 76.295 25.4 76.015 26.72L70.015 26.32C70.575 22.4 73.495 19.68 78.855 19.68C83.575 19.68 87.055 21.72 87.055 26.68ZM97.9487 28.96V29.2C97.9487 31.8 99.3487 33.48 101.549 33.48C104.069 33.48 105.229 31.68 105.229 29.08C105.229 26.52 104.069 24.72 101.549 24.72C99.3487 24.72 97.9487 26.4 97.9487 28.96ZM97.5887 34.92L96.4687 38H91.4687V12.8H97.9487V23.24C98.8287 21.12 100.829 19.68 103.829 19.68C109.069 19.68 111.749 23.84 111.749 29.08C111.749 34.36 109.069 38.48 103.709 38.48C100.829 38.48 98.5887 37.08 97.5887 34.92ZM124.64 30.56V30.28L122 30.76C120.44 31.08 119.52 31.56 119.52 32.72C119.52 33.64 120.24 34.24 121.32 34.24C123.16 34.24 124.64 32.88 124.64 30.56ZM131 26.68V32.76C131 33.68 131.4 34.08 132.08 34.08C132.6 34.08 133 34 133.52 33.8V37.24C132.6 37.88 131.32 38.4 129.48 38.4C127.28 38.4 125.56 37.28 124.96 35.24C123.92 37.32 121.88 38.4 119.04 38.4C115.56 38.4 113.28 36.6 113.28 33.56C113.28 30.12 115.76 28.64 119.64 27.96L124.64 27.12V26.84C124.64 25.36 123.96 24.48 122.4 24.48C120.96 24.48 120.24 25.4 119.96 26.72L113.96 26.32C114.52 22.4 117.44 19.68 122.8 19.68C127.52 19.68 131 21.72 131 26.68ZM141.894 29.24V38H135.414V20.16H141.894V22.84C142.854 20.88 144.974 19.68 147.654 19.68C152.534 19.68 154.094 23.08 154.094 26.8V38H147.614V28.52C147.614 26.08 146.934 24.8 144.974 24.8C142.774 24.8 141.894 26.56 141.894 29.24ZM167.726 30.56V30.28L165.086 30.76C163.526 31.08 162.606 31.56 162.606 32.72C162.606 33.64 163.326 34.24 164.406 34.24C166.246 34.24 167.726 32.88 167.726 30.56ZM174.086 26.68V32.76C174.086 33.68 174.486 34.08 175.166 34.08C175.686 34.08 176.086 34 176.606 33.8V37.24C175.686 37.88 174.406 38.4 172.566 38.4C170.366 38.4 168.646 37.28 168.046 35.24C167.006 37.32 164.966 38.4 162.126 38.4C158.646 38.4 156.366 36.6 156.366 33.56C156.366 30.12 158.846 28.64 162.726 27.96L167.726 27.12V26.84C167.726 25.36 167.046 24.48 165.486 24.48C164.046 24.48 163.326 25.4 163.046 26.72L157.046 26.32C157.606 22.4 160.526 19.68 165.886 19.68C170.606 19.68 174.086 21.72 174.086 26.68Z" fill="#DECEFF"/>
<path d="M132.347 56V45.8182H138.452V46.9119H133.58V50.3523H137.995V51.446H133.58V56H132.347ZM140.564 56V45.8182H141.797V54.9062H146.53V56H140.564ZM149.499 56H148.206L151.945 45.8182H153.218L156.956 56H155.664L152.621 47.429H152.542L149.499 56ZM149.976 52.0227H155.186V53.1165H149.976V52.0227ZM164.11 48.3636C164.051 47.8598 163.809 47.4688 163.385 47.1903C162.96 46.9119 162.44 46.7727 161.824 46.7727C161.373 46.7727 160.978 46.8456 160.64 46.9915C160.306 47.1373 160.044 47.3378 159.855 47.593C159.669 47.8482 159.576 48.1383 159.576 48.4631C159.576 48.7348 159.641 48.9685 159.77 49.1641C159.903 49.3563 160.072 49.517 160.277 49.6463C160.483 49.7723 160.698 49.8767 160.924 49.9595C161.149 50.0391 161.356 50.1037 161.545 50.1534L162.579 50.4318C162.844 50.5014 163.139 50.5975 163.464 50.7202C163.792 50.8428 164.105 51.0102 164.404 51.2223C164.705 51.4311 164.954 51.6996 165.15 52.0277C165.345 52.3558 165.443 52.7585 165.443 53.2358C165.443 53.786 165.299 54.2831 165.01 54.7273C164.725 55.1714 164.308 55.5244 163.757 55.7862C163.211 56.0481 162.546 56.179 161.764 56.179C161.035 56.179 160.403 56.0613 159.87 55.826C159.339 55.5907 158.922 55.2625 158.617 54.8416C158.315 54.4207 158.145 53.9318 158.105 53.375H159.378C159.411 53.7595 159.54 54.0777 159.765 54.3295C159.994 54.5781 160.282 54.7637 160.63 54.8864C160.982 55.0057 161.36 55.0653 161.764 55.0653C162.235 55.0653 162.657 54.9891 163.032 54.8366C163.406 54.6809 163.703 54.4654 163.922 54.1903C164.14 53.9119 164.25 53.5871 164.25 53.2159C164.25 52.8778 164.155 52.6027 163.966 52.3906C163.777 52.1785 163.529 52.0062 163.221 51.8736C162.912 51.741 162.579 51.625 162.221 51.5256L160.968 51.1676C160.173 50.9389 159.543 50.6125 159.079 50.1882C158.615 49.764 158.383 49.2088 158.383 48.5227C158.383 47.9527 158.537 47.4555 158.846 47.0312C159.157 46.6037 159.575 46.2723 160.098 46.0369C160.625 45.7983 161.214 45.679 161.863 45.679C162.52 45.679 163.103 45.7966 163.613 46.032C164.124 46.264 164.528 46.5821 164.826 46.9865C165.128 47.3909 165.287 47.8499 165.304 48.3636H164.11ZM167.47 56V45.8182H168.703V50.3523H174.132V45.8182H175.365V56H174.132V51.446H168.703V56H167.47Z" fill="#B18CFF"/>
<ellipse cx="18.2" cy="24.3977" rx="18" ry="17.9993" fill="#8050E3"/>
<mask id="mask0_8_826" style="mask-type:alpha" maskUnits="userSpaceOnUse" x="0" y="6" width="37" height="37">
<ellipse cx="18.2" cy="24.3977" rx="18" ry="17.9993" fill="#8050E3"/>
</mask>
<g mask="url(#mask0_8_826)">
<path d="M17.322 20.989C17.0279 27.7354 17.154 43.1935 20.0119 51.0547" stroke="#DECEFF" stroke-width="3.59993" stroke-linecap="round"/>
<path d="M17.7904 22.6452C17.4892 18.7623 16.2584 9.9223 8.1252 15.9905C10.9346 15.8425 15.6767 19.0394 17.7904 22.6452Z" fill="#DECEFF" stroke="#C8ADFF" stroke-width="1.27739"/>
<path d="M17.675 23.9151C15.5332 19.9741 10.0716 14.6288 5.35933 24.7757C7.92005 23.3181 13.9682 21.1053 17.675 23.9151Z" fill="#DECEFF" stroke="#C8ADFF" stroke-width="1.27739"/>
<path d="M18.7048 24.5198C15.1594 22.5676 7.97527 21.6454 9.4425 31.5651C10.6429 29.2387 14.5441 24.171 18.7048 24.5198Z" fill="#DECEFF" stroke="#C8ADFF" stroke-width="1.27739"/>
<path d="M17.7332 23.2797C17.8731 20.2748 19.6444 10.3802 26.8768 14.4831C24.4393 14.5631 19.4513 20.3628 17.7332 23.2797Z" fill="#DECEFF" stroke="#C8ADFF" stroke-width="1.27739"/>
<path d="M17.6751 23.918C19.7268 19.7452 25.0583 13.9726 29.9711 24.2649C27.3874 22.8696 21.311 20.8468 17.6751 23.918Z" fill="#DECEFF" stroke="#C8ADFF" stroke-width="1.27739"/>
<path d="M17.6171 24.5532C21.1126 22.527 28.0493 21.3252 26.5299 31.0533C25.3702 28.8248 21.7037 24.0702 17.6171 24.5532Z" fill="#DECEFF" stroke="#C8ADFF" stroke-width="1.27739"/>
</g>
</svg>
