<svg width="88" height="88" viewBox="0 0 88 88" fill="none" xmlns="http://www.w3.org/2000/svg">
<g id="Group 4">
<path id="Vector" d="M44.7639 73.952C44.7639 72.2759 46.1159 70.9702 47.7457 70.9702C49.3755 70.9702 50.7275 72.2852 50.7275 73.952C50.7275 75.6189 49.3755 76.8875 47.7457 76.8875C46.1159 76.8875 44.7639 75.5725 44.7639 73.952ZM8.6397 12.2325H12.2605C13.0291 12.2325 13.7514 11.6862 13.9829 10.9639L15.0663 7.52832L16.1961 10.9639C16.4183 11.6862 17.1036 12.2325 17.8722 12.2325H21.4929L18.6037 14.3532C18.0203 14.8069 17.8351 15.3069 17.8351 15.7051C17.8351 15.9737 17.9277 16.2885 18.1037 16.8349L19.0945 19.7704L16.159 17.6498C15.8442 17.4276 15.4367 17.2886 15.0756 17.2886C14.7144 17.2886 14.3533 17.4276 14.0847 17.6498L11.1029 19.7704L12.0567 16.8349C12.2419 16.2885 12.3253 15.9737 12.3253 15.7051C12.3253 15.2051 12.0567 14.7143 11.603 14.3532L8.66748 12.2325H8.6397ZM11.1677 67.7106C10.3991 67.7106 9.81575 67.1272 9.81575 66.3586C9.81575 66.0901 9.90835 65.8122 10.038 65.6363C11.8437 62.8767 13.3809 59.5801 14.3347 56.3205C15.057 53.8758 15.4182 51.4867 15.4182 49.3105C15.4182 47.4122 15.3719 45.9676 13.7884 45.6435C12.2512 45.3286 9.67685 45.4583 7.6859 44.8749C5.60235 44.3285 4.7041 42.8839 4.7041 41.1708C4.7041 38.8187 6.3339 36.9666 9.2694 34.1145L13.2513 30.2715C13.5198 30.0029 13.8347 29.8641 14.2051 29.8641C14.9274 29.8641 15.5571 30.4937 15.5571 31.216C15.5571 31.5772 15.4182 31.892 15.1496 32.1698L9.00085 38.3649C8.23225 39.1335 7.7322 40.041 7.7322 40.717C7.7322 41.6708 8.5008 42.2079 9.99169 42.4765C11.6678 42.7913 14.0569 42.8839 16.0016 43.5599C18.0851 44.2822 18.0851 46.8566 18.0851 49.3013C18.0851 51.746 17.6777 54.3666 16.9091 57.0798C15.8719 60.5617 14.2421 64.1361 12.4364 66.8494C11.9363 67.5717 11.5752 67.7106 11.1677 67.7106Z" fill="#FFB636"/>
<path id="Vector_2" d="M74.7857 9.42691C74.7857 13.0014 77.6748 15.9368 81.2956 15.9368C84.9163 15.9368 87.8055 13.0014 87.8055 9.42691C87.8055 5.85246 84.9163 2.87065 81.2956 2.87065C77.6748 2.87065 74.7857 5.80616 74.7857 9.42691ZM67.9146 33.485H71.5353C72.3039 33.485 73.0262 32.9386 73.2577 32.2163L74.3412 28.7808L75.4709 32.2163C75.6932 32.9386 76.3784 33.485 77.147 33.485H80.7678L77.8786 35.6056C77.2952 36.0593 77.11 36.5594 77.11 36.9576C77.11 37.2261 77.2026 37.5409 77.3785 38.0873L78.3694 41.0228L75.4339 38.9022C75.119 38.6799 74.7116 38.5411 74.3504 38.5411C73.9893 38.5411 73.6281 38.6799 73.3596 38.9022L70.3778 41.0228L71.3316 38.0873C71.5168 37.5409 71.6001 37.2261 71.6001 36.9576C71.6001 36.4575 71.3316 35.9667 70.8778 35.6056L67.9423 33.485H67.9146ZM55.5707 71.5075C55.5707 72.0538 55.8392 72.591 56.293 72.9058L62.627 77.4711L60.4138 84.2496C60.2286 84.7959 60.0989 85.2867 60.0989 85.5645C60.0989 86.472 60.9138 87.2406 61.9047 87.2406C62.2658 87.2406 62.627 87.1017 62.9418 86.8795L69.2295 82.3142L75.5635 86.8795C75.8321 87.1017 76.2395 87.2406 76.6007 87.2406C77.5082 87.2406 78.3601 86.472 78.3601 85.4349C78.3601 85.1663 78.2675 84.8885 78.1379 84.4811L75.8784 77.4711L82.2124 72.9058C82.6661 72.591 82.8883 72.0909 82.8883 71.4149C82.8883 70.6463 82.305 69.6925 81.1289 69.6925H73.304L70.9056 62.2287C70.6834 61.5527 69.9981 61.0527 69.2295 61.0527C68.5072 61.0527 67.7849 61.5527 67.5534 62.2287L65.155 69.6925H57.3301C56.2467 69.6925 55.5707 70.5537 55.5707 71.4982V71.5075ZM54.7095 60.7471C55.9318 60.0248 57.3764 59.3951 58.821 58.8951C57.9598 60.0248 56.6078 60.6545 54.7095 60.7471ZM52.4963 12.2327H56.117C56.8856 12.2327 57.6079 11.6864 57.8394 10.9641L58.9229 7.52852L60.0526 10.9641C60.2749 11.6864 60.9601 12.2327 61.7287 12.2327H65.3495L62.4603 14.3534C61.8769 14.8071 61.6917 15.3071 61.6917 15.7053C61.6917 15.9739 61.7843 16.2887 61.9602 16.8351L62.9511 19.7706L60.0156 17.65C59.7007 17.4278 59.2933 17.2888 58.9321 17.2888C58.571 17.2888 58.2098 17.4278 57.9413 17.65L54.9595 19.7706L55.9133 16.8351C56.0985 16.2887 56.1818 15.9739 56.1818 15.7053C56.1818 15.2053 55.9133 14.7145 55.4595 14.3534L52.524 12.2327H52.4963ZM44.764 73.9522C44.764 72.2761 46.116 70.9704 47.7458 70.9704C49.3756 70.9704 50.7276 72.2854 50.7276 73.9522C50.7276 75.6191 49.3756 76.8877 47.7458 76.8877C46.116 76.8877 44.764 75.5728 44.764 73.9522ZM43.3194 56.8115C43.9491 52.7833 44.9955 46.9123 46.3475 43.7916C47.8847 45.5511 49.6904 46.4123 51.9962 46.4123C53.626 46.4123 55.1169 45.8659 56.3856 44.9213C57.3764 46.5048 58.1913 48.0884 58.784 49.6719C53.2649 51.0238 47.6161 53.9686 44.6806 57.6727C44.2269 57.4042 43.7731 57.1264 43.3286 56.8115H43.3194ZM42.6897 34.6147C43.236 33.7535 43.7268 32.9386 44.1806 32.1237C44.8566 32.6237 45.4955 33.1146 46.1715 33.6146C44.8566 33.6146 43.7268 33.9758 42.6897 34.6055V34.6147ZM38.4855 53.1537C38.8467 50.8479 39.4393 47.7272 40.2913 44.8751C41.3747 41.2543 43.0971 37.0965 46.579 37.0965C49.8756 37.0965 49.6997 41.1247 52.0055 41.1247C53.4964 41.1247 55.0799 38.9578 55.9874 37.4206C57.1171 35.4759 58.2932 32.809 59.3766 29.6883C59.5155 29.2809 59.8767 29.0586 60.2378 29.0586C60.8675 29.0586 61.275 29.6883 61.0527 30.2346C59.8767 33.7165 58.608 36.5223 57.3486 38.6429C55.8577 41.0413 54.0057 42.8934 52.0147 42.8934C48.5792 42.8934 48.6255 38.9578 46.366 38.9578C44.3287 38.9578 42.7915 42.7082 41.8007 46.1437C40.9858 49.0792 40.4487 52.2462 40.0783 54.4594C39.6245 54.0983 39.1245 53.6908 38.68 53.3297L38.4948 53.1444L38.4855 53.1537ZM33.1979 23.947C35.3185 23.7247 37.1335 22.4098 38.1244 20.6503C37.8095 22.1412 37.4484 23.5024 37.0872 24.6785C35.7723 24.3173 34.4666 24.0488 33.1979 23.9562V23.947ZM31.4755 45.4677C33.735 43.9768 36.3094 42.1711 38.3466 39.9486C37.8003 41.171 37.3095 42.4767 36.902 43.8379C36.2723 45.9585 35.7723 48.2273 35.4111 50.209C33.9665 48.6718 32.6516 47.0883 31.4755 45.4585V45.4677ZM29.4383 17.4833C29.4383 15.8072 30.7903 14.5015 32.4201 14.5015C34.0499 14.5015 35.4019 15.8164 35.4019 17.4833C35.4019 19.1501 34.0499 20.4188 32.4201 20.4188C30.7903 20.4188 29.4383 19.1038 29.4383 17.4833ZM28.716 40.8191C30.2995 39.643 32.2904 38.1058 34.1888 36.2538C37.1243 33.3646 39.1152 30.4198 39.9764 27.438L40.2913 26.3546C41.7359 21.3818 43.412 13.5569 43.412 4.47265C43.412 3.9726 43.8194 3.56517 44.3195 3.56517C44.7732 3.56517 45.1807 3.9726 45.1807 4.47265C45.1807 13.1958 44.2269 21.1596 42.06 28.1233C40.8839 31.92 39.1245 33.9573 35.9112 37.4391C34.1517 39.3375 31.707 41.0599 29.5772 42.4581C29.2623 41.9118 28.9938 41.3747 28.716 40.8283V40.8191ZM26.5954 33.0868C26.5954 29.1975 28.6789 27.4844 32.2441 27.4844C33.4202 27.4844 34.6425 27.6695 35.9482 28.0307C35.0407 29.929 33.6424 31.8274 31.6978 33.7258C30.2069 35.1704 28.6697 36.3927 27.3084 37.4298C26.8547 35.9389 26.5861 34.4944 26.5861 33.0868H26.5954ZM26.5954 79.8417C26.5954 78.1656 27.9474 76.8599 29.5772 76.8599C31.207 76.8599 32.559 78.1749 32.559 79.8417C32.559 81.5086 31.207 82.7772 29.5772 82.7772C27.9474 82.7772 26.5954 81.4622 26.5954 79.8417ZM21.4374 43.7175L23.8358 38.0688C26.9565 48.7366 38.8004 60.4971 49.2922 63.5715L43.2823 66.0995C42.2452 66.2847 40.8376 66.0995 39.2541 65.5532C35.8186 64.4234 32.0682 61.9324 28.7623 58.5895C25.4193 55.2928 22.9283 51.5331 21.7986 48.0976C21.2522 46.5141 20.8911 45.0232 21.4837 43.662L21.4374 43.7083V43.7175ZM16.5573 66.9144C17.826 64.7012 18.9557 62.2565 19.8169 59.7748C20.9003 61.2194 22.1227 62.6269 23.4377 63.9326C26.1972 66.6922 29.2716 69.0443 32.3923 70.7111L25.6509 73.5632L24.9285 73.341C22.845 72.6187 20.4559 71.0352 18.3723 68.998C17.7426 68.3683 17.1037 67.646 16.5666 66.9144H16.5573ZM8.64906 12.2513H12.2698C13.0384 12.2513 13.7607 11.7049 13.9922 10.9826L15.0757 7.54706L16.2054 10.9826C16.4277 11.7049 17.1129 12.2513 17.8815 12.2513H21.5023L18.6131 14.3718C18.0297 14.8256 17.8445 15.3257 17.8445 15.7239C17.8445 15.9924 17.9371 16.3072 18.113 16.8536L19.1039 19.7891L16.1684 17.6685C15.8535 17.4462 15.4461 17.3073 15.0849 17.3073C14.7238 17.3073 14.3626 17.4462 14.0941 17.6685L11.1123 19.7891L12.0661 16.8536C12.2513 16.3072 12.3346 15.9924 12.3346 15.7239C12.3346 15.2238 12.0661 14.733 11.6123 14.3718L8.67684 12.2513H8.64906ZM5.12091 82.2493L9.87141 71.0815L10.3715 71.2204C11.1864 72.2576 12.0939 73.304 13.0847 74.2948C14.2145 75.4246 15.4368 76.4617 16.6592 77.3692L5.13017 82.2493H5.12091ZM4.71346 41.1895C4.71346 38.8374 6.34326 36.9854 9.27875 34.1332L13.2607 30.2902C13.5292 30.0216 13.8441 29.8827 14.2145 29.8827C14.9368 29.8827 15.5665 30.5125 15.5665 31.2348C15.5665 31.5959 15.4276 31.9107 15.159 32.1885L9.01021 38.3836C8.24161 39.1522 7.74156 40.0598 7.74156 40.7358C7.74156 41.6896 8.51016 42.2266 10.0011 42.4952C11.6772 42.81 14.0663 42.9027 16.0109 43.5787C18.0945 44.301 18.0945 46.8753 18.0945 49.32C18.0945 51.7647 17.687 54.3853 16.9184 57.0986C15.8813 60.5804 14.2515 64.1549 12.4458 66.8681C11.9457 67.5904 11.5846 67.7293 11.1771 67.7293C10.4085 67.7293 9.82511 67.146 9.82511 66.3773C9.82511 66.1088 9.91771 65.831 10.0474 65.655C11.8531 62.8955 13.3903 59.5988 14.3441 56.3392C15.0664 53.8945 15.4276 51.5054 15.4276 49.3292C15.4276 47.4309 15.3812 45.9863 13.7977 45.6622C12.2606 45.3474 9.68621 45.477 7.69526 44.8936C5.6117 44.3472 4.71346 42.9026 4.71346 41.1895ZM1.41682 10.4918C1.41682 11.0382 1.68536 11.5753 2.13912 11.8901L8.47311 16.4554L6.25992 23.2339C6.07472 23.7802 5.94507 24.271 5.94507 24.5488C5.94507 25.4563 6.75997 26.2249 7.75082 26.2249C8.11197 26.2249 8.47311 26.0861 8.78796 25.8638L15.0757 21.2985L21.4097 25.8638C21.6782 26.0861 22.0857 26.2249 22.4468 26.2249C23.3543 26.2249 24.2062 25.4564 24.2062 24.4192C24.2062 24.1507 24.1136 23.8729 23.984 23.4654L21.7245 16.4554L28.0585 11.8901C28.5123 11.5753 28.7345 11.0752 28.7345 10.3992C28.7345 9.63062 28.1511 8.67683 26.9751 8.67683H19.1502L16.7518 1.21309C16.5295 0.537091 15.8443 0.0370206 15.0757 0.0370206C14.3534 0.0370206 13.6311 0.537091 13.3996 1.21309L11.0012 8.67683H3.17626C2.09281 8.67683 1.41682 9.53799 1.41682 10.4825V10.4918ZM1.82427 87.361C2.04651 87.361 2.27802 87.3147 2.50026 87.2221L23.2062 78.4527C23.1135 78.9064 23.0672 79.3602 23.0672 79.851C23.0672 83.4254 25.9564 86.3609 29.5772 86.3609C33.1979 86.3609 36.0871 83.4254 36.0871 79.851C36.0871 77.4989 34.8648 75.4616 33.0127 74.2856L42.3285 70.35C41.6525 71.3871 41.2451 72.6094 41.2451 73.9707C41.2451 77.5451 44.1343 80.4807 47.755 80.4807C51.3758 80.4807 54.265 77.5451 54.265 73.9707C54.265 70.7574 52.0055 68.0905 48.9774 67.5534L57.9783 63.7104C60.6453 62.7566 62.4973 60.6823 63.1826 57.8301C63.8586 57.7375 64.4975 57.6912 65.0809 57.6912C70.1926 57.6912 74.3041 60.4971 76.2951 62.1639C77.6471 63.2936 78.6472 63.7937 79.7769 63.7937C82.2216 63.7937 84.2496 61.8491 84.2496 59.3581C84.2496 58.2283 83.7959 57.0523 82.9346 56.1911C79.138 52.3944 72.4891 48.8199 65.0717 48.8199C64.1642 48.8199 63.2196 48.8662 62.2658 49.0051C61.4972 46.7919 60.4138 44.5695 59.0062 42.4026C59.5063 41.8192 59.9137 41.1802 60.3212 40.5043C61.1824 39.106 62.4047 36.7076 63.303 34.4944L67.7386 37.7076L65.5254 44.4861C65.3402 45.0325 65.2106 45.5233 65.2106 45.8011C65.2106 46.7086 66.0255 47.4772 67.0163 47.4772C67.3775 47.4772 67.7386 47.3383 68.0535 47.116L74.3412 42.5507L80.6752 47.116C80.9437 47.3383 81.3512 47.4772 81.7123 47.4772C82.6198 47.4772 83.4717 46.7086 83.4717 45.6714C83.4717 45.4029 83.3792 45.1251 83.2495 44.7176L80.99 37.7076L87.324 33.1424C87.7778 32.8275 88 32.3275 88 31.6515C88 30.8829 87.4166 29.929 86.2406 29.929H78.4157L76.0173 22.4653C75.795 21.7893 75.1098 21.2893 74.3412 21.2893C73.6189 21.2893 72.8966 21.7893 72.6651 22.4653L70.2667 29.929H64.6642C64.6179 27.4843 62.6733 25.5397 60.2286 25.5397C58.3765 25.5397 56.6541 26.6695 56.0244 28.5215C55.3484 30.5588 54.1724 33.3183 53.2186 35.1241C50.8665 32.6794 48.2458 30.5588 45.5326 28.753C46.9772 23.734 47.8847 18.8075 48.3384 13.6032L52.3203 16.4554L50.1071 23.2339C49.9219 23.7802 49.7923 24.271 49.7923 24.5488C49.7923 25.4563 50.6072 26.2249 51.598 26.2249C51.9592 26.2249 52.3203 26.0861 52.6352 25.8638L58.9229 21.2985L65.2569 25.8638C65.5254 26.0861 65.9329 26.2249 66.294 26.2249C67.2015 26.2249 68.0535 25.4564 68.0535 24.4192C68.0535 24.1507 67.9609 23.8729 67.8312 23.4654L65.5717 16.4554L71.9057 11.8901C72.3595 11.5753 72.5817 11.0752 72.5817 10.3992C72.5817 9.63062 71.9983 8.67683 70.8223 8.67683H62.9974L60.599 1.21309C60.3767 0.537091 59.6915 0.0370206 58.9229 0.0370206C58.2006 0.0370206 57.4783 0.537091 57.2468 1.21309L54.8484 8.67683H48.6533C48.6996 7.27854 48.7459 5.91725 48.7459 4.47265C48.7459 1.98165 46.7549 0 44.3102 0C41.8655 0 39.8375 1.99091 39.8375 4.47265C39.8375 8.9083 39.4301 13.0199 38.8837 16.6313C38.43 13.418 35.7167 10.9363 32.4201 10.9363C28.7993 10.9363 25.9101 13.8718 25.9101 17.4925C25.9101 20.7521 28.3085 23.4654 31.4292 23.9099C27.4473 24.1321 24.5118 26.4009 23.4284 29.8827L18.7242 41.0043L18.6779 40.958C16.9555 39.7356 15.0108 39.4671 12.8902 39.2819C13.5662 38.6059 14.3348 37.9299 15.196 37.0687L17.5944 34.7629C18.5853 33.7721 19.0853 32.5034 19.0853 31.2348C19.0853 28.4752 16.9184 26.3546 14.1126 26.3546C12.8902 26.3546 11.7142 26.8084 10.816 27.7066L3.85226 34.6703C1.81501 36.7075 1.18531 39.2356 1.18531 41.1802C1.18531 46.829 5.70431 48.8199 11.8531 49.0051C11.8531 53.7093 9.73251 59.6729 7.1026 63.7011C6.55625 64.516 6.2877 65.4606 6.2877 66.3681C6.2877 67.2756 6.50994 68.1275 6.9637 68.8591L0.138905 84.87C0.0463026 85.0923 0 85.3237 0 85.546C0 85.9997 0.185205 86.4535 0.546354 86.8147C0.861202 87.1758 1.31496 87.361 1.81501 87.361H1.82427Z" fill="#B623A7"/>
<path id="Vector_3" d="M67.9147 33.4849H71.5355C72.3041 33.4849 73.0264 32.9386 73.2579 32.2163L74.3413 28.7807L75.4711 32.2163C75.6933 32.9386 76.3786 33.4849 77.1472 33.4849H80.768L77.8788 35.6055C77.2954 36.0593 77.1102 36.5593 77.1102 36.9575C77.1102 37.2261 77.2028 37.5409 77.3787 38.0872L78.3696 41.0228L75.4341 38.9021C75.1192 38.6799 74.7118 38.541 74.3506 38.541C73.9895 38.541 73.6283 38.6799 73.3598 38.9021L70.378 41.0228L71.3318 38.0872C71.517 37.5409 71.6003 37.2261 71.6003 36.9575C71.6003 36.4575 71.3318 35.9667 70.878 35.6055L67.9425 33.4849H67.9147ZM29.4385 17.474C29.4385 15.7979 30.7905 14.4922 32.4203 14.4922C34.0501 14.4922 35.4021 15.8072 35.4021 17.474C35.4021 19.1409 34.0501 20.4095 32.4203 20.4095C30.7905 20.4095 29.4385 19.0946 29.4385 17.474ZM40.06 54.5057C39.5136 54.0519 38.9765 53.5982 38.4765 53.1537C38.8376 50.8479 39.4303 47.7272 40.2822 44.875C41.3657 41.2543 43.0881 37.0964 46.5699 37.0964C49.8666 37.0964 49.6906 41.1246 51.9964 41.1246C53.4873 41.1246 55.0708 38.9577 55.9783 37.4205C57.1081 35.4759 58.2841 32.809 59.3676 29.6883C59.5065 29.2808 59.8676 29.0585 60.2288 29.0585C60.8584 29.0585 61.2659 29.6882 61.0437 30.2346C59.8676 33.7164 58.5989 36.5223 57.3396 38.6429C55.8487 41.0413 53.9966 42.8933 52.0057 42.8933C48.5701 42.8933 48.6164 38.9577 46.3569 38.9577C44.3197 38.9577 42.7825 42.7081 41.7916 46.1437C40.9767 49.0792 40.4396 52.2925 40.0692 54.5057H40.06Z" fill="#0DC5A5"/>
<path id="Vector_4" d="M52.4961 12.2325H56.1168C56.8854 12.2325 57.6077 11.6861 57.8392 10.9639L58.9227 7.52828L60.0524 10.9639C60.2747 11.6861 60.9599 12.2325 61.7285 12.2325H65.3493L62.4601 14.3531C61.8767 14.8069 61.6915 15.3069 61.6915 15.7051C61.6915 15.9736 61.7841 16.2885 61.96 16.8349L62.9509 19.7703L60.0154 17.6498C59.7005 17.4275 59.2931 17.2886 58.9319 17.2886C58.5708 17.2886 58.2096 17.4275 57.9411 17.6498L54.9593 19.7703L55.9131 16.8349C56.0983 16.2885 56.1816 15.9736 56.1816 15.7051C56.1816 15.205 55.9131 14.7143 55.4593 14.3531L52.5239 12.2325H52.4961ZM26.5859 79.8322C26.5859 78.1561 27.9379 76.8504 29.5677 76.8504C31.1975 76.8504 32.5495 78.1654 32.5495 79.8322C32.5495 81.4991 31.1975 82.7677 29.5677 82.7677C27.9379 82.7677 26.5859 81.4528 26.5859 79.8322ZM29.5677 42.4394C29.2529 41.893 28.9843 41.3559 28.7065 40.8096C30.29 39.6335 32.281 38.0963 34.1793 36.2443C37.1148 33.3551 39.1058 30.4104 39.967 27.4286L40.2818 26.3451C41.7264 21.3723 43.4025 13.5474 43.4025 4.46315C43.4025 3.9631 43.81 3.55566 44.31 3.55566C44.7638 3.55566 45.1712 3.9631 45.1712 4.46315C45.1712 13.1863 44.2174 21.1501 42.0505 28.1138C40.8745 31.9105 39.115 33.9478 35.9017 37.4296C34.1423 39.328 31.6976 41.0504 29.5677 42.4486V42.4394Z" fill="#9E01FF"/>
<path id="Vector_5" d="M54.7096 60.7466C55.932 60.0243 57.3766 59.3946 58.8212 58.8946C57.96 60.0243 56.608 60.654 54.7096 60.7466ZM43.3196 56.811C43.9492 52.7828 44.9957 46.9118 46.3477 43.7911C47.8849 45.5506 49.6906 46.4118 51.9964 46.4118C53.6262 46.4118 55.1171 45.8654 56.3857 44.9209C57.3766 46.5044 58.1915 48.0879 58.7841 49.6714C53.265 51.0234 47.6163 53.9681 44.6808 57.6722L43.3288 56.811H43.3196ZM42.6899 34.6142C43.2362 33.753 43.727 32.9381 44.1808 32.1232L46.1717 33.6141C44.8568 33.6141 43.727 33.9753 42.6899 34.605V34.6142ZM31.4757 45.4672C33.7352 43.9763 36.3096 42.1706 38.3468 39.9481C37.8005 41.1705 37.3097 42.4762 36.9022 43.8374C36.2725 45.958 35.7725 48.2268 35.4113 50.2085C33.9667 48.6713 32.6518 47.0878 31.4757 45.458V45.4672ZM26.5956 33.077C26.5956 29.1877 28.6791 27.4746 32.2443 27.4746C33.4204 27.4746 34.6427 27.6598 35.9484 28.0209C35.0409 29.9193 33.6426 31.8176 31.698 33.716C30.2071 35.1606 28.6699 36.3829 27.3086 37.4201C26.8549 35.9292 26.5863 34.4846 26.5863 33.077H26.5956ZM21.4376 43.6985L23.836 38.0498C26.9567 48.7176 38.8006 60.478 49.2924 63.5524L43.2825 66.0805C42.2454 66.2657 40.8378 66.0805 39.2543 65.5341C35.8188 64.4044 32.0684 61.9134 28.7625 58.5705C25.4195 55.2738 22.9285 51.5142 21.7988 48.0786C21.2524 46.4951 20.8913 45.0042 21.4839 43.6429L21.4376 43.6893V43.6985ZM16.5575 66.8954C17.8261 64.6822 18.9559 62.2375 19.8171 59.7558C20.9005 61.2004 22.1229 62.6079 23.4378 63.9136C26.1974 66.6732 29.2718 69.0253 32.3925 70.6921L25.651 73.5443L24.9287 73.322C22.8452 72.5997 20.456 71.0162 18.3725 68.979C17.7428 68.3493 17.1038 67.627 16.5667 66.8954H16.5575ZM16.6501 77.3409L5.12109 82.2211L9.87159 71.0533L10.3716 71.1921C11.1865 72.2293 12.094 73.2757 13.0849 74.2665C14.2146 75.3963 15.437 76.4334 16.6593 77.3409H16.6501Z" fill="#FA48E8"/>
<path id="Vector_6" d="M78.3138 9.42649C78.3138 7.75039 79.6658 6.44466 81.2956 6.44466C82.9254 6.44466 84.2774 7.75965 84.2774 9.42649C84.2774 11.0933 82.9254 12.362 81.2956 12.362C79.6658 12.362 78.3138 11.047 78.3138 9.42649ZM74.7857 9.42649C74.7857 13.0009 77.6748 15.9364 81.2956 15.9364C84.9163 15.9364 87.8055 13.0009 87.8055 9.42649C87.8055 5.85204 84.9163 2.87023 81.2956 2.87023C77.6748 2.87023 74.7857 5.80574 74.7857 9.42649ZM67.9146 33.4846H71.5353C72.3039 33.4846 73.0262 32.9382 73.2577 32.2159L74.3412 28.7803L75.4709 32.2159C75.6932 32.9382 76.3784 33.4846 77.147 33.4846H80.7678L77.8786 35.6051C77.2952 36.0589 77.11 36.559 77.11 36.9571C77.11 37.2257 77.2026 37.5405 77.3785 38.0869L78.3694 41.0224L75.4339 38.9018C75.119 38.6795 74.7116 38.5407 74.3504 38.5407C73.9893 38.5407 73.6281 38.6795 73.3596 38.9018L70.3778 41.0224L71.3316 38.0869C71.5168 37.5405 71.6001 37.2257 71.6001 36.9571C71.6001 36.4571 71.3316 35.9663 70.8778 35.6051L67.9423 33.4846H67.9146ZM62.8029 73.2758H66.4237C67.1923 73.2758 67.9146 72.7294 68.1461 72.0071L69.2295 68.5716L70.3593 72.0071C70.5815 72.7294 71.2668 73.2758 72.0354 73.2758H75.6561L72.7669 75.3964C72.1835 75.8501 71.9983 76.3502 71.9983 76.7483C71.9983 77.0169 72.0909 77.3318 72.2669 77.8781L73.2577 80.8136L70.3222 78.693C70.0074 78.4708 69.5999 78.3319 69.2388 78.3319C68.8776 78.3319 68.5165 78.4708 68.2479 78.693L65.2661 80.8136L66.2199 77.8781C66.4051 77.3318 66.4885 77.0169 66.4885 76.7483C66.4885 76.2483 66.2199 75.7575 65.7662 75.3964L62.8307 73.2758H62.8029ZM55.5707 71.5163C55.5707 72.0627 55.8392 72.5998 56.293 72.9146L62.627 77.4799L60.4138 84.2584C60.2286 84.8048 60.0989 85.2956 60.0989 85.5734C60.0989 86.4809 60.9138 87.2495 61.9047 87.2495C62.2658 87.2495 62.627 87.1105 62.9418 86.8883L69.2295 82.323L75.5635 86.8883C75.8321 87.1105 76.2395 87.2495 76.6007 87.2495C77.5082 87.2495 78.3601 86.4809 78.3601 85.4437C78.3601 85.1752 78.2675 84.8974 78.1379 84.4899L75.8784 77.4799L82.2124 72.9146C82.6661 72.5998 82.8883 72.0997 82.8883 71.4237C82.8883 70.6551 82.305 69.7013 81.1289 69.7013H73.304L70.9056 62.2376C70.6834 61.5616 69.9981 61.0615 69.2295 61.0615C68.5072 61.0615 67.7849 61.5616 67.5534 62.2376L65.155 69.7013H57.3301C56.2467 69.7013 55.5707 70.5625 55.5707 71.5071V71.5163ZM54.7095 60.756C55.9318 60.0337 57.3764 59.404 58.821 58.9039C57.9598 60.0337 56.6078 60.6634 54.7095 60.756ZM52.4963 12.2416H56.117C56.8856 12.2416 57.6079 11.6952 57.8394 10.9729L58.9229 7.53736L60.0526 10.9729C60.2749 11.6952 60.9601 12.2416 61.7287 12.2416H65.3495L62.4603 14.3622C61.8769 14.8159 61.6917 15.316 61.6917 15.7142C61.6917 15.9827 61.7843 16.2975 61.9602 16.8439L62.9511 19.7794L60.0156 17.6588C59.7007 17.4365 59.2933 17.2977 58.9321 17.2977C58.571 17.2977 58.2098 17.4365 57.9413 17.6588L54.9595 19.7794L55.9133 16.8439C56.0985 16.2975 56.1818 15.9827 56.1818 15.7142C56.1818 15.2141 55.9133 14.7233 55.4595 14.3622L52.524 12.2416H52.4963ZM47.9773 59.2651C51.7277 55.2369 59.7378 52.3476 65.5254 52.3476C71.3131 52.3476 77.3693 55.6906 80.1751 58.4502C80.5826 58.8576 80.6752 59.0798 80.6752 59.3577C80.6752 59.8114 80.314 60.2188 79.7677 60.2188C79.5454 60.2188 79.3139 60.1263 78.7768 59.5892C76.4247 57.1908 70.776 54.1627 65.5254 54.1627C60.2749 54.1627 53.2278 56.737 49.7923 59.9503C49.2089 59.7651 48.5699 59.5428 47.9865 59.2743L47.9773 59.2651ZM44.764 73.9611C44.764 72.285 46.116 70.9792 47.7458 70.9792C49.3756 70.9792 50.7276 72.2942 50.7276 73.9611C50.7276 75.6279 49.3756 76.8965 47.7458 76.8965C46.116 76.8965 44.764 75.5816 44.764 73.9611ZM43.3194 56.8204C43.9491 52.7922 44.9955 46.9212 46.3475 43.8005C47.8847 45.5599 49.6904 46.4211 51.9962 46.4211C53.626 46.4211 55.1169 45.8747 56.3856 44.9302C57.3764 46.5137 58.1913 48.0972 58.784 49.6807C53.2649 51.0327 47.6161 53.9775 44.6806 57.6816C44.2269 57.413 43.7731 57.1352 43.3286 56.8204H43.3194ZM42.6897 34.6235C43.236 33.7623 43.7268 32.9474 44.1806 32.1325C44.8566 32.6326 45.4955 33.1234 46.1715 33.6235C44.8566 33.6235 43.7268 33.9846 42.6897 34.6143V34.6235ZM38.4855 53.1626C38.8467 50.8568 39.4393 47.7361 40.2913 44.8839C41.3747 41.2631 43.0971 37.1053 46.579 37.1053C49.8756 37.1053 49.6997 41.1335 52.0055 41.1335C53.4964 41.1335 55.0799 38.9666 55.9874 37.4294C57.1171 35.4848 58.2932 32.8178 59.3766 29.6971C59.5155 29.2896 59.8767 29.0674 60.2378 29.0674C60.8675 29.0674 61.275 29.6971 61.0527 30.2435C59.8767 33.7253 58.608 36.5312 57.3486 38.6518C55.8577 41.0502 54.0057 42.9022 52.0147 42.9022C48.5792 42.9022 48.6255 38.9666 46.366 38.9666C44.3287 38.9666 42.7915 42.717 41.8007 46.1525C40.9858 49.088 40.4487 52.255 40.0783 54.4682C39.6245 54.1071 39.1245 53.6996 38.68 53.3385L38.4948 53.1533L38.4855 53.1626ZM33.1979 23.9558C35.3185 23.7336 37.1335 22.4186 38.1244 20.6592C37.8095 22.1501 37.4484 23.5113 37.0872 24.6873C35.7723 24.3262 34.4666 24.0576 33.1979 23.965V23.9558ZM31.4755 45.4766C33.735 43.9857 36.3094 42.1799 38.3466 39.9575C37.8003 41.1798 37.3095 42.4855 36.902 43.8468C36.2723 45.9674 35.7723 48.2361 35.4111 50.2178C33.9665 48.6806 32.6516 47.0971 31.4755 45.4673V45.4766ZM29.4383 17.4921C29.4383 15.816 30.7903 14.5103 32.4201 14.5103C34.0499 14.5103 35.4019 15.8253 35.4019 17.4921C35.4019 19.159 34.0499 20.4276 32.4201 20.4276C30.7903 20.4276 29.4383 19.1127 29.4383 17.4921ZM28.716 40.8279C30.2995 39.6519 32.2904 38.1147 34.1888 36.2626C37.1243 33.3734 39.1152 30.4287 39.9764 27.4469L40.2913 26.3634C41.7359 21.3907 43.412 13.5658 43.412 4.4815C43.412 3.98145 43.8194 3.57401 44.3195 3.57401C44.7732 3.57401 45.1807 3.98145 45.1807 4.4815C45.1807 13.2046 44.2269 21.1684 42.06 28.1321C40.8839 31.9288 39.1245 33.9661 35.9112 37.4479C34.1517 39.3463 31.707 41.0687 29.5772 42.467C29.2623 41.9206 28.9938 41.3835 28.716 40.8372V40.8279ZM26.5954 33.0956C26.5954 29.2063 28.6789 27.4932 32.2441 27.4932C33.4202 27.4932 34.6425 27.6784 35.9482 28.0395C35.0407 29.9379 33.6424 31.8363 31.6978 33.7346C30.2069 35.1792 28.6697 36.4015 27.3084 37.4387C26.8547 35.9478 26.5861 34.5032 26.5861 33.0956H26.5954ZM26.5954 79.8506C26.5954 78.1745 27.9474 76.8687 29.5772 76.8687C31.207 76.8687 32.559 78.1837 32.559 79.8506C32.559 81.5174 31.207 82.786 29.5772 82.786C27.9474 82.786 26.5954 81.4711 26.5954 79.8506ZM21.4374 43.7264L23.8358 38.0777C26.9565 48.7454 38.8004 60.5059 49.2922 63.5803L43.2823 66.1083C42.2452 66.2935 40.8376 66.1084 39.2541 65.562C35.8186 64.4323 32.0682 61.9412 28.7623 58.5983C25.4193 55.3017 22.9283 51.542 21.7986 48.1064C21.2522 46.5229 20.8911 45.0321 21.4837 43.6708L21.4374 43.7171V43.7264ZM16.5573 66.9232C17.826 64.7101 18.9557 62.2654 19.8169 59.7836C20.9003 61.2282 22.1227 62.6358 23.4377 63.9415C26.1972 66.701 29.2716 69.0531 32.3923 70.72L25.6509 73.5721L24.9285 73.3499C22.845 72.6276 20.4559 71.0441 18.3723 69.0068C17.7426 68.3771 17.1037 67.6548 16.5666 66.9232H16.5573ZM8.64906 12.2601H12.2698C13.0384 12.2601 13.7607 11.7138 13.9922 10.9915L15.0757 7.5559L16.2054 10.9915C16.4277 11.7138 17.1129 12.2601 17.8815 12.2601H21.5023L18.6131 14.3807C18.0297 14.8344 17.8445 15.3345 17.8445 15.7327C17.8445 16.0013 17.9371 16.3161 18.113 16.8624L19.1039 19.7979L16.1684 17.6773C15.8535 17.4551 15.4461 17.3162 15.0849 17.3162C14.7238 17.3162 14.3626 17.4551 14.0941 17.6773L11.1123 19.7979L12.0661 16.8624C12.2513 16.3161 12.3346 16.0013 12.3346 15.7327C12.3346 15.2327 12.0661 14.7418 11.6123 14.3807L8.67684 12.2601H8.64906ZM5.12091 82.2582L9.87141 71.0904L10.3715 71.2293C11.1864 72.2664 12.0939 73.3128 13.0847 74.3037C14.2145 75.4334 15.4368 76.4706 16.6592 77.3781L5.13017 82.2582H5.12091ZM4.71346 41.1983C4.71346 38.8462 6.34326 36.9942 9.27875 34.1421L13.2607 30.299C13.5292 30.0305 13.8441 29.8916 14.2145 29.8916C14.9368 29.8916 15.5665 30.5213 15.5665 31.2436C15.5665 31.6047 15.4276 31.9196 15.159 32.1974L9.01021 38.3925C8.24161 39.1611 7.74156 40.0686 7.74156 40.7446C7.74156 41.6984 8.51016 42.2355 10.0011 42.504C11.6772 42.8189 14.0663 42.9114 16.0109 43.5874C18.0945 44.3097 18.0945 46.8841 18.0945 49.3288C18.0945 51.7735 17.687 54.3942 16.9184 57.1074C15.8813 60.5893 14.2515 64.1637 12.4458 66.877C11.9457 67.5993 11.5846 67.7382 11.1771 67.7382C10.4085 67.7382 9.82511 67.1547 9.82511 66.3861C9.82511 66.1176 9.91771 65.8398 10.0474 65.6639C11.8531 62.9043 13.3903 59.6077 14.3441 56.3481C15.0664 53.9034 15.4276 51.5142 15.4276 49.3381C15.4276 47.4397 15.3812 45.9951 13.7977 45.671C12.2606 45.3562 9.68621 45.4858 7.69526 44.9024C5.6117 44.3561 4.71346 42.9115 4.71346 41.1983ZM1.41682 10.5006C1.41682 11.047 1.68536 11.5841 2.13912 11.899L8.47311 16.4642L6.25992 23.2427C6.07472 23.7891 5.94507 24.2799 5.94507 24.5577C5.94507 25.4652 6.75997 26.2338 7.75082 26.2338C8.11197 26.2338 8.47311 26.0949 8.78796 25.8726L15.0757 21.3073L21.4097 25.8726C21.6782 26.0949 22.0857 26.2338 22.4468 26.2338C23.3543 26.2338 24.2062 25.4652 24.2062 24.428C24.2062 24.1595 24.1136 23.8817 23.984 23.4742L21.7245 16.4642L28.0585 11.899C28.5123 11.5841 28.7345 11.0841 28.7345 10.4081C28.7345 9.63947 28.1511 8.68562 26.9751 8.68562H19.1502L16.7518 1.22188C16.5295 0.54588 15.8443 0.0458662 15.0757 0.0458662C14.3534 0.0458662 13.6311 0.54588 13.3996 1.22188L11.0012 8.68562H3.17626C2.09281 8.68562 1.41682 9.54684 1.41682 10.4914V10.5006ZM1.82427 87.3699C2.04651 87.3699 2.27802 87.3235 2.50026 87.2309L23.2062 78.4615C23.1135 78.9153 23.0672 79.369 23.0672 79.8598C23.0672 83.4343 25.9564 86.3697 29.5772 86.3697C33.1979 86.3697 36.0871 83.4343 36.0871 79.8598C36.0871 77.5077 34.8648 75.4705 33.0127 74.2944L42.3285 70.3588C41.6525 71.396 41.2451 72.6183 41.2451 73.9795C41.2451 77.554 44.1343 80.4895 47.755 80.4895C51.3758 80.4895 54.265 77.554 54.265 73.9795C54.265 70.7662 52.0055 68.0993 48.9774 67.5622L57.9783 63.7192C60.6453 62.7654 62.4973 60.6911 63.1826 57.839C63.8586 57.7464 64.4975 57.7001 65.0809 57.7001C70.1926 57.7001 74.3041 60.5059 76.2951 62.1727C77.6471 63.3025 78.6472 63.8026 79.7769 63.8026C82.2216 63.8026 84.2496 61.8579 84.2496 59.3669C84.2496 58.2372 83.7959 57.0611 82.9346 56.1999C79.138 52.4032 72.4891 48.8288 65.0717 48.8288C64.1642 48.8288 63.2196 48.8751 62.2658 49.014C61.4972 46.8008 60.4138 44.5783 59.0062 42.4114C59.5063 41.828 59.9137 41.1891 60.3212 40.5131C61.1824 39.1148 62.4047 36.7164 63.303 34.5032L67.7386 37.7165L65.5254 44.495C65.3402 45.0413 65.2106 45.5321 65.2106 45.8099C65.2106 46.7174 66.0255 47.486 67.0163 47.486C67.3775 47.486 67.7386 47.3471 68.0535 47.1249L74.3412 42.5596L80.6752 47.1249C80.9437 47.3471 81.3512 47.486 81.7123 47.486C82.6198 47.486 83.4717 46.7174 83.4717 45.6803C83.4717 45.4117 83.3792 45.1339 83.2495 44.7265L80.99 37.7165L87.324 33.1512C87.7778 32.8364 88 32.3363 88 31.6603C88 30.8917 87.4166 29.9379 86.2406 29.9379H78.4157L76.0173 22.4741C75.795 21.7981 75.1098 21.2981 74.3412 21.2981C73.6189 21.2981 72.8966 21.7981 72.6651 22.4741L70.2667 29.9379H64.6642C64.6179 27.4932 62.6733 25.5485 60.2286 25.5485C58.3765 25.5485 56.6541 26.6783 56.0244 28.5304C55.3484 30.5676 54.1724 33.3271 53.2186 35.1328C50.8665 32.6881 48.2458 30.5676 45.5326 28.7619C46.9772 23.7428 47.8847 18.8163 48.3384 13.6121L52.3203 16.4642L50.1071 23.2427C49.9219 23.7891 49.7923 24.2799 49.7923 24.5577C49.7923 25.4652 50.6072 26.2338 51.598 26.2338C51.9592 26.2338 52.3203 26.0949 52.6352 25.8726L58.9229 21.3073L65.2569 25.8726C65.5254 26.0949 65.9329 26.2338 66.294 26.2338C67.2015 26.2338 68.0535 25.4652 68.0535 24.428C68.0535 24.1595 67.9609 23.8817 67.8312 23.4742L65.5717 16.4642L71.9057 11.899C72.3595 11.5841 72.5817 11.0841 72.5817 10.4081C72.5817 9.63947 71.9983 8.68562 70.8223 8.68562H62.9974L60.599 1.22188C60.3767 0.54588 59.6915 0.0458662 58.9229 0.0458662C58.2006 0.0458662 57.4783 0.54588 57.2468 1.22188L54.8484 8.68562H48.6533C48.6996 7.28733 48.7459 5.92609 48.7459 4.4815C48.7459 1.99049 46.7549 0.00878906 44.3102 0.00878906C41.8655 0.00878906 39.8375 1.99976 39.8375 4.4815C39.8375 8.91715 39.4301 13.0287 38.8837 16.6402C38.43 13.4269 35.7167 10.9451 32.4201 10.9451C28.7993 10.9451 25.9101 13.8806 25.9101 17.5014C25.9101 20.761 28.3085 23.4742 31.4292 23.9187C27.4473 24.141 24.5118 26.4097 23.4284 29.8916L18.7242 41.0131L18.6779 40.9668C16.9555 39.7445 15.0108 39.4759 12.8902 39.2907C13.5662 38.6147 14.3348 37.9387 15.196 37.0775L17.5944 34.7717C18.5853 33.7809 19.0853 32.5122 19.0853 31.2436C19.0853 28.484 16.9184 26.3634 14.1126 26.3634C12.8902 26.3634 11.7142 26.8172 10.816 27.7154L3.85226 34.6791C1.81501 36.7164 1.18531 39.2444 1.18531 41.1891C1.18531 46.8378 5.70431 48.8288 11.8531 49.014C11.8531 53.7182 9.73251 59.6818 7.1026 63.71C6.55625 64.5249 6.2877 65.4694 6.2877 66.3769C6.2877 67.2844 6.50994 68.1364 6.9637 68.8679L0.138905 84.8789C0.0463026 85.1011 0 85.3326 0 85.5548C0 86.0086 0.185205 86.4623 0.546354 86.8235C0.861202 87.1846 1.31496 87.3699 1.81501 87.3699H1.82427Z" fill="#36147D"/>
</g>
</svg>
