<svg xmlns="http://www.w3.org/2000/svg" xmlns:xlink="http://www.w3.org/1999/xlink" width="800" zoomAndPan="magnify" viewBox="0 0 375 374.999991" height="800" preserveAspectRatio="xMidYMid meet" version="1.0"><defs><clipPath id="4816f64ad8"><path d="M 24.894531 94.066406 L 268 94.066406 L 268 342.796875 L 24.894531 342.796875 Z M 24.894531 94.066406 " clip-rule="nonzero"/></clipPath><clipPath id="73666518c8"><path d="M 260 32.328125 L 312 32.328125 L 312 84 L 260 84 Z M 260 32.328125 " clip-rule="nonzero"/></clipPath><clipPath id="d361a1e34a"><path d="M 325.003906 149.761719 L 350.382812 149.761719 L 350.382812 175.394531 L 325.003906 175.394531 Z M 325.003906 149.761719 " clip-rule="nonzero"/></clipPath></defs><g clip-path="url(#4816f64ad8)"><path fill="#51ade5" d="M 149.234375 342.796875 C 129.324219 342.796875 110.507812 338.117188 93.824219 329.800781 C 94.304688 329.664062 94.792969 329.523438 95.292969 329.386719 C 126.515625 320.742188 133.019531 306.90625 136.847656 303.664062 C 148.050781 294.175781 168.765625 292.664062 173.226562 287.441406 C 174.324219 286.15625 173.871094 282.539062 170.503906 282.539062 C 169.929688 282.539062 169.269531 282.644531 168.519531 282.886719 C 162.410156 284.835938 154.617188 286.632812 147.886719 286.632812 C 147.085938 286.632812 146.300781 286.609375 145.535156 286.558594 C 142.695312 286.359375 141.539062 282.800781 143.707031 280.960938 C 152.789062 273.257812 173.90625 260.390625 173.394531 254.019531 C 173.25 252.238281 171.582031 251.199219 169.980469 251.199219 C 169.414062 251.199219 168.855469 251.332031 168.371094 251.601562 C 156.09375 258.558594 143.554688 267.59375 136.667969 267.59375 C 134.957031 267.59375 133.597656 267.035156 132.675781 265.75 C 130.613281 262.875 148.363281 250.773438 165.46875 226.480469 C 167.230469 223.980469 164.601562 219.988281 161.566406 219.988281 C 161.121094 219.988281 160.667969 220.074219 160.222656 220.261719 C 144.472656 226.871094 122.640625 257.886719 121.28125 258.582031 C 119.945312 259.261719 118.960938 259.554688 118.246094 259.554688 C 114.546875 259.554688 118.214844 251.695312 119.089844 249.375 C 120.246094 246.3125 121.402344 243.25 122.5625 240.1875 C 124.808594 234.230469 126.808594 228.171875 129.308594 222.320312 C 134.710938 209.679688 130.183594 206.53125 126.554688 206.53125 C 125.222656 206.53125 124.015625 206.953125 123.453125 207.484375 C 116.730469 213.859375 113.726562 224.207031 110.445312 233.683594 C 107.496094 242.195312 102.382812 250.042969 97.320312 257.605469 C 94.742188 261.457031 89.429688 267.042969 84.226562 267.042969 C 82.621094 267.042969 81.023438 266.507812 79.519531 265.230469 C 78.542969 264.394531 77.777344 263.335938 77.226562 262.171875 C 72.804688 252.789062 74.625 240.789062 66.472656 233.828125 C 60.53125 228.757812 56.40625 227.335938 53.820312 227.335938 C 51.386719 227.335938 50.3125 228.597656 50.378906 229.265625 C 50.898438 234.578125 53.832031 243.398438 54.699219 248.640625 C 55.945312 256.1875 55.464844 263.929688 56.382812 271.523438 C 57.738281 282.71875 60.945312 293.015625 56.707031 301.21875 C 56.671875 301.28125 56.636719 301.351562 56.601562 301.414062 C 36.886719 279.417969 24.894531 250.359375 24.894531 218.503906 C 24.894531 149.859375 80.5625 94.210938 149.234375 94.210938 C 173.65625 94.210938 196.433594 101.25 215.648438 113.410156 C 214.117188 113.691406 212.527344 113.804688 210.894531 113.804688 C 204.855469 113.804688 198.160156 112.222656 191.113281 111.367188 C 183.515625 110.449219 175.769531 110.929688 168.21875 109.683594 C 162.976562 108.816406 154.152344 105.886719 148.839844 105.367188 C 148.820312 105.363281 148.800781 105.363281 148.78125 105.363281 C 147.351562 105.363281 143.691406 110.089844 153.402344 121.453125 C 160.367188 129.601562 172.367188 127.78125 181.757812 132.203125 C 182.921875 132.753906 183.980469 133.515625 184.816406 134.496094 C 190.242188 140.863281 182.226562 148.917969 177.191406 152.289062 C 169.625 157.347656 161.773438 162.460938 153.257812 165.40625 C 143.777344 168.691406 133.425781 171.695312 127.046875 178.414062 C 125.546875 179.996094 124.925781 186.761719 132.195312 186.757812 C 134.535156 186.757812 137.6875 186.058594 141.890625 184.265625 C 147.746094 181.765625 153.804688 179.769531 159.761719 177.519531 C 162.824219 176.363281 165.890625 175.207031 168.953125 174.050781 C 170.527344 173.457031 174.636719 171.585938 177.128906 171.585938 C 179.027344 171.585938 179.984375 172.675781 178.164062 176.242188 C 177.46875 177.601562 146.441406 199.425781 139.832031 215.167969 C 138.644531 217.996094 141.542969 220.980469 144.214844 220.980469 C 144.859375 220.980469 145.496094 220.804688 146.050781 220.414062 C 169.054688 204.226562 181.132812 187.46875 184.796875 187.46875 C 185 187.46875 185.183594 187.519531 185.335938 187.632812 C 191.800781 192.261719 179.871094 207.988281 171.183594 223.316406 C 170.140625 225.15625 171.1875 228.140625 173.601562 228.335938 C 173.675781 228.339844 173.753906 228.34375 173.832031 228.34375 C 180.277344 228.34375 192.941406 207.628906 200.554688 198.660156 C 201.210938 197.882812 202.089844 197.53125 202.953125 197.53125 C 204.507812 197.53125 206.023438 198.664062 206.148438 200.484375 C 206.652344 207.683594 204.660156 216.628906 202.476562 223.460938 C 201.269531 227.242188 203.476562 228.699219 205.335938 228.699219 C 206.007812 228.699219 206.632812 228.507812 207.035156 228.164062 C 212.261719 223.707031 213.769531 203 223.265625 191.800781 C 225.902344 188.6875 235.570312 183.800781 243.734375 165.246094 C 249.601562 172.695312 257.957031 178.09375 267.550781 180.179688 C 267.691406 180.621094 267.832031 181.0625 267.972656 181.507812 C 243.9375 187.714844 226.183594 209.53125 226.183594 235.496094 C 226.183594 256.433594 237.726562 274.671875 254.800781 284.207031 C 232.839844 319.386719 193.769531 342.796875 149.234375 342.796875 " fill-opacity="1" fill-rule="nonzero"/></g><path fill="#ec058e" d="M 281.960938 291.25 C 272.101562 291.25 262.835938 288.691406 254.800781 284.207031 C 266.699219 265.144531 273.574219 242.628906 273.574219 218.503906 C 273.574219 205.617188 271.613281 193.195312 267.972656 181.507812 C 269.003906 181.242188 270.046875 181.003906 271.101562 180.792969 C 272.851562 181.019531 274.636719 181.132812 276.445312 181.132812 C 279.902344 181.132812 283.261719 180.710938 286.472656 179.917969 C 315.167969 182.214844 337.738281 206.21875 337.738281 235.496094 C 337.738281 266.289062 312.765625 291.25 281.960938 291.25 " fill-opacity="1" fill-rule="nonzero"/><path fill="#672592" d="M 254.800781 284.207031 C 237.726562 274.671875 226.183594 256.433594 226.183594 235.496094 C 226.183594 209.53125 243.9375 187.714844 267.972656 181.507812 C 271.613281 193.195312 273.574219 205.617188 273.574219 218.503906 C 273.574219 242.628906 266.699219 265.144531 254.800781 284.207031 " fill-opacity="1" fill-rule="nonzero"/><g clip-path="url(#73666518c8)"><path fill="#99198e" d="M 285.71875 83.152344 C 271.683594 83.152344 260.308594 71.78125 260.308594 57.757812 C 260.308594 43.726562 271.683594 32.359375 285.71875 32.359375 C 299.75 32.359375 311.125 43.726562 311.125 57.757812 C 311.125 71.78125 299.75 83.152344 285.71875 83.152344 " fill-opacity="1" fill-rule="nonzero"/></g><path fill="#51ade5" d="M 318.050781 151.851562 C 317.433594 151.851562 316.820312 151.832031 316.21875 151.792969 C 317.40625 147.921875 318.050781 143.808594 318.050781 139.546875 C 318.050781 124.554688 310.109375 111.414062 298.207031 104.097656 C 303.28125 99.007812 310.296875 95.859375 318.050781 95.859375 C 333.515625 95.859375 346.058594 108.394531 346.058594 123.855469 C 346.058594 139.316406 333.515625 151.851562 318.050781 151.851562 " fill-opacity="1" fill-rule="nonzero"/><path fill="#f06f25" d="M 271.101562 180.792969 C 269.898438 180.640625 268.714844 180.4375 267.550781 180.179688 C 263.550781 167.839844 257.671875 156.339844 250.253906 146.023438 C 249.832031 147.347656 249.414062 148.753906 248.996094 150.261719 C 247.386719 156.0625 245.601562 161.011719 243.734375 165.246094 C 238.167969 158.171875 234.84375 149.25 234.84375 139.546875 C 234.84375 116.578125 253.46875 97.960938 276.445312 97.960938 C 284.425781 97.960938 291.878906 100.203125 298.207031 104.097656 C 293.160156 109.160156 290.042969 116.144531 290.042969 123.855469 C 290.042969 138.703125 301.601562 150.847656 316.21875 151.792969 C 311.953125 165.644531 300.644531 176.414062 286.472656 179.917969 C 284.984375 179.800781 283.480469 179.738281 281.960938 179.738281 C 278.246094 179.738281 274.613281 180.101562 271.101562 180.792969 " fill-opacity="1" fill-rule="nonzero"/><path fill="#615d3f" d="M 267.550781 180.179688 C 257.957031 178.09375 249.601562 172.695312 243.734375 165.246094 C 245.601562 161.011719 247.386719 156.0625 248.996094 150.261719 C 249.414062 148.753906 249.832031 147.347656 250.253906 146.023438 C 257.671875 156.339844 263.550781 167.839844 267.550781 180.179688 " fill-opacity="1" fill-rule="nonzero"/><path fill="#e91c2d" d="M 276.445312 181.132812 C 274.636719 181.132812 272.851562 181.019531 271.101562 180.792969 C 274.613281 180.101562 278.246094 179.738281 281.960938 179.738281 C 283.480469 179.738281 284.984375 179.800781 286.472656 179.917969 C 283.261719 180.710938 279.902344 181.132812 276.445312 181.132812 " fill-opacity="1" fill-rule="nonzero"/><path fill="#615d3f" d="M 316.21875 151.792969 C 301.601562 150.847656 290.042969 138.703125 290.042969 123.855469 C 290.042969 116.144531 293.160156 109.160156 298.207031 104.097656 C 310.109375 111.414062 318.050781 124.554688 318.050781 139.546875 C 318.050781 143.808594 317.40625 147.921875 316.21875 151.792969 " fill-opacity="1" fill-rule="nonzero"/><g clip-path="url(#d361a1e34a)"><path fill="#ec058e" d="M 337.738281 175.1875 C 330.753906 175.1875 325.089844 169.527344 325.089844 162.546875 C 325.089844 155.566406 330.753906 149.90625 337.738281 149.90625 C 344.722656 149.90625 350.382812 155.566406 350.382812 162.546875 C 350.382812 169.527344 344.722656 175.1875 337.738281 175.1875 " fill-opacity="1" fill-rule="nonzero"/></g><path fill="#f276ae" d="M 233.75 93.070312 C 223.996094 93.070312 216.085938 85.164062 216.085938 75.414062 C 216.085938 65.660156 223.996094 57.757812 233.75 57.757812 C 243.503906 57.757812 251.414062 65.660156 251.414062 75.414062 C 251.414062 85.164062 243.503906 93.070312 233.75 93.070312 " fill-opacity="1" fill-rule="nonzero"/></svg>